<?xml version="1.0" encoding="utf-8"?>
<!-- Generator: Adobe Illustrator 18.1.0, SVG Export Plug-In . SVG Version: 6.00 Build 0)  -->
<svg version="1.1" id="Layer_1" xmlns="http://www.w3.org/2000/svg" xmlns:xlink="http://www.w3.org/1999/xlink" x="0px" y="0px"
	 viewBox="0 0 194.6 194.6" enable-background="new 0 0 194.6 194.6" xml:space="preserve">
<g>
	<circle fill="#4D6781" cx="97.3" cy="97.5" r="96.1"/>
	<g>
		<defs>
			<circle id="SVGID_1_" cx="97.3" cy="97.3" r="96.1"/>
		</defs>
		<clipPath id="SVGID_2_">
			<use xlink:href="#SVGID_1_"  overflow="visible"/>
		</clipPath>
		<g clip-path="url(#SVGID_2_)">
			<path fill-rule="evenodd" clip-rule="evenodd" fill="#2C3E50" d="M35.8,230.5h123.1c5.1,0,9.3-4.2,9.3-9.3V57.6
				c0-5.1-4.2-9.3-9.3-9.3h-19.9h-11.9H67.6H57.2H35.8c-5.1,0-9.3,4.2-9.3,9.3v163.6C26.5,226.3,30.6,230.5,35.8,230.5z"/>
			<path fill-rule="evenodd" clip-rule="evenodd" fill="#EDF0F1" d="M153.3,61.5v155.8h-112V61.5C78.6,61.5,116,61.5,153.3,61.5z"/>
			<path fill-rule="evenodd" clip-rule="evenodd" fill="#EDF0F1" d="M506.4,426.5v155.8h-112V426.5
				C431.7,426.5,469.1,426.5,506.4,426.5z"/>
			<rect x="41.3" y="61.5" fill-rule="evenodd" clip-rule="evenodd" fill="#DBE1E6" width="56" height="155.8"/>
			<path fill-rule="evenodd" clip-rule="evenodd" fill="#676767" d="M70.6,74.6V48.3H124v26.4H70.6L70.6,74.6z M117.9,69.4
				c0-5.8,0-10.2,0-16c-13.7,0-27.4,0-41.2,0c0,5.8,0,10.2,0,16C90.4,69.4,104.2,69.4,117.9,69.4z"/>
			<path fill-rule="evenodd" clip-rule="evenodd" fill="#D35C5D" d="M58.5,99.8L58.5,99.8c2.2,0,4,1.8,4,4l0,0c0,2.2-1.8,4-4,4l0,0
				c-2.2,0-4-1.8-4-4l0,0C54.5,101.6,56.3,99.8,58.5,99.8z"/>
			<path fill-rule="evenodd" clip-rule="evenodd" fill="#FCB415" d="M58.5,121.2L58.5,121.2c2.2,0,4,1.8,4,4l0,0c0,2.2-1.8,4-4,4
				l0,0c-2.2,0-4-1.8-4-4l0,0C54.5,123,56.3,121.2,58.5,121.2z"/>
			<path fill-rule="evenodd" clip-rule="evenodd" fill="#0F77A1" d="M58.5,144.1L58.5,144.1c2.2,0,4,1.8,4,4l0,0c0,2.2-1.8,4-4,4
				l0,0c-2.2,0-4-1.8-4-4l0,0C54.5,145.9,56.3,144.1,58.5,144.1z"/>
			<rect x="70.6" y="101.8" fill-rule="evenodd" clip-rule="evenodd" fill="#2D3F50" width="62" height="4"/>
			<rect x="70.6" y="123.2" fill-rule="evenodd" clip-rule="evenodd" fill="#2D3F50" width="67" height="4"/>
			<rect x="70.6" y="146.1" fill-rule="evenodd" clip-rule="evenodd" fill="#2D3F50" width="52.8" height="4"/>
			<path fill-rule="evenodd" clip-rule="evenodd" fill="#989898" d="M70.6,61.5V48.3H124v13.2h-6.1v-8c-13.7,0-27.4,0-41.2,0v8H70.6
				z"/>
		</g>
		<use xlink:href="#SVGID_1_"  overflow="visible" fill="none" stroke="#FFFFFF" stroke-miterlimit="10"/>
	</g>
</g>
</svg>
