<?xml version="1.0" encoding="utf-8"?>
<!-- Generator: Adobe Illustrator 18.1.0, SVG Export Plug-In . SVG Version: 6.00 Build 0)  -->
<!DOCTYPE svg PUBLIC "-//W3C//DTD SVG 1.1//EN" "http://www.w3.org/Graphics/SVG/1.1/DTD/svg11.dtd">
<svg version="1.1" id="Layer_1" xmlns="http://www.w3.org/2000/svg" xmlns:xlink="http://www.w3.org/1999/xlink" x="0px" y="0px"
	 viewBox="0 0 219.5 217.5" enable-background="new 0 0 219.5 217.5" xml:space="preserve">
<g>
	<path fill="#EBEDEE" d="M-147.3,225.1c0,58-47,105-105,105c-58,0-105-47-105-105c0-58,47-105,105-105
		C-194.3,120.1-147.3,167.1-147.3,225.1"/>
	<g>
		<defs>
			<path id="SVGID_1_" d="M-357.3,225.1c0,58,47,105,105,105s105-47,105-105c0-58-47-105-105-105S-357.3,167.1-357.3,225.1"/>
		</defs>
		<clipPath id="SVGID_2_">
			<use xlink:href="#SVGID_1_"  overflow="visible"/>
		</clipPath>
		<rect x="-183.5" y="224.2" clip-path="url(#SVGID_2_)" fill="#ECF0F1" width="89.9" height="132.6"/>
		<rect x="-138.5" y="224.2" clip-path="url(#SVGID_2_)" fill="#BDC3C7" width="45" height="132.6"/>
		<rect x="-199.1" y="224.2" clip-path="url(#SVGID_2_)" fill="#34495E" width="121.2" height="15.2"/>
		<rect x="-138.5" y="224.2" clip-path="url(#SVGID_2_)" fill="#2C3E50" width="60.6" height="15.2"/>
		<rect x="-176.4" y="293.9" clip-path="url(#SVGID_2_)" fill="#ECF0F1" width="75.8" height="10.7"/>
		<rect x="-138.5" y="293.9" clip-path="url(#SVGID_2_)" fill="#D0D2D3" width="37.9" height="10.7"/>
		<rect x="-175.5" y="256.5" clip-path="url(#SVGID_2_)" fill="#34495E" width="19.8" height="26.4"/>
		<rect x="-168.6" y="304.5" clip-path="url(#SVGID_2_)" fill="#56BFE3" width="60.1" height="52.3"/>
		<rect x="-138.5" y="304.5" clip-path="url(#SVGID_2_)" fill="#0B76A0" width="30" height="52.3"/>
		<rect x="-148.4" y="256.5" clip-path="url(#SVGID_2_)" fill="#34495E" width="19.8" height="26.4"/>
		<rect x="-138.5" y="256.5" clip-path="url(#SVGID_2_)" fill="#2C3E50" width="9.9" height="26.4"/>
		<rect x="-121.4" y="256.5" clip-path="url(#SVGID_2_)" fill="#2C3E50" width="19.8" height="26.4"/>
		<rect x="-318.6" y="179.3" clip-path="url(#SVGID_2_)" fill="#FFFFFF" width="134.9" height="177.6"/>
		<rect x="-251.1" y="179.3" clip-path="url(#SVGID_2_)" fill="#ECF0F1" width="67.4" height="177.6"/>
		<rect x="-328.8" y="164" clip-path="url(#SVGID_2_)" fill="#34495E" width="155.5" height="15.2"/>
		<rect x="-251.1" y="164" clip-path="url(#SVGID_2_)" fill="#2C3E50" width="77.7" height="15.2"/>
		<rect x="-303.7" y="199.6" clip-path="url(#SVGID_2_)" fill="#34495E" width="19.8" height="26.4"/>
		<rect x="-275.8" y="199.6" clip-path="url(#SVGID_2_)" fill="#34495E" width="19.8" height="26.4"/>
		<rect x="-247.9" y="199.6" clip-path="url(#SVGID_2_)" fill="#2C3E50" width="19.8" height="26.4"/>
		<rect x="-220.1" y="199.6" clip-path="url(#SVGID_2_)" fill="#2C3E50" width="19.8" height="26.4"/>
		<rect x="-303.7" y="231.9" clip-path="url(#SVGID_2_)" fill="#34495E" width="19.8" height="26.4"/>
		<rect x="-275.8" y="231.9" clip-path="url(#SVGID_2_)" fill="#34495E" width="19.8" height="26.4"/>
		<rect x="-247.9" y="231.9" clip-path="url(#SVGID_2_)" fill="#2C3E50" width="19.8" height="26.4"/>
		<rect x="-220.1" y="231.9" clip-path="url(#SVGID_2_)" fill="#2C3E50" width="19.8" height="26.4"/>
		<rect x="-303.7" y="264.1" clip-path="url(#SVGID_2_)" fill="#34495E" width="19.8" height="26.4"/>
		<rect x="-275.8" y="264.1" clip-path="url(#SVGID_2_)" fill="#34495E" width="19.8" height="26.4"/>
		<rect x="-247.9" y="264.1" clip-path="url(#SVGID_2_)" fill="#2C3E50" width="19.8" height="26.4"/>
		<rect x="-220.1" y="264.1" clip-path="url(#SVGID_2_)" fill="#2C3E50" width="19.8" height="26.4"/>
		<path clip-path="url(#SVGID_2_)" fill="#56BFE3" d="M-225.5,171.7c0,14.2-11.5,25.7-25.7,25.7c-14.2,0-25.7-11.5-25.7-25.7
			c0-14.2,11.5-25.7,25.7-25.7C-237,146-225.5,157.5-225.5,171.7"/>
		<path clip-path="url(#SVGID_2_)" fill="#0B76A0" d="M-251.1,146v51.3c14.2,0,25.7-11.5,25.7-25.7C-225.5,157.5-237,146-251.1,146"
			/>
		<path clip-path="url(#SVGID_2_)" fill="#FFFFFF" d="M-253.7,190.5c-1.9,0-3.4-1.5-3.4-3.4v-30.8c0-1.9,1.5-3.4,3.4-3.4h5.1
			c1.9,0,3.4,1.5,3.4,3.4v30.8c0,1.9-1.5,3.4-3.4,3.4H-253.7z"/>
		<path clip-path="url(#SVGID_2_)" fill="#D0D2D3" d="M-251.1,152.8v37.7h2.6c1.9,0,3.4-1.5,3.4-3.4v-30.8c0-1.9-1.5-3.4-3.4-3.4
			H-251.1z"/>
		<path clip-path="url(#SVGID_2_)" fill="#FFFFFF" d="M-270,169.1c0-1.9,1.5-3.4,3.4-3.4h30.8c1.9,0,3.4,1.5,3.4,3.4v5.1
			c0,1.9-1.5,3.4-3.4,3.4h-30.8c-1.9,0-3.4-1.5-3.4-3.4V169.1z"/>
		<path clip-path="url(#SVGID_2_)" fill="#D0D2D3" d="M-251.1,165.7v12h15.4c1.9,0,3.4-1.5,3.4-3.4v-5.1c0-1.9-1.5-3.4-3.4-3.4
			H-251.1z"/>
		<rect x="-292.1" y="348.2" clip-path="url(#SVGID_2_)" fill="#34495E" width="82" height="8.6"/>
		<rect x="-251.1" y="348.2" clip-path="url(#SVGID_2_)" fill="#2C3E50" width="41" height="8.6"/>
		<rect x="-286.2" y="339.6" clip-path="url(#SVGID_2_)" fill="#34495E" width="70.2" height="8.6"/>
		<rect x="-251.1" y="339.6" clip-path="url(#SVGID_2_)" fill="#2C3E50" width="35.1" height="8.6"/>
		<rect x="-284.3" y="299.2" clip-path="url(#SVGID_2_)" fill="#56BFE3" width="66.4" height="40.4"/>
		<rect x="-251.1" y="299.2" clip-path="url(#SVGID_2_)" fill="#0B76A0" width="33.2" height="40.4"/>
	</g>
</g>
<g>
	<g>
		<defs>
			<path id="SVGID_3_" d="M4.8,108.8c0,58,47,105,105,105s105-47,105-105c0-58-47-105-105-105S4.8,50.8,4.8,108.8"/>
		</defs>
		<clipPath id="SVGID_4_">
			<use xlink:href="#SVGID_3_"  overflow="visible"/>
		</clipPath>
		<path clip-path="url(#SVGID_4_)" fill="#EBEDEE" d="M1.6,112.5C1.6,51.9,50.7,2.8,111.3,2.8C171.9,2.8,221,51.9,221,112.5
			c0,60.6-49.1,109.7-109.7,109.7C50.7,222.2,1.6,173.1,1.6,112.5"/>
		<path clip-path="url(#SVGID_4_)" fill-rule="evenodd" clip-rule="evenodd" fill="#E3CCA4" d="M87.1,88.7h47.7l5.1,54.2
			c0.4,3.8,3.6,6.7,7.7,6.8l0.9,0l-6,20.3l-63.3-4.9l-4.7-15.3l1.7-0.3c3.7-0.5,6.4-3.3,6.7-6.8L87.1,88.7z"/>
		<path clip-path="url(#SVGID_4_)" fill-rule="evenodd" clip-rule="evenodd" fill="#D4C5A3" d="M111.3,167.6l-32.2-2.5l-4.7-15.3
			l1.7-0.3c3.7-0.5,6.4-3.3,6.7-6.8l3-38.3h25.4V167.6z"/>
		<path clip-path="url(#SVGID_4_)" fill-rule="evenodd" clip-rule="evenodd" fill="#CCBC97" d="M87.1,88.7h47.7l3.8,41
			c-0.9,1.4-1.5,2.3-2.4,3.6c-7,9.6-16,16.1-24.8,16.1c-8.7,0-17.8-6.5-24.8-16.1c-1.1-1.5-1.8-2.5-2.8-4.2L87.1,88.7z"/>
		<path clip-path="url(#SVGID_4_)" fill-rule="evenodd" clip-rule="evenodd" fill="#2C3E50" d="M111.3,135.1
			c-11.1,0-22.3-7.2-30.6-17.8C72.5,106.9,67,93.1,67,79.7v-0.3l0-0.1c0-0.9-0.1-1.8-0.1-2.7c0-32.1-5.9-58,44.3-58
			c50.2,0,44.3,26,44.3,58c0,0.9,0,1.8-0.1,2.7l0,0.2v0.3c0,13.4-5.5,27.2-13.7,37.6C133.6,127.9,122.5,135.1,111.3,135.1"/>
		<path clip-path="url(#SVGID_4_)" fill-rule="evenodd" clip-rule="evenodd" fill="#EBECEC" d="M119,160.9h-15l-21.5-16.6l-8.3,5.4
			c-26.5,5.5-46.7,17.1-46.7,35.1v26.4c0,7.2,6.2,13,13.9,13h25.8h35h18.7h30.5h29.8c7.6,0,13.9-5.8,13.9-13l0-26.4
			c0-17.9-20.3-29.6-46.8-35.1l-8.1-5.2L119,160.9z"/>
		<polygon clip-path="url(#SVGID_4_)" fill-rule="evenodd" clip-rule="evenodd" fill="#DAE1E6" points="119,160.9 104.1,160.9 
			82.5,144.4 74.3,149.8 117.3,194.3 120.9,224.2 122.8,224.2 118.4,182.8 151.2,150.4 148.3,149.7 140.2,144.6 		"/>
		<path clip-path="url(#SVGID_4_)" fill-rule="evenodd" clip-rule="evenodd" fill="#FFE7BD" d="M81.7,123.3
			c8.3,10.6,19.2,17.8,29.6,17.8c10.5,0,21.3-7.2,29.6-17.8c8.6-10.9,14.4-25.3,14.5-39.2l-2.9-11c-1-3.9-1.1-7.6-1.2-11.1
			c-0.1-4.6-0.2-8.8-2.9-12.3c-4.3-5.6-11.2-3.8-19.2-1.6c-5.5,1.5-11.4,3-17.9,3c-6.5,0-12.4-1.6-17.8-3h0
			c-8-2.1-14.8-3.9-19.2,1.6c-2.7,3.5-2.8,7.7-2.9,12.3c-0.1,3.5-0.2,7.2-1.2,11.1l-2.9,11C67.4,98,73.2,112.4,81.7,123.3"/>
		<path clip-path="url(#SVGID_4_)" fill-rule="evenodd" clip-rule="evenodd" fill="#E8D6AC" d="M81.7,123.3
			c8.3,10.6,19.2,17.8,29.6,17.8V51c-6.5,0-12.4-1.6-17.8-3h0c-8-2.1-14.8-3.9-19.2,1.6c-2.7,3.5-2.8,7.7-2.9,12.3
			c-0.1,3.5-0.2,7.2-1.2,11.1l-2.9,11C67.4,98,73.2,112.4,81.7,123.3"/>
		<path clip-path="url(#SVGID_4_)" fill-rule="evenodd" clip-rule="evenodd" fill="#3D566E" d="M102.2,224.2h18.7
			c-2-16.6-4-29.6-6-46.2c-0.1-0.9,0.1-1.6,0.6-2.5l5-12.3c0.3-0.5,0.4-1.1,0.1-1.6c-0.3-0.5-0.9-0.8-1.5-0.8h-15
			c-0.6,0-1.2,0.3-1.5,0.8c-0.3,0.5-0.3,1.1,0,1.6l5,12.3c0.5,0.8,0.7,1.6,0.6,2.5C106.3,194.7,104.2,207.7,102.2,224.2"/>
		<path clip-path="url(#SVGID_4_)" fill-rule="evenodd" clip-rule="evenodd" fill="#2C3E50" d="M114.9,178.1
			c-0.1-0.9,0.1-1.6,0.6-2.5l5-12.3c0.3-0.5,0.4-1.1,0.1-1.6c-0.3-0.5-0.9-0.8-1.5-0.8h-14.9c-0.6,0-1.2,0.3-1.5,0.8
			c-0.3,0.5-0.2,1.1,0,1.6l5,12.3c0.5,0.8,0.7,1.6,0.6,2.5l-0.8,6.2l9,7.7L114.9,178.1z"/>
		<polygon clip-path="url(#SVGID_4_)" fill-rule="evenodd" clip-rule="evenodd" fill="#EBECEC" points="111.6,160.9 82.5,144.4 
			74.3,149.8 102.8,176.9 		"/>
		<polygon clip-path="url(#SVGID_4_)" fill-rule="evenodd" clip-rule="evenodd" fill="#EBECEC" points="111.6,160.9 140.2,144.6 
			148.5,149.7 120.4,176.9 		"/>
		<path clip-path="url(#SVGID_4_)" fill-rule="evenodd" clip-rule="evenodd" fill="#FFFFFF" d="M27.6,184.8v26.4
			c0,7.2,6.2,13,13.9,13h67.4l-5.5-9.7c-13.2-24-20.9-34.3-29.1-64.7C47.8,155.2,27.6,166.9,27.6,184.8 M113.7,224.2h67.5
			c7.6,0,13.9-5.8,13.9-13l0-26.4c0-17.9-20.3-29.6-46.8-35.1c-8.2,30.1-15.8,40.5-28.7,64L113.7,224.2z"/>
		<path clip-path="url(#SVGID_4_)" fill-rule="evenodd" clip-rule="evenodd" fill="#CCCCCC" d="M160.1,220c7.1,0,13-5.8,13-13
			c0-7.1-5.8-13-13-13c-7.1,0-13,5.8-13,13C147.1,214.2,153,220,160.1,220"/>
		<path clip-path="url(#SVGID_4_)" fill-rule="evenodd" clip-rule="evenodd" fill="#B3B3B3" d="M172.7,210.1
			c-1.1,4.7-4.8,8.3-9.5,9.5l-7.8-7.8l9.5-9.5L172.7,210.1z"/>
		<path clip-path="url(#SVGID_4_)" fill-rule="evenodd" clip-rule="evenodd" fill="#2C3E50" d="M63.1,156.6c0-8.2,8.4-14,20.1-17.4
			l-0.3,3.5c-0.1,0.7-0.2,1.3-0.4,1.9c-8.5,2.6-14.2,6.6-14.2,12H63.1z M139.5,139.1c23.3,6.9,23.8,26.8,23.8,47.8l0,23.7l-5.2-0.7
			l0-11.5l0-11.4c0-16.5,0.3-36.2-17.9-42.2c-0.2-0.6-0.4-1.2-0.4-1.8L139.5,139.1z M92.5,187c0,1.9,0,0.9,0,2.6
			c0,14.6-1.3,22.3-12.8,28.2l-2-4.9c8.5-4.9,9.6-11.4,9.7-23.1c0-1.7,0-0.8,0-2.7H92.5z M44.1,190c0.1,11.5,1.3,18,9.7,22.8l-2,4.9
			c-11.4-5.8-12.8-13.5-12.8-27.7c0-1.8,0-1,0-3.1h5.2C44.1,187,44.1,189.8,44.1,190"/>
		<path clip-path="url(#SVGID_4_)" fill-rule="evenodd" clip-rule="evenodd" fill="#CCCCCC" d="M37.1,185c0-3.9,0.8-7.5,2.2-10.9
			c1.4-3.5,3.6-6.6,6.2-9.3v0c2.6-2.6,5.8-4.8,9.3-6.2h0c2.6-1.1,5.4-1.8,8.3-2.1h5.2c2.9,0.3,5.7,1,8.3,2.1h0
			c3.5,1.5,6.6,3.6,9.3,6.2c2.6,2.6,4.7,5.8,6.2,9.3v0c1.4,3.4,2.2,7.1,2.2,10.9v2h-1.7h-5.2h-1.9v-2c0-0.7,0-1.4-0.1-2.1
			c-0.2-1.9-0.7-3.7-1.4-5.4c-1-2.4-2.5-4.6-4.3-6.4v0c-1.8-1.8-4-3.3-6.4-4.3h0c-0.2-0.1-0.3-0.1-0.5-0.2c-2.2-0.8-4.6-1.3-7-1.3
			c-2.7,0-5.2,0.5-7.6,1.5c-2.4,1-4.6,2.5-6.4,4.3v0c-1.8,1.8-3.3,4-4.3,6.4c-1,2.3-1.5,4.9-1.5,7.5v2h-1.8h-5.2h-1.8V185z"/>
		<path clip-path="url(#SVGID_4_)" fill-rule="evenodd" clip-rule="evenodd" fill="#DAE1E6" d="M160.1,213.7c3.7,0,6.7-3,6.7-6.7
			s-3-6.7-6.7-6.7c-3.7,0-6.7,3-6.7,6.7S156.4,213.7,160.1,213.7"/>
		<path clip-path="url(#SVGID_4_)" fill-rule="evenodd" clip-rule="evenodd" fill="#CCCCCC" d="M79.7,217.8c0.2,1.7-0.8,3.4-2.5,3.9
			l-3.1,0.9c-4.9,1.5-7.6-8.1-2.8-9.5l3.1-0.9c1.2-0.4,2.4,0,3.3,0.7L79.7,217.8z"/>
	</g>
</g>
</svg>
