<?xml version="1.0" encoding="utf-8"?>
<!-- Generator: Adobe Illustrator 18.1.0, SVG Export Plug-In . SVG Version: 6.00 Build 0)  -->
<svg version="1.1" id="Layer_1" xmlns="http://www.w3.org/2000/svg" xmlns:xlink="http://www.w3.org/1999/xlink" x="0px" y="0px"
	 viewBox="0 0 259.7 259.7" enable-background="new 0 0 259.7 259.7" xml:space="preserve">
<g>
	<g>
		<circle fill-rule="evenodd" clip-rule="evenodd" fill="#BDC3C7" cx="-8.6" cy="415.4" r="121.6"/>
		<g>
			<defs>
				<circle id="SVGID_1_" cx="-8.6" cy="415.4" r="121.6"/>
			</defs>
			<clipPath id="SVGID_2_">
				<use xlink:href="#SVGID_1_"  overflow="visible"/>
			</clipPath>
			<g clip-path="url(#SVGID_2_)">
				<rect x="-60.4" y="489.2" fill="#ECF0F1" width="51.5" height="56.2"/>
				<path fill="#BDC3C7" d="M77.7,489.2c0,12.9-10.5,23.4-23.4,23.4h-178c-12.9,0-23.4-10.5-23.4-23.4V388.5
					c0-12.9,10.5-23.4,23.4-23.4h178c12.9,0,23.4,10.5,23.4,23.4V489.2z"/>
				<path fill="#EAEAEA" d="M77.7,477.5c0,12.9-10.5,23.4-23.4,23.4h-178c-12.9,0-23.4-10.5-23.4-23.4V353.4
					c0-12.9,10.5-23.4,23.4-23.4h178c12.9,0,23.4,10.5,23.4,23.4V477.5z"/>
				<path fill="#FFFFFF" d="M61.3,465.8c0,1.3-1.1,2.3-2.3,2.3h-187.3c-1.3,0-2.3-1.1-2.3-2.3V346.3c0-1.3,1.1-2.3,2.3-2.3H59
					c1.3,0,2.3,1.1,2.3,2.3V465.8z"/>
				<path fill="#FFFFFF" d="M61.2,465.8c0,1.3-1.1,2.3-2.3,2.3h-187.3c-1.3,0-2.3-1.1-2.3-2.3V346.3c0-1.3,1.1-2.3,2.3-2.3H58.8
					c1.3,0,2.3,1.1,2.3,2.3V465.8z"/>
				<rect x="-81.5" y="545.4" fill="#ECF0F1" width="93.7" height="9.4"/>
				<polygon fill="#ECF0F1" points="12.2,545.4 -81.5,545.4 -74.5,540.7 5.1,540.7 				"/>
				<circle fill="#DCDDDF" cx="-37" cy="484.5" r="7"/>
				<polygon opacity="0.5" fill="#7F8C8D" points="-60.4,512.6 -8.9,512.6 -8.9,536 -60.4,524.3 				"/>
				<path fill="#ECF0F1" d="M21.5,550.5h56.2c0,0,2.8-23.4-28.1-23.4C18.7,527.1,21.5,550.5,21.5,550.5z"/>
				<path fill="#BDC3C7" d="M49.6,550.5h28.1c0,0,2.8-23.4-28.1-23.4V550.5z"/>
				<g>
					<defs>
						<path id="SVGID_3_" d="M61.2,465.8c0,1.3-1.1,2.3-2.3,2.3h-187.3c-1.3,0-2.3-1.1-2.3-2.3V346.3c0-1.3,1.1-2.3,2.3-2.3H58.8
							c1.3,0,2.3,1.1,2.3,2.3V465.8z"/>
					</defs>
					<clipPath id="SVGID_4_">
						<use xlink:href="#SVGID_3_"  overflow="visible"/>
					</clipPath>
					<path clip-path="url(#SVGID_4_)" fill="#FFFFFF" d="M61.2,465.8c0,1.3-1.1,2.3-2.3,2.3h-187.3c-1.3,0-2.3-1.1-2.3-2.3V346.3
						c0-1.3,1.1-2.3,2.3-2.3H58.8c1.3,0,2.3,1.1,2.3,2.3V465.8z"/>
					<rect x="-134.5" y="414.1" clip-path="url(#SVGID_4_)" fill="#BDC3C7" width="204.5" height="111"/>
					
						<polyline clip-path="url(#SVGID_4_)" fill="none" stroke="#FCB315" stroke-width="2.1798" stroke-linecap="round" stroke-linejoin="round" stroke-miterlimit="10" points="
						70,455.5 56.6,462.3 50.8,448.3 34.6,439.1 32.6,452.4 21.8,458.3 10.3,456.3 3,461.9 -1.6,450.3 -20.9,426.1 -34,437 
						-43.9,424.5 -48.4,446 -63.6,430.2 -72,441.9 -94.9,452.6 -100.5,470.2 -107.3,460.1 -111.5,473.1 -116.9,468.2 -120.7,476.6 
						-135.4,481.4 -139.3,486.4 					"/>
					<g clip-path="url(#SVGID_4_)">
						<rect x="-57.3" y="362.3" fill="#FCB315" width="104.6" height="6"/>
						<rect x="-57.3" y="391.7" opacity="0.5" fill="#515151" width="104.6" height="6"/>
						<rect x="-57.3" y="377" opacity="0.5" fill="#515151" width="88.9" height="6"/>
					</g>
					<g clip-path="url(#SVGID_4_)">
						<g>
							<g>
								<path fill="#FCB415" d="M-97.7,383.3c0-8.6,6.9-15.5,15.5-15.5c3.1,0,6,0.9,8.5,2.5c-1.3-5.6-6.4-9.9-12.4-9.9
									c-3.6,0-6.9,1.5-9.2,3.9c-2.3-2.4-5.6-3.9-9.2-3.9c-7,0-12.8,5.7-12.8,12.8c0,3.1,1.1,6,3,8.2l0.4,0.4
									c0.3,0.4,17.2,16.5,18.5,17.8c0.4-0.4,1.9-1.8,4-3.8C-95.2,393-97.7,388.4-97.7,383.3z"/>
							</g>
							<g>
								<g>
									<g>
										<path fill="#81868E" d="M-79.7,395.7c0,0,0.3-0.1,0.8-0.2c0.3,0,0.6-0.1,1-0.2c0.4-0.1,0.8-0.3,1.3-0.5
											c1.9-0.8,4.4-2.5,6-5.7c0.8-1.6,1.2-3.4,1.2-5.4c0-2-0.6-4.1-1.8-6c-0.6-0.9-1.3-1.8-2.1-2.5c-0.8-0.8-1.8-1.4-2.8-1.9
											c-1-0.5-2.1-0.8-3.3-1c-1.1-0.2-2.3-0.2-3.5,0c-1.1,0.2-2.3,0.5-3.3,1c-1,0.5-2,1.1-2.9,1.9c-0.8,0.8-1.6,1.6-2.2,2.6
											c-0.6,1-1.1,2-1.4,3c-0.6,2.1-0.6,4.3-0.1,6.2c0.5,1.9,1.5,3.6,2.6,4.9c2.4,2.6,5.3,3.6,7.3,3.9c0.5,0.1,1,0.1,1.4,0.1
											c0.4,0,0.7,0,1,0C-80,395.8-79.7,395.7-79.7,395.7l0.3,2.4c0,0-0.3,0-1,0.1c-0.3,0-0.7,0-1.2,0c-0.5,0-1,0-1.6-0.1
											c-2.4-0.3-5.9-1.5-8.8-4.7c-1.4-1.6-2.5-3.6-3.1-5.9c-0.6-2.3-0.6-4.9,0.1-7.5c0.4-1.3,0.9-2.5,1.6-3.6
											c0.7-1.1,1.6-2.2,2.6-3.1c1-0.9,2.2-1.7,3.5-2.3c1.3-0.6,2.6-0.9,4-1.2c1.4-0.2,2.8-0.2,4.2,0c1.4,0.2,2.7,0.6,4,1.2
											c1.2,0.6,2.4,1.4,3.4,2.3c1,0.9,1.9,1.9,2.5,3.1c1.4,2.2,2.1,4.8,2.1,7.2c0,2.4-0.5,4.7-1.4,6.6c-1.9,3.8-5,5.9-7.2,6.8
											c-0.6,0.2-1.1,0.4-1.5,0.6c-0.5,0.1-0.8,0.2-1.2,0.3c-0.6,0.1-1,0.2-1,0.2L-79.7,395.7z"/>
										<path fill="#FCB415" d="M-79.2,372.3c0,0-0.6-0.1-1.7-0.2c-1.1,0-2.8,0.1-4.5,0.8c-0.9,0.3-1.8,0.8-2.7,1.5
											c-0.9,0.7-1.7,1.4-2.5,2.4c-1.5,1.9-2.4,4.4-2.4,7c-0.1,2.6,0.8,5.1,2.1,7.1c1.4,2,3.3,3.3,5,4.1c1.8,0.8,3.4,0.9,4.5,1
											c0.6,0,1,0,1.3-0.1c0.3,0,0.5,0,0.5,0l0.3,2.4c0,0-0.2,0-0.5,0c-0.4,0-0.9,0.1-1.6,0.1c-1.3,0-3.3-0.2-5.4-1.1
											c-2.1-0.9-4.4-2.5-6-4.9c-1.7-2.4-2.7-5.4-2.6-8.5c0-3.1,1.2-6.1,2.9-8.4c0.9-1.1,1.9-2.1,3-2.9c1.1-0.8,2.2-1.3,3.3-1.7
											c2.2-0.8,4.1-1,5.5-0.9c1.3,0.1,2.1,0.2,2.1,0.2L-79.2,372.3z"/>
									</g>
								</g>
							</g>
							<g>
								<path fill="#2C3E50" d="M-88.5,385.3c0,0,0.5,0.7,1.4,0.7c0.8,0,1.3-0.5,1.3-1.2c0-0.7-0.6-1.2-1.4-1.2
									c-0.7,0-1.1,0.3-1.1,0.3l-0.3-0.2l0.2-2.5c0-0.4,0.2-0.5,0.5-0.5h2.1c0.4,0,0.5,0.2,0.5,0.5v0.8h-0.8v-0.4
									c0-0.1-0.1-0.2-0.2-0.2h-1.3c-0.1,0-0.2,0.1-0.2,0.2l-0.1,1.1c0,0.2,0,0.3,0,0.3h0c0,0,0.3-0.2,0.8-0.2c1.3,0,2.1,0.9,2.1,2
									c0,1.1-0.8,2-2.2,2c-1.2,0-1.9-0.8-1.9-0.8L-88.5,385.3z"/>
								<path fill="#2C3E50" d="M-81.3,381.9c0.2-0.3,0.3-0.6,0.3-0.6v0c0,0-0.1,0-0.4,0h-1.8c-0.1,0-0.2,0.1-0.2,0.2v0.4h-0.8v-0.8
									c0-0.4,0.1-0.5,0.5-0.5h3.6v0.6l-2.9,5.4h-0.9L-81.3,381.9z"/>
								<path fill="#2C3E50" d="M-79.2,381.8c0-0.7,0.6-1.3,1.3-1.3s1.3,0.6,1.3,1.3c0,0.7-0.6,1.3-1.3,1.3S-79.2,382.5-79.2,381.8z
									 M-74.5,380.6h0.8l-4.6,6h-0.8L-74.5,380.6z M-77.3,381.8c0-0.3-0.3-0.6-0.6-0.6c-0.4,0-0.6,0.3-0.6,0.6
									c0,0.4,0.3,0.6,0.6,0.6C-77.6,382.4-77.3,382.1-77.3,381.8z M-74.8,384.2c0.7,0,1.3,0.6,1.3,1.3c0,0.7-0.6,1.3-1.3,1.3
									c-0.7,0-1.3-0.6-1.3-1.3C-76.1,384.8-75.6,384.2-74.8,384.2z M-74.8,386.1c0.3,0,0.6-0.3,0.6-0.6c0-0.3-0.3-0.6-0.6-0.6
									c-0.4,0-0.6,0.3-0.6,0.6C-75.5,385.8-75.2,386.1-74.8,386.1z"/>
							</g>
						</g>
					</g>
				</g>
				<g>
					<path opacity="0.4" fill="#7B7B7B" d="M-30,464.1L10.3,501l6.6,11.6h37.5c12.5,0,22.8-9.9,23.4-22.3v-32.9l-38.6-32.7
						L-30,464.1z"/>
					<path fill="#A74429" d="M28.9,425.8v3.4l-52.1-33.1c-2.2-1.4-4.1-0.4-4.3,2.2l-3.5,51.7h-0.8v11.7h0c0.2,2.1,1.9,3.2,4.1,2.4
						l15-5.5c2.4-0.9,5.4,0.2,6.7,2.5l14.6,26.2c1.3,2.2,4.3,3.4,6.7,2.5l18.4-6.8c1.9-0.7,2.6-2.3,2.6-4.1v-10.8h-4.7v1.8
						l-10.5-18.8c-1.3-2.2-0.3-4.8,2.1-5.7l15-5.5c1.3-0.5,2-1.3,1.9-2.1h0v-11.7H28.9z"/>
					<path fill="#F37655" d="M-23.3,384.4c-2.2-1.4-4.1-0.4-4.3,2.2l-4.3,62.7c-0.2,2.6,1.7,3.9,4.1,3.1l15-5.5
						c2.4-0.9,5.4,0.2,6.7,2.5l14.6,26.2c1.3,2.2,4.3,3.4,6.7,2.5l18.4-6.8c2.4-0.9,3.4-3.5,2.1-5.7l-14.6-26.2
						c-1.3-2.2-0.3-4.8,2.1-5.7l15-5.5c2.4-0.9,2.6-2.8,0.4-4.1L-23.3,384.4z"/>
				</g>
			</g>
		</g>
	</g>
	
		<circle fill-rule="evenodd" clip-rule="evenodd" fill="none" stroke="#2C3E50" stroke-width="10" stroke-miterlimit="10" cx="-8.6" cy="415.4" r="121.6"/>
</g>
<g>
	<g>
		<circle fill-rule="evenodd" clip-rule="evenodd" fill="#BDC3C7" cx="429.9" cy="116.2" r="121.6"/>
		<g>
			<defs>
				<circle id="SVGID_5_" cx="429.9" cy="116.2" r="121.6"/>
			</defs>
			<clipPath id="SVGID_6_">
				<use xlink:href="#SVGID_5_"  overflow="visible"/>
			</clipPath>
			<g clip-path="url(#SVGID_6_)">
				<path fill="#EAEAEA" d="M505.1,41.1H320.2c-6.6,0-11.9,5.3-11.9,11.9v160.1c26.9,26.4,63.7,42.7,104.4,42.7
					c40.7,0,77.5-16.3,104.4-42.7V53C517.1,46.4,511.7,41.1,505.1,41.1z"/>
				<path fill="#FFFFFF" d="M493.2,67.9H332.2c-3.3,0-6,2.7-6,6v154.2c24.4,17.4,54.2,27.7,86.5,27.7s62.1-10.3,86.5-27.7V73.9
					C499.2,70.6,496.5,67.9,493.2,67.9z"/>
				<path fill="#BDC3C7" d="M505.1,41.1H320.2c-6.6,0-11.9,5.3-11.9,11.9v6c0-6.6,5.3-11.9,11.9-11.9h184.9
					c6.6,0,11.9,5.3,11.9,11.9v-6C517.1,46.4,511.7,41.1,505.1,41.1z"/>
				<path fill="#4FBA6F" d="M469.3,199.2H356c-1.6,0-3,1.3-3,3c0,1.6,1.3,3,3,3h113.3c1.6,0,3-1.3,3-3
					C472.3,200.5,471,199.2,469.3,199.2z M469.3,169.3H356c-1.6,0-3,1.3-3,3c0,1.6,1.3,3,3,3h113.3c1.6,0,3-1.3,3-3
					C472.3,170.7,471,169.3,469.3,169.3z M469.3,139.5H356c-1.6,0-3,1.3-3,3c0,1.6,1.3,3,3,3h113.3c1.6,0,3-1.3,3-3
					C472.3,140.8,471,139.5,469.3,139.5z M469.3,229H356c-1.6,0-3,1.3-3,3s1.3,3,3,3h113.3c1.6,0,3-1.3,3-3S471,229,469.3,229z
					 M356,115.6h113.3c1.6,0,3-1.3,3-3c0-1.6-1.3-3-3-3H356c-1.6,0-3,1.3-3,3C353,114.3,354.4,115.6,356,115.6z"/>
				<path fill="#EAEAEA" d="M356,53h116.3c1.6,0,3,1.3,3,3v20.9c0,4.9-4,8.9-8.9,8.9H362c-4.9,0-8.9-4-8.9-8.9V56
					C353,54.4,354.4,53,356,53z M395.8,23.2h37.7c4.9,0,7.5,3.6,8.9,8.9l6,20.9h-65.6l6-20.9C389.7,28.4,391.4,23.2,395.8,23.2z"/>
				<path fill="#A4A7A9" d="M384.8,46.1l-2,7h65.6l-2-7H384.8z"/>
				<path fill="#B8BBBD" d="M472.3,53H356c-1.6,0-3,1.3-3,3v8.9c0-1.6,1.3-3,3-3h116.3c1.6,0,3,1.3,3,3V56
					C475.3,54.4,474,53,472.3,53z"/>
			</g>
		</g>
	</g>
	
		<circle fill-rule="evenodd" clip-rule="evenodd" fill="none" stroke="#2C3E50" stroke-width="10" stroke-miterlimit="10" cx="429.9" cy="116.2" r="121.6"/>
</g>
<g>
	<circle fill-rule="evenodd" clip-rule="evenodd" fill="#BDC3C7" cx="129.4" cy="129.4" r="121.6"/>
	<g>
		<defs>
			<circle id="SVGID_7_" cx="129.4" cy="129.4" r="121.6"/>
		</defs>
		<clipPath id="SVGID_8_">
			<use xlink:href="#SVGID_7_"  overflow="visible"/>
		</clipPath>
		<g clip-path="url(#SVGID_8_)">
			<g>
				<path opacity="0.2" fill="#7B7B7B" d="M135,254.1c52.1-2.1,95.9-36.2,110.5-79l-52.7-47.4L54.6,178.5L135,254.1z"/>
			</g>
			<path fill="#F0D0B5" d="M47,70l-20.8,59.4c0,0,12.7,8,18.6,15.3c5.8,7.3,1,19.7,19.3,30.1c10.2,5.8,62.4,36.8,67.2,38.5
				c13.1,5.6,17.5-6.8,15.7-12.4c4.6,3.3,13.9,1.7,18.3-2.9c4.4-4.6,2.3-12.7,2.3-12.7s12.2,7,21-1.7c5.7-5.6,1.2-12.7,1.2-12.7
				s11.6,4.6,17-3c5.8-8.2,0.9-14.4-7.1-20.4c-8-6-79.2-58-79.2-58s-39-3.6-46.3-6C70,82.1,47,70,47,70z"/>
			<path fill="#F0D0B5" d="M44.4,144.3l3.5-8.3c0,0,5.9,23.8,10.4,26.9c-2.6,3.6-4.5,4.2-4.5,4.2s-4.4-6-5.8-14.2
				C47.1,147,44.4,144.3,44.4,144.3z"/>
			<path opacity="0.5" fill="#7B7B7B" d="M73,118.6c0,0,7,4,12,4s15.6-5.3,20-20.6l33,0.2l-8.9-6.5c0,0-27.7-3-31.5-1
				C94,96.7,73,118.6,73,118.6z"/>
			<g opacity="0.5">
				<path fill="#7B7B7B" d="M111.9,202.7c4.7,2.7,8.9,5.1,12.2,6.9c0-3.7-1.2-7.1-3-8.2C119,200.1,115,200.6,111.9,202.7z"/>
				<path fill="#7B7B7B" d="M64.1,174.8c2,1.1,5.6,3.2,10.1,5.9c0-0.1,0.1-0.2,0.1-0.3l0.5-3.2c1.1-4.8-1.4-11.6-6.2-12.7
					c-4-0.9-7.9,2.8-9.7,6.9C60.4,172.5,62.1,173.7,64.1,174.8z"/>
				<path fill="#7B7B7B" d="M90.4,190.2l1.4-3c1.9-4.4,2.7-10.4-1.6-12.9c-4.3-2.5-9.8,0.8-12.4,5.1l-1.7,2.5
					C80.4,184.3,85.3,187.2,90.4,190.2z"/>
				<path fill="#7B7B7B" d="M108.3,200.6l0.8-1.7c1.8-4.7,3.2-12.1-1-14.6c-4.2-2.6-9-0.9-11.5,3.4l-3,4.3
					C98.4,194.9,103.5,197.8,108.3,200.6z"/>
			</g>
			<g>
				<path fill="#5DBACA" d="M109,213.6c-1.5-0.1-2.9-0.6-4.2-1.4c-4.2-2.7-5.1-7.5-2.4-11.7l0.8-1.4c2.7-4.2,9.1-5.9,12.1-4
					c2.5,1.5,3.7,7.5,2.5,12.6l-0.3,0.9C114.7,213.5,112.2,213.9,109,213.6z"/>
				<path fill="#5DBACA" d="M59.7,180.7c-0.5,0-0.9-0.1-1.4-0.2c-4.8-1.1-7.9-5.9-6.8-10.8l0.5-2.3c1.1-4.8,5.6-10.5,10.5-9.4
					c4.8,1.1,7.3,7.9,6.2,12.7l-0.5,3.2C67.3,178.4,64.1,181,59.7,180.7z"/>
				<path fill="#5DBACA" d="M74.7,192.7c-1.3-0.1-2.3,0-3.5-0.8c-4.3-2.5-6.1-8.5-3.6-12.8l4.2-6.2c2.5-4.3,8.1-7.6,12.4-5.1
					c4.3,2.5,3.5,8.5,1.6,12.9l-3.4,7.1C80.7,191,78,193,74.7,192.7z"/>
				<path fill="#5DBACA" d="M92,202.8c-1.4-0.1-2.7-0.5-4-1.3c-4.2-2.6-5.6-8.1-3-12.4l5.6-8c2.6-4.2,7.3-6,11.5-3.4
					c4.2,2.6,2.8,9.9,1,14.6l-2.7,6C98.5,201.5,95.3,203.1,92,202.8z"/>
			</g>
			<path fill="#EFC7B1" d="M109,213.6c-1.5-0.1-2.9-0.6-4.2-1.4c-4.2-2.7-5.1-7.5-2.4-11.7l0.8-1.4c2.7-4.2,9.1-5.9,12.1-4
				c2.5,1.5,3.7,7.5,2.5,12.6l-0.3,0.9C114.7,213.5,112.2,213.9,109,213.6z"/>
			<path fill="#EFC7B1" d="M129.2,95.7c0,0-25.7-0.3-27.8-0.1c-2.1,0.2-7.7,18.6-16.7,22.2c-5.3,2.1-14.4,1.7-13.4-1.9
				c0,0,2.9-28.7,9.9-35c7-6.2,12.6-8.1,22.2-9.7c9.6-1.6,30.3-8.6,37.5-6.5c7.2,2.1,19,5.3,26.1,6.7c7.1,1.4,15.5,6.6,19.7,6.9
				c4.2,0.3,19.3-8.3,19.3-8.3l19.1,59.4c0,0-23.2,16.6-24.4,18.8L129.2,95.7z"/>
			<path fill="#EFC7B1" d="M59.7,180.7c-0.5,0-0.9-0.1-1.4-0.2c-4.8-1.1-7.9-5.9-6.8-10.8l0.5-2.3c1.1-4.8,5.6-10.5,10.5-9.4
				c4.8,1.1,7.3,7.9,6.2,12.7l-0.5,3.2C67.3,178.4,64.1,181,59.7,180.7z"/>
			<path fill="#EFC7B1" d="M74.7,192.7c-1.3-0.1-2.3,0-3.5-0.8c-4.3-2.5-6.1-8.5-3.6-12.8l4.2-6.2c2.5-4.3,8.1-7.6,12.4-5.1
				c4.3,2.5,3.5,8.5,1.6,12.9l-3.4,7.1C80.7,191,78,193,74.7,192.7z"/>
			<path fill="#EFC7B1" d="M92,202.8c-1.4-0.1-2.7-0.5-4-1.3c-4.2-2.6-5.6-8.1-3-12.4l5.6-8c2.6-4.2,7.3-6,11.5-3.4
				c4.2,2.6,2.8,9.9,1,14.6l-2.7,6C98.5,201.5,95.3,203.1,92,202.8z"/>
			<path fill="#D1B79F" d="M122.6,203c0.9,1.6,1.5,4,1.5,6.6c-1.3-0.7-2.8-1.5-4.3-2.4c2,1.2,7.8,4.7,9.9,6.2
				c6.5,2.5,11.1,0.7,11.1,0.7L122.6,203z"/>
			<polygon fill="#CFD0D3" points="191.9,75 218.6,137.1 231.8,131.4 207.5,66.1 			"/>
			<path opacity="0.5" fill="#7B7B7B" d="M66.9,80.1l3.7,1.8l-26.2,62.3c0,0-3.2-3.7-4.2-4.1C42.2,134.3,66.9,80.1,66.9,80.1z"/>
			<polygon fill="#EAEAEA" points="67.8,78.2 39.4,142.4 27.9,137.9 52.2,69.4 			"/>
			<g>
				<path fill="#95A5A5" d="M58.4,67.9l-25-16.5C16,72.8,5.5,100.1,5.5,129.8c0,0.3,0,0.5,0,0.8L26.6,145L58.4,67.9z"/>
			</g>
			<path opacity="0.5" fill="#7B7B7B" d="M129.2,95.7c0,0,44,18.3,47.4,18.8c3.2,2.1,30.9,27.9,30.9,27.9s-3.3,2.5-4.3,3.4
				c-2.2,1.9-2.5,2.4-2.5,2.4L129.2,95.7z"/>
			<path fill="#D1B79F" d="M201.4,171.7c0,0-5.1,1.7-11.6-0.8c-2.6-1.9-31.3-20.8-31.3-20.8l0.4-5.6L201.4,171.7z"/>
			<path fill="#D1B79F" d="M180.9,187.6c0,0-7,1.6-13.3-2.2c-2.6-1.9-27.7-18.4-27.7-18.4l0.8-5.6L180.9,187.6z"/>
			<path fill="#D1B79F" d="M158.1,202c0,0-4.5,2.3-11.4-0.8c-2.6-1.9-22.1-14.5-22.1-14.5l1-5.3L158.1,202z"/>
			<path fill="none" d="M232.5,138.2L200.9,64l23.6-14.7c-22.8-26.8-56.7-43.8-94.7-43.8C61.2,5.5,5.5,61.2,5.5,129.8
				s55.7,124.3,124.3,124.3s124.3-55.7,124.3-124.3c0-1.8-0.1-3.6-0.1-5.4L232.5,138.2z"/>
			<path fill="#EAEAEA" d="M232.5,138.2l21.6-13.7c-1.2-28.7-12.1-54.8-29.5-75.2L200.9,64L232.5,138.2z"/>
		</g>
	</g>
	
		<circle fill-rule="evenodd" clip-rule="evenodd" fill="none" stroke="#2C3E50" stroke-width="10" stroke-miterlimit="10" cx="129.4" cy="129.4" r="121.6"/>
</g>
</svg>
