<?xml version="1.0" encoding="utf-8"?>
<!-- Generator: Adobe Illustrator 18.1.0, SVG Export Plug-In . SVG Version: 6.00 Build 0)  -->
<svg version="1.1" id="Layer_1" xmlns="http://www.w3.org/2000/svg" xmlns:xlink="http://www.w3.org/1999/xlink" x="0px" y="0px"
	 viewBox="0 0 194.6 194.6" enable-background="new 0 0 194.6 194.6" xml:space="preserve">
<g display="none">
	<circle display="inline" fill="#4D6781" cx="97.3" cy="97.5" r="96.1"/>
	<g display="inline">
		<defs>
			<circle id="SVGID_1_" cx="97.3" cy="97.3" r="96.1"/>
		</defs>
		<clipPath id="SVGID_2_">
			<use xlink:href="#SVGID_1_"  overflow="visible"/>
		</clipPath>
		<g clip-path="url(#SVGID_2_)">
			<path fill-rule="evenodd" clip-rule="evenodd" fill="#2C3E50" d="M35.8,230.5h123.1c5.1,0,9.3-4.2,9.3-9.3V57.6
				c0-5.1-4.2-9.3-9.3-9.3h-19.9h-11.9H67.6H57.2H35.8c-5.1,0-9.3,4.2-9.3,9.3v163.6C26.5,226.3,30.6,230.5,35.8,230.5z"/>
			<path fill-rule="evenodd" clip-rule="evenodd" fill="#EDF0F1" d="M153.3,61.5v155.8h-112V61.5C78.6,61.5,116,61.5,153.3,61.5z"/>
			<path fill-rule="evenodd" clip-rule="evenodd" fill="#EDF0F1" d="M506.4,426.5v155.8h-112V426.5
				C431.7,426.5,469.1,426.5,506.4,426.5z"/>
			<rect x="41.3" y="61.5" fill-rule="evenodd" clip-rule="evenodd" fill="#DBE1E6" width="56" height="155.8"/>
			<path fill-rule="evenodd" clip-rule="evenodd" fill="#676767" d="M70.6,74.6V48.3H124v26.4H70.6L70.6,74.6z M117.9,69.4
				c0-5.8,0-10.2,0-16c-13.7,0-27.4,0-41.2,0c0,5.8,0,10.2,0,16C90.4,69.4,104.2,69.4,117.9,69.4z"/>
			<path fill-rule="evenodd" clip-rule="evenodd" fill="#D35C5D" d="M58.5,99.8L58.5,99.8c2.2,0,4,1.8,4,4l0,0c0,2.2-1.8,4-4,4l0,0
				c-2.2,0-4-1.8-4-4l0,0C54.5,101.6,56.3,99.8,58.5,99.8z"/>
			<path fill-rule="evenodd" clip-rule="evenodd" fill="#FCB415" d="M58.5,121.2L58.5,121.2c2.2,0,4,1.8,4,4l0,0c0,2.2-1.8,4-4,4
				l0,0c-2.2,0-4-1.8-4-4l0,0C54.5,123,56.3,121.2,58.5,121.2z"/>
			<path fill-rule="evenodd" clip-rule="evenodd" fill="#0F77A1" d="M58.5,144.1L58.5,144.1c2.2,0,4,1.8,4,4l0,0c0,2.2-1.8,4-4,4
				l0,0c-2.2,0-4-1.8-4-4l0,0C54.5,145.9,56.3,144.1,58.5,144.1z"/>
			<rect x="70.6" y="101.8" fill-rule="evenodd" clip-rule="evenodd" fill="#2D3F50" width="62" height="4"/>
			<rect x="70.6" y="123.2" fill-rule="evenodd" clip-rule="evenodd" fill="#2D3F50" width="67" height="4"/>
			<rect x="70.6" y="146.1" fill-rule="evenodd" clip-rule="evenodd" fill="#2D3F50" width="52.8" height="4"/>
			<path fill-rule="evenodd" clip-rule="evenodd" fill="#989898" d="M70.6,61.5V48.3H124v13.2h-6.1v-8c-13.7,0-27.4,0-41.2,0v8H70.6
				z"/>
		</g>
		<use xlink:href="#SVGID_1_"  overflow="visible" fill="none" stroke="#FFFFFF" stroke-miterlimit="10"/>
	</g>
</g>
<g>
	<circle fill="#4D6781" cx="97.3" cy="97.3" r="96.1"/>
	<g>
		<path opacity="0.2" fill="#7B7B7B" d="M101.3,193.3c40.3-1.6,74.1-28,85.4-61L146,95.6L39.2,134.9L101.3,193.3z"/>
	</g>
	<path fill="#F0D0B5" d="M33.3,51.1L17.3,97c0,0,9.8,6.2,14.3,11.8c4.5,5.6,0.8,15.2,14.9,23.3c7.9,4.5,48.2,28.4,51.9,29.7
		c10.1,4.3,13.5-5.2,12.1-9.6c3.5,2.5,10.7,1.3,14.2-2.3c3.4-3.5,1.8-9.8,1.8-9.8s9.4,5.4,16.3-1.3c4.4-4.4,0.9-9.8,0.9-9.8
		s8.9,3.6,13.1-2.4c4.5-6.4,0.7-11.1-5.4-15.8c-6.2-4.6-61.2-44.8-61.2-44.8S60,63.3,54.3,61.5C51.1,60.4,33.3,51.1,33.3,51.1z"/>
	<path fill="#F0D0B5" d="M31.3,108.4l2.7-6.4c0,0,4.5,18.3,8,20.8c-2,2.8-3.5,3.2-3.5,3.2s-3.4-4.7-4.5-11
		C33.4,110.5,31.3,108.4,31.3,108.4z"/>
	<path opacity="0.5" fill="#7B7B7B" d="M53.4,88.6c0,0,5.4,3.1,9.3,3.1s12.1-4.1,15.5-15.9l25.5,0.1l-6.8-5c0,0-21.4-2.3-24.3-0.8
		C69.6,71.7,53.4,88.6,53.4,88.6z"/>
	<g opacity="0.5">
		<path fill="#7B7B7B" d="M83.4,153.6c3.6,2.1,6.9,3.9,9.5,5.4c0-2.9-0.9-5.5-2.3-6.3C88.9,151.6,85.8,152,83.4,153.6z"/>
		<path fill="#7B7B7B" d="M46.5,132.1c1.5,0.9,4.3,2.5,7.8,4.5c0-0.1,0.1-0.2,0.1-0.3l0.4-2.5c0.9-3.7-1-9-4.8-9.8
			c-3.1-0.7-6.1,2.2-7.5,5.3C43.6,130.3,45,131.2,46.5,132.1z"/>
		<path fill="#7B7B7B" d="M66.8,143.9l1.1-2.3c1.5-3.4,2.1-8-1.2-10c-3.3-2-7.6,0.6-9.6,3.9l-1.3,1.9
			C59.1,139.4,62.9,141.6,66.8,143.9z"/>
		<path fill="#7B7B7B" d="M80.6,152l0.6-1.3c1.4-3.6,2.5-9.3-0.8-11.3c-3.3-2-6.9-0.7-8.9,2.6l-2.4,3.4C73,147.6,77,149.8,80.6,152z
			"/>
	</g>
	<g>
		<path fill="#5DBACA" d="M81.2,162c-1.1-0.1-2.3-0.4-3.3-1.1c-3.2-2.1-3.9-5.8-1.9-9l0.6-1.1c2.1-3.2,7-4.5,9.4-3.1
			c1.9,1.2,2.9,5.8,1.9,9.7l-0.2,0.7C85.6,161.9,83.7,162.2,81.2,162z"/>
		<path fill="#5DBACA" d="M43.1,136.6c-0.4,0-0.7-0.1-1-0.2c-3.7-0.9-6.1-4.6-5.2-8.3l0.4-1.8c0.8-3.7,4.4-8.1,8.1-7.2
			c3.7,0.8,5.6,6.1,4.8,9.8l-0.4,2.5C49,134.8,46.5,136.8,43.1,136.6z"/>
		<path fill="#5DBACA" d="M54.7,145.9c-1-0.1-1.8,0-2.7-0.6c-3.3-2-4.7-6.6-2.7-9.9l3.2-4.8c2-3.3,6.3-5.9,9.6-3.9
			c3.3,2,2.7,6.6,1.2,10l-2.6,5.5C59.3,144.5,57.3,146.1,54.7,145.9z"/>
		<path fill="#5DBACA" d="M68.1,153.7c-1.1-0.1-2.1-0.4-3.1-1c-3.3-2-4.3-6.3-2.3-9.5l4.3-6.1c2-3.3,5.6-4.6,8.9-2.6
			c3.3,2,2.2,7.7,0.8,11.3l-2.1,4.7C73.1,152.7,70.6,153.9,68.1,153.7z"/>
	</g>
	<path fill="#EFC7B1" d="M81.2,162c-1.1-0.1-2.3-0.4-3.3-1.1c-3.2-2.1-3.9-5.8-1.9-9l0.6-1.1c2.1-3.2,7-4.5,9.4-3.1
		c1.9,1.2,2.9,5.8,1.9,9.7l-0.2,0.7C85.6,161.9,83.7,162.2,81.2,162z"/>
	<path fill="#EFC7B1" d="M96.8,70.9c0,0-19.8-0.2-21.4-0.1c-1.6,0.2-6,14.3-12.9,17.1c-4.1,1.6-11.2,1.3-10.3-1.5
		c0,0,2.2-22.2,7.7-27c5.4-4.8,9.7-6.2,17.1-7.5c7.4-1.3,23.4-6.7,29-5.1c5.5,1.6,14.7,4.1,20.2,5.2c5.5,1.1,12,5.1,15.2,5.3
		c3.2,0.2,14.9-6.4,14.9-6.4L171,97c0,0-17.9,12.8-18.8,14.5L96.8,70.9z"/>
	<path fill="#EFC7B1" d="M43.1,136.6c-0.4,0-0.7-0.1-1-0.2c-3.7-0.9-6.1-4.6-5.2-8.3l0.4-1.8c0.8-3.7,4.4-8.1,8.1-7.2
		c3.7,0.8,5.6,6.1,4.8,9.8l-0.4,2.5C49,134.8,46.5,136.8,43.1,136.6z"/>
	<path fill="#EFC7B1" d="M54.7,145.9c-1-0.1-1.8,0-2.7-0.6c-3.3-2-4.7-6.6-2.7-9.9l3.2-4.8c2-3.3,6.3-5.9,9.6-3.9
		c3.3,2,2.7,6.6,1.2,10l-2.6,5.5C59.3,144.5,57.3,146.1,54.7,145.9z"/>
	<path fill="#EFC7B1" d="M68.1,153.7c-1.1-0.1-2.1-0.4-3.1-1c-3.3-2-4.3-6.3-2.3-9.5l4.3-6.1c2-3.3,5.6-4.6,8.9-2.6
		c3.3,2,2.2,7.7,0.8,11.3l-2.1,4.7C73.1,152.7,70.6,153.9,68.1,153.7z"/>
	<path fill="#D1B79F" d="M91.7,153.8c0.7,1.2,1.1,3.1,1.2,5.1c-1-0.6-2.1-1.2-3.3-1.9c1.6,0.9,6,3.6,7.6,4.8c5,1.9,8.6,0.5,8.6,0.5
		L91.7,153.8z"/>
	<polygon fill="#2C3E50" points="145.3,54.9 165.8,102.9 176,98.5 157.3,48.1 	"/>
	<path opacity="0.5" fill="#7B7B7B" d="M48.6,58.9l2.9,1.4l-20.2,48.1c0,0-2.5-2.8-3.2-3.2C29.6,100.7,48.6,58.9,48.6,58.9z"/>
	<polygon fill="#2C3E50" points="49.3,57.4 27.4,107 18.6,103.5 37.4,50.6 	"/>
	<g>
		<g>
			<path fill="#35495E" d="M42.1,49.5L22.8,36.7C9.4,53.2,1.3,74.3,1.3,97.3c0,0.2,0,0.4,0,0.6L17.6,109L42.1,49.5z"/>
		</g>
	</g>
	<path opacity="0.5" fill="#7B7B7B" d="M96.8,70.9c0,0,34,14.1,36.6,14.5C136,87,157.4,107,157.4,107s-2.6,2-3.3,2.6
		c-1.7,1.5-1.9,1.9-1.9,1.9L96.8,70.9z"/>
	<path fill="#D1B79F" d="M152.6,129.6c0,0-3.9,1.3-9-0.6c-2-1.4-24.2-16.1-24.2-16.1l0.3-4.3L152.6,129.6z"/>
	<path fill="#D1B79F" d="M136.7,141.9c0,0-5.4,1.2-10.2-1.7c-2-1.4-21.4-14.2-21.4-14.2l0.6-4.3L136.7,141.9z"/>
	<path fill="#D1B79F" d="M119.1,153c0,0-3.5,1.7-8.8-0.6c-2-1.4-17.1-11.2-17.1-11.2l0.8-4.1L119.1,153z"/>
	<path fill="none" stroke="#FFFFFF" stroke-miterlimit="10" d="M176.6,103.8l-24.4-57.3l18.2-11.4C152.8,14.4,126.6,1.3,97.3,1.3
		c-53,0-96,43-96,96s43,96.1,96,96.1s96-43,96-96.1c0-1.4,0-2.8-0.1-4.1L176.6,103.8z"/>
	<path fill="#FFFFFF" stroke="#FFFFFF" stroke-miterlimit="10" d="M176.6,103.8l16.7-10.6c-0.9-22.1-9.4-42.3-22.8-58.1l-18.2,11.4
		L176.6,103.8z"/>
</g>
</svg>
