<?xml version="1.0" encoding="utf-8"?>
<!-- Generator: Adobe Illustrator 18.1.0, SVG Export Plug-In . SVG Version: 6.00 Build 0)  -->
<!DOCTYPE svg PUBLIC "-//W3C//DTD SVG 1.1//EN" "http://www.w3.org/Graphics/SVG/1.1/DTD/svg11.dtd">
<svg version="1.1" id="Layer_1" xmlns="http://www.w3.org/2000/svg" xmlns:xlink="http://www.w3.org/1999/xlink" x="0px" y="0px"
	 viewBox="0 0 219.5 217.5" enable-background="new 0 0 219.5 217.5" xml:space="preserve">
<g>
	<path fill="#EBEDEE" d="M214.8,108.8c0,58-47,105-105,105c-58,0-105-47-105-105c0-58,47-105,105-105
		C167.7,3.8,214.8,50.8,214.8,108.8"/>
	<g>
		<defs>
			<path id="SVGID_1_" d="M4.8,108.8c0,58,47,105,105,105s105-47,105-105c0-58-47-105-105-105S4.8,50.8,4.8,108.8"/>
		</defs>
		<clipPath id="SVGID_2_">
			<use xlink:href="#SVGID_1_"  overflow="visible"/>
		</clipPath>
		<rect x="178.5" y="107.9" clip-path="url(#SVGID_2_)" fill="#ECF0F1" width="89.9" height="132.6"/>
		<rect x="223.5" y="107.9" clip-path="url(#SVGID_2_)" fill="#BDC3C7" width="45" height="132.6"/>
		<rect x="162.9" y="107.9" clip-path="url(#SVGID_2_)" fill="#34495E" width="121.2" height="15.2"/>
		<rect x="223.5" y="107.9" clip-path="url(#SVGID_2_)" fill="#2C3E50" width="60.6" height="15.2"/>
		<rect x="185.6" y="177.6" clip-path="url(#SVGID_2_)" fill="#ECF0F1" width="75.8" height="10.7"/>
		<rect x="223.5" y="177.6" clip-path="url(#SVGID_2_)" fill="#D0D2D3" width="37.9" height="10.7"/>
		<rect x="186.5" y="140.2" clip-path="url(#SVGID_2_)" fill="#34495E" width="19.8" height="26.4"/>
		<rect x="193.5" y="188.2" clip-path="url(#SVGID_2_)" fill="#56BFE3" width="60.1" height="52.3"/>
		<rect x="223.5" y="188.2" clip-path="url(#SVGID_2_)" fill="#0B76A0" width="30" height="52.3"/>
		<rect x="213.6" y="140.2" clip-path="url(#SVGID_2_)" fill="#34495E" width="19.8" height="26.4"/>
		<rect x="223.5" y="140.2" clip-path="url(#SVGID_2_)" fill="#2C3E50" width="9.9" height="26.4"/>
		<rect x="240.7" y="140.2" clip-path="url(#SVGID_2_)" fill="#2C3E50" width="19.8" height="26.4"/>
		<rect x="43.5" y="63" clip-path="url(#SVGID_2_)" fill="#FFFFFF" width="134.9" height="177.6"/>
		<rect x="110.9" y="63" clip-path="url(#SVGID_2_)" fill="#ECF0F1" width="67.4" height="177.6"/>
		<rect x="33.2" y="47.7" clip-path="url(#SVGID_2_)" fill="#34495E" width="155.5" height="15.2"/>
		<rect x="110.9" y="47.7" clip-path="url(#SVGID_2_)" fill="#2C3E50" width="77.7" height="15.2"/>
		<rect x="58.3" y="83.3" clip-path="url(#SVGID_2_)" fill="#34495E" width="19.8" height="26.4"/>
		<rect x="86.2" y="83.3" clip-path="url(#SVGID_2_)" fill="#34495E" width="19.8" height="26.4"/>
		<rect x="114.1" y="83.3" clip-path="url(#SVGID_2_)" fill="#2C3E50" width="19.8" height="26.4"/>
		<rect x="142" y="83.3" clip-path="url(#SVGID_2_)" fill="#2C3E50" width="19.8" height="26.4"/>
		<rect x="58.3" y="115.6" clip-path="url(#SVGID_2_)" fill="#34495E" width="19.8" height="26.4"/>
		<rect x="86.2" y="115.6" clip-path="url(#SVGID_2_)" fill="#34495E" width="19.8" height="26.4"/>
		<rect x="114.1" y="115.6" clip-path="url(#SVGID_2_)" fill="#2C3E50" width="19.8" height="26.4"/>
		<rect x="142" y="115.6" clip-path="url(#SVGID_2_)" fill="#2C3E50" width="19.8" height="26.4"/>
		<rect x="58.3" y="147.8" clip-path="url(#SVGID_2_)" fill="#34495E" width="19.8" height="26.4"/>
		<rect x="86.2" y="147.8" clip-path="url(#SVGID_2_)" fill="#34495E" width="19.8" height="26.4"/>
		<rect x="114.1" y="147.8" clip-path="url(#SVGID_2_)" fill="#2C3E50" width="19.8" height="26.4"/>
		<rect x="142" y="147.8" clip-path="url(#SVGID_2_)" fill="#2C3E50" width="19.8" height="26.4"/>
		<path clip-path="url(#SVGID_2_)" fill="#56BFE3" d="M136.6,55.4c0,14.2-11.5,25.7-25.7,25.7c-14.2,0-25.7-11.5-25.7-25.7
			c0-14.2,11.5-25.7,25.7-25.7C125.1,29.7,136.6,41.2,136.6,55.4"/>
		<path clip-path="url(#SVGID_2_)" fill="#0B76A0" d="M110.9,29.7V81c14.2,0,25.7-11.5,25.7-25.7C136.6,41.2,125.1,29.7,110.9,29.7"
			/>
		<path clip-path="url(#SVGID_2_)" fill="#FFFFFF" d="M108.4,74.2c-1.9,0-3.4-1.5-3.4-3.4V39.9c0-1.9,1.5-3.4,3.4-3.4h5.1
			c1.9,0,3.4,1.5,3.4,3.4v30.8c0,1.9-1.5,3.4-3.4,3.4H108.4z"/>
		<path clip-path="url(#SVGID_2_)" fill="#D0D2D3" d="M110.9,36.5v37.7h2.6c1.9,0,3.4-1.5,3.4-3.4V39.9c0-1.9-1.5-3.4-3.4-3.4H110.9
			z"/>
		<path clip-path="url(#SVGID_2_)" fill="#FFFFFF" d="M92.1,52.8c0-1.9,1.5-3.4,3.4-3.4h30.8c1.9,0,3.4,1.5,3.4,3.4v5.1
			c0,1.9-1.5,3.4-3.4,3.4H95.5c-1.9,0-3.4-1.5-3.4-3.4V52.8z"/>
		<path clip-path="url(#SVGID_2_)" fill="#D0D2D3" d="M110.9,49.4v12h15.4c1.9,0,3.4-1.5,3.4-3.4v-5.1c0-1.9-1.5-3.4-3.4-3.4H110.9z
			"/>
		<rect x="69.9" y="231.9" clip-path="url(#SVGID_2_)" fill="#34495E" width="82" height="8.6"/>
		<rect x="110.9" y="231.9" clip-path="url(#SVGID_2_)" fill="#2C3E50" width="41" height="8.6"/>
		<rect x="75.8" y="223.3" clip-path="url(#SVGID_2_)" fill="#34495E" width="70.2" height="8.6"/>
		<rect x="110.9" y="223.3" clip-path="url(#SVGID_2_)" fill="#2C3E50" width="35.1" height="8.6"/>
		<rect x="77.7" y="182.9" clip-path="url(#SVGID_2_)" fill="#56BFE3" width="66.4" height="40.4"/>
		<rect x="110.9" y="182.9" clip-path="url(#SVGID_2_)" fill="#0B76A0" width="33.2" height="40.4"/>
	</g>
</g>
<g>
	<g>
		<defs>
			<path id="SVGID_3_" d="M270.8,162.3c0,58,47,105,105,105s105-47,105-105c0-58-47-105-105-105S270.8,104.3,270.8,162.3"/>
		</defs>
		<clipPath id="SVGID_4_">
			<use xlink:href="#SVGID_3_"  overflow="visible"/>
		</clipPath>
		<path clip-path="url(#SVGID_4_)" fill="#EBEDEE" d="M267.6,166c0-60.6,49.1-109.7,109.7-109.7C437.9,56.3,487,105.4,487,166
			c0,60.6-49.1,109.7-109.7,109.7C316.7,275.7,267.6,226.6,267.6,166"/>
		<path clip-path="url(#SVGID_4_)" fill-rule="evenodd" clip-rule="evenodd" fill="#E3CCA4" d="M353.1,142.2h47.7l5.1,54.2
			c0.4,3.8,3.6,6.7,7.7,6.8l0.9,0l-6,20.3l-63.3-4.9l-4.7-15.3l1.7-0.3c3.7-0.5,6.4-3.3,6.7-6.8L353.1,142.2z"/>
		<path clip-path="url(#SVGID_4_)" fill-rule="evenodd" clip-rule="evenodd" fill="#D4C5A3" d="M377.3,221.1l-32.2-2.5l-4.7-15.3
			l1.7-0.3c3.7-0.5,6.4-3.3,6.7-6.8l3-38.3h25.4V221.1z"/>
		<path clip-path="url(#SVGID_4_)" fill-rule="evenodd" clip-rule="evenodd" fill="#CCBC97" d="M353.1,142.2h47.7l3.8,41
			c-0.9,1.4-1.5,2.3-2.4,3.6c-7,9.6-16,16.1-24.8,16.1c-8.7,0-17.8-6.5-24.8-16.1c-1.1-1.5-1.8-2.5-2.8-4.2L353.1,142.2z"/>
		<path clip-path="url(#SVGID_4_)" fill-rule="evenodd" clip-rule="evenodd" fill="#2C3E50" d="M377.3,188.6
			c-11.1,0-22.3-7.2-30.6-17.8c-8.2-10.4-13.7-24.2-13.7-37.6v-0.3l0-0.1c0-0.9-0.1-1.8-0.1-2.7c0-32.1-5.9-58,44.3-58
			c50.2,0,44.3,26,44.3,58c0,0.9,0,1.8-0.1,2.7l0,0.2v0.3c0,13.4-5.5,27.2-13.7,37.6C399.6,181.4,388.5,188.6,377.3,188.6"/>
		<path clip-path="url(#SVGID_4_)" fill-rule="evenodd" clip-rule="evenodd" fill="#EBECEC" d="M385,214.4h-15l-21.5-16.6l-8.3,5.4
			c-26.5,5.5-46.7,17.1-46.7,35.1v26.4c0,7.2,6.2,13,13.9,13h25.8h35h18.7h30.5h29.8c7.6,0,13.9-5.8,13.9-13l0-26.4
			c0-17.9-20.3-29.6-46.8-35.1l-8.1-5.2L385,214.4z"/>
		<polygon clip-path="url(#SVGID_4_)" fill-rule="evenodd" clip-rule="evenodd" fill="#DAE1E6" points="385,214.4 370.1,214.4 
			348.5,197.9 340.3,203.3 383.3,247.8 386.9,277.7 388.8,277.7 384.4,236.3 417.2,203.9 414.3,203.2 406.2,198.1 		"/>
		<path clip-path="url(#SVGID_4_)" fill-rule="evenodd" clip-rule="evenodd" fill="#FFE7BD" d="M347.7,176.8
			c8.3,10.6,19.2,17.8,29.6,17.8c10.5,0,21.3-7.2,29.6-17.8c8.6-10.9,14.4-25.3,14.5-39.2l-2.9-11c-1-3.9-1.1-7.6-1.2-11.1
			c-0.1-4.6-0.2-8.8-2.9-12.3c-4.3-5.6-11.2-3.8-19.2-1.6c-5.5,1.5-11.4,3-17.9,3c-6.5,0-12.4-1.6-17.8-3h0
			c-8-2.1-14.8-3.9-19.2,1.6c-2.7,3.5-2.8,7.7-2.9,12.3c-0.1,3.5-0.2,7.2-1.2,11.1l-2.9,11C333.4,151.5,339.2,165.9,347.7,176.8"/>
		<path clip-path="url(#SVGID_4_)" fill-rule="evenodd" clip-rule="evenodd" fill="#E8D6AC" d="M347.7,176.8
			c8.3,10.6,19.2,17.8,29.6,17.8v-90.1c-6.5,0-12.4-1.6-17.8-3h0c-8-2.1-14.8-3.9-19.2,1.6c-2.7,3.5-2.8,7.7-2.9,12.3
			c-0.1,3.5-0.2,7.2-1.2,11.1l-2.9,11C333.4,151.5,339.2,165.9,347.7,176.8"/>
		<path clip-path="url(#SVGID_4_)" fill-rule="evenodd" clip-rule="evenodd" fill="#3D566E" d="M368.2,277.7h18.7
			c-2-16.6-4-29.6-6-46.2c-0.1-0.9,0.1-1.6,0.6-2.5l5-12.3c0.3-0.5,0.4-1.1,0.1-1.6c-0.3-0.5-0.9-0.8-1.5-0.8h-15
			c-0.6,0-1.2,0.3-1.5,0.8c-0.3,0.5-0.3,1.1,0,1.6l5,12.3c0.5,0.8,0.7,1.6,0.6,2.5C372.3,248.2,370.2,261.2,368.2,277.7"/>
		<path clip-path="url(#SVGID_4_)" fill-rule="evenodd" clip-rule="evenodd" fill="#2C3E50" d="M380.9,231.6
			c-0.1-0.9,0.1-1.6,0.6-2.5l5-12.3c0.3-0.5,0.4-1.1,0.1-1.6c-0.3-0.5-0.9-0.8-1.5-0.8h-14.9c-0.6,0-1.2,0.3-1.5,0.8
			c-0.3,0.5-0.2,1.1,0,1.6l5,12.3c0.5,0.8,0.7,1.6,0.6,2.5l-0.8,6.2l9,7.7L380.9,231.6z"/>
		<polygon clip-path="url(#SVGID_4_)" fill-rule="evenodd" clip-rule="evenodd" fill="#EBECEC" points="377.6,214.4 348.5,197.9 
			340.3,203.3 368.8,230.4 		"/>
		<polygon clip-path="url(#SVGID_4_)" fill-rule="evenodd" clip-rule="evenodd" fill="#EBECEC" points="377.6,214.4 406.2,198.1 
			414.5,203.2 386.4,230.4 		"/>
		<path clip-path="url(#SVGID_4_)" fill-rule="evenodd" clip-rule="evenodd" fill="#FFFFFF" d="M293.6,238.3v26.4
			c0,7.2,6.2,13,13.9,13h67.4l-5.5-9.7c-13.2-24-20.9-34.3-29.1-64.7C313.8,208.7,293.6,220.4,293.6,238.3 M379.7,277.7h67.5
			c7.6,0,13.9-5.8,13.9-13l0-26.4c0-17.9-20.3-29.6-46.8-35.1c-8.2,30.1-15.8,40.5-28.7,64L379.7,277.7z"/>
		<path clip-path="url(#SVGID_4_)" fill-rule="evenodd" clip-rule="evenodd" fill="#CCCCCC" d="M426.1,273.5c7.1,0,13-5.8,13-13
			c0-7.1-5.8-13-13-13c-7.1,0-13,5.8-13,13C413.1,267.7,419,273.5,426.1,273.5"/>
		<path clip-path="url(#SVGID_4_)" fill-rule="evenodd" clip-rule="evenodd" fill="#B3B3B3" d="M438.7,263.6
			c-1.1,4.7-4.8,8.3-9.5,9.5l-7.8-7.8l9.5-9.5L438.7,263.6z"/>
		<path clip-path="url(#SVGID_4_)" fill-rule="evenodd" clip-rule="evenodd" fill="#2C3E50" d="M329.1,210.1c0-8.2,8.4-14,20.1-17.4
			l-0.3,3.5c-0.1,0.7-0.2,1.3-0.4,1.9c-8.5,2.6-14.2,6.6-14.2,12H329.1z M405.5,192.6c23.3,6.9,23.8,26.8,23.8,47.8l0,23.7l-5.2-0.7
			l0-11.5l0-11.4c0-16.5,0.3-36.2-17.9-42.2c-0.2-0.6-0.4-1.2-0.4-1.8L405.5,192.6z M358.5,240.5c0,1.9,0,0.9,0,2.6
			c0,14.6-1.3,22.3-12.8,28.2l-2-4.9c8.5-4.9,9.6-11.4,9.7-23.1c0-1.7,0-0.8,0-2.7H358.5z M310.1,243.5c0.1,11.5,1.3,18,9.7,22.8
			l-2,4.9c-11.4-5.8-12.8-13.5-12.8-27.7c0-1.8,0-1,0-3.1h5.2C310.1,240.5,310.1,243.3,310.1,243.5"/>
		<path clip-path="url(#SVGID_4_)" fill-rule="evenodd" clip-rule="evenodd" fill="#CCCCCC" d="M303.1,238.5c0-3.9,0.8-7.5,2.2-10.9
			c1.4-3.5,3.6-6.6,6.2-9.3v0c2.6-2.6,5.8-4.8,9.3-6.2h0c2.6-1.1,5.4-1.8,8.3-2.1h5.2c2.9,0.3,5.7,1,8.3,2.1h0
			c3.5,1.5,6.6,3.6,9.3,6.2c2.6,2.6,4.7,5.8,6.2,9.3v0c1.4,3.4,2.2,7.1,2.2,10.9v2h-1.7h-5.2h-1.9v-2c0-0.7,0-1.4-0.1-2.1
			c-0.2-1.9-0.7-3.7-1.4-5.4c-1-2.4-2.5-4.6-4.3-6.4v0c-1.8-1.8-4-3.3-6.4-4.3h0c-0.2-0.1-0.3-0.1-0.5-0.2c-2.2-0.8-4.6-1.3-7-1.3
			c-2.7,0-5.2,0.5-7.6,1.5c-2.4,1-4.6,2.5-6.4,4.3v0c-1.8,1.8-3.3,4-4.3,6.4c-1,2.3-1.5,4.9-1.5,7.5v2h-1.8h-5.2h-1.8V238.5z"/>
		<path clip-path="url(#SVGID_4_)" fill-rule="evenodd" clip-rule="evenodd" fill="#DAE1E6" d="M426.1,267.2c3.7,0,6.7-3,6.7-6.7
			s-3-6.7-6.7-6.7c-3.7,0-6.7,3-6.7,6.7S422.4,267.2,426.1,267.2"/>
		<path clip-path="url(#SVGID_4_)" fill-rule="evenodd" clip-rule="evenodd" fill="#CCCCCC" d="M345.7,271.3
			c0.2,1.7-0.8,3.4-2.5,3.9l-3.1,0.9c-4.9,1.5-7.6-8.1-2.8-9.5l3.1-0.9c1.2-0.3,2.4,0,3.3,0.7L345.7,271.3z"/>
	</g>
</g>
</svg>
