<?xml version="1.0" encoding="utf-8"?>
<!-- Generator: Adobe Illustrator 18.1.0, SVG Export Plug-In . SVG Version: 6.00 Build 0)  -->
<svg version="1.1" id="Layer_1" xmlns="http://www.w3.org/2000/svg" xmlns:xlink="http://www.w3.org/1999/xlink" x="0px" y="0px"
	 viewBox="0 0 1082.9 309.9" enable-background="new 0 0 1082.9 309.9" xml:space="preserve">
<rect x="-1233.1" y="-523.4" fill="none" width="1082.9" height="309.9"/>
<rect x="71.9" y="-637.4" fill="#0D677C" width="1082.9" height="309.9"/>
<g>
	<line fill="none" stroke="#FFFFFF" stroke-width="2" stroke-miterlimit="10" x1="241" y1="148.5" x2="367" y2="148.5"/>
	<line fill="none" stroke="#FFFFFF" stroke-width="2" stroke-miterlimit="10" x1="725" y1="148.5" x2="851" y2="148.5"/>
	<g>
		<path fill="#E9EBEC" d="M1048.3,149.5c0,58-47,105-105,105c-58,0-105-47-105-105c0-58,47-105,105-105
			C1001.2,44.5,1048.3,91.5,1048.3,149.5"/>
	</g>
	<g>
		<defs>
			<path id="SVGID_1_" d="M838.3,149.5c0,58,47,105,105,105c58,0,105-47,105-105c0-58-47-105-105-105
				C885.3,44.5,838.3,91.5,838.3,149.5"/>
		</defs>
		<clipPath id="SVGID_2_">
			<use xlink:href="#SVGID_1_"  overflow="visible"/>
		</clipPath>
		<rect x="1012.1" y="148.6" clip-path="url(#SVGID_2_)" fill="#EAEEEF" width="89.9" height="132.6"/>
		<rect x="996.4" y="148.6" clip-path="url(#SVGID_2_)" fill="#34495E" width="121.2" height="15.2"/>
		<rect x="1019.1" y="218.2" clip-path="url(#SVGID_2_)" fill="#EAEEEF" width="75.8" height="10.7"/>
		<rect x="1020.1" y="180.9" clip-path="url(#SVGID_2_)" fill="#34495E" width="19.8" height="26.4"/>
		<rect x="1027" y="228.9" clip-path="url(#SVGID_2_)" fill="#56BFE3" width="60.1" height="52.3"/>
		<rect x="1047.1" y="180.9" clip-path="url(#SVGID_2_)" fill="#34495E" width="19.8" height="26.4"/>
		<rect x="877" y="103.7" clip-path="url(#SVGID_2_)" fill="#FFFFFF" width="134.9" height="177.6"/>
		<rect x="944.4" y="103.7" clip-path="url(#SVGID_2_)" fill="#EAEEEF" width="67.4" height="177.6"/>
		<rect x="866.7" y="88.4" clip-path="url(#SVGID_2_)" fill="#34495E" width="155.5" height="15.2"/>
		<rect x="944.4" y="88.4" clip-path="url(#SVGID_2_)" fill="#2C3E50" width="77.7" height="15.2"/>
		<rect x="891.8" y="124" clip-path="url(#SVGID_2_)" fill="#34495E" width="19.8" height="26.4"/>
		<rect x="919.7" y="124" clip-path="url(#SVGID_2_)" fill="#34495E" width="19.8" height="26.4"/>
		<rect x="947.6" y="124" clip-path="url(#SVGID_2_)" fill="#2C3E50" width="19.8" height="26.4"/>
		<rect x="975.5" y="124" clip-path="url(#SVGID_2_)" fill="#2C3E50" width="19.8" height="26.4"/>
		<rect x="891.8" y="156.2" clip-path="url(#SVGID_2_)" fill="#34495E" width="19.8" height="26.4"/>
		<rect x="919.7" y="156.2" clip-path="url(#SVGID_2_)" fill="#34495E" width="19.8" height="26.4"/>
		<rect x="947.6" y="156.2" clip-path="url(#SVGID_2_)" fill="#2C3E50" width="19.8" height="26.4"/>
		<rect x="975.5" y="156.2" clip-path="url(#SVGID_2_)" fill="#2C3E50" width="19.8" height="26.4"/>
		<rect x="891.8" y="188.5" clip-path="url(#SVGID_2_)" fill="#34495E" width="19.8" height="26.4"/>
		<rect x="919.7" y="188.5" clip-path="url(#SVGID_2_)" fill="#34495E" width="19.8" height="26.4"/>
		<rect x="947.6" y="188.5" clip-path="url(#SVGID_2_)" fill="#2C3E50" width="19.8" height="26.4"/>
		<rect x="975.5" y="188.5" clip-path="url(#SVGID_2_)" fill="#2C3E50" width="19.8" height="26.4"/>
		<path clip-path="url(#SVGID_2_)" fill="#56BFE3" d="M970.1,96c0,14.2-11.5,25.7-25.7,25.7c-14.2,0-25.7-11.5-25.7-25.7
			c0-14.2,11.5-25.7,25.7-25.7C958.6,70.4,970.1,81.9,970.1,96"/>
		<path clip-path="url(#SVGID_2_)" fill="#0B769E" d="M944.4,70.4v51.3c14.2,0,25.7-11.5,25.7-25.7
			C970.1,81.9,958.6,70.4,944.4,70.4"/>
		<path clip-path="url(#SVGID_2_)" fill="#FFFFFF" d="M941.9,114.9c-1.9,0-3.4-1.5-3.4-3.4V80.6c0-1.9,1.5-3.4,3.4-3.4h5.1
			c1.9,0,3.4,1.5,3.4,3.4v30.8c0,1.9-1.5,3.4-3.4,3.4H941.9z"/>
		<path clip-path="url(#SVGID_2_)" fill="#CED0D1" d="M944.4,77.2v37.7h2.6c1.9,0,3.4-1.5,3.4-3.4V80.6c0-1.9-1.5-3.4-3.4-3.4H944.4
			z"/>
		<path clip-path="url(#SVGID_2_)" fill="#FFFFFF" d="M925.6,93.5c0-1.9,1.5-3.4,3.4-3.4h30.8c1.9,0,3.4,1.5,3.4,3.4v5.1
			c0,1.9-1.5,3.4-3.4,3.4H929c-1.9,0-3.4-1.5-3.4-3.4V93.5z"/>
		<path clip-path="url(#SVGID_2_)" fill="#CED0D1" d="M944.4,90v12h15.4c1.9,0,3.4-1.5,3.4-3.4v-5.1c0-1.9-1.5-3.4-3.4-3.4H944.4z"
			/>
		<rect x="903.4" y="272.6" clip-path="url(#SVGID_2_)" fill="#34495E" width="82" height="8.6"/>
		<rect x="944.4" y="272.6" clip-path="url(#SVGID_2_)" fill="#2C3E50" width="41" height="8.6"/>
		<rect x="909.3" y="263.9" clip-path="url(#SVGID_2_)" fill="#34495E" width="70.2" height="8.6"/>
		<rect x="944.4" y="263.9" clip-path="url(#SVGID_2_)" fill="#2C3E50" width="35.1" height="8.6"/>
		<rect x="911.2" y="223.6" clip-path="url(#SVGID_2_)" fill="#56BFE3" width="66.4" height="40.4"/>
		<rect x="944.4" y="223.6" clip-path="url(#SVGID_2_)" fill="#0B769E" width="33.2" height="40.4"/>
	</g>
	<g>
		<defs>
			<path id="SVGID_3_" d="M37.8,149.4c0,58,47,105,105,105c58,0,105-47,105-105c0-58-47-105-105-105C84.8,44.4,37.8,91.4,37.8,149.4
				"/>
		</defs>
		<clipPath id="SVGID_4_">
			<use xlink:href="#SVGID_3_"  overflow="visible"/>
		</clipPath>
		<path clip-path="url(#SVGID_4_)" fill="#E9EBEC" d="M34.7,153.1c0-60.6,49.1-109.7,109.7-109.7c60.6,0,109.7,49.1,109.7,109.7
			c0,60.6-49.1,109.7-109.7,109.7C83.8,262.9,34.7,213.7,34.7,153.1"/>
		<path clip-path="url(#SVGID_4_)" fill-rule="evenodd" clip-rule="evenodd" fill="#E1CAA2" d="M120.2,129.4h47.7l5.1,54.2
			c0.4,3.8,3.6,6.7,7.7,6.8l0.9,0l-6,20.3l-63.3-4.9l-4.7-15.3l1.7-0.3c3.7-0.5,6.4-3.3,6.7-6.8L120.2,129.4z"/>
		<path clip-path="url(#SVGID_4_)" fill-rule="evenodd" clip-rule="evenodd" fill="#D2C3A1" d="M144.4,208.3l-32.2-2.5l-4.7-15.3
			l1.7-0.3c3.7-0.5,6.4-3.3,6.7-6.8l3-38.3h25.4V208.3z"/>
		<path clip-path="url(#SVGID_4_)" fill-rule="evenodd" clip-rule="evenodd" fill="#CABA95" d="M120.2,129.4h47.7l3.8,41
			c-0.9,1.4-1.5,2.3-2.4,3.6c-7,9.6-16,16.1-24.8,16.1c-8.7,0-17.8-6.5-24.8-16.1c-1.1-1.5-1.8-2.5-2.8-4.2L120.2,129.4z"/>
		<path clip-path="url(#SVGID_4_)" fill-rule="evenodd" clip-rule="evenodd" fill="#2C3E50" d="M144.4,175.8
			c-11.1,0-22.3-7.2-30.6-17.8c-8.2-10.4-13.7-24.2-13.7-37.6v-0.3l0-0.1c0-0.9-0.1-1.8-0.1-2.7c0-32.1-5.9-58,44.3-58
			c50.2,0,44.3,26,44.3,58c0,0.9,0,1.8-0.1,2.7l0,0.2v0.3c0,13.4-5.5,27.2-13.7,37.6C166.7,168.6,155.5,175.8,144.4,175.8"/>
		<path clip-path="url(#SVGID_4_)" fill-rule="evenodd" clip-rule="evenodd" fill="#E9EAEA" d="M152.1,201.6h-15L115.6,185l-8.3,5.4
			c-26.5,5.5-46.7,17.1-46.7,35.1v26.4c0,7.2,6.2,13,13.9,13h25.8h35H154h30.5h29.8c7.6,0,13.9-5.8,13.9-13l0-26.4
			c0-17.9-20.3-29.6-46.8-35.1l-8.1-5.2L152.1,201.6z"/>
		<polygon clip-path="url(#SVGID_4_)" fill-rule="evenodd" clip-rule="evenodd" fill="#D8DFE4" points="152.1,201.6 137.2,201.6 
			115.6,185 107.4,190.4 150.3,235 154,264.9 155.9,264.9 151.4,223.5 184.3,191 181.4,190.4 173.3,185.2 		"/>
		<path clip-path="url(#SVGID_4_)" fill-rule="evenodd" clip-rule="evenodd" fill="#FFE5BB" d="M114.8,163.9
			c8.3,10.6,19.2,17.8,29.6,17.8c10.5,0,21.3-7.2,29.6-17.8c8.6-10.9,14.4-25.3,14.5-39.2l-2.9-11c-1-3.9-1.1-7.6-1.2-11.1
			c-0.1-4.6-0.2-8.8-2.9-12.3c-4.3-5.6-11.2-3.8-19.2-1.6c-5.5,1.4-11.4,3-17.9,3c-6.5,0-12.4-1.6-17.8-3h0
			c-8-2.1-14.8-3.9-19.2,1.6c-2.7,3.5-2.8,7.7-2.9,12.3c-0.1,3.5-0.2,7.2-1.2,11.1l-2.9,11C100.4,138.7,106.2,153,114.8,163.9"/>
		<path clip-path="url(#SVGID_4_)" fill-rule="evenodd" clip-rule="evenodd" fill="#E6D4AA" d="M114.8,163.9
			c8.3,10.6,19.2,17.8,29.6,17.8V91.7c-6.5,0-12.4-1.6-17.8-3h0c-8-2.1-14.8-3.9-19.2,1.6c-2.7,3.5-2.8,7.7-2.9,12.3
			c-0.1,3.5-0.2,7.2-1.2,11.1l-2.9,11C100.4,138.7,106.2,153,114.8,163.9"/>
		<path clip-path="url(#SVGID_4_)" fill-rule="evenodd" clip-rule="evenodd" fill="#3D566E" d="M135.3,264.9H154
			c-2-16.6-4-29.6-6-46.2c-0.1-0.9,0.1-1.6,0.6-2.5l5-12.3c0.3-0.5,0.4-1.1,0.1-1.6c-0.3-0.5-0.9-0.8-1.5-0.8h-15
			c-0.6,0-1.2,0.3-1.5,0.8c-0.3,0.5-0.3,1.1,0,1.6l5,12.3c0.5,0.8,0.7,1.6,0.6,2.5C139.3,235.3,137.3,248.3,135.3,264.9"/>
		<path clip-path="url(#SVGID_4_)" fill-rule="evenodd" clip-rule="evenodd" fill="#2C3E50" d="M147.9,218.8
			c-0.1-0.9,0.1-1.6,0.6-2.5l5-12.3c0.3-0.5,0.4-1.1,0.1-1.6c-0.3-0.5-0.9-0.8-1.5-0.8h-15c-0.6,0-1.2,0.3-1.5,0.8
			c-0.3,0.5-0.2,1.1,0,1.6l5,12.3c0.5,0.8,0.7,1.6,0.6,2.5l-0.8,6.2l9,7.7L147.9,218.8z"/>
		<polygon clip-path="url(#SVGID_4_)" fill-rule="evenodd" clip-rule="evenodd" fill="#E9EAEA" points="144.6,201.6 115.6,185 
			107.4,190.4 135.8,217.6 		"/>
		<polygon clip-path="url(#SVGID_4_)" fill-rule="evenodd" clip-rule="evenodd" fill="#E9EAEA" points="144.6,201.6 173.3,185.2 
			181.5,190.4 153.5,217.6 		"/>
		<path clip-path="url(#SVGID_4_)" fill-rule="evenodd" clip-rule="evenodd" fill="#FFFFFF" d="M60.6,225.5v26.4
			c0,7.2,6.2,13,13.9,13H142l-5.5-9.7c-13.2-24-20.9-34.3-29.1-64.8C80.9,195.9,60.6,207.6,60.6,225.5 M146.8,264.9h67.5
			c7.6,0,13.9-5.8,13.9-13l0-26.4c0-17.9-20.3-29.6-46.8-35.1c-8.2,30.1-15.8,40.5-28.7,64L146.8,264.9z"/>
		<path clip-path="url(#SVGID_4_)" fill-rule="evenodd" clip-rule="evenodd" fill="#CACACA" d="M193.2,260.7c7.1,0,13-5.8,13-13
			c0-7.1-5.8-13-13-13c-7.1,0-13,5.8-13,13C180.2,254.9,186,260.7,193.2,260.7"/>
		<path clip-path="url(#SVGID_4_)" fill-rule="evenodd" clip-rule="evenodd" fill="#B1B1B1" d="M205.8,250.8
			c-1.1,4.7-4.8,8.3-9.5,9.5l-7.8-7.8l9.5-9.5L205.8,250.8z"/>
		<path clip-path="url(#SVGID_4_)" fill-rule="evenodd" clip-rule="evenodd" fill="#2C3E50" d="M96.1,197.3c0-8.2,8.4-14,20.1-17.4
			l-0.3,3.5c-0.1,0.7-0.2,1.3-0.4,1.9c-8.5,2.6-14.2,6.6-14.2,12H96.1z M172.6,179.7c23.3,6.9,23.8,26.8,23.8,47.8l0,23.7l-5.2-0.7
			l0-11.5l0-11.4c0-16.5,0.3-36.2-17.9-42.2c-0.2-0.6-0.4-1.2-0.4-1.8L172.6,179.7z M125.5,227.6c0,1.9,0,0.9,0,2.6
			c0,14.6-1.3,22.3-12.8,28.2l-2-4.9c8.5-4.9,9.6-11.4,9.7-23.1c0-1.7,0-0.8,0-2.7H125.5z M77.1,230.7c0.1,11.5,1.3,18,9.7,22.8
			l-2,4.9C73.4,252.6,72,245,72,230.7c0-1.8,0-1,0-3.1h5.2C77.2,227.7,77.1,230.5,77.1,230.7"/>
		<path clip-path="url(#SVGID_4_)" fill-rule="evenodd" clip-rule="evenodd" fill="#CACACA" d="M70.2,225.7c0-3.9,0.8-7.5,2.2-10.9
			c1.4-3.5,3.6-6.6,6.2-9.3v0c2.6-2.6,5.8-4.8,9.3-6.2h0c2.6-1.1,5.4-1.8,8.3-2.1h5.2c2.9,0.3,5.7,1,8.3,2.1h0
			c3.5,1.5,6.6,3.6,9.3,6.2c2.6,2.6,4.7,5.8,6.2,9.3v0c1.4,3.4,2.2,7.1,2.2,10.9v2h-1.7h-5.2h-1.9v-2c0-0.7,0-1.4-0.1-2.1
			c-0.2-1.9-0.7-3.7-1.4-5.4c-1-2.4-2.5-4.6-4.3-6.4v0c-1.8-1.8-4-3.3-6.4-4.3h0c-0.2-0.1-0.3-0.1-0.5-0.2c-2.2-0.8-4.6-1.3-7-1.3
			c-2.7,0-5.2,0.5-7.6,1.5c-2.4,1-4.6,2.5-6.4,4.3v0c-1.8,1.8-3.3,4-4.3,6.4c-1,2.3-1.5,4.9-1.5,7.5v2h-1.8H72h-1.8V225.7z"/>
		<path clip-path="url(#SVGID_4_)" fill-rule="evenodd" clip-rule="evenodd" fill="#D8DFE4" d="M193.2,254.4c3.7,0,6.7-3,6.7-6.7
			c0-3.7-3-6.7-6.7-6.7c-3.7,0-6.7,3-6.7,6.7C186.5,251.4,189.5,254.4,193.2,254.4"/>
		<path clip-path="url(#SVGID_4_)" fill-rule="evenodd" clip-rule="evenodd" fill="#CACACA" d="M112.8,258.4
			c0.2,1.7-0.8,3.4-2.5,3.9l-3.1,0.9c-4.9,1.5-7.6-8.1-2.8-9.5l3.1-0.9c1.2-0.3,2.4,0,3.3,0.7L112.8,258.4z"/>
	</g>
	<path fill="#EBEDEE" d="M347.8,123.9c0-41.4,33.6-75,75-75s75,33.6,75,75c0,41.4-33.6,75-75,75S347.8,165.3,347.8,123.9"/>
	<circle fill="none" stroke="#0D677C" stroke-width="5" stroke-miterlimit="10" cx="422.8" cy="123.9" r="65.7"/>
	<path fill-rule="evenodd" clip-rule="evenodd" fill="#0D677C" d="M422.8,166.5c-8.4-9.8-20.4-22-27.6-32.2
		c-4-5.8-6.1-12.3-6.1-19.4c0-18.6,15.1-33.7,33.7-33.7c18.6,0,33.7,15.1,33.7,33.7c0,7-2.1,13.7-6.1,19.4
		C443.2,144.5,431.2,156.7,422.8,166.5"/>
	<path fill-rule="evenodd" clip-rule="evenodd" fill="#D7DEE2" d="M422.8,90.1c-13.7,0-24.8,11.1-24.8,24.8s11.1,24.8,24.8,24.8
		c13.7,0,24.8-11.1,24.8-24.8S436.5,90.1,422.8,90.1"/>
	<path fill-rule="evenodd" clip-rule="evenodd" fill="#0D677C" d="M422.8,100.2c-8.2,0-14.8,6.6-14.8,14.8s6.6,14.8,14.8,14.8
		c8.2,0,14.8-6.6,14.8-14.8S431,100.2,422.8,100.2"/>
	<path fill-rule="evenodd" clip-rule="evenodd" fill="#0B769E" d="M422.8,166.5c-8.4-9.8-20.4-22-27.6-32.2
		c-4-5.8-6.1-12.3-6.1-19.4c0-18.6,15.1-33.7,33.7-33.7V166.5z"/>
	<path fill-rule="evenodd" clip-rule="evenodd" fill="#E9EDEE" d="M422.8,90.1c-13.7,0-24.8,11.1-24.8,24.8s11.1,24.8,24.8,24.8
		V90.1z"/>
	<path fill-rule="evenodd" clip-rule="evenodd" fill="#0B769E" d="M422.8,100.2c-8.2,0-14.8,6.6-14.8,14.8s6.6,14.8,14.8,14.8V100.2
		z"/>
	<path fill="#EBEDEE" d="M588.3,123.9c0-41.4,33.6-75,75-75s75,33.6,75,75c0,41.4-33.6,75-75,75S588.3,165.3,588.3,123.9"/>
	<circle fill="none" stroke="#2C3E50" stroke-width="5" stroke-miterlimit="10" cx="663.3" cy="123.9" r="65.7"/>
	<path fill-rule="evenodd" clip-rule="evenodd" fill="#2C3E4E" d="M692.8,112.1h-59.1v29.7c0,1.9,13.2,3.4,29.5,3.4
		c16.3,0,29.5-1.5,29.5-3.4V112.1z"/>
	<path fill-rule="evenodd" clip-rule="evenodd" fill="#496680" d="M692.8,112.1h-17.2v1.7h9.2v30.4c2.7-0.3,4.9-0.7,6.3-1.2v-27.8
		h1.7V112.1z"/>
	<rect x="711.8" y="113.2" fill-rule="evenodd" clip-rule="evenodd" fill="#2C3E4E" width="2" height="30.7"/>
	<path fill-rule="evenodd" clip-rule="evenodd" fill="#3D566C" d="M650.9,112.1h-14.8v31.1c2.9,0.8,8.2,1.4,14.8,1.8V112.1z"/>
	<path fill-rule="evenodd" clip-rule="evenodd" fill="#FFB204" d="M712.8,125.1c1.9,0,3.4,1.5,3.4,3.4c0,1.9-1.5,3.4-3.4,3.4
		c-1.9,0-3.4-1.5-3.4-3.4C709.4,126.6,710.9,125.1,712.8,125.1 M709.4,138v13.5h6.8V138c0-1.9-1.5-3.4-3.4-3.4
		C710.9,134.6,709.4,136.2,709.4,138"/>
	<polygon fill-rule="evenodd" clip-rule="evenodd" fill="#3D566C" points="663.3,96.2 717.9,112.1 663.3,128 608.6,112.1 	"/>
	<path fill-rule="evenodd" clip-rule="evenodd" fill="#2C3E4E" d="M663.3,112.7c3,0,5.5-0.7,5.5-1.6c0-0.9-2.5-1.6-5.5-1.6
		c-3,0-5.5,0.7-5.5,1.6C657.8,112,660.2,112.7,663.3,112.7"/>
	<polygon fill-rule="evenodd" clip-rule="evenodd" fill="#496680" points="663.3,128 608.6,112.1 663.3,96.2 	"/>
	<path fill-rule="evenodd" clip-rule="evenodd" fill="#3D566C" d="M663.3,112.7c-3,0-5.5-0.7-5.5-1.6c0-0.9,2.4-1.6,5.5-1.6V112.7z"
		/>
	<path fill="#EBEDEE" d="M468,80.3c0.1-41.4,33.8-74.9,75.2-74.8c41.4,0.1,74.9,33.8,74.8,75.2c-0.1,41.4-33.8,74.9-75.2,74.8
		C501.4,155.4,467.9,121.7,468,80.3"/>
	<circle fill="none" stroke="#2ECC71" stroke-width="5" stroke-miterlimit="10" cx="543" cy="80.5" r="65.7"/>
	<path fill="none" d="M488.1,69.5c0,30.3,24.6,54.9,54.9,54.9c30.3,0,54.9-24.6,54.9-54.9c0-30.3-24.6-54.9-54.9-54.9
		C512.7,14.6,488.1,39.2,488.1,69.5"/>
	<g>
		<path fill-rule="evenodd" clip-rule="evenodd" fill="#CACACA" d="M501.9,101.6h82.3c4,0,7.3-3.3,7.3-7.3V54.7c0-4-3.3-7.3-7.3-7.3
			h-82.3c-4,0-7.3,3.3-7.3,7.3v39.6C494.5,98.3,497.8,101.6,501.9,101.6"/>
		<path fill-rule="evenodd" clip-rule="evenodd" fill="#27AC60" d="M535.2,87.3c-3.3-2.9-5.4-7.6-5.4-12.9c0-5.3,2.1-10,5.4-12.9
			V87.3z"/>
		<path fill-rule="evenodd" clip-rule="evenodd" fill="#2ECA71" d="M550.9,54c5.7,3.8,9.6,11.5,9.6,20.4c0,8.9-3.9,16.6-9.6,20.4
			v1.5h33.7c1.4,0,2.5-1.2,2.5-2.7V55.3c0-1.5-1.1-2.7-2.5-2.7h-33.7V54z"/>
		<path fill-rule="evenodd" clip-rule="evenodd" fill="#27AC60" d="M550.9,87.3c3.3-2.9,5.4-7.6,5.4-12.9c0-5.3-2.1-10-5.4-12.9
			L550.9,87.3z"/>
		<path fill-rule="evenodd" clip-rule="evenodd" fill="#2ECA71" d="M535.2,54c-5.7,3.8-9.6,11.5-9.6,20.4c0,8.9,3.9,16.6,9.6,20.4
			v1.5h-33.7c-1.4,0-2.5-1.2-2.5-2.7V55.3c0-1.5,1.1-2.7,2.5-2.7h33.7V54z"/>
		<path fill-rule="evenodd" clip-rule="evenodd" fill="#D8DFE4" d="M572.7,56h10.5c0.5,0,1,0.4,1,1v1.3c0,0.5-0.4,1-1,1h-10.5
			c-0.5,0-1-0.4-1-1l0-1.3C571.7,56.5,572.2,56,572.7,56"/>
		<path fill-rule="evenodd" clip-rule="evenodd" fill="#D8DFE4" d="M572.7,89.7h10.5c0.5,0,1,0.4,1,1V92c0,0.5-0.4,1-1,1l-10.5,0
			c-0.5,0-1-0.4-1-1v-1.3C571.7,90.1,572.2,89.7,572.7,89.7"/>
		<path fill-rule="evenodd" clip-rule="evenodd" fill="#D8DFE4" d="M578.5,70.5c2.3,0,4.1,1.8,4.1,4c0,2.2-1.8,4-4.1,4
			c-2.3,0-4.1-1.8-4.1-4C574.4,72.3,576.2,70.5,578.5,70.5"/>
		<path fill-rule="evenodd" clip-rule="evenodd" fill="#D8DFE4" d="M513.4,56h-10.5c-0.5,0-1,0.4-1,1v1.3c0,0.5,0.4,1,1,1h10.5
			c0.5,0,1-0.4,1-1V57C514.4,56.5,513.9,56,513.4,56"/>
		<path fill-rule="evenodd" clip-rule="evenodd" fill="#D8DFE4" d="M513.4,89.7l-10.5,0c-0.5,0-1,0.4-1,1V92c0,0.5,0.4,1,1,1l10.5,0
			c0.5,0,1-0.4,1-1v-1.3C514.4,90.1,513.9,89.7,513.4,89.7"/>
		<path fill-rule="evenodd" clip-rule="evenodd" fill="#D8DFE4" d="M507.6,70.5c-2.3,0-4.1,1.8-4.1,4c0,2.2,1.8,4,4.1,4
			c2.3,0,4.1-1.8,4.1-4C511.7,72.3,509.8,70.5,507.6,70.5"/>
		<rect x="516.4" y="52.6" fill-rule="evenodd" clip-rule="evenodd" fill="#2ECA71" width="51" height="43.7"/>
		
			<circle fill-rule="evenodd" clip-rule="evenodd" fill="#D8D8D8" stroke="#C1C1C1" stroke-width="3.6041" stroke-miterlimit="10" cx="541.9" cy="74.4" r="16.8"/>
		<g>
			<text transform="matrix(1 0 0 1 534.5942 83.0315)" fill="#EDEDED" font-family="'OpenSans'" font-size="27.064">$</text>
		</g>
		<g opacity="0.1">
			<path fill="#020202" d="M584.2,47.4H543v54.3h41.2c4,0,7.3-3.3,7.3-7.3V54.7C591.5,50.7,588.2,47.4,584.2,47.4z"/>
		</g>
	</g>
	<g>
		<path fill="#E9EBEC" d="M438,199.1c0.2-58,47.3-104.9,105.3-104.7c58,0.2,104.9,47.3,104.7,105.3c-0.2,58-47.3,104.9-105.3,104.7
			C484.8,304.2,437.9,257.1,438,199.1"/>
		<circle fill="none" stroke="#E26666" stroke-width="7" stroke-miterlimit="10" cx="543" cy="199.4" r="92"/>
		<g>
			<path fill="#E26666" d="M532.2,207.3c0-20.7,16.8-37.5,37.5-37.5c7.6,0,14.6,2.2,20.5,6.1c-3.2-13.7-15.5-23.9-30.1-23.9
				c-8.7,0-16.6,3.6-22.2,9.4c-5.6-5.8-13.5-9.4-22.2-9.4c-17.1,0-30.9,13.8-30.9,30.9c0,7.6,2.7,14.5,7.3,19.9l0.9,1
				c0.8,0.9,41.7,39.9,45,43c0.9-0.9,4.7-4.5,9.7-9.2C538.2,230.7,532.2,219.7,532.2,207.3"/>
			<path fill="#E26666" d="M569.7,175.6c-0.2,0-0.4,0-0.6,0c-17.2,0.3-31,14.4-31,31.6c0,14.8,10.2,27.3,24,30.7
				c2.4,0.6,5,0.9,7.6,0.9c17.5,0,31.6-14.2,31.6-31.6C601.3,189.8,587.2,175.6,569.7,175.6 M585.1,212.1h-10.6v14v4.7h-5h-4.7
				v-18.7h-18.7v-9.6h18.7v-18.7h9.6v18.7h12.4h6.3v9.6H585.1z"/>
			<polygon fill="#FFFFFF" points="586.9,202.5 574.5,202.5 574.5,183.7 564.9,183.7 564.9,202.5 546.2,202.5 546.2,212.1 
				564.9,212.1 564.9,230.8 569.6,230.8 574.5,230.8 574.5,226.1 574.5,212.1 585.1,212.1 593.2,212.1 593.2,202.5 			"/>
		</g>
	</g>
</g>
</svg>
