<?xml version="1.0" encoding="utf-8"?>
<!-- Generator: Adobe Illustrator 18.1.0, SVG Export Plug-In . SVG Version: 6.00 Build 0)  -->
<svg version="1.1" id="Layer_1" xmlns="http://www.w3.org/2000/svg" xmlns:xlink="http://www.w3.org/1999/xlink" x="0px" y="0px"
	 viewBox="0 0 150 25" enable-background="new 0 0 150 25" xml:space="preserve">
<g>
	<g>
		<path fill="#2C3E50" d="M17.6,8.4L12,16h-0.6L5.8,8.4V21H2.5V3.6h3.8l5.4,7.5l5.4-7.5h3.8V21h-3.3V8.4z"/>
		<path fill="#2C3E50" d="M26.4,16c0.2,1.5,1.5,2.6,3.7,2.6c1.1,0,2.6-0.4,3.3-1.1l1.9,1.9c-1.3,1.3-3.4,2-5.3,2
			c-4.2,0-6.7-2.6-6.7-6.5c0-3.7,2.5-6.4,6.5-6.4c4.1,0,6.7,2.5,6.2,7.6H26.4z M33,13.5c-0.2-1.6-1.4-2.4-3.2-2.4
			c-1.6,0-3,0.8-3.4,2.4H33z"/>
		<path fill="#2C3E50" d="M51,3.6V21h-2.8L48,19.3c-0.9,1.5-2.5,2-4,2c-3.6,0-6.3-2.4-6.3-6.4c0-4.2,2.7-6.4,6.2-6.4
			c1.3,0,3.3,0.7,4,2V3.6H51z M40.7,14.9c0,2.1,1.5,3.6,3.5,3.6c1.9,0,3.6-1.4,3.6-3.6c0-2.1-1.6-3.6-3.6-3.6
			C42.3,11.3,40.7,12.7,40.7,14.9z"/>
	</g>
	<g>
		<path fill="#2C3E50" d="M92.8,8.4L87.1,16h-0.6l-5.5-7.6V21h-3.3V3.6h3.8l5.4,7.5l5.4-7.5h3.8V21h-3.3V8.4z"/>
		<path fill="#2C3E50" d="M108.9,8.8h2.9V21H109l-0.1-1.8c-0.7,1.4-2.6,2.1-4,2.2c-3.6,0-6.3-2.2-6.3-6.5c0-4.2,2.8-6.4,6.4-6.4
			c1.6,0,3.2,0.8,3.9,2L108.9,8.8z M101.6,14.9c0,2.3,1.6,3.7,3.6,3.7c4.8,0,4.8-7.4,0-7.4C103.2,11.2,101.6,12.5,101.6,14.9z"/>
		<path fill="#2C3E50" d="M118.1,5.3v3.5h3.4v2.6h-3.4v5.3c0,1.2,0.6,1.7,1.6,1.7c0.5,0,1-0.1,1.5-0.4l0.8,2.6
			c-0.9,0.3-1.6,0.5-2.5,0.5c-2.7,0.1-4.4-1.4-4.4-4.5v-5.3h-2.3V8.8h2.3V5.6L118.1,5.3z"/>
		<path fill="#2C3E50" d="M134.3,19.4c-1.4,1.4-2.9,1.9-4.7,1.9c-3.6,0-6.5-2.1-6.5-6.5s3-6.5,6.5-6.5c1.7,0,3.1,0.5,4.4,1.8l-1.9,2
			c-0.7-0.6-1.6-1-2.5-1c-2,0-3.5,1.5-3.5,3.6c0,2.3,1.6,3.6,3.5,3.6c1,0,1.9-0.3,2.7-1L134.3,19.4z"/>
		<path fill="#2C3E50" d="M138.7,3.6v6.8c1.1-1.4,2.4-1.8,3.8-1.8c3.5,0,5,2.4,5,6V21h-3v-6.4c0-2.2-1.2-3.2-2.8-3.2
			c-1.8,0-3,1.5-3,3.4V21h-3V3.6H138.7z"/>
	</g>
	<g>
		<path fill="#EB3725" d="M62.3,14c0-3.7,3-6.7,6.7-6.7c1.3,0,2.6,0.4,3.6,1.1C72,6,69.9,4.1,67.2,4.1c-1.6,0-3,0.6-4,1.7
			c-1-1-2.4-1.7-4-1.7c-3,0-5.5,2.5-5.5,5.5c0,1.4,0.5,2.6,1.3,3.5l0.2,0.2c0.1,0.2,7.4,7.1,8,7.7c0.2-0.2,0.8-0.8,1.7-1.6
			C63.4,18.2,62.3,16.2,62.3,14z"/>
		<path fill="#EB3725" d="M69,8.4c0,0-0.1,0-0.1,0c-3.1,0.1-5.5,2.6-5.5,5.6c0,2.6,1.8,4.9,4.3,5.5c0.4,0.1,0.9,0.2,1.4,0.2
			c3.1,0,5.6-2.5,5.6-5.6C74.6,10.9,72.1,8.4,69,8.4z M71.7,14.8h-1.9v2.5v0.8h-0.9h-0.8v-3.3h-3.3v-1.7h3.3V9.8h1.7v3.3H72h1.1v1.7
			H71.7z"/>
		<polygon fill="#FFFFFF" points="72,13.1 69.8,13.1 69.8,9.8 68.1,9.8 68.1,13.1 64.8,13.1 64.8,14.8 68.1,14.8 68.1,18.2 
			68.9,18.2 69.8,18.2 69.8,17.3 69.8,14.8 71.7,14.8 73.1,14.8 73.1,13.1 		"/>
	</g>
</g>
<g>
	<path fill="#FFFFFF" d="M-95.9,492.9c-2.7,0-5.3,0-8,0c-0.3-2.3,2.3-2.1,3.3-4.3c-5.8,2.5-10.9,2.6-14.2-3.2
		c-2-3.5-1.7-7.1,0.8-10.3c3.4-4.2,7.6-3.9,13.1-1.3c-5-4.2-9.6-4-13.5-0.1c-4,3.9-4.2,10-0.6,14.5c1.2,1.4,3.6,2.1,3.1,4.6
		c-3.3,0-6.7,0-10,0c-0.3-0.3-0.5-0.7-0.7-1.2c-5.1-2.5-7.2-6.5-6.7-12.2c0.4-3.7,0.2-7.3,5.9-7.4c-3.4-1.2-6-2.4-6.2-6.1
		c-1.6,3-3.6,5.6-1.4,9.2c0.9,1.5,0.5,3.6,0.4,5.4c-0.1,3.9,0.7,7.6,2.9,10.8c0.2,0.5,0.1,0.9-0.2,1.3c-3.3,0-6.7,0-10,0
		c-0.9-3.9-0.1-7.9-0.3-11.9c-0.3-8.6-4-11.3-12.7-8.7c2.7-0.4,5.5-0.7,8,0.6c1.9,1.1,3.2,2.5,2.6,4.8c-0.6,2.1-2.4,2-4.1,1.8
		c-1.5-0.2-3-0.2-4.5,0.2c-6.2,1.4-7.7,5.3-4.2,10.5c0.5,0.8,1.4,1.4,1,2.6c-3,0-6,0-9,0c-0.9-5.6-0.1-11.3-0.3-16.9
		c-0.1-2.3,0.1-4.7,0-7c-0.1-1.6,0.7-3.9-1.2-4.4c-1.9-0.5-2.5,1.8-3.4,3.1c-1.8,2.8-3.6,5.6-5.6,8.3c-2,2.7-3.9,2.7-5.9,0
		c-1.9-2.6-3.5-5.3-5.3-7.8c-1-1.4-1.6-3.4-4.3-3.8c-1.5,9.1,0.3,18.3-1,27.2c-0.2,0.5-0.5,0.9-0.9,1.3c-14.3,0-28.7,0-43,0
		c-0.4-0.5-0.8-1-1-1.6c-1.1-8.9-0.4-17.8-0.4-26.7c0-1.3,0.5-2.6,1.4-3.6c45.3,0,90.7,0,136,0c0.5,0.6,1.1,1.3,1.1,2.2
		c0.5,9.2,0.5,18.4,0,27.7C-94.8,491.5-95.4,492.2-95.9,492.9z"/>
	<path fill="#FEFEFF" d="M-246.9,492.9c-5.3,0-10.7,0-16,0c-0.3-2.2,2.2-2.2,3.1-3.9c-3.9,1.5-7.7,2.6-11.2-0.3
		c-1.4-1.2-2.9-2.5-2.5-4.6c0.4-2.4,2.5-2.3,4.3-2.4c2.8-0.2,5.7,0,8.5-0.1c2.7-0.1,3.4-1.4,2.8-3.9c-1-3.9-4.2-6.7-8.1-7
		c-3.9-0.2-8.1,2.5-9.2,6.3c-1.3,4.2-0.8,8.2,2.4,11.6c1.2,1.3,3.2,2,2.9,4.3c-3.7,0-7.3,0-11,0c-1.7-1.9-1.3-4.3-1.4-6.6
		c-0.2-7.2,0.5-14.4-0.4-21.6c-2.3-1.9-2.9,0.5-3.7,1.6c-2.3,3-4.3,6.3-6.4,9.4c-2,2.9-3.7,2.7-5.7-0.1c-2.8-3.9-5.1-8.1-8.2-11.8
		c-1-0.9-2.4-1-3.3-2.1c0.9-2.1,2.7-0.9,4-0.9c23.3-0.1,46.7-0.1,70-0.1c1.7,1.8,1.3,4.1,1.3,6.2c0,6-0.5,6.3-5.9,4.4
		c-3.8-1.4-8.2,0.1-10.5,3.5c-2.4,3.5-1.9,10.4,0.8,13.7c1,1.2,2.4,1.8,3.4,2.9C-246.5,491.9-246.5,492.4-246.9,492.9z"/>
	<path fill="#172843" d="M-188.7,491.8c0-8.8-0.1-17.6-0.1-26.4c0-1.1-0.9-2.8,1.1-3.3c1.9-0.5,3,0.5,4,2.1c2.9,4.6,6,9.1,9.2,14
		c3.2-4.8,6.2-9.3,9.1-13.9c1-1.5,2.1-2.6,4-2.2c2.2,0.5,1.2,2.4,1.2,3.7c0.1,7.6,0,15.3,0.1,22.9c0,1.5-0.2,2.9-0.9,4.2
		c-1,0-2,0-3,0c-2.3-3.3-1-7.1-1.2-10.6c-0.2-2.8,0-5.5,0-9c-2.3,3.1-3.8,5.8-5.7,8.2c-2.6,3.4-4.3,3.4-7.2,0.2
		c-2.5-2.8-3.9-6.5-6.7-9.1c0.4,5.3,0.3,10.6,0.1,15.8C-184.8,490.6-185,493.5-188.7,491.8z"/>
	<path fill="#FEFEFE" d="M-184.8,470.2c4.2,4,6.3,9.5,10.5,14.1c3.3-4.8,6.5-9.5,10.4-15.2c0,8.8,0,16.3,0,23.8c-7,0-14,0-21,0
		C-185.7,485.3-185.7,477.7-184.8,470.2z"/>
	<path fill="#FEFEFE" d="M-284.9,492.9c-7,0-14,0-21,0c-2.5-7.2-1.8-14.4-0.4-21.6c3.2-1.5,4,1.5,5.2,3.1c5.7,7.7,5.6,7.7,11.2-0.2
		c1.2-1.7,2.3-4.6,4.5-4c2.6,0.7,1.8,3.9,1.8,6.1c-0.1,5.1,0.5,10.3-0.4,15.4C-284.2,492-284.5,492.5-284.9,492.9z"/>
	<path fill="#162843" d="M-247.2,492.1c-6.6-3.3-9-10.7-5.6-17c3.2-5.9,9.3-7.1,16.9-2.9c0-3.9,0-7.6,0-11.3c1.3,0,2.7,0,4,0
		c0,10.3,0,20.6-0.1,31c-1.7,1.5-3.3-0.6-4.9-0.1c-1.3,0.6-2.7,0.7-4.1,0.6C-243,492.2-245.2,492.7-247.2,492.1z"/>
	<path fill="#192944" d="M-269.9,492.9c-6.7-4.9-8.6-9-6.9-15.4c1.3-5.1,6.2-8.7,11.1-8.2c5.3,0.5,9.2,4.9,9.7,10.3
		c0.2,2.4-0.6,3.2-3,3.1c-3.8-0.2-7.6,0-11.4-0.1c-3-0.1-3,1.2-1.7,3.3c1.9,3.3,6.2,4.4,10.1,2.7c1.4-0.6,3-3.4,4.5-0.8
		c1.4,2.5-1.9,2.7-3.1,3.9c-0.5,0.5-1.7,0.1-2.1,1.1C-265.2,492.9-267.5,492.9-269.9,492.9z"/>
	<path fill="#192944" d="M-151.9,492.9c-3-2.7-6.3-5.3-3.9-10c2.3-4.6,6.8-4.7,11.2-4.6c1.3,0,3.2,1.8,3.8-0.3
		c0.6-2.2-1-3.5-3.1-4.4c-2.6-1.1-4.9-0.2-7.3,0.3c-1,0.2-2,1.4-2.7-0.6c-0.7-2,0.6-2.2,1.9-2.7c8.7-3.6,15.3,0.5,15.2,9.7
		c-0.1,4.2,1.1,8.6-1,12.7c-0.7,0-1.3,0-2,0c-1.7-1.4-3.3-0.9-5,0C-147.2,492.9-149.5,492.9-151.9,492.9z"/>
	<path fill="#FDFCFD" d="M-79.9,492.9c-4,0-8,0-12,0c-0.4-0.5-0.7-0.9-0.9-1.5c-0.4-6.4-2.1-13,3.4-18.2c6.1-2.8,9-1.4,10.8,5.1
		C-78.9,483.2-77.2,488.2-79.9,492.9z"/>
	<path fill="#1A2A45" d="M-111.9,492.9c-3.9-3.4-7.5-6.9-6.9-12.8c0.8-8.5,10.2-13.5,17.4-9c1.2,0.7,3.6,1.2,2.2,3.5
		c-1.4,2.4-2.7,0.5-4-0.4c-3.4-2.3-6.7-1.7-9.5,1c-2.9,2.8-3.1,7.7-0.6,11c2.6,3.5,6,3.7,9.8,2.2c1.4-0.5,2.8-3.6,4.4-0.9
		c1.4,2.4-1.6,2.9-2.9,4c-0.6,0.5-1.7,0.1-1.9,1.2C-106.5,492.9-109.2,492.9-111.9,492.9z"/>
	<path fill="#F9F9FA" d="M-91.9,460.9c4.7,0,9.3,0.1,14-0.1c1.7-0.1,2.1,0.3,2.1,2.1c-0.2,4-0.1,8-0.1,12c-0.4,0.3-0.8,0.4-1.3,0.1
		c-5-5-6-5.2-12.5-2.4c-1,0.4-1.8,0.8-2.7-0.2C-93.7,468.5-94.1,464.6-91.9,460.9z"/>
	<path fill="#24314B" d="M-91.9,460.9c0.7,3.9-0.7,7.9,0.9,11.7c0.8,0.2,1.6,0.4,2,1.3c-3.3,3.3-2.6,7.6-2.7,11.6
		c0,2.1-0.1,4.3-0.2,6.4c-1.9,0.9-3.4,0.8-3.4-1.7c0.2-9.8-0.6-19.5,0.4-29.3C-93.9,460.9-92.9,460.9-91.9,460.9z"/>
	<path fill="#64687A" d="M-94.9,460.9c0,9.1,0,18.2,0,27.3c0,2.1-0.1,4.2,3,3.7c0,0.3,0,0.7,0.1,1c-1.3,0-2.7,0-4,0
		c0-10.7,0-21.3,0-32C-95.5,460.9-95.2,460.9-94.9,460.9z"/>
	<path fill="#6E7182" d="M-284.9,492.9c0-0.4,0.1-0.7,0.1-1.1c1.6-1.4,1.4-3.3,1.4-5.1c0-6.2,0-12.3,0-18.5c0-2.1-0.3-4.4,1.4-6.2
		c2,0.5,1.1,2.1,1.1,3.2c0.1,9.2,0,18.4,0,27.6C-282.2,492.9-283.5,492.9-284.9,492.9z"/>
	<path fill="#29364E" d="M-309.9,461.9c1.3,0.5,3-0.8,3.9,1c-1.9,3.7-1.4,7.6-1.6,11.6c-0.3,5.7,0.9,11.5-0.8,17.1
		c-0.4,0.6-0.9,0.7-1.5,0.3C-309.9,481.9-309.9,471.9-309.9,461.9z"/>
	<path fill="#707485" d="M-309.9,491.9c0.3,0,0.7,0,1-0.1c2-5.1,0.6-10.4,1-15.6c0.2-2-0.2-4,0.2-5.9c0.2-0.9,0.7-1.6,1.6-1.4
		c0.9,0.2,1.3,1,1.1,1.9c-2.1,4-0.6,8.4-0.9,12.5c-0.3,3.1-0.1,6.3-0.1,9.5C-307.2,492.4-309,493.9-309.9,491.9z"/>
	<path fill="#6E7183" d="M-184.8,470.2c0,7.6,0,15.1-0.1,22.7c-1.3,0-2.7,0-4,0c0.1-0.4,0.1-0.7,0.2-1.1c3.1,0.6,3-1.5,3-3.6
		c0-5.9,0-11.8,0-17.7c0-0.1,0.1-0.4,0.2-0.4C-185.3,470-185.1,470.1-184.8,470.2z"/>
	<path fill="#707485" d="M-79.9,492.9c0.1-5,0.1-10,0.2-15.1c2.6,0.8,1.9,3,2.1,4.8c0.3,2.7-0.4,5.5,0.7,8.1c0.3,0.4,0.6,0.8,1,1.1
		C-76.8,493.9-78.6,492.4-79.9,492.9z"/>
	<path fill="#2D3A51" d="M-75.9,491.9c-0.3,0-0.7,0-1,0c-1.4-5.8-2-11.5,0.2-17.3c0.4-0.1,0.7,0,0.9,0.3
		C-75.9,480.5-75.9,486.2-75.9,491.9z"/>
	<path fill="#717485" d="M-236.8,490c0.9-1.1,1.6-1.1,1.8,0.4c0.3,2,1.7,1.5,3,1.5c0,0.3,0,0.7,0.1,1c-1.3,0-2.7,0-4,0
		C-236.9,492.2-236.4,490.9-236.8,490z"/>
	<path fill="#F6F6F7" d="M-236.8,490c1.3,0.6,0.9,1.8,0.9,2.9c-1.3,0-2.7,0-4,0c-0.3-0.2-0.4-0.5-0.3-0.7c0.1-0.2,0.3-0.3,0.4-0.3
		C-238.5,491.8-237.6,490.9-236.8,490z"/>
	<path fill="#D6D6DA" d="M-144.9,492.9c1.7-0.8,3.3-4.5,5,0C-141.5,492.9-143.2,492.9-144.9,492.9z"/>
	<path fill="#474E63" d="M-239.8,491.9c-0.1,0.3-0.2,0.6-0.1,0.9c-2.3,0-4.7,0-7,0c-0.3-0.2-0.4-0.5-0.3-0.8
		C-244.7,492-242.3,492-239.8,491.9z"/>
	<path fill="#4B5166" d="M-127.9,492.9c-0.1-0.3-0.1-0.6-0.2-0.9c2.2-1.8,4.4-1.9,6.5,0.1c0,0.3-0.1,0.6-0.3,0.8
		C-123.9,492.9-125.9,492.9-127.9,492.9z"/>
	<path fill="#E26867" d="M-195.1,307.9c0,2,1.2,3.4,2.4,4.8c0.9,1,1.2,1.8,0,2.9c-1,0.9-1.9,1.2-3,0.1c-4.3-4.4-9-8.4-13-13.1
		c-2.8-3.3-2.5-7.5,0.2-11.1c2.7-3.6,6.6-4.8,10.6-3.1c2.7,1.2,4.6,0.9,7.3-0.1c4.1-1.6,7.8-0.3,10.6,3.3c0.7,0.9,0.9,1.8-0.3,2.4
		c-3,1-6.4-0.5-9.2,1.5c-1.9,1.1-3.6,2.2-4,4.6c-0.1,0.4-0.2,0.9-0.3,1.3C-195,303.3-194.4,305.7-195.1,307.9z"/>
	<path fill="#E26B6A" d="M-211.9,475.9c0-0.4,0-0.8,0.1-1.2c1.6-1.8,3-3.8,5.4-4.7c3-1.4,5.9-1.6,8.6,0.7c4.2,2.8,6.1,6.6,4.9,11.5
		c-0.9,3.9-3.6,6.3-7.6,7c-5.5,1-8.7-2.1-11.1-6.4C-213.6,480.6-212.8,478.2-211.9,475.9z"/>
	<path fill="#1D2C46" d="M-121.6,492.1c-2.2,0-4.3,0-6.5-0.1c-3.8-1.6-2.8-5.1-3.4-8.1c-0.7-3.9,2.3-8.6-2.7-11.5
		c-0.5-0.3-0.5-2,0.3-2.1c3.3-0.5,2.3-3,2.5-4.9c0.1-1.3,0.3-2.3,1.9-2.3c2-0.1,2.2,1.2,2,2.6c-0.5,3.6,1,4.8,4.4,4.3
		c1.1-0.2,2.4-0.2,2.4,1.6c0,1.9-1.3,2.2-2.7,2c-3.8-0.6-4.5,1.4-4.2,4.6c0.2,2.3,0.1,4.6,0.1,7c0,2.8,1,4.5,4.1,4
		C-120.4,488.7-120,489.8-121.6,492.1z"/>
	<path fill="#FDF3F0" d="M-197.9,470.7c-3-1-6-1-9,0.1c-1.1,0.3-1.3-0.2-1.1-1.1c3.2-2.1,6.6-2,10.1-0.7
		C-197.9,469.6-197.9,470.2-197.9,470.7z"/>
	<path fill="#FFFFFF" d="M-211.9,475.9c0.1,2.3,0.1,4.6,0.2,6.9c-0.4,0-0.8,0-1.1,0.1C-214,480.3-214.5,477.9-211.9,475.9z"/>
	<path fill="#172844" d="M-304.9,470.8c-1.8-1-1.9-1-1.9,0.7c-0.1,5.6,0,11.1-0.1,16.7c0,1.5,0.7,3.6-2,3.5c0-8.3,0-16.7,0-25
		c0-2.1-0.1-4.2,3-3.9c3.4,4.9,6.8,9.7,10.5,15c3-4.6,5.9-8.9,8.7-13.2c1.1-1.8,2.3-3.3,4.8-2.6c0.1,8.9,0.1,17.7,0.3,26.6
		c0,2.2-0.5,3.6-3,3.1c0-7.1,0-14.2,0-22.3c-3.9,4-6.1,8.1-8.7,12c-1.6,2.4-2.6,3.1-4.3,0.1C-299.9,477.9-302.5,474.4-304.9,470.8z"
		/>
	<path fill="#FDFDFD" d="M-235.5,481.2c0,4.9-2.9,8.1-7.4,8.1c-4.5,0-7.2-3.1-7.2-8.2c0-4.9,3-8.3,7.3-8.2
		C-238.8,472.9-235.5,476.6-235.5,481.2z"/>
	<path fill="#F3F3F4" d="M-260,479.8c-3.6,0-6.7,0.1-9.9,0c-1,0-2.5,0.7-3-0.9c-0.4-1.3,0.4-2.2,1-3.2c1.5-2.3,3.7-3.4,6.4-2.9
		C-262.1,473.5-260.6,476-260,479.8z"/>
	<path fill="#FAF9FA" d="M-146.8,490c-2.9-0.3-5.5-1.1-5.6-4.1c-0.2-3.9,2.9-4.6,5.8-4.2c2.1,0.3,5.9-1.8,6,2.7
		C-140.6,488.5-144,489.1-146.8,490z"/>
	<path fill="#1F2D47" d="M-76.7,474.6c-0.1,5.8-0.1,11.5-0.2,17.3c-2.7,0-1.9-2-2.1-3.5c-0.4-3.5,0.8-7.1-0.7-10.6
		c-2.1-5.2-3.7-5.8-9.3-4c-0.9,0-1.6-0.3-2-1.3C-85.4,467.5-80.1,468.2-76.7,474.6z"/>
	<path fill="#FBEBE7" d="M-207.9,469.8c0.4,0.4,0.7,0.8,1.1,1.1c-1.8,1.1-2.6,3.5-5,3.8C-212.2,471.8-210.1,470.7-207.9,469.8z"/>
	<path fill="#FDF4F3" d="M-202.1,472.2c-0.1,0,0.2,0,0.2,0c0.7,3.8,2.7,6,6.7,6.8c0.7,0.1-0.2,2.5-1.9,2.5c-2.6-0.1-4.2,0.6-3.8,3.6
		c0.1,1.2-0.5,1.9-1.8,1.7c-1.1-0.1-1.4-0.9-1.2-1.8c0.4-3-1.2-3.7-3.8-3.6c-1,0.1-2-0.4-2.1-1.7c-0.1-0.9,0.3-1.9,1.3-1.7
		c3.8,0.5,5-1.3,4.7-4.8C-203.8,472.6-203.1,472.2-202.1,472.2z"/>
</g>
<g id="vuu5pi.tif">
	
		<image overflow="visible" width="454" height="56" id="Layer_0" xlink:href="F264790AF3B9E7E7.png"  transform="matrix(1 0 0 1 -581.0417 13.875)">
	</image>
</g>
</svg>
