<?xml version="1.0" encoding="utf-8"?>
<!-- Generator: Adobe Illustrator 18.1.0, SVG Export Plug-In . SVG Version: 6.00 Build 0)  -->
<!DOCTYPE svg PUBLIC "-//W3C//DTD SVG 1.1//EN" "http://www.w3.org/Graphics/SVG/1.1/DTD/svg11.dtd">
<svg version="1.1" id="Layer_1" xmlns="http://www.w3.org/2000/svg" xmlns:xlink="http://www.w3.org/1999/xlink" x="0px" y="0px"
	 viewBox="0 0 300 47.9" enable-background="new 0 0 300 47.9" xml:space="preserve">
<g>
	<g>
		<path fill="#FFFFFF" d="M35.6,15.8L24.3,30.9h-1.3L12,15.8V41H5.5V6.3H13l10.8,14.9L34.7,6.3h7.5V41h-6.5V15.8z"/>
		<path fill="#FFFFFF" d="M53,30.9c0.4,3,3,5.2,7.3,5.2c2.2,0,5.2-0.8,6.5-2.3l3.9,3.8c-2.6,2.7-6.8,4-10.5,4
			c-8.4,0-13.4-5.2-13.4-13c0-7.4,5.1-12.8,13-12.8c8.2,0,13.3,5.1,12.3,15.1H53z M66.3,25.9c-0.4-3.2-2.9-4.8-6.3-4.8
			c-3.3,0-5.9,1.6-6.8,4.8H66.3z"/>
		<path fill="#FFFFFF" d="M102.1,6.3v34.6h-5.6l-0.4-3.4c-1.9,2.9-4.9,3.9-7.9,3.9c-7.2,0-12.6-4.8-12.6-12.8
			c0-8.4,5.3-12.8,12.4-12.8c2.6,0,6.6,1.4,8,3.9V6.3H102.1z M81.7,28.7c0,4.3,3.1,7.2,6.9,7.2c3.8,0,7.1-2.8,7.1-7.2
			c0-4.3-3.3-7.1-7.1-7.1C84.7,21.5,81.7,24.3,81.7,28.7z"/>
	</g>
	<g>
		<path fill="#FFFFFF" d="M185.5,15.8l-11.3,15.1h-1.3l-11-15.1V41h-6.5V6.3h7.5l10.8,14.9l10.8-14.9h7.5V41h-6.5V15.8z"/>
		<path fill="#FFFFFF" d="M217.6,16.5h5.8v24.4h-5.7l-0.3-3.6c-1.4,2.9-5.2,4.3-7.9,4.3c-7.2,0-12.6-4.4-12.6-13
			c0-8.4,5.6-12.8,12.7-12.8c3.3,0,6.4,1.5,7.8,4L217.6,16.5z M202.9,28.7c0,4.7,3.2,7.4,7.2,7.4c9.5,0,9.5-14.8,0-14.8
			C206.1,21.3,202.9,24,202.9,28.7z"/>
		<path fill="#FFFFFF" d="M236,9.6v6.9h6.7v5.2h-6.8v10.6c0,2.3,1.3,3.5,3.2,3.5c0.9,0,2-0.3,2.9-0.7l1.7,5.2c-1.7,0.7-3.2,1-5,1
			c-5.3,0.2-8.8-2.8-8.8-8.9V21.7h-4.6v-5.2h4.6v-6.3L236,9.6z"/>
		<path fill="#FFFFFF" d="M268.2,37.8c-2.8,2.8-5.8,3.9-9.4,3.9c-7.1,0-13-4.3-13-12.9s5.9-12.9,13-12.9c3.5,0,6.1,1,8.8,3.6l-3.8,4
			c-1.4-1.3-3.2-1.9-4.9-1.9c-4.1,0-7,3-7,7.2c0,4.7,3.2,7.1,6.9,7.1c1.9,0,3.9-0.5,5.4-2L268.2,37.8z"/>
		<path fill="#FFFFFF" d="M276.9,6.2v13.6c2.2-2.8,4.9-3.7,7.6-3.7c6.9,0,10,4.7,10,11.9v12.9h-6V28.1c0-4.5-2.3-6.3-5.5-6.3
			c-3.6,0-6,3-6,6.7v12.5h-6V6.2H276.9z"/>
	</g>
	<g>
		<path fill="#FFFFFF" d="M124.6,26.9c0-7.3,6-13.3,13.3-13.3c2.7,0,5.2,0.8,7.3,2.2c-1.1-4.9-5.5-8.5-10.7-8.5
			c-3.1,0-5.9,1.3-7.9,3.3c-2-2.1-4.8-3.3-7.9-3.3c-6.1,0-11,4.9-11,11c0,2.7,1,5.2,2.6,7.1l0.3,0.4c0.3,0.3,14.8,14.1,15.9,15.3
			c0.3-0.3,1.7-1.6,3.4-3.3C126.8,35.2,124.6,31.3,124.6,26.9z"/>
		<path fill="#FFFFFF" d="M137.9,15.7c-0.1,0-0.1,0-0.2,0c-6.1,0.1-11,5.1-11,11.2c0,5.3,3.6,9.7,8.5,10.9c0.9,0.2,1.8,0.3,2.7,0.3
			c6.2,0,11.2-5,11.2-11.2C149.2,20.7,144.1,15.7,137.9,15.7z M143.4,28.6h-3.8v5v1.7h-1.8h-1.7v-6.6h-6.6v-3.4h6.6v-6.6h3.4v6.6
			h4.4h2.2v3.4H143.4z"/>
	</g>
</g>
</svg>
