<?xml version="1.0" encoding="utf-8"?>
<!-- Generator: Adobe Illustrator 18.1.0, SVG Export Plug-In . SVG Version: 6.00 Build 0)  -->
<!DOCTYPE svg PUBLIC "-//W3C//DTD SVG 1.1//EN" "http://www.w3.org/Graphics/SVG/1.1/DTD/svg11.dtd">
<svg version="1.1" id="Layer_1" xmlns="http://www.w3.org/2000/svg" xmlns:xlink="http://www.w3.org/1999/xlink" x="0px" y="0px"
	 viewBox="0 0 550 68.8" enable-background="new 0 0 550 68.8" xml:space="preserve">
<g>
	<g>
		<path fill="#2C3E50" d="M58.4-70.9L37-42.3h-2.4L13.6-71v47.8H1.2v-65.7h14.3L36-60.6l20.6-28.2h14.2v65.7H58.4V-70.9z"/>
		<path fill="#2C3E50" d="M91.3-42.3c0.8,5.7,5.7,9.9,13.8,9.9c4.2,0,9.8-1.6,12.4-4.3l7.3,7.2c-4.9,5.1-12.9,7.5-19.9,7.5
			c-16,0-25.4-9.9-25.4-24.7c0-14.1,9.6-24.2,24.6-24.2c15.5,0,25.1,9.6,23.4,28.6H91.3z M116.5-51.8c-0.8-6-5.4-9-12-9
			c-6.2,0-11.3,3-12.9,9H116.5z"/>
		<path fill="#2C3E50" d="M184.3-88.9v65.6h-10.7l-0.8-6.4c-3.6,5.5-9.3,7.4-14.9,7.4c-13.6,0-23.8-9-23.8-24.2
			c0-16,10-24.2,23.6-24.2c4.9,0,12.5,2.6,15.2,7.4v-25.6H184.3z M145.6-46.5c0,8.1,5.8,13.6,13.1,13.6c7.2,0,13.4-5.3,13.4-13.6
			c0-8.1-6.2-13.5-13.4-13.5C151.4-60,145.6-54.8,145.6-46.5z"/>
	</g>
	<g>
		<path fill="#2C3E50" d="M342.2-70.9l-21.4,28.5h-2.4L297.5-71v47.8h-12.4v-65.7h14.3l20.6,28.2l20.6-28.2h14.2v65.7h-12.4V-70.9z"
			/>
		<path fill="#2C3E50" d="M403-69.6h11v46.3h-10.8l-0.6-6.8c-2.6,5.4-9.9,8.1-15,8.2c-13.7,0.1-23.8-8.4-23.8-24.6
			c0-16,10.6-24.3,24.1-24.2c6.2,0,12.1,2.9,14.7,7.5L403-69.6z M375.3-46.5c0,8.8,6.1,14.1,13.7,14.1c18,0,18-28.1,0-28.1
			C381.4-60.5,375.3-55.3,375.3-46.5z"/>
		<path fill="#2C3E50" d="M437.8-82.6v13.1h12.8v9.9h-12.9v20c0,4.4,2.4,6.6,6,6.6c1.8,0,3.8-0.6,5.5-1.4l3.2,9.8
			c-3.3,1.3-6,1.9-9.5,2c-10,0.4-16.6-5.3-16.6-16.9v-20h-8.6v-9.9h8.6v-11.9L437.8-82.6z"/>
		<path fill="#2C3E50" d="M498.8-29.2c-5.3,5.3-11,7.3-17.8,7.3c-13.4,0-24.6-8.1-24.6-24.5s11.2-24.5,24.6-24.5
			c6.6,0,11.6,1.9,16.7,6.9l-7.2,7.6c-2.7-2.4-6.1-3.7-9.3-3.7c-7.7,0-13.3,5.6-13.3,13.7c0,8.8,6,13.5,13.1,13.5
			c3.7,0,7.3-1,10.1-3.8L498.8-29.2z"/>
		<path fill="#2C3E50" d="M515.4-89v25.7c4.1-5.3,9.2-6.9,14.5-6.9c13.1,0,19,8.9,19,22.5v24.4h-11.4v-24.3c0-8.4-4.4-12-10.5-12
			c-6.8,0-11.4,5.7-11.4,12.7v23.6h-11.4V-89H515.4z"/>
	</g>
	<g>
		<path fill="#ED3424" d="M227-49.8c0-13.9,11.3-25.2,25.2-25.2c5.1,0,9.8,1.5,13.8,4.1c-2.1-9.2-10.4-16-20.2-16
			c-5.9,0-11.2,2.4-14.9,6.3c-3.8-3.9-9.1-6.3-14.9-6.3c-11.5,0-20.8,9.3-20.8,20.8c0,5.1,1.8,9.8,4.9,13.4l0.6,0.7
			c0.6,0.6,28,26.8,30.2,28.9c0.6-0.6,3.1-3,6.5-6.2C231-34.1,227-41.5,227-49.8z"/>
		<path fill="#ED3424" d="M252.2-71.1c-0.1,0-0.3,0-0.4,0c-11.5,0.2-20.8,9.6-20.8,21.2c0,10,6.9,18.3,16.1,20.6
			c1.6,0.4,3.4,0.6,5.1,0.6c11.7,0,21.2-9.5,21.2-21.2C273.4-61.6,263.9-71.1,252.2-71.1z M262.5-46.6h-7.1v9.4v3.2h-3.3h-3.1v-12.6
			h-12.6v-6.5h12.6v-12.6h6.5v12.6h8.3h4.2v6.5H262.5z"/>
		<polygon fill="#FFFFFF" points="263.7,-53.1 255.4,-53.1 255.4,-65.6 248.9,-65.6 248.9,-53.1 236.4,-53.1 236.4,-46.6 
			248.9,-46.6 248.9,-34 252.1,-34 255.4,-34 255.4,-37.2 255.4,-46.6 262.5,-46.6 268,-46.6 268,-53.1 		"/>
	</g>
</g>
<g>
	<g>
		<path fill="#FFFFFF" d="M58.4,18.9L37,47.5h-2.4L13.6,18.9v47.8H1.2V0.9h14.3L36,29.2L56.6,0.9h14.2v65.7H58.4V18.9z"/>
		<path fill="#FFFFFF" d="M91.3,47.5c0.8,5.7,5.7,9.9,13.8,9.9c4.2,0,9.8-1.6,12.4-4.3l7.3,7.2c-4.9,5.1-12.9,7.5-19.9,7.5
			c-16,0-25.4-9.9-25.4-24.7c0-14.1,9.6-24.2,24.6-24.2c15.5,0,25.1,9.6,23.4,28.6H91.3z M116.5,38c-0.8-6-5.4-9-12-9
			c-6.2,0-11.3,3-12.9,9H116.5z"/>
		<path fill="#FFFFFF" d="M184.3,0.9v65.6h-10.7l-0.8-6.4c-3.6,5.5-9.3,7.4-14.9,7.4c-13.6,0-23.8-9-23.8-24.2
			c0-16,10-24.2,23.6-24.2c4.9,0,12.5,2.6,15.2,7.4V0.9H184.3z M145.6,43.3c0,8.1,5.8,13.6,13.1,13.6c7.2,0,13.4-5.3,13.4-13.6
			c0-8.1-6.2-13.5-13.4-13.5C151.4,29.8,145.6,35,145.6,43.3z"/>
	</g>
	<g>
		<path fill="#FFFFFF" d="M342.2,18.9l-21.4,28.5h-2.4l-20.9-28.6v47.8h-12.4V0.9h14.3l20.6,28.2l20.6-28.2h14.2v65.7h-12.4V18.9z"
			/>
		<path fill="#FFFFFF" d="M403,20.3h11v46.3h-10.8l-0.6-6.8c-2.6,5.4-9.9,8.1-15,8.2c-13.7,0.1-23.8-8.4-23.8-24.6
			c0-16,10.6-24.3,24.1-24.2c6.2,0,12.1,2.9,14.7,7.5L403,20.3z M375.3,43.3c0,8.8,6.1,14.1,13.7,14.1c18,0,18-28.1,0-28.1
			C381.4,29.4,375.3,34.5,375.3,43.3z"/>
		<path fill="#FFFFFF" d="M437.8,7.2v13.1h12.8v9.9h-12.9v20c0,4.4,2.4,6.6,6,6.6c1.8,0,3.8-0.6,5.5-1.4l3.2,9.8
			c-3.3,1.3-6,1.9-9.5,2c-10,0.4-16.6-5.3-16.6-16.9v-20h-8.6v-9.9h8.6V8.4L437.8,7.2z"/>
		<path fill="#FFFFFF" d="M498.8,60.6c-5.3,5.3-11,7.3-17.8,7.3c-13.4,0-24.6-8.1-24.6-24.5s11.2-24.5,24.6-24.5
			c6.6,0,11.6,1.9,16.7,6.9l-7.2,7.6c-2.7-2.4-6.1-3.7-9.3-3.7c-7.7,0-13.3,5.6-13.3,13.7c0,8.8,6,13.5,13.1,13.5
			c3.7,0,7.3-1,10.1-3.8L498.8,60.6z"/>
		<path fill="#FFFFFF" d="M515.4,0.8v25.7c4.1-5.3,9.2-6.9,14.5-6.9c13.1,0,19,8.9,19,22.5v24.4h-11.4V42.2c0-8.4-4.4-12-10.5-12
			c-6.8,0-11.4,5.7-11.4,12.7v23.6h-11.4V0.8H515.4z"/>
	</g>
	<g>
		<path fill="#FFFFFF" d="M227,40c0-13.9,11.3-25.2,25.2-25.2c5.1,0,9.8,1.5,13.8,4.1c-2.1-9.2-10.4-16-20.2-16
			c-5.9,0-11.2,2.4-14.9,6.3c-3.8-3.9-9.1-6.3-14.9-6.3c-11.5,0-20.8,9.3-20.8,20.8c0,5.1,1.8,9.8,4.9,13.4l0.6,0.7
			c0.6,0.6,28,26.8,30.2,28.9c0.6-0.6,3.1-3,6.5-6.2C231,55.7,227,48.3,227,40z"/>
		<path fill="#FFFFFF" d="M252.2,18.8c-0.1,0-0.3,0-0.4,0c-11.5,0.2-20.8,9.6-20.8,21.2c0,10,6.9,18.3,16.1,20.6
			c1.6,0.4,3.4,0.6,5.1,0.6c11.7,0,21.2-9.5,21.2-21.2C273.4,28.3,263.9,18.8,252.2,18.8z M262.5,43.2h-7.1v9.4v3.2h-3.3h-3.1V43.2
			h-12.6v-6.5h12.6V24.2h6.5v12.6h8.3h4.2v6.5H262.5z"/>
	</g>
</g>
</svg>
