<?xml version="1.0" encoding="utf-8"?>
<!-- Generator: Adobe Illustrator 18.1.0, SVG Export Plug-In . SVG Version: 6.00 Build 0)  -->
<!DOCTYPE svg PUBLIC "-//W3C//DTD SVG 1.1//EN" "http://www.w3.org/Graphics/SVG/1.1/DTD/svg11.dtd">
<svg version="1.1" id="Layer_1" xmlns="http://www.w3.org/2000/svg" xmlns:xlink="http://www.w3.org/1999/xlink" x="0px" y="0px"
	 viewBox="0 0 219.5 217.5" enable-background="new 0 0 219.5 217.5" xml:space="preserve">
<g>
	<path fill="#EBEDEE" d="M470.2-77.2c0,58-47,105-105,105c-58,0-105-47-105-105c0-58,47-105,105-105
		C423.2-182.2,470.2-135.2,470.2-77.2"/>
	<g>
		<defs>
			<path id="SVGID_1_" d="M260.3-77.2c0,58,47,105,105,105s105-47,105-105c0-58-47-105-105-105S260.3-135.2,260.3-77.2"/>
		</defs>
		<clipPath id="SVGID_2_">
			<use xlink:href="#SVGID_1_"  overflow="visible"/>
		</clipPath>
		<rect x="434" y="-78.1" clip-path="url(#SVGID_2_)" fill="#ECF0F1" width="89.9" height="132.6"/>
		<rect x="479" y="-78.1" clip-path="url(#SVGID_2_)" fill="#BDC3C7" width="45" height="132.6"/>
		<rect x="418.4" y="-78.1" clip-path="url(#SVGID_2_)" fill="#34495E" width="121.2" height="15.2"/>
		<rect x="479" y="-78.1" clip-path="url(#SVGID_2_)" fill="#2C3E50" width="60.6" height="15.2"/>
		<rect x="441.1" y="-8.4" clip-path="url(#SVGID_2_)" fill="#ECF0F1" width="75.8" height="10.7"/>
		<rect x="479" y="-8.4" clip-path="url(#SVGID_2_)" fill="#D0D2D3" width="37.9" height="10.7"/>
		<rect x="442" y="-45.8" clip-path="url(#SVGID_2_)" fill="#34495E" width="19.8" height="26.4"/>
		<rect x="449" y="2.2" clip-path="url(#SVGID_2_)" fill="#56BFE3" width="60.1" height="52.3"/>
		<rect x="479" y="2.2" clip-path="url(#SVGID_2_)" fill="#0B76A0" width="30" height="52.3"/>
		<rect x="469.1" y="-45.8" clip-path="url(#SVGID_2_)" fill="#34495E" width="19.8" height="26.4"/>
		<rect x="479" y="-45.8" clip-path="url(#SVGID_2_)" fill="#2C3E50" width="9.9" height="26.4"/>
		<rect x="496.2" y="-45.8" clip-path="url(#SVGID_2_)" fill="#2C3E50" width="19.8" height="26.4"/>
		<rect x="299" y="-123" clip-path="url(#SVGID_2_)" fill="#FFFFFF" width="134.9" height="177.6"/>
		<rect x="366.4" y="-123" clip-path="url(#SVGID_2_)" fill="#ECF0F1" width="67.4" height="177.6"/>
		<rect x="288.7" y="-138.3" clip-path="url(#SVGID_2_)" fill="#34495E" width="155.5" height="15.2"/>
		<rect x="366.4" y="-138.3" clip-path="url(#SVGID_2_)" fill="#2C3E50" width="77.7" height="15.2"/>
		<rect x="313.8" y="-102.7" clip-path="url(#SVGID_2_)" fill="#34495E" width="19.8" height="26.4"/>
		<rect x="341.7" y="-102.7" clip-path="url(#SVGID_2_)" fill="#34495E" width="19.8" height="26.4"/>
		<rect x="369.6" y="-102.7" clip-path="url(#SVGID_2_)" fill="#2C3E50" width="19.8" height="26.4"/>
		<rect x="397.5" y="-102.7" clip-path="url(#SVGID_2_)" fill="#2C3E50" width="19.8" height="26.4"/>
		<rect x="313.8" y="-70.4" clip-path="url(#SVGID_2_)" fill="#34495E" width="19.8" height="26.4"/>
		<rect x="341.7" y="-70.4" clip-path="url(#SVGID_2_)" fill="#34495E" width="19.8" height="26.4"/>
		<rect x="369.6" y="-70.4" clip-path="url(#SVGID_2_)" fill="#2C3E50" width="19.8" height="26.4"/>
		<rect x="397.5" y="-70.4" clip-path="url(#SVGID_2_)" fill="#2C3E50" width="19.8" height="26.4"/>
		<rect x="313.8" y="-38.2" clip-path="url(#SVGID_2_)" fill="#34495E" width="19.8" height="26.4"/>
		<rect x="341.7" y="-38.2" clip-path="url(#SVGID_2_)" fill="#34495E" width="19.8" height="26.4"/>
		<rect x="369.6" y="-38.2" clip-path="url(#SVGID_2_)" fill="#2C3E50" width="19.8" height="26.4"/>
		<rect x="397.5" y="-38.2" clip-path="url(#SVGID_2_)" fill="#2C3E50" width="19.8" height="26.4"/>
		<path clip-path="url(#SVGID_2_)" fill="#56BFE3" d="M392.1-130.6c0,14.2-11.5,25.7-25.7,25.7c-14.2,0-25.7-11.5-25.7-25.7
			c0-14.2,11.5-25.7,25.7-25.7C380.6-156.3,392.1-144.8,392.1-130.6"/>
		<path clip-path="url(#SVGID_2_)" fill="#0B76A0" d="M366.4-156.3v51.3c14.2,0,25.7-11.5,25.7-25.7
			C392.1-144.8,380.6-156.3,366.4-156.3"/>
		<path clip-path="url(#SVGID_2_)" fill="#FFFFFF" d="M363.9-111.8c-1.9,0-3.4-1.5-3.4-3.4v-30.8c0-1.9,1.5-3.4,3.4-3.4h5.1
			c1.9,0,3.4,1.5,3.4,3.4v30.8c0,1.9-1.5,3.4-3.4,3.4H363.9z"/>
		<path clip-path="url(#SVGID_2_)" fill="#D0D2D3" d="M366.4-149.5v37.7h2.6c1.9,0,3.4-1.5,3.4-3.4v-30.8c0-1.9-1.5-3.4-3.4-3.4
			H366.4z"/>
		<path clip-path="url(#SVGID_2_)" fill="#FFFFFF" d="M347.6-133.2c0-1.9,1.5-3.4,3.4-3.4h30.8c1.9,0,3.4,1.5,3.4,3.4v5.1
			c0,1.9-1.5,3.4-3.4,3.4H351c-1.9,0-3.4-1.5-3.4-3.4V-133.2z"/>
		<path clip-path="url(#SVGID_2_)" fill="#D0D2D3" d="M366.4-136.6v12h15.4c1.9,0,3.4-1.5,3.4-3.4v-5.1c0-1.9-1.5-3.4-3.4-3.4H366.4
			z"/>
		<rect x="325.4" y="45.9" clip-path="url(#SVGID_2_)" fill="#34495E" width="82" height="8.6"/>
		<rect x="366.4" y="45.9" clip-path="url(#SVGID_2_)" fill="#2C3E50" width="41" height="8.6"/>
		<rect x="331.3" y="37.3" clip-path="url(#SVGID_2_)" fill="#34495E" width="70.2" height="8.6"/>
		<rect x="366.4" y="37.3" clip-path="url(#SVGID_2_)" fill="#2C3E50" width="35.1" height="8.6"/>
		<rect x="333.2" y="-3.1" clip-path="url(#SVGID_2_)" fill="#56BFE3" width="66.4" height="40.4"/>
		<rect x="366.4" y="-3.1" clip-path="url(#SVGID_2_)" fill="#0B76A0" width="33.2" height="40.4"/>
	</g>
</g>
<g>
	<g>
		<defs>
			<path id="SVGID_3_" d="M270.8,162.3c0,58,47,105,105,105s105-47,105-105c0-58-47-105-105-105S270.8,104.3,270.8,162.3"/>
		</defs>
		<clipPath id="SVGID_4_">
			<use xlink:href="#SVGID_3_"  overflow="visible"/>
		</clipPath>
		<path clip-path="url(#SVGID_4_)" fill="#EBEDEE" d="M267.6,166c0-60.6,49.1-109.7,109.7-109.7C437.9,56.3,487,105.4,487,166
			c0,60.6-49.1,109.7-109.7,109.7C316.7,275.7,267.6,226.6,267.6,166"/>
		<path clip-path="url(#SVGID_4_)" fill-rule="evenodd" clip-rule="evenodd" fill="#E3CCA4" d="M353.1,142.2h47.7l5.1,54.2
			c0.4,3.8,3.6,6.7,7.7,6.8l0.9,0l-6,20.3l-63.3-4.9l-4.7-15.3l1.7-0.3c3.7-0.5,6.4-3.3,6.7-6.8L353.1,142.2z"/>
		<path clip-path="url(#SVGID_4_)" fill-rule="evenodd" clip-rule="evenodd" fill="#D4C5A3" d="M377.3,221.1l-32.2-2.5l-4.7-15.3
			l1.7-0.3c3.7-0.5,6.4-3.3,6.7-6.8l3-38.3h25.4V221.1z"/>
		<path clip-path="url(#SVGID_4_)" fill-rule="evenodd" clip-rule="evenodd" fill="#CCBC97" d="M353.1,142.2h47.7l3.8,41
			c-0.9,1.4-1.5,2.3-2.4,3.6c-7,9.6-16,16.1-24.8,16.1c-8.7,0-17.8-6.5-24.8-16.1c-1.1-1.5-1.8-2.5-2.8-4.2L353.1,142.2z"/>
		<path clip-path="url(#SVGID_4_)" fill-rule="evenodd" clip-rule="evenodd" fill="#2C3E50" d="M377.3,188.6
			c-11.1,0-22.3-7.2-30.6-17.8c-8.2-10.4-13.7-24.2-13.7-37.6v-0.3l0-0.1c0-0.9-0.1-1.8-0.1-2.7c0-32.1-5.9-58,44.3-58
			c50.2,0,44.3,26,44.3,58c0,0.9,0,1.8-0.1,2.7l0,0.2v0.3c0,13.4-5.5,27.2-13.7,37.6C399.6,181.4,388.5,188.6,377.3,188.6"/>
		<path clip-path="url(#SVGID_4_)" fill-rule="evenodd" clip-rule="evenodd" fill="#EBECEC" d="M385,214.4h-15l-21.5-16.6l-8.3,5.4
			c-26.5,5.5-46.7,17.1-46.7,35.1v26.4c0,7.2,6.2,13,13.9,13h25.8h35h18.7h30.5h29.8c7.6,0,13.9-5.8,13.9-13l0-26.4
			c0-17.9-20.3-29.6-46.8-35.1l-8.1-5.2L385,214.4z"/>
		<polygon clip-path="url(#SVGID_4_)" fill-rule="evenodd" clip-rule="evenodd" fill="#DAE1E6" points="385,214.4 370.1,214.4 
			348.5,197.9 340.3,203.3 383.3,247.8 386.9,277.7 388.8,277.7 384.4,236.3 417.2,203.9 414.3,203.2 406.2,198.1 		"/>
		<path clip-path="url(#SVGID_4_)" fill-rule="evenodd" clip-rule="evenodd" fill="#FFE7BD" d="M347.7,176.8
			c8.3,10.6,19.2,17.8,29.6,17.8c10.5,0,21.3-7.2,29.6-17.8c8.6-10.9,14.4-25.3,14.5-39.2l-2.9-11c-1-3.9-1.1-7.6-1.2-11.1
			c-0.1-4.6-0.2-8.8-2.9-12.3c-4.3-5.6-11.2-3.8-19.2-1.6c-5.5,1.5-11.4,3-17.9,3c-6.5,0-12.4-1.6-17.8-3h0
			c-8-2.1-14.8-3.9-19.2,1.6c-2.7,3.5-2.8,7.7-2.9,12.3c-0.1,3.5-0.2,7.2-1.2,11.1l-2.9,11C333.4,151.5,339.2,165.9,347.7,176.8"/>
		<path clip-path="url(#SVGID_4_)" fill-rule="evenodd" clip-rule="evenodd" fill="#E8D6AC" d="M347.7,176.8
			c8.3,10.6,19.2,17.8,29.6,17.8v-90.1c-6.5,0-12.4-1.6-17.8-3h0c-8-2.1-14.8-3.9-19.2,1.6c-2.7,3.5-2.8,7.7-2.9,12.3
			c-0.1,3.5-0.2,7.2-1.2,11.1l-2.9,11C333.4,151.5,339.2,165.9,347.7,176.8"/>
		<path clip-path="url(#SVGID_4_)" fill-rule="evenodd" clip-rule="evenodd" fill="#3D566E" d="M368.2,277.7h18.7
			c-2-16.6-4-29.6-6-46.2c-0.1-0.9,0.1-1.6,0.6-2.5l5-12.3c0.3-0.5,0.4-1.1,0.1-1.6c-0.3-0.5-0.9-0.8-1.5-0.8h-15
			c-0.6,0-1.2,0.3-1.5,0.8c-0.3,0.5-0.3,1.1,0,1.6l5,12.3c0.5,0.8,0.7,1.6,0.6,2.5C372.3,248.2,370.2,261.2,368.2,277.7"/>
		<path clip-path="url(#SVGID_4_)" fill-rule="evenodd" clip-rule="evenodd" fill="#2C3E50" d="M380.9,231.6
			c-0.1-0.9,0.1-1.6,0.6-2.5l5-12.3c0.3-0.5,0.4-1.1,0.1-1.6c-0.3-0.5-0.9-0.8-1.5-0.8h-14.9c-0.6,0-1.2,0.3-1.5,0.8
			c-0.3,0.5-0.2,1.1,0,1.6l5,12.3c0.5,0.8,0.7,1.6,0.6,2.5l-0.8,6.2l9,7.7L380.9,231.6z"/>
		<polygon clip-path="url(#SVGID_4_)" fill-rule="evenodd" clip-rule="evenodd" fill="#EBECEC" points="377.6,214.4 348.5,197.9 
			340.3,203.3 368.8,230.4 		"/>
		<polygon clip-path="url(#SVGID_4_)" fill-rule="evenodd" clip-rule="evenodd" fill="#EBECEC" points="377.6,214.4 406.2,198.1 
			414.5,203.2 386.4,230.4 		"/>
		<path clip-path="url(#SVGID_4_)" fill-rule="evenodd" clip-rule="evenodd" fill="#FFFFFF" d="M293.6,238.3v26.4
			c0,7.2,6.2,13,13.9,13h67.4l-5.5-9.7c-13.2-24-20.9-34.3-29.1-64.7C313.8,208.7,293.6,220.4,293.6,238.3 M379.7,277.7h67.5
			c7.6,0,13.9-5.8,13.9-13l0-26.4c0-17.9-20.3-29.6-46.8-35.1c-8.2,30.1-15.8,40.5-28.7,64L379.7,277.7z"/>
		<path clip-path="url(#SVGID_4_)" fill-rule="evenodd" clip-rule="evenodd" fill="#CCCCCC" d="M426.1,273.5c7.1,0,13-5.8,13-13
			c0-7.1-5.8-13-13-13c-7.1,0-13,5.8-13,13C413.1,267.7,419,273.5,426.1,273.5"/>
		<path clip-path="url(#SVGID_4_)" fill-rule="evenodd" clip-rule="evenodd" fill="#B3B3B3" d="M438.7,263.6
			c-1.1,4.7-4.8,8.3-9.5,9.5l-7.8-7.8l9.5-9.5L438.7,263.6z"/>
		<path clip-path="url(#SVGID_4_)" fill-rule="evenodd" clip-rule="evenodd" fill="#2C3E50" d="M329.1,210.1c0-8.2,8.4-14,20.1-17.4
			l-0.3,3.5c-0.1,0.7-0.2,1.3-0.4,1.9c-8.5,2.6-14.2,6.6-14.2,12H329.1z M405.5,192.6c23.3,6.9,23.8,26.8,23.8,47.8l0,23.7l-5.2-0.7
			l0-11.5l0-11.4c0-16.5,0.3-36.2-17.9-42.2c-0.2-0.6-0.4-1.2-0.4-1.8L405.5,192.6z M358.5,240.5c0,1.9,0,0.9,0,2.6
			c0,14.6-1.3,22.3-12.8,28.2l-2-4.9c8.5-4.9,9.6-11.4,9.7-23.1c0-1.7,0-0.8,0-2.7H358.5z M310.1,243.5c0.1,11.5,1.3,18,9.7,22.8
			l-2,4.9c-11.4-5.8-12.8-13.5-12.8-27.7c0-1.8,0-1,0-3.1h5.2C310.1,240.5,310.1,243.3,310.1,243.5"/>
		<path clip-path="url(#SVGID_4_)" fill-rule="evenodd" clip-rule="evenodd" fill="#CCCCCC" d="M303.1,238.5c0-3.9,0.8-7.5,2.2-10.9
			c1.4-3.5,3.6-6.6,6.2-9.3v0c2.6-2.6,5.8-4.8,9.3-6.2h0c2.6-1.1,5.4-1.8,8.3-2.1h5.2c2.9,0.3,5.7,1,8.3,2.1h0
			c3.5,1.5,6.6,3.6,9.3,6.2c2.6,2.6,4.7,5.8,6.2,9.3v0c1.4,3.4,2.2,7.1,2.2,10.9v2h-1.7h-5.2h-1.9v-2c0-0.7,0-1.4-0.1-2.1
			c-0.2-1.9-0.7-3.7-1.4-5.4c-1-2.4-2.5-4.6-4.3-6.4v0c-1.8-1.8-4-3.3-6.4-4.3h0c-0.2-0.1-0.3-0.1-0.5-0.2c-2.2-0.8-4.6-1.3-7-1.3
			c-2.7,0-5.2,0.5-7.6,1.5c-2.4,1-4.6,2.5-6.4,4.3v0c-1.8,1.8-3.3,4-4.3,6.4c-1,2.3-1.5,4.9-1.5,7.5v2h-1.8h-5.2h-1.8V238.5z"/>
		<path clip-path="url(#SVGID_4_)" fill-rule="evenodd" clip-rule="evenodd" fill="#DAE1E6" d="M426.1,267.2c3.7,0,6.7-3,6.7-6.7
			s-3-6.7-6.7-6.7c-3.7,0-6.7,3-6.7,6.7S422.4,267.2,426.1,267.2"/>
		<path clip-path="url(#SVGID_4_)" fill-rule="evenodd" clip-rule="evenodd" fill="#CCCCCC" d="M345.7,271.3
			c0.2,1.7-0.8,3.4-2.5,3.9l-3.1,0.9c-4.9,1.5-7.6-8.1-2.8-9.5l3.1-0.9c1.2-0.3,2.4,0,3.3,0.7L345.7,271.3z"/>
	</g>
</g>
<g>
	<path fill="#2C3E50" d="M-162.4-58.3l-15.3,20.4h-1.7l-15-20.5v34.1h-8.9v-46.9h10.2l14.7,20.2l14.7-20.2h10.1v46.9h-8.9V-58.3z"/>
	<path fill="#2C3E50" d="M-138.8-37.9c0.5,4.1,4.1,7,9.9,7c3,0,7-1.1,8.9-3.1l5.2,5.2c-3.5,3.6-9.2,5.4-14.2,5.4
		c-11.4,0-18.2-7-18.2-17.6c0-10.1,6.8-17.3,17.6-17.3c11.1,0,18,6.8,16.7,20.5H-138.8z M-120.8-44.7c-0.5-4.3-3.9-6.4-8.6-6.4
		c-4.4,0-8,2.1-9.3,6.4H-120.8z"/>
	<path fill="#2C3E50" d="M-72.4-71.2v46.9H-80l-0.5-4.6c-2.5,4-6.6,5.3-10.7,5.3c-9.7,0-17-6.4-17-17.3c0-11.4,7.2-17.3,16.8-17.3
		c3.5,0,8.9,1.9,10.9,5.3v-18.3H-72.4z M-100.1-40.9c0,5.8,4.2,9.7,9.4,9.7c5.2,0,9.6-3.8,9.6-9.7c0-5.8-4.4-9.7-9.6-9.7
		C-95.9-50.5-100.1-46.9-100.1-40.9z"/>
</g>
<g>
	<path fill="#2C3E50" d="M40.5-58.3L25.2-37.9h-1.7l-15-20.5v34.1h-8.9v-46.9H9.9L24.5-51l14.7-20.2h10.1v46.9h-8.9V-58.3z"/>
	<path fill="#2C3E50" d="M84-57.4h7.8v33.1h-7.7l-0.4-4.8c-1.9,3.9-7,5.8-10.7,5.8c-9.8,0.1-17-6-17-17.6c0-11.4,7.6-17.4,17.2-17.3
		c4.4,0,8.7,2.1,10.5,5.4L84-57.4z M64.1-40.9c0,6.3,4.4,10.1,9.8,10.1c12.9,0,12.9-20.1,0-20.1C68.5-50.9,64.1-47.2,64.1-40.9z"/>
	<path fill="#2C3E50" d="M108.8-66.7v9.4h9.1v7h-9.2V-36c0,3.2,1.7,4.7,4.3,4.7c1.3,0,2.7-0.4,4-1l2.3,7c-2.3,0.9-4.3,1.3-6.8,1.4
		c-7.2,0.3-11.9-3.8-11.9-12.1v-14.3h-6.2v-7h6.2v-8.5L108.8-66.7z"/>
	<path fill="#2C3E50" d="M152.4-28.5c-3.8,3.8-7.8,5.2-12.7,5.2c-9.6,0-17.6-5.8-17.6-17.5s8-17.5,17.6-17.5c4.7,0,8.3,1.3,11.9,4.9
		l-5.2,5.4c-1.9-1.7-4.4-2.6-6.6-2.6c-5.5,0-9.5,4-9.5,9.8c0,6.3,4.3,9.7,9.4,9.7c2.6,0,5.2-0.7,7.2-2.7L152.4-28.5z"/>
	<path fill="#2C3E50" d="M164.2-71.3v18.4c3-3.8,6.6-5,10.3-5c9.4,0,13.5,6.4,13.5,16.1v17.4h-8.2v-17.4c0-6-3.2-8.6-7.5-8.6
		c-4.8,0-8.2,4.1-8.2,9.1v16.9h-8.2v-46.9H164.2z"/>
</g>
<g>
	<path fill="#FF2801" d="M-41.9-43.3c0-9.9,8.1-18,18-18c3.6,0,7,1.1,9.8,2.9c-1.5-6.6-7.4-11.5-14.4-11.5c-4.2,0-8,1.7-10.7,4.5
		c-2.7-2.8-6.5-4.5-10.7-4.5c-8.2,0-14.8,6.6-14.8,14.8c0,3.6,1.3,7,3.5,9.6l0.4,0.5c0.4,0.4,20,19.2,21.6,20.7
		c0.4-0.4,2.2-2.1,4.6-4.4C-39-32-41.9-37.3-41.9-43.3z"/>
	<path fill="#FF2801" d="M-23.9-58.5c-0.1,0-0.2,0-0.3,0C-32.4-58.3-39-51.6-39-43.3c0,7.1,4.9,13.1,11.5,14.7
		c1.2,0.3,2.4,0.4,3.7,0.4c8.4,0,15.2-6.8,15.2-15.2C-8.7-51.7-15.5-58.5-23.9-58.5z M-16.5-41h-5.1v6.7v2.3h-2.4h-2.2v-9h-9v-4.6h9
		v-9h4.6v9h6h3v4.6H-16.5z"/>
</g>
<g>
	<path fill="#FFFFFF" d="M-189.5,74.6c0-1.2,1-2.3,2.3-2.3c0.5,0,0.9,0.1,1.2,0.4c-0.2-0.8-0.9-1.4-1.8-1.4c-0.5,0-1,0.2-1.3,0.6
		c-0.3-0.3-0.8-0.6-1.3-0.6c-1,0-1.9,0.8-1.9,1.9c0,0.5,0.2,0.9,0.4,1.2l0.1,0.1c0.1,0.1,2.5,2.4,2.7,2.6c0.1-0.1,0.3-0.3,0.6-0.6
		C-189.1,76-189.5,75.3-189.5,74.6z"/>
	<path fill="#FFFFFF" d="M-187.3,72.7C-187.3,72.7-187.3,72.7-187.3,72.7c-1.1,0-1.9,0.9-1.9,1.9c0,0.9,0.6,1.6,1.4,1.8
		c0.1,0,0.3,0.1,0.5,0.1c1,0,1.9-0.9,1.9-1.9C-185.4,73.6-186.2,72.7-187.3,72.7z M-186.3,74.9h-0.6v0.8V76h-0.3h-0.3v-1.1h-1.1
		v-0.6h1.1v-1.1h0.6v1.1h0.7h0.4v0.6H-186.3z"/>
</g>
<g>
	<path fill="#EBEDEE" d="M4.7,108.7c0-58,47-105,105-105c58,0,105,47,105,105c0,58-47,105-105,105C51.8,213.7,4.7,166.7,4.7,108.7"
		/>
	<g>
		<defs>
			<path id="SVGID_5_" d="M4.8,108.7c0-58,47-105,105-105c58,0,105,47,105,105c0,58-47,105-105,105C51.8,213.7,4.8,166.7,4.8,108.7"
				/>
		</defs>
		<clipPath id="SVGID_6_">
			<use xlink:href="#SVGID_5_"  overflow="visible"/>
		</clipPath>
		<g clip-path="url(#SVGID_6_)">
			<path fill-rule="evenodd" clip-rule="evenodd" fill="#2C3E50" d="M152.5,216.4l-85.7,0c-7,0-12.6-5.7-12.6-12.6l0.1-157.4
				c0-7,5.7-12.6,12.6-12.6l85.6,0c7,0,12.6,5.7,12.6,12.6l-0.1,157.4C165.2,210.8,159.5,216.4,152.5,216.4z"/>
			<path fill-rule="evenodd" clip-rule="evenodd" fill="#ECF0F1" d="M114.3,196.3c-1.2-1.2-2.8-1.9-4.6-1.9c-1.8,0-3.4,0.7-4.6,1.9
				c-1.2,1.2-1.9,2.8-1.9,4.6c0,1.8,0.7,3.4,1.9,4.6c1.2,1.2,2.8,1.9,4.6,1.9c1.8,0,3.4-0.7,4.6-1.9c1.2-1.2,1.9-2.8,1.9-4.6
				C116.2,199.1,115.5,197.5,114.3,196.3z"/>
			<path fill-rule="evenodd" clip-rule="evenodd" fill="#2C3E50" d="M154,184.8v-0.3v-0.3l0.1-126.9l0-0.3v-0.4c0-0.3,0-0.5-0.2-0.8
				c-0.6-2.5-2.8-4.3-5.5-4.3l-77.3,0c-2.7,0-4.9,1.8-5.5,4.3c-0.1,0.2-0.2,0.5-0.2,0.8V57v0.3l-0.1,126.9v0.3v0.3
				c0,0.3,0.1,0.5,0.2,0.8c0.6,2.5,2.8,4.3,5.5,4.3l77.3,0c2.6,0,4.9-1.8,5.5-4.3C154,185.4,154,185.1,154,184.8z"/>
			<path fill-rule="evenodd" clip-rule="evenodd" fill="#34495E" d="M154,184.8v-0.3v-0.3l0.1-126.9l0-0.3v-0.4c0-0.3,0-0.5-0.2-0.8
				c-0.6-2.5-2.8-4.3-5.5-4.3l-38.6,0l0,138.3l38.6,0c2.6,0,4.9-1.8,5.5-4.3C154,185.4,154,185.1,154,184.8z"/>
			<path fill-rule="evenodd" clip-rule="evenodd" fill="#EBEDEE" d="M101.3,46.5c-4.6,0-4.6-6.2,0-6.1l17,0c4.6,0,4.6,6.1,0,6.1
				L101.3,46.5z"/>
			<path fill-rule="evenodd" clip-rule="evenodd" fill="#2C3E50" d="M113.7,196.9c-1-1-2.4-1.6-4-1.6c-1.5,0-3,0.6-4,1.6
				c-1,1-1.6,2.4-1.6,4c0,1.6,0.6,3,1.6,4c1,1,2.4,1.7,4,1.7c1.5,0,2.9-0.6,4-1.6c1-1,1.6-2.4,1.6-4
				C115.3,199.4,114.7,198,113.7,196.9z"/>
			<rect x="65.4" y="83.9" fill-rule="evenodd" clip-rule="evenodd" fill="#DAE1E6" width="88.6" height="86.2"/>
			<rect x="65.4" y="71.4" fill-rule="evenodd" clip-rule="evenodd" fill="#2980B9" width="88.7" height="12.4"/>
			<path fill-rule="evenodd" clip-rule="evenodd" fill="#2C3E50" d="M82.4,96.8L82.4,96.8c1.5,0,2.7,1.2,2.7,2.7l0,0
				c0,1.5-1.2,2.7-2.7,2.7l0,0c-1.5,0-2.7-1.2-2.7-2.7l0,0C79.7,98.1,80.9,96.8,82.4,96.8z"/>
			<path fill-rule="evenodd" clip-rule="evenodd" fill="#2ECC71" d="M82.4,111.5L82.4,111.5c1.5,0,2.7,1.2,2.7,2.7l0,0
				c0,1.5-1.2,2.7-2.7,2.7l0,0c-1.5,0-2.7-1.2-2.7-2.7l0,0C79.7,112.7,80.9,111.5,82.4,111.5z"/>
			<path fill-rule="evenodd" clip-rule="evenodd" fill="#E74C3C" d="M82.4,127L82.4,127c1.5,0,2.7,1.2,2.7,2.7l0,0
				c0,1.5-1.2,2.7-2.7,2.7l0,0c-1.5,0-2.7-1.2-2.7-2.7l0,0C79.7,128.3,80.9,127,82.4,127z"/>
			<rect x="90.6" y="98.2" fill-rule="evenodd" clip-rule="evenodd" fill="#95A5A6" width="42.3" height="2.7"/>
			<rect x="90.6" y="112.8" fill-rule="evenodd" clip-rule="evenodd" fill="#95A5A6" width="45.7" height="2.7"/>
			<rect x="90.6" y="128.4" fill-rule="evenodd" clip-rule="evenodd" fill="#95A5A6" width="36" height="2.7"/>
		</g>
	</g>
</g>
</svg>
