<?xml version="1.0" encoding="utf-8"?>
<!-- Generator: Adobe Illustrator 18.1.0, SVG Export Plug-In . SVG Version: 6.00 Build 0)  -->
<svg version="1.1" id="Layer_1" xmlns="http://www.w3.org/2000/svg" xmlns:xlink="http://www.w3.org/1999/xlink" x="0px" y="0px"
	 viewBox="0 0 197.6 196.7" enable-background="new 0 0 197.6 196.7" xml:space="preserve">
<g>
	<circle fill="#EEEEEE" cx="-114.7" cy="-1.6" r="96.1"/>
	<g>
		<path opacity="0.2" fill="#7B7B7B" d="M-110.7,94.3c40.3-1.6,74.1-28,85.4-61L-66-3.3l-106.8,39.2L-110.7,94.3z"/>
	</g>
	<path fill="#F0D0B5" d="M-178.7-47.8L-194.7-2c0,0,9.8,6.2,14.3,11.8c4.5,5.6,0.8,15.2,14.9,23.3c7.9,4.5,48.2,28.4,51.9,29.7
		c10.1,4.3,13.5-5.2,12.1-9.6c3.5,2.5,10.7,1.3,14.2-2.3c3.4-3.5,1.8-9.8,1.8-9.8s9.4,5.4,16.3-1.3c4.4-4.4,0.9-9.8,0.9-9.8
		s8.9,3.6,13.1-2.4c4.5-6.4,0.7-11.1-5.4-15.8c-6.2-4.6-61.2-44.8-61.2-44.8s-30.1-2.8-35.8-4.6C-160.9-38.5-178.7-47.8-178.7-47.8z
		"/>
	<path fill="#F0D0B5" d="M-180.7,9.5l2.7-6.4c0,0,4.5,18.3,8,20.8c-2,2.8-3.5,3.2-3.5,3.2s-3.4-4.7-4.5-11
		C-178.6,11.6-180.7,9.5-180.7,9.5z"/>
	<path opacity="0.5" fill="#7B7B7B" d="M-158.6-10.3c0,0,5.4,3.1,9.3,3.1c3.9,0,12.1-4.1,15.5-15.9l25.5,0.1l-6.8-5
		c0,0-21.4-2.3-24.3-0.8C-142.4-27.2-158.6-10.3-158.6-10.3z"/>
	<g opacity="0.5">
		<path fill="#7B7B7B" d="M-128.6,54.6c3.6,2.1,6.9,3.9,9.5,5.4c0-2.9-0.9-5.5-2.3-6.3C-123.1,52.6-126.2,53.1-128.6,54.6z"/>
		<path fill="#7B7B7B" d="M-165.5,33.1c1.5,0.9,4.3,2.5,7.8,4.5c0-0.1,0.1-0.2,0.1-0.3l0.4-2.5c0.9-3.7-1-9-4.8-9.8
			c-3.1-0.7-6.1,2.2-7.5,5.3C-168.4,31.3-167.1,32.2-165.5,33.1z"/>
		<path fill="#7B7B7B" d="M-145.2,45l1.1-2.3c1.5-3.4,2.1-8-1.2-10c-3.3-2-7.6,0.6-9.6,3.9l-1.3,1.9
			C-152.9,40.4-149.1,42.7-145.2,45z"/>
		<path fill="#7B7B7B" d="M-131.4,53l0.6-1.3c1.4-3.6,2.5-9.3-0.8-11.3c-3.3-2-6.9-0.7-8.9,2.6l-2.4,3.4
			C-139,48.6-135,50.9-131.4,53z"/>
	</g>
	<g>
		<path fill="#5DBACA" d="M-130.8,63.1c-1.1-0.1-2.3-0.4-3.3-1.1c-3.2-2.1-3.9-5.8-1.9-9l0.6-1.1c2.1-3.2,7-4.5,9.4-3.1
			c1.9,1.2,2.9,5.8,1.9,9.7l-0.2,0.7C-126.4,63-128.4,63.3-130.8,63.1z"/>
		<path fill="#5DBACA" d="M-168.9,37.6c-0.4,0-0.7-0.1-1-0.2c-3.7-0.9-6.1-4.6-5.2-8.3l0.4-1.8c0.8-3.7,4.4-8.1,8.1-7.2
			c3.7,0.8,5.6,6.1,4.8,9.8l-0.4,2.5C-163,35.9-165.5,37.9-168.9,37.6z"/>
		<path fill="#5DBACA" d="M-157.3,46.9c-1-0.1-1.8,0-2.7-0.6c-3.3-2-4.7-6.6-2.7-9.9l3.2-4.8c2-3.3,6.3-5.9,9.6-3.9
			c3.3,2,2.7,6.6,1.2,10l-2.6,5.5C-152.7,45.6-154.7,47.1-157.3,46.9z"/>
		<path fill="#5DBACA" d="M-143.9,54.8c-1.1-0.1-2.1-0.4-3.1-1c-3.3-2-4.3-6.3-2.3-9.5l4.3-6.1c2-3.3,5.6-4.6,8.9-2.6
			c3.3,2,2.2,7.7,0.8,11.3l-2.1,4.7C-138.9,53.7-141.4,54.9-143.9,54.8z"/>
	</g>
	<path fill="#EFC7B1" d="M-130.8,63.1c-1.1-0.1-2.3-0.4-3.3-1.1c-3.2-2.1-3.9-5.8-1.9-9l0.6-1.1c2.1-3.2,7-4.5,9.4-3.1
		c1.9,1.2,2.9,5.8,1.9,9.7l-0.2,0.7C-126.4,63-128.4,63.3-130.8,63.1z"/>
	<path fill="#EFC7B1" d="M-115.2-28c0,0-19.8-0.2-21.4-0.1c-1.6,0.2-6,14.3-12.9,17.1c-4.1,1.6-11.2,1.3-10.3-1.5
		c0,0,2.2-22.2,7.7-27c5.4-4.8,9.7-6.2,17.1-7.5c7.4-1.3,23.4-6.7,29-5.1c5.5,1.6,14.7,4.1,20.2,5.2c5.5,1.1,12,5.1,15.2,5.3
		c3.2,0.2,14.9-6.4,14.9-6.4L-41-2c0,0-17.9,12.8-18.8,14.5L-115.2-28z"/>
	<path fill="#EFC7B1" d="M-168.9,37.6c-0.4,0-0.7-0.1-1-0.2c-3.7-0.9-6.1-4.6-5.2-8.3l0.4-1.8c0.8-3.7,4.4-8.1,8.1-7.2
		c3.7,0.8,5.6,6.1,4.8,9.8l-0.4,2.5C-163,35.9-165.5,37.9-168.9,37.6z"/>
	<path fill="#EFC7B1" d="M-157.3,46.9c-1-0.1-1.8,0-2.7-0.6c-3.3-2-4.7-6.6-2.7-9.9l3.2-4.8c2-3.3,6.3-5.9,9.6-3.9
		c3.3,2,2.7,6.6,1.2,10l-2.6,5.5C-152.7,45.6-154.7,47.1-157.3,46.9z"/>
	<path fill="#EFC7B1" d="M-143.9,54.8c-1.1-0.1-2.1-0.4-3.1-1c-3.3-2-4.3-6.3-2.3-9.5l4.3-6.1c2-3.3,5.6-4.6,8.9-2.6
		c3.3,2,2.2,7.7,0.8,11.3l-2.1,4.7C-138.9,53.7-141.4,54.9-143.9,54.8z"/>
	<path fill="#D1B79F" d="M-120.3,54.9c0.7,1.2,1.1,3.1,1.2,5.1c-1-0.6-2.1-1.2-3.3-1.9c1.6,0.9,6,3.6,7.6,4.8c5,1.9,8.6,0.5,8.6,0.5
		L-120.3,54.9z"/>
	<polygon fill="#2C3E50" points="-66.7,-44 -46.2,4 -36,-0.4 -54.7,-50.9 	"/>
	<path opacity="0.5" fill="#7B7B7B" d="M-163.4-40.1l2.9,1.4l-20.2,48.1c0,0-2.5-2.8-3.2-3.2C-182.4,1.8-163.4-40.1-163.4-40.1z"/>
	<polygon fill="#2C3E50" points="-162.7,-41.5 -184.6,8.1 -193.4,4.6 -174.7,-48.4 	"/>
	<g>
		<g>
			<path fill="#35495E" d="M-169.9-49.5l-19.3-12.8c-13.5,16.5-21.6,37.6-21.6,60.6c0,0.2,0,0.4,0,0.6l16.3,11.1L-169.9-49.5z"/>
		</g>
	</g>
	<path opacity="0.5" fill="#7B7B7B" d="M-115.2-28c0,0,34,14.1,36.6,14.5C-76-11.9-54.6,8-54.6,8s-2.6,2-3.3,2.6
		c-1.7,1.5-1.9,1.9-1.9,1.9L-115.2-28z"/>
	<path fill="#D1B79F" d="M-59.4,30.7c0,0-3.9,1.3-9-0.6c-2-1.4-24.2-16.1-24.2-16.1l0.3-4.3L-59.4,30.7z"/>
	<path fill="#D1B79F" d="M-75.3,43c0,0-5.4,1.2-10.2-1.7c-2-1.4-21.4-14.2-21.4-14.2l0.6-4.3L-75.3,43z"/>
	<path fill="#D1B79F" d="M-92.9,54.1c0,0-3.5,1.7-8.8-0.6c-2-1.4-17.1-11.2-17.1-11.2l0.8-4.1L-92.9,54.1z"/>
	<path fill="none" d="M-35.4,4.8l-24.4-57.3l18.2-11.4c-17.6-20.7-43.8-33.8-73.1-33.8c-53,0-96.1,43-96.1,96.1s43,96,96.1,96
		s96-43,96-96c0-1.4,0-2.8-0.1-4.1L-35.4,4.8z"/>
	<path fill="#FFFFFF" d="M-35.4,4.8l16.7-10.6c-0.9-22.1-9.4-42.3-22.8-58.1l-18.2,11.4L-35.4,4.8z"/>
</g>
<g>
	<defs>
		<circle id="SVGID_1_" cx="98.8" cy="98.4" r="96.1"/>
	</defs>
	<clipPath id="SVGID_2_">
		<use xlink:href="#SVGID_1_"  overflow="visible"/>
	</clipPath>
	<circle clip-path="url(#SVGID_2_)" fill="#4D6781" cx="98.8" cy="98.4" r="96.1"/>
	<g clip-path="url(#SVGID_2_)">
		<path fill="#2C3E50" d="M145.3,146c0-12.3,0-76.1,0-85.9c0-9.8-9.8-9.8-9.8-9.8H15.6C7.4,64.4,2.7,80.8,2.7,98.4
			c0,21.5,7.1,41.4,19.1,57.5h113.7C135.5,155.8,145.3,155.8,145.3,146z"/>
	</g>
	<g clip-path="url(#SVGID_2_)">
		<path fill="#FFFFFF" d="M133,69.9H12.7v71.1c0.4,0.8,0.8,1.7,1.3,2.5h119V69.9z"/>
	</g>
	<g clip-path="url(#SVGID_2_)">
		<path fill="#FFFFFF" d="M42.2,65v-9.8H13c-0.1,0.2-0.2,0.3-0.2,0.5V65H42.2z"/>
	</g>
	<rect x="123.2" y="55.2" clip-path="url(#SVGID_2_)" fill="#FFFFFF" width="9.8" height="9.8"/>
	<rect x="103.6" y="55.2" clip-path="url(#SVGID_2_)" fill="#FFFFFF" width="9.8" height="9.8"/>
	<g clip-path="url(#SVGID_2_)">
		<path fill="#304C5E" d="M144.2,150.9H18.4c1.1,1.7,2.2,3.3,3.4,4.9h113.7C135.5,155.8,141.6,155.8,144.2,150.9z"/>
	</g>
	<rect x="24.3" y="86.4" clip-path="url(#SVGID_2_)" fill="#57BFE4" width="31.9" height="24.5"/>
	<path clip-path="url(#SVGID_2_)" fill="#57BFE4" d="M122.5,90.1c0-2-1.7-3.7-3.7-3.7H72.2c-2,0-3.7,1.6-3.7,3.7l0,0
		c0,2,1.6,3.7,3.7,3.7h46.6C120.9,93.8,122.5,92.1,122.5,90.1L122.5,90.1z"/>
	<path clip-path="url(#SVGID_2_)" fill="#57BFE4" d="M122.5,107.3c0-2-1.7-3.7-3.7-3.7H72.2c-2,0-3.7,1.6-3.7,3.7l0,0
		c0,2,1.6,3.7,3.7,3.7h46.6C120.9,110.9,122.5,109.3,122.5,107.3L122.5,107.3z"/>
	<path clip-path="url(#SVGID_2_)" fill="#57BFE4" d="M118.9,120.8H73.4H27.9c-2,0-3.6,1.6-3.6,3.7c0,2,1.6,3.7,3.6,3.7h45.5h45.5
		c2,0,3.6-1.6,3.6-3.7C122.5,122.4,120.9,120.8,118.9,120.8z"/>
	<g clip-path="url(#SVGID_2_)">
		<g>
			
				<rect x="132.9" y="136.8" transform="matrix(0.7016 -0.7126 0.7126 0.7016 -63.0999 141.6718)" fill="#2C3E50" width="9.4" height="18.8"/>
			
				<rect x="133.6" y="138.5" transform="matrix(0.7015 -0.7127 0.7127 0.7015 -64.7812 141.0206)" fill="#35495E" width="4.7" height="18.8"/>
		</g>
		<polygon fill="#35495E" points="148.6,146.1 137.5,157.5 138.8,160.5 152,147.2 		"/>
		<polygon fill="#C7C8CB" points="152,147.2 138.8,160.5 168.9,194.6 186.5,176.7 		"/>
		
			<rect x="166.3" y="185.2" transform="matrix(0.7017 -0.7125 0.7125 0.7017 -79.7144 183.0909)" fill="#35495E" width="25" height="3.1"/>
		
			<rect x="168" y="187.6" transform="matrix(0.7018 -0.7124 0.7124 0.7018 -80.3887 184.7347)" fill="#57BFE4" width="25" height="1.6"/>
		<g>
			<g>
				<g>
					<path fill="#2C3E50" d="M172.2,197.9c4.9,1.6,10.5,0.5,14.4-3.5c3.9-3.9,4.9-9.6,3.3-14.4L172.2,197.9z"/>
				</g>
			</g>
		</g>
		<polygon fill="#81878E" points="145.4,153.8 138.8,160.5 168.9,194.6 177.7,185.6 		"/>
	</g>
	<g clip-path="url(#SVGID_2_)">
		<path fill="#35495E" d="M131.7,94.3C118.8,81.6,98,81.7,85.3,94.6c-12.7,12.9-12.6,33.7,0.4,46.4c12.9,12.7,33.7,12.6,46.4-0.4
			C144.7,127.8,144.6,107,131.7,94.3z"/>
		<path fill="#2C3E50" d="M128.1,97.9c-10.9-10.8-28.5-10.6-39.3,0.3c-10.8,10.9-10.6,28.5,0.3,39.3c10.9,10.8,28.5,10.6,39.3-0.3
			C139.2,126.2,139.1,108.6,128.1,97.9z"/>
		<circle fill="#FFFFFF" cx="108.6" cy="117.7" r="26.6"/>
		<path fill="#D1D2D3" d="M84.1,122.3c0.9,4.8,3.3,9.5,7.1,13.2c9.9,9.8,25.9,9.7,35.7-0.3c6.3-6.4,8.5-15.4,6.6-23.6L84.1,122.3z"
			/>
	</g>
</g>
</svg>
