<?xml version="1.0" encoding="utf-8"?>
<!-- Generator: Adobe Illustrator 18.1.0, SVG Export Plug-In . SVG Version: 6.00 Build 0)  -->
<svg version="1.1" id="Layer_1" xmlns="http://www.w3.org/2000/svg" xmlns:xlink="http://www.w3.org/1999/xlink" x="0px" y="0px"
	 viewBox="0 0 259.7 259.7" enable-background="new 0 0 259.7 259.7" xml:space="preserve">
<g>
	<g>
		<circle fill-rule="evenodd" clip-rule="evenodd" fill="#BDC3C7" cx="129.8" cy="129.4" r="121.6"/>
		<g>
			<defs>
				<circle id="SVGID_1_" cx="129.8" cy="129.4" r="121.6"/>
			</defs>
			<clipPath id="SVGID_2_">
				<use xlink:href="#SVGID_1_"  overflow="visible"/>
			</clipPath>
			<g clip-path="url(#SVGID_2_)">
				<rect x="78.1" y="203.7" fill="#ECF0F1" width="51.5" height="56.2"/>
				<path fill="#BDC3C7" d="M216.2,203.7c0,12.9-10.5,23.4-23.4,23.4h-178c-12.9,0-23.4-10.5-23.4-23.4V103
					c0-12.9,10.5-23.4,23.4-23.4h178c12.9,0,23.4,10.5,23.4,23.4V203.7z"/>
				<path fill="#EAEAEA" d="M216.2,192c0,12.9-10.5,23.4-23.4,23.4h-178C2,215.4-8.6,204.9-8.6,192V67.9C-8.6,55,2,44.4,14.8,44.4
					h178c12.9,0,23.4,10.5,23.4,23.4V192z"/>
				<path fill="#FFFFFF" d="M199.8,180.3c0,1.3-1.1,2.3-2.3,2.3H10.2c-1.3,0-2.3-1.1-2.3-2.3V60.8c0-1.3,1.1-2.3,2.3-2.3h187.3
					c1.3,0,2.3,1.1,2.3,2.3V180.3z"/>
				<path fill="#FFFFFF" d="M199.7,180.3c0,1.3-1.1,2.3-2.3,2.3H10c-1.3,0-2.3-1.1-2.3-2.3V60.8c0-1.3,1.1-2.3,2.3-2.3h187.3
					c1.3,0,2.3,1.1,2.3,2.3V180.3z"/>
				<rect x="57" y="259.9" fill="#ECF0F1" width="93.7" height="9.4"/>
				<polygon fill="#ECF0F1" points="150.7,259.9 57,259.9 64,255.2 143.6,255.2 				"/>
				<circle fill="#DCDDDF" cx="101.5" cy="199" r="7"/>
				<polygon opacity="0.5" fill="#7F8C8D" points="78.1,227.1 129.6,227.1 129.6,250.5 78.1,238.8 				"/>
				<path fill="#ECF0F1" d="M160,265h56.2c0,0,2.8-23.4-28.1-23.4C157.2,241.6,160,265,160,265z"/>
				<path fill="#BDC3C7" d="M188.1,265h28.1c0,0,2.8-23.4-28.1-23.4V265z"/>
				<g>
					<defs>
						<path id="SVGID_3_" d="M199.7,180.3c0,1.3-1.1,2.3-2.3,2.3H10c-1.3,0-2.3-1.1-2.3-2.3V60.8c0-1.3,1.1-2.3,2.3-2.3h187.3
							c1.3,0,2.3,1.1,2.3,2.3V180.3z"/>
					</defs>
					<clipPath id="SVGID_4_">
						<use xlink:href="#SVGID_3_"  overflow="visible"/>
					</clipPath>
					<path clip-path="url(#SVGID_4_)" fill="#FFFFFF" d="M199.7,180.3c0,1.3-1.1,2.3-2.3,2.3H10c-1.3,0-2.3-1.1-2.3-2.3V60.8
						c0-1.3,1.1-2.3,2.3-2.3h187.3c1.3,0,2.3,1.1,2.3,2.3V180.3z"/>
					<rect x="4" y="128.6" clip-path="url(#SVGID_4_)" fill="#BDC3C7" width="204.5" height="111"/>
					
						<polyline clip-path="url(#SVGID_4_)" fill="none" stroke="#FCB315" stroke-width="2.1798" stroke-linecap="round" stroke-linejoin="round" stroke-miterlimit="10" points="
						208.5,169.9 195.1,176.8 189.3,162.7 173.1,153.6 171.1,166.9 160.3,172.8 148.7,170.7 141.4,176.4 136.9,164.8 117.6,140.6 
						104.5,151.5 94.6,139 90.1,160.5 74.8,144.7 66.5,156.3 43.6,167.1 38,184.7 31.2,174.6 27,187.6 21.6,182.6 17.7,191.1 
						3.1,195.9 -0.8,200.9 					"/>
					<g clip-path="url(#SVGID_4_)">
						<rect x="81.2" y="76.8" fill="#FCB315" width="104.6" height="6"/>
						<rect x="81.2" y="106.2" opacity="0.5" fill="#515151" width="104.6" height="6"/>
						<rect x="81.2" y="91.5" opacity="0.5" fill="#515151" width="88.9" height="6"/>
					</g>
					<g clip-path="url(#SVGID_4_)">
						<g>
							<g>
								<path fill="#FCB415" d="M40.8,97.8c0-8.6,6.9-15.5,15.5-15.5c3.1,0,6,0.9,8.5,2.5c-1.3-5.6-6.4-9.9-12.4-9.9
									c-3.6,0-6.9,1.5-9.2,3.9c-2.3-2.4-5.6-3.9-9.2-3.9c-7,0-12.8,5.7-12.8,12.8c0,3.1,1.1,6,3,8.2l0.4,0.4
									c0.3,0.4,17.2,16.5,18.5,17.8c0.4-0.4,1.9-1.8,4-3.8C43.3,107.5,40.8,102.9,40.8,97.8z"/>
							</g>
							<g>
								<g>
									<g>
										<path fill="#81868E" d="M58.8,109.7c0,0,0.3-0.1,0.8-0.2c0.3,0,0.6-0.1,1-0.2c0.4-0.1,0.8-0.3,1.3-0.5
											c1.9-0.8,4.4-2.5,6-5.7c0.8-1.6,1.2-3.4,1.2-5.4c0-2-0.6-4.1-1.8-6c-0.6-0.9-1.3-1.8-2.1-2.5c-0.8-0.8-1.8-1.4-2.8-1.9
											c-1-0.5-2.1-0.8-3.3-1c-1.1-0.2-2.3-0.2-3.5,0c-1.1,0.2-2.3,0.5-3.3,1c-1,0.5-2,1.1-2.9,1.9c-0.8,0.8-1.6,1.6-2.2,2.6
											c-0.6,1-1.1,2-1.4,3c-0.6,2.1-0.6,4.3-0.1,6.2c0.5,1.9,1.5,3.6,2.6,4.9c2.4,2.6,5.3,3.6,7.3,3.9c0.5,0.1,1,0.1,1.4,0.1
											c0.4,0,0.7,0,1,0C58.5,109.8,58.8,109.7,58.8,109.7l0.3,2.4c0,0-0.3,0-1,0.1c-0.3,0-0.7,0-1.2,0c-0.5,0-1,0-1.6-0.1
											c-2.4-0.3-5.9-1.5-8.8-4.7c-1.4-1.6-2.5-3.6-3.1-5.9c-0.6-2.3-0.6-4.9,0.1-7.5c0.4-1.3,0.9-2.5,1.6-3.6
											c0.7-1.1,1.6-2.2,2.6-3.1c1-0.9,2.2-1.7,3.5-2.3c1.3-0.6,2.6-0.9,4-1.2c1.4-0.2,2.8-0.2,4.2,0c1.4,0.2,2.7,0.6,4,1.2
											c1.2,0.6,2.4,1.4,3.4,2.3c1,0.9,1.9,1.9,2.5,3.1c1.4,2.2,2.1,4.8,2.1,7.2c0,2.4-0.5,4.7-1.4,6.6c-1.9,3.8-5,5.9-7.2,6.8
											c-0.6,0.2-1.1,0.4-1.5,0.6c-0.5,0.1-0.8,0.2-1.2,0.3c-0.6,0.1-1,0.2-1,0.2L58.8,109.7z"/>
										<path fill="#FCB415" d="M59.3,86.3c0,0-0.6-0.1-1.7-0.2c-1.1,0-2.8,0.1-4.5,0.8c-0.9,0.3-1.8,0.8-2.7,1.5
											c-0.9,0.7-1.7,1.4-2.5,2.4c-1.5,1.9-2.4,4.4-2.4,7c-0.1,2.6,0.8,5.1,2.1,7.1c1.4,2,3.3,3.3,5,4.1c1.8,0.8,3.4,0.9,4.5,1
											c0.6,0,1,0,1.3-0.1c0.3,0,0.5,0,0.5,0l0.3,2.4c0,0-0.2,0-0.5,0c-0.4,0-0.9,0.1-1.6,0.1c-1.3,0-3.3-0.2-5.4-1.1
											c-2.1-0.9-4.4-2.5-6-4.9c-1.7-2.4-2.7-5.4-2.6-8.5c0-3.1,1.2-6.1,2.9-8.4c0.9-1.1,1.9-2.1,3-2.9c1.1-0.8,2.2-1.3,3.3-1.7
											c2.2-0.8,4.1-1,5.5-0.9c1.3,0.1,2.1,0.2,2.1,0.2L59.3,86.3z"/>
									</g>
								</g>
							</g>
							<g>
								<path fill="#2C3E50" d="M50,99.8c0,0,0.5,0.7,1.4,0.7c0.8,0,1.3-0.5,1.3-1.2c0-0.7-0.6-1.2-1.4-1.2c-0.7,0-1.1,0.3-1.1,0.3
									l-0.3-0.2l0.2-2.5c0-0.4,0.2-0.5,0.5-0.5h2.1c0.4,0,0.5,0.2,0.5,0.5v0.8h-0.8V96c0-0.1-0.1-0.2-0.2-0.2H51
									c-0.1,0-0.2,0.1-0.2,0.2l-0.1,1.1c0,0.2,0,0.3,0,0.3h0c0,0,0.3-0.2,0.8-0.2c1.3,0,2.1,0.9,2.1,2c0,1.1-0.8,2-2.2,2
									c-1.2,0-1.9-0.8-1.9-0.8L50,99.8z"/>
								<path fill="#2C3E50" d="M57.2,96.4c0.2-0.3,0.3-0.6,0.3-0.6v0c0,0-0.1,0-0.4,0h-1.8c-0.1,0-0.2,0.1-0.2,0.2v0.4h-0.8v-0.8
									c0-0.4,0.1-0.5,0.5-0.5h3.6v0.6l-2.9,5.4h-0.9L57.2,96.4z"/>
								<path fill="#2C3E50" d="M59.3,96.3c0-0.7,0.6-1.3,1.3-1.3s1.3,0.6,1.3,1.3c0,0.7-0.6,1.3-1.3,1.3S59.3,97,59.3,96.3z
									 M64,95.1h0.8l-4.6,6h-0.8L64,95.1z M61.2,96.3c0-0.3-0.3-0.6-0.6-0.6c-0.4,0-0.6,0.3-0.6,0.6c0,0.4,0.3,0.6,0.6,0.6
									C60.9,96.9,61.2,96.6,61.2,96.3z M63.6,98.7c0.7,0,1.3,0.6,1.3,1.3c0,0.7-0.6,1.3-1.3,1.3c-0.7,0-1.3-0.6-1.3-1.3
									C62.4,99.3,62.9,98.7,63.6,98.7z M63.6,100.6c0.3,0,0.6-0.3,0.6-0.6c0-0.3-0.3-0.6-0.6-0.6c-0.4,0-0.6,0.3-0.6,0.6
									C63,100.3,63.3,100.6,63.6,100.6z"/>
							</g>
						</g>
					</g>
				</g>
				<g>
					<path opacity="0.4" fill="#7B7B7B" d="M108.4,178.5l40.4,36.9l6.6,11.6h37.5c12.5,0,22.8-9.9,23.4-22.3v-32.9l-38.6-32.7
						L108.4,178.5z"/>
					<path fill="#A74429" d="M167.3,140.3v3.4l-52.1-33.1c-2.2-1.4-4.1-0.4-4.3,2.2l-3.5,51.7h-0.8v11.7h0c0.2,2.1,1.9,3.2,4.1,2.4
						l15-5.5c2.4-0.9,5.4,0.2,6.7,2.5l14.6,26.2c1.3,2.2,4.3,3.4,6.7,2.5l18.4-6.8c1.9-0.7,2.6-2.3,2.6-4.1v-10.8h-4.7v1.8
						l-10.5-18.8c-1.3-2.2-0.3-4.8,2.1-5.7l15-5.5c1.3-0.5,2-1.3,1.9-2.1h0v-11.7H167.3z"/>
					<path fill="#F37655" d="M115.2,98.9c-2.2-1.4-4.1-0.4-4.3,2.2l-4.3,62.7c-0.2,2.6,1.7,3.9,4.1,3.1l15-5.5
						c2.4-0.9,5.4,0.2,6.7,2.5l14.6,26.2c1.3,2.2,4.3,3.4,6.7,2.5l18.4-6.8c2.4-0.9,3.4-3.5,2.1-5.7l-14.6-26.2
						c-1.3-2.2-0.3-4.8,2.1-5.7l15-5.5c2.4-0.9,2.6-2.8,0.4-4.1L115.2,98.9z"/>
				</g>
			</g>
		</g>
	</g>
	
		<circle fill-rule="evenodd" clip-rule="evenodd" fill="none" stroke="#2C3E50" stroke-width="10" stroke-miterlimit="10" cx="129.8" cy="129.4" r="121.6"/>
</g>
<g>
	<g>
		<circle fill-rule="evenodd" clip-rule="evenodd" fill="#BDC3C7" cx="-195.2" cy="195.8" r="121.6"/>
		<g>
			<defs>
				<circle id="SVGID_5_" cx="-195.2" cy="195.8" r="121.6"/>
			</defs>
			<clipPath id="SVGID_6_">
				<use xlink:href="#SVGID_5_"  overflow="visible"/>
			</clipPath>
			<g clip-path="url(#SVGID_6_)">
				<path fill="#EAEAEA" d="M-120,120.8h-184.9c-6.6,0-11.9,5.3-11.9,11.9v160.1c26.9,26.4,63.7,42.7,104.4,42.7
					c40.7,0,77.5-16.3,104.4-42.7V132.7C-108,126.1-113.4,120.8-120,120.8z"/>
				<path fill="#FFFFFF" d="M-131.9,147.6h-161.1c-3.3,0-6,2.7-6,6v154.2c24.4,17.4,54.2,27.7,86.5,27.7s62.1-10.3,86.5-27.7V153.6
					C-125.9,150.3-128.6,147.6-131.9,147.6z"/>
				<path fill="#BDC3C7" d="M-120,120.8h-184.9c-6.6,0-11.9,5.3-11.9,11.9v6c0-6.6,5.3-11.9,11.9-11.9H-120
					c6.6,0,11.9,5.3,11.9,11.9v-6C-108,126.1-113.4,120.8-120,120.8z"/>
				<path fill="#4FBA6F" d="M-155.7,278.8h-113.3c-1.6,0-3,1.3-3,3c0,1.6,1.3,3,3,3h113.3c1.6,0,3-1.3,3-3
					C-152.8,280.2-154.1,278.8-155.7,278.8z M-155.7,249h-113.3c-1.6,0-3,1.3-3,3c0,1.6,1.3,3,3,3h113.3c1.6,0,3-1.3,3-3
					C-152.8,250.3-154.1,249-155.7,249z M-155.7,219.2h-113.3c-1.6,0-3,1.3-3,3c0,1.6,1.3,3,3,3h113.3c1.6,0,3-1.3,3-3
					C-152.8,220.5-154.1,219.2-155.7,219.2z M-155.7,308.6h-113.3c-1.6,0-3,1.3-3,3s1.3,3,3,3h113.3c1.6,0,3-1.3,3-3
					S-154.1,308.6-155.7,308.6z M-269.1,195.3h113.3c1.6,0,3-1.3,3-3c0-1.6-1.3-3-3-3h-113.3c-1.6,0-3,1.3-3,3
					C-272.1,194-270.7,195.3-269.1,195.3z"/>
				<path fill="#EAEAEA" d="M-269.1,132.7h116.3c1.6,0,3,1.3,3,3v20.9c0,4.9-4,8.9-8.9,8.9h-104.4c-4.9,0-8.9-4-8.9-8.9v-20.9
					C-272.1,134-270.7,132.7-269.1,132.7z M-229.2,102.9h37.7c4.9,0,7.5,3.6,8.9,8.9l6,20.9h-65.6l6-20.9
					C-235.4,108-233.7,102.9-229.2,102.9z"/>
				<path fill="#A4A7A9" d="M-240.2,125.7l-2,7h65.6l-2-7H-240.2z"/>
				<path fill="#B8BBBD" d="M-152.8,132.7h-116.3c-1.6,0-3,1.3-3,3v8.9c0-1.6,1.3-3,3-3h116.3c1.6,0,3,1.3,3,3v-8.9
					C-149.8,134-151.1,132.7-152.8,132.7z"/>
			</g>
		</g>
	</g>
	
		<circle fill-rule="evenodd" clip-rule="evenodd" fill="none" stroke="#2C3E50" stroke-width="10" stroke-miterlimit="10" cx="-195.2" cy="195.8" r="121.6"/>
</g>
<g>
	<circle fill-rule="evenodd" clip-rule="evenodd" fill="#BDC3C7" cx="-171.6" cy="50.4" r="121.6"/>
	<g>
		<defs>
			<circle id="SVGID_7_" cx="-171.6" cy="50.4" r="121.6"/>
		</defs>
		<clipPath id="SVGID_8_">
			<use xlink:href="#SVGID_7_"  overflow="visible"/>
		</clipPath>
		<g clip-path="url(#SVGID_8_)">
			<g>
				<path opacity="0.2" fill="#7B7B7B" d="M-166,175.1c52.1-2.1,95.9-36.2,110.5-79l-52.7-47.4l-138.3,50.8L-166,175.1z"/>
			</g>
			<path fill="#F0D0B5" d="M-254-9l-20.8,59.4c0,0,12.7,8,18.6,15.3c5.8,7.3,1,19.7,19.3,30.1c10.2,5.8,62.4,36.8,67.2,38.5
				c13.1,5.6,17.5-6.8,15.7-12.4c4.6,3.3,13.9,1.7,18.3-2.9c4.4-4.6,2.3-12.7,2.3-12.7s12.2,7,21-1.7c5.7-5.6,1.2-12.7,1.2-12.7
				s11.6,4.6,17-3c5.8-8.2,0.9-14.4-7.1-20.4c-8-6-79.2-58-79.2-58s-39-3.6-46.3-6C-231,3.1-254-9-254-9z"/>
			<path fill="#F0D0B5" d="M-256.6,65.3l3.5-8.3c0,0,5.9,23.8,10.4,26.9c-2.6,3.6-4.5,4.2-4.5,4.2s-4.4-6-5.8-14.2
				C-253.9,68-256.6,65.3-256.6,65.3z"/>
			<path opacity="0.5" fill="#7B7B7B" d="M-228,39.6c0,0,7,4,12,4s15.6-5.3,20-20.6l33,0.2l-8.9-6.5c0,0-27.7-3-31.5-1
				C-207,17.7-228,39.6-228,39.6z"/>
			<g opacity="0.5">
				<path fill="#7B7B7B" d="M-189.1,123.7c4.7,2.7,8.9,5.1,12.2,6.9c0-3.7-1.2-7.1-3-8.2C-182,121.1-186,121.6-189.1,123.7z"/>
				<path fill="#7B7B7B" d="M-236.9,95.8c2,1.1,5.6,3.2,10.1,5.9c0-0.1,0.1-0.2,0.1-0.3l0.5-3.2c1.1-4.8-1.4-11.6-6.2-12.7
					c-4-0.9-7.9,2.8-9.7,6.9C-240.6,93.5-238.9,94.7-236.9,95.8z"/>
				<path fill="#7B7B7B" d="M-210.6,111.2l1.4-3c1.9-4.4,2.7-10.4-1.6-12.9c-4.3-2.5-9.8,0.8-12.4,5.1l-1.7,2.5
					C-220.6,105.3-215.7,108.2-210.6,111.2z"/>
				<path fill="#7B7B7B" d="M-192.7,121.6l0.8-1.7c1.8-4.7,3.2-12.1-1-14.6c-4.2-2.6-9-0.9-11.5,3.4l-3,4.3
					C-202.6,115.9-197.5,118.8-192.7,121.6z"/>
			</g>
			<g>
				<path fill="#5DBACA" d="M-192,134.6c-1.5-0.1-2.9-0.6-4.2-1.4c-4.2-2.7-5.1-7.5-2.4-11.7l0.8-1.4c2.7-4.2,9.1-5.9,12.1-4
					c2.5,1.5,3.7,7.5,2.5,12.6l-0.3,0.9C-186.3,134.5-188.8,134.9-192,134.6z"/>
				<path fill="#5DBACA" d="M-241.3,101.7c-0.5,0-0.9-0.1-1.4-0.2c-4.8-1.1-7.9-5.9-6.8-10.8l0.5-2.3c1.1-4.8,5.6-10.5,10.5-9.4
					c4.8,1.1,7.3,7.9,6.2,12.7l-0.5,3.2C-233.7,99.4-236.9,102-241.3,101.7z"/>
				<path fill="#5DBACA" d="M-226.3,113.7c-1.3-0.1-2.3,0-3.5-0.8c-4.3-2.5-6.1-8.5-3.6-12.8l4.2-6.2c2.5-4.3,8.1-7.6,12.4-5.1
					c4.3,2.5,3.5,8.5,1.6,12.9l-3.4,7.1C-220.3,112-223,114-226.3,113.7z"/>
				<path fill="#5DBACA" d="M-209,123.8c-1.4-0.1-2.7-0.5-4-1.3c-4.2-2.6-5.6-8.1-3-12.4l5.6-8c2.6-4.2,7.3-6,11.5-3.4
					c4.2,2.6,2.8,9.9,1,14.6l-2.7,6C-202.5,122.5-205.7,124.1-209,123.8z"/>
			</g>
			<path fill="#EFC7B1" d="M-192,134.6c-1.5-0.1-2.9-0.6-4.2-1.4c-4.2-2.7-5.1-7.5-2.4-11.7l0.8-1.4c2.7-4.2,9.1-5.9,12.1-4
				c2.5,1.5,3.7,7.5,2.5,12.6l-0.3,0.9C-186.3,134.5-188.8,134.9-192,134.6z"/>
			<path fill="#EFC7B1" d="M-171.8,16.7c0,0-25.7-0.3-27.8-0.1c-2.1,0.2-7.7,18.6-16.7,22.2c-5.3,2.1-14.4,1.7-13.4-1.9
				c0,0,2.9-28.7,9.9-35c7-6.2,12.6-8.1,22.2-9.7c9.6-1.6,30.3-8.6,37.5-6.5c7.2,2.1,19,5.3,26.1,6.7c7.1,1.4,15.5,6.6,19.7,6.9
				C-110-0.4-94.9-9-94.9-9l19.1,59.4c0,0-23.2,16.6-24.4,18.8L-171.8,16.7z"/>
			<path fill="#EFC7B1" d="M-241.3,101.7c-0.5,0-0.9-0.1-1.4-0.2c-4.8-1.1-7.9-5.9-6.8-10.8l0.5-2.3c1.1-4.8,5.6-10.5,10.5-9.4
				c4.8,1.1,7.3,7.9,6.2,12.7l-0.5,3.2C-233.7,99.4-236.9,102-241.3,101.7z"/>
			<path fill="#EFC7B1" d="M-226.3,113.7c-1.3-0.1-2.3,0-3.5-0.8c-4.3-2.5-6.1-8.5-3.6-12.8l4.2-6.2c2.5-4.3,8.1-7.6,12.4-5.1
				c4.3,2.5,3.5,8.5,1.6,12.9l-3.4,7.1C-220.3,112-223,114-226.3,113.7z"/>
			<path fill="#EFC7B1" d="M-209,123.8c-1.4-0.1-2.7-0.5-4-1.3c-4.2-2.6-5.6-8.1-3-12.4l5.6-8c2.6-4.2,7.3-6,11.5-3.4
				c4.2,2.6,2.8,9.9,1,14.6l-2.7,6C-202.5,122.5-205.7,124.1-209,123.8z"/>
			<path fill="#D1B79F" d="M-178.4,124c0.9,1.6,1.5,4,1.5,6.6c-1.3-0.7-2.8-1.5-4.3-2.4c2,1.2,7.8,4.7,9.9,6.2
				c6.5,2.5,11.1,0.7,11.1,0.7L-178.4,124z"/>
			<polygon fill="#CFD0D3" points="-109.1,-4 -82.4,58.1 -69.2,52.4 -93.5,-12.9 			"/>
			<path opacity="0.5" fill="#7B7B7B" d="M-234.1,1.1l3.7,1.8l-26.2,62.3c0,0-3.2-3.7-4.2-4.1C-258.8,55.3-234.1,1.1-234.1,1.1z"/>
			<polygon fill="#EAEAEA" points="-233.2,-0.8 -261.6,63.4 -273.1,58.9 -248.8,-9.6 			"/>
			<g>
				<path fill="#95A5A5" d="M-242.6-11.1l-25-16.5c-17.4,21.4-27.9,48.7-27.9,78.5c0,0.3,0,0.5,0,0.8l21.1,14.4L-242.6-11.1z"/>
			</g>
			<path opacity="0.5" fill="#7B7B7B" d="M-171.8,16.7c0,0,44,18.3,47.4,18.8c3.2,2.1,30.9,27.9,30.9,27.9s-3.3,2.5-4.3,3.4
				c-2.2,1.9-2.5,2.4-2.5,2.4L-171.8,16.7z"/>
			<path fill="#D1B79F" d="M-99.6,92.7c0,0-5.1,1.7-11.6-0.8C-113.8,90-142.5,71-142.5,71l0.4-5.6L-99.6,92.7z"/>
			<path fill="#D1B79F" d="M-120.1,108.6c0,0-7,1.6-13.3-2.2c-2.6-1.9-27.7-18.4-27.7-18.4l0.8-5.6L-120.1,108.6z"/>
			<path fill="#D1B79F" d="M-142.9,123c0,0-4.5,2.3-11.4-0.8c-2.6-1.9-22.1-14.5-22.1-14.5l1-5.3L-142.9,123z"/>
			<path fill="none" d="M-68.5,59.2L-100.1-15l23.6-14.7c-22.8-26.8-56.7-43.8-94.7-43.8c-68.7,0-124.3,55.7-124.3,124.3
				s55.7,124.3,124.3,124.3S-46.8,119.5-46.8,50.8c0-1.8-0.1-3.6-0.1-5.4L-68.5,59.2z"/>
			<path fill="#EAEAEA" d="M-68.5,59.2L-47,45.5c-1.2-28.7-12.1-54.8-29.5-75.2L-100.1-15L-68.5,59.2z"/>
		</g>
	</g>
	
		<circle fill-rule="evenodd" clip-rule="evenodd" fill="none" stroke="#2C3E50" stroke-width="10" stroke-miterlimit="10" cx="-171.6" cy="50.4" r="121.6"/>
</g>
</svg>
