<?xml version="1.0" encoding="utf-8"?>
<!-- Generator: Adobe Illustrator 18.1.0, SVG Export Plug-In . SVG Version: 6.00 Build 0)  -->
<svg version="1.1" id="Layer_1" xmlns="http://www.w3.org/2000/svg" xmlns:xlink="http://www.w3.org/1999/xlink" x="0px" y="0px"
	 viewBox="0 0 197.6 196.7" enable-background="new 0 0 197.6 196.7" xml:space="preserve">
<g id="handshake">
	<circle fill="#EEEEEE" cx="98.8" cy="98.4" r="96.1"/>
	<g>
		<path opacity="0.2" fill="#7B7B7B" d="M102.8,194.3c40.3-1.6,74.1-28,85.4-61l-40.7-36.6L40.7,135.9L102.8,194.3z"/>
	</g>
	<path fill="#F0D0B5" d="M34.8,52.2L18.7,98c0,0,9.8,6.2,14.3,11.8c4.5,5.6,0.8,15.2,14.9,23.3c7.9,4.5,48.2,28.4,51.9,29.7
		c10.1,4.3,13.5-5.2,12.1-9.6c3.5,2.5,10.7,1.3,14.2-2.3c3.4-3.5,1.8-9.8,1.8-9.8s9.4,5.4,16.3-1.3c4.4-4.4,0.9-9.8,0.9-9.8
		s8.9,3.6,13.1-2.4c4.5-6.4,0.7-11.1-5.4-15.8c-6.2-4.6-61.2-44.8-61.2-44.8s-30.1-2.8-35.8-4.6C52.5,61.5,34.8,52.2,34.8,52.2z"/>
	<path fill="#F0D0B5" d="M32.8,109.5l2.7-6.4c0,0,4.5,18.3,8,20.8c-2,2.8-3.5,3.2-3.5,3.2s-3.4-4.7-4.5-11
		C34.8,111.6,32.8,109.5,32.8,109.5z"/>
	<path opacity="0.5" fill="#7B7B7B" d="M54.9,89.7c0,0,5.4,3.1,9.3,3.1s12.1-4.1,15.5-15.9l25.5,0.1l-6.8-5c0,0-21.4-2.3-24.3-0.8
		C71.1,72.8,54.9,89.7,54.9,89.7z"/>
	<g opacity="0.5">
		<path fill="#7B7B7B" d="M84.9,154.6c3.6,2.1,6.9,3.9,9.5,5.4c0-2.9-0.9-5.5-2.3-6.3C90.4,152.6,87.3,153.1,84.9,154.6z"/>
		<path fill="#7B7B7B" d="M48,133.1c1.5,0.9,4.3,2.5,7.8,4.5c0-0.1,0.1-0.2,0.1-0.3l0.4-2.5c0.9-3.7-1-9-4.8-9.8
			c-3.1-0.7-6.1,2.2-7.5,5.3C45.1,131.3,46.4,132.2,48,133.1z"/>
		<path fill="#7B7B7B" d="M68.3,145l1.1-2.3c1.5-3.4,2.1-8-1.2-10c-3.3-2-7.6,0.6-9.6,3.9l-1.3,1.9C60.5,140.4,64.3,142.7,68.3,145z
			"/>
		<path fill="#7B7B7B" d="M82.1,153l0.6-1.3c1.4-3.6,2.5-9.3-0.8-11.3c-3.3-2-6.9-0.7-8.9,2.6l-2.4,3.4
			C74.5,148.6,78.4,150.9,82.1,153z"/>
	</g>
	<g>
		<path fill="#5DBACA" d="M82.7,163.1c-1.1-0.1-2.3-0.4-3.3-1.1c-3.2-2.1-3.9-5.8-1.9-9l0.6-1.1c2.1-3.2,7-4.5,9.4-3.1
			c1.9,1.2,2.9,5.8,1.9,9.7l-0.2,0.7C87.1,163,85.1,163.3,82.7,163.1z"/>
		<path fill="#5DBACA" d="M44.6,137.6c-0.4,0-0.7-0.1-1-0.2c-3.7-0.9-6.1-4.6-5.2-8.3l0.4-1.8c0.8-3.7,4.4-8.1,8.1-7.2
			c3.7,0.8,5.6,6.1,4.8,9.8l-0.4,2.5C50.5,135.9,48,137.9,44.6,137.6z"/>
		<path fill="#5DBACA" d="M56.2,146.9c-1-0.1-1.8,0-2.7-0.6c-3.3-2-4.7-6.6-2.7-9.9l3.2-4.8c2-3.3,6.3-5.9,9.6-3.9
			c3.3,2,2.7,6.6,1.2,10l-2.6,5.5C60.8,145.6,58.8,147.1,56.2,146.9z"/>
		<path fill="#5DBACA" d="M69.5,154.8c-1.1-0.1-2.1-0.4-3.1-1c-3.3-2-4.3-6.3-2.3-9.5l4.3-6.1c2-3.3,5.6-4.6,8.9-2.6
			c3.3,2,2.2,7.7,0.8,11.3l-2.1,4.7C74.6,153.7,72.1,154.9,69.5,154.8z"/>
	</g>
	<path fill="#EFC7B1" d="M82.7,163.1c-1.1-0.1-2.3-0.4-3.3-1.1c-3.2-2.1-3.9-5.8-1.9-9l0.6-1.1c2.1-3.2,7-4.5,9.4-3.1
		c1.9,1.2,2.9,5.8,1.9,9.7l-0.2,0.7C87.1,163,85.1,163.3,82.7,163.1z"/>
	<path fill="#EFC7B1" d="M98.3,72c0,0-19.8-0.2-21.4-0.1c-1.6,0.2-6,14.3-12.9,17.1c-4.1,1.6-11.2,1.3-10.3-1.5c0,0,2.2-22.2,7.7-27
		c5.4-4.8,9.7-6.2,17.1-7.5c7.4-1.3,23.4-6.7,29-5.1c5.5,1.6,14.7,4.1,20.2,5.2c5.5,1.1,12,5.1,15.2,5.3c3.2,0.2,14.9-6.4,14.9-6.4
		L172.4,98c0,0-17.9,12.8-18.8,14.5L98.3,72z"/>
	<path fill="#EFC7B1" d="M44.6,137.6c-0.4,0-0.7-0.1-1-0.2c-3.7-0.9-6.1-4.6-5.2-8.3l0.4-1.8c0.8-3.7,4.4-8.1,8.1-7.2
		c3.7,0.8,5.6,6.1,4.8,9.8l-0.4,2.5C50.5,135.9,48,137.9,44.6,137.6z"/>
	<path fill="#EFC7B1" d="M56.2,146.9c-1-0.1-1.8,0-2.7-0.6c-3.3-2-4.7-6.6-2.7-9.9l3.2-4.8c2-3.3,6.3-5.9,9.6-3.9
		c3.3,2,2.7,6.6,1.2,10l-2.6,5.5C60.8,145.6,58.8,147.1,56.2,146.9z"/>
	<path fill="#EFC7B1" d="M69.5,154.8c-1.1-0.1-2.1-0.4-3.1-1c-3.3-2-4.3-6.3-2.3-9.5l4.3-6.1c2-3.3,5.6-4.6,8.9-2.6
		c3.3,2,2.2,7.7,0.8,11.3l-2.1,4.7C74.6,153.7,72.1,154.9,69.5,154.8z"/>
	<path fill="#D1B79F" d="M93.2,154.9c0.7,1.2,1.1,3.1,1.2,5.1c-1-0.6-2.1-1.2-3.3-1.9c1.6,0.9,6,3.6,7.6,4.8c5,1.9,8.6,0.5,8.6,0.5
		L93.2,154.9z"/>
	<polygon fill="#2C3E50" points="146.7,56 167.3,104 177.5,99.6 158.7,49.1 	"/>
	<path opacity="0.5" fill="#7B7B7B" d="M50.1,59.9l2.9,1.4l-20.2,48.1c0,0-2.5-2.8-3.2-3.2C31,101.8,50.1,59.9,50.1,59.9z"/>
	<polygon fill="#2C3E50" points="50.8,58.5 28.9,108.1 20.1,104.6 38.8,51.6 	"/>
	<g>
		<g>
			<path fill="#35495E" d="M43.6,50.5L24.3,37.7C10.8,54.3,2.7,75.4,2.7,98.4c0,0.2,0,0.4,0,0.6L19,110.1L43.6,50.5z"/>
		</g>
	</g>
	<path opacity="0.5" fill="#7B7B7B" d="M98.3,72c0,0,34,14.1,36.6,14.5c2.5,1.6,23.9,21.5,23.9,21.5s-2.6,2-3.3,2.6
		c-1.7,1.5-1.9,1.9-1.9,1.9L98.3,72z"/>
	<path fill="#D1B79F" d="M154.1,130.7c0,0-3.9,1.3-9-0.6c-2-1.4-24.2-16.1-24.2-16.1l0.3-4.3L154.1,130.7z"/>
	<path fill="#D1B79F" d="M138.2,143c0,0-5.4,1.2-10.2-1.7c-2-1.4-21.4-14.2-21.4-14.2l0.6-4.3L138.2,143z"/>
	<path fill="#D1B79F" d="M120.6,154.1c0,0-3.5,1.7-8.8-0.6c-2-1.4-17.1-11.2-17.1-11.2l0.8-4.1L120.6,154.1z"/>
	<path fill="none" d="M178.1,104.8l-24.4-57.3l18.2-11.4C154.3,15.4,128.1,2.3,98.8,2.3c-53,0-96,43-96,96.1s43,96,96,96
		s96-43,96-96c0-1.4,0-2.8-0.1-4.1L178.1,104.8z"/>
	<path fill="#FFFFFF" d="M178.1,104.8l16.7-10.6c-0.9-22.1-9.4-42.3-22.8-58.1l-18.2,11.4L178.1,104.8z"/>
</g>
<g id="review">
	<defs>
		<circle id="SVGID_1_" cx="98.8" cy="98.4" r="96.1"/>
	</defs>
	<clipPath id="SVGID_2_">
		<use xlink:href="#SVGID_1_"  overflow="visible"/>
	</clipPath>
	<circle clip-path="url(#SVGID_2_)" fill="#4D6781" cx="98.8" cy="98.4" r="96.1"/>
	<g clip-path="url(#SVGID_2_)">
		<path fill="#2C3E50" d="M145.3,146c0-12.3,0-76.1,0-85.9c0-9.8-9.8-9.8-9.8-9.8H15.6C7.4,64.4,2.7,80.8,2.7,98.4
			c0,21.5,7.1,41.4,19.1,57.5h113.7C135.5,155.8,145.3,155.8,145.3,146z"/>
	</g>
	<g clip-path="url(#SVGID_2_)">
		<path fill="#FFFFFF" d="M133,69.9H12.7v71.1c0.4,0.8,0.8,1.7,1.3,2.5h119V69.9z"/>
	</g>
	<g clip-path="url(#SVGID_2_)">
		<path fill="#FFFFFF" d="M42.2,65v-9.8H13c-0.1,0.2-0.2,0.3-0.2,0.5V65H42.2z"/>
	</g>
	<rect x="123.2" y="55.2" clip-path="url(#SVGID_2_)" fill="#FFFFFF" width="9.8" height="9.8"/>
	<rect x="103.6" y="55.2" clip-path="url(#SVGID_2_)" fill="#FFFFFF" width="9.8" height="9.8"/>
	<g clip-path="url(#SVGID_2_)">
		<path fill="#304C5E" d="M144.2,150.9H18.4c1.1,1.7,2.2,3.3,3.4,4.9h113.7C135.5,155.8,141.6,155.8,144.2,150.9z"/>
	</g>
	<rect x="24.3" y="86.4" clip-path="url(#SVGID_2_)" fill="#57BFE4" width="31.9" height="24.5"/>
	<path clip-path="url(#SVGID_2_)" fill="#57BFE4" d="M122.5,90.1c0-2-1.7-3.7-3.7-3.7H72.2c-2,0-3.7,1.6-3.7,3.7l0,0
		c0,2,1.6,3.7,3.7,3.7h46.6C120.9,93.8,122.5,92.1,122.5,90.1L122.5,90.1z"/>
	<path clip-path="url(#SVGID_2_)" fill="#57BFE4" d="M122.5,107.3c0-2-1.7-3.7-3.7-3.7H72.2c-2,0-3.7,1.6-3.7,3.7l0,0
		c0,2,1.6,3.7,3.7,3.7h46.6C120.9,110.9,122.5,109.3,122.5,107.3L122.5,107.3z"/>
	<path clip-path="url(#SVGID_2_)" fill="#57BFE4" d="M118.9,120.8H73.4H27.9c-2,0-3.6,1.6-3.6,3.7c0,2,1.6,3.7,3.6,3.7h45.5h45.5
		c2,0,3.6-1.6,3.6-3.7C122.5,122.4,120.9,120.8,118.9,120.8z"/>
	<g clip-path="url(#SVGID_2_)">
		<g>
			
				<rect x="132.9" y="136.8" transform="matrix(0.7016 -0.7126 0.7126 0.7016 -63.0999 141.6718)" fill="#2C3E50" width="9.4" height="18.8"/>
			
				<rect x="133.6" y="138.5" transform="matrix(0.7015 -0.7127 0.7127 0.7015 -64.7812 141.0206)" fill="#35495E" width="4.7" height="18.8"/>
		</g>
		<polygon fill="#35495E" points="148.6,146.1 137.5,157.5 138.8,160.5 152,147.2 		"/>
		<polygon fill="#C7C8CB" points="152,147.2 138.8,160.5 168.9,194.6 186.5,176.7 		"/>
		
			<rect x="166.3" y="185.2" transform="matrix(0.7017 -0.7125 0.7125 0.7017 -79.7144 183.0909)" fill="#35495E" width="25" height="3.1"/>
		
			<rect x="168" y="187.6" transform="matrix(0.7018 -0.7124 0.7124 0.7018 -80.3887 184.7347)" fill="#57BFE4" width="25" height="1.6"/>
		<g>
			<g>
				<g>
					<path fill="#2C3E50" d="M172.2,197.9c4.9,1.6,10.5,0.5,14.4-3.5c3.9-3.9,4.9-9.6,3.3-14.4L172.2,197.9z"/>
				</g>
			</g>
		</g>
		<polygon fill="#81878E" points="145.4,153.8 138.8,160.5 168.9,194.6 177.7,185.6 		"/>
	</g>
	<g clip-path="url(#SVGID_2_)">
		<path fill="#35495E" d="M131.7,94.3C118.8,81.6,98,81.7,85.3,94.6c-12.7,12.9-12.6,33.7,0.4,46.4c12.9,12.7,33.7,12.6,46.4-0.4
			C144.7,127.8,144.6,107,131.7,94.3z"/>
		<path fill="#2C3E50" d="M128.1,97.9c-10.9-10.8-28.5-10.6-39.3,0.3c-10.8,10.9-10.6,28.5,0.3,39.3c10.9,10.8,28.5,10.6,39.3-0.3
			C139.2,126.2,139.1,108.6,128.1,97.9z"/>
		<circle fill="#FFFFFF" cx="108.6" cy="117.7" r="26.6"/>
		<path fill="#D1D2D3" d="M84.1,122.3c0.9,4.8,3.3,9.5,7.1,13.2c9.9,9.8,25.9,9.7,35.7-0.3c6.3-6.4,8.5-15.4,6.6-23.6L84.1,122.3z"
			/>
	</g>
</g>
<g>
	<circle fill="#4D6781" cx="98.8" cy="98.6" r="96.1"/>
	<g>
		<defs>
			<circle id="SVGID_3_" cx="98.8" cy="98.4" r="96.1"/>
		</defs>
		<clipPath id="SVGID_4_">
			<use xlink:href="#SVGID_3_"  overflow="visible"/>
		</clipPath>
		<g clip-path="url(#SVGID_4_)">
			<path fill-rule="evenodd" clip-rule="evenodd" fill="#2C3E50" d="M37.2,231.6h123.1c5.1,0,9.3-4.2,9.3-9.3V58.6
				c0-5.1-4.2-9.3-9.3-9.3h-19.9h-11.9H69H58.7H37.2c-5.1,0-9.3,4.2-9.3,9.3v163.6C27.9,227.4,32.1,231.6,37.2,231.6z"/>
			<path fill-rule="evenodd" clip-rule="evenodd" fill="#EDF0F1" d="M154.8,62.6v155.8h-112V62.6C80.1,62.6,117.4,62.6,154.8,62.6z"
				/>
			<path fill-rule="evenodd" clip-rule="evenodd" fill="#EDF0F1" d="M507.9,427.5v155.8h-112V427.5
				C433.2,427.5,470.5,427.5,507.9,427.5z"/>
			<rect x="42.8" y="62.6" fill-rule="evenodd" clip-rule="evenodd" fill="#DBE1E6" width="56" height="155.8"/>
			<path fill-rule="evenodd" clip-rule="evenodd" fill="#676767" d="M72.1,75.7V49.3h53.3v26.4H72.1L72.1,75.7z M119.4,70.5
				c0-5.8,0-10.2,0-16c-13.7,0-27.4,0-41.2,0c0,5.8,0,10.2,0,16C91.9,70.5,105.6,70.5,119.4,70.5z"/>
			<path fill-rule="evenodd" clip-rule="evenodd" fill="#D35C5D" d="M60,100.8L60,100.8c2.2,0,4,1.8,4,4l0,0c0,2.2-1.8,4-4,4l0,0
				c-2.2,0-4-1.8-4-4l0,0C56,102.6,57.8,100.8,60,100.8z"/>
			<path fill-rule="evenodd" clip-rule="evenodd" fill="#FCB415" d="M60,122.3L60,122.3c2.2,0,4,1.8,4,4l0,0c0,2.2-1.8,4-4,4l0,0
				c-2.2,0-4-1.8-4-4l0,0C56,124.1,57.8,122.3,60,122.3z"/>
			<path fill-rule="evenodd" clip-rule="evenodd" fill="#0F77A1" d="M60,145.1L60,145.1c2.2,0,4,1.8,4,4l0,0c0,2.2-1.8,4-4,4l0,0
				c-2.2,0-4-1.8-4-4l0,0C56,146.9,57.8,145.1,60,145.1z"/>
			<rect x="72.1" y="102.8" fill-rule="evenodd" clip-rule="evenodd" fill="#2D3F50" width="62" height="4"/>
			<rect x="72.1" y="124.3" fill-rule="evenodd" clip-rule="evenodd" fill="#2D3F50" width="67" height="4"/>
			<rect x="72.1" y="147.1" fill-rule="evenodd" clip-rule="evenodd" fill="#2D3F50" width="52.8" height="4"/>
			<path fill-rule="evenodd" clip-rule="evenodd" fill="#989898" d="M72.1,62.5V49.3h53.3v13.2h-6.1v-8c-13.7,0-27.4,0-41.2,0v8
				H72.1z"/>
		</g>
		<use xlink:href="#SVGID_3_"  overflow="visible" fill="none" stroke="#FFFFFF" stroke-miterlimit="10"/>
	</g>
</g>
<g>
	<line fill="none" stroke="#A5A5A5" stroke-width="2" stroke-miterlimit="10" x1="-300" y1="-532.2" x2="505" y2="-532.2"/>
	<line fill="none" stroke="#A5A5A5" stroke-width="2" stroke-miterlimit="10" x1="-300" y1="-308.9" x2="505" y2="-308.9"/>
	<g>
		<path fill="#2C3E50" d="M-40.2-669.4h5.5c3.6,0,6.2,1.2,6.2,5c0,3.6-2.7,5.3-6.2,5.3h-2.6v6h-2.9V-669.4z M-34.9-661.4
			c2.4,0,3.6-1,3.6-3c0-2-1.2-2.7-3.6-2.7h-2.3v5.7H-34.9z"/>
		<path fill="#2C3E50" d="M-25.8-670.7h2.9v14.6c0,0.7,0.3,0.9,0.6,0.9c0.1,0,0.2,0,0.4-0.1l0.4,2.1c-0.3,0.2-0.8,0.3-1.5,0.3
			c-2,0-2.8-1.3-2.8-3.4V-670.7z"/>
		<path fill="#2C3E50" d="M-12.3-660.9c0-1.3-0.6-2.4-2.2-2.4c-1.2,0-2.4,0.5-3.4,1.2l-1-1.9c1.3-0.8,3.1-1.6,5-1.6
			c3.1,0,4.6,1.9,4.6,5.3v7.2h-2.3l-0.2-1.3h-0.1c-1.1,0.9-2.3,1.6-3.8,1.6c-2.1,0-3.6-1.4-3.6-3.6C-19.5-659-17.3-660.4-12.3-660.9
			z M-15-655c1,0,1.8-0.5,2.7-1.3v-2.7c-3.3,0.4-4.4,1.3-4.4,2.5C-16.8-655.5-16-655-15-655z"/>
		<path fill="#2C3E50" d="M-5.9-656.3c1.1,0.8,2.1,1.4,3.4,1.4c1.3,0,1.9-0.6,1.9-1.5c0-1-1.3-1.5-2.6-2c-1.6-0.6-3.4-1.5-3.4-3.6
			c0-2.1,1.7-3.7,4.5-3.7c1.7,0,3.1,0.7,4.1,1.5l-1.3,1.7c-0.8-0.6-1.7-1-2.7-1c-1.2,0-1.8,0.6-1.8,1.3c0,0.9,1.2,1.3,2.5,1.8
			c1.7,0.6,3.5,1.4,3.5,3.7c0,2.1-1.7,3.8-4.7,3.8c-1.7,0-3.4-0.7-4.6-1.7L-5.9-656.3z"/>
		<path fill="#2C3E50" d="M5.1-663H3.4v-2.1l1.9-0.1l0.3-3.3H8v3.3h3.1v2.3H8v5.8c0,1.4,0.5,2.1,1.7,2.1c0.4,0,0.9-0.1,1.3-0.3
			l0.5,2.1c-0.7,0.2-1.5,0.4-2.5,0.4c-2.8,0-3.9-1.8-3.9-4.4V-663z"/>
		<path fill="#2C3E50" d="M13.4-669.1c0-1,0.7-1.6,1.8-1.6c1,0,1.8,0.7,1.8,1.6c0,0.9-0.7,1.6-1.8,1.6
			C14.1-667.4,13.4-668.1,13.4-669.1z M13.7-665.3h2.9v12.2h-2.9V-665.3z"/>
		<path fill="#2C3E50" d="M25.5-665.6c1.6,0,2.8,0.6,3.6,1.4l-1.4,1.8c-0.6-0.6-1.3-0.9-2.1-0.9c-2,0-3.3,1.6-3.3,4.1
			c0,2.4,1.3,4.1,3.3,4.1c1,0,1.8-0.5,2.5-1l1.2,1.8c-1.1,1-2.6,1.6-4,1.6c-3.3,0-5.9-2.3-5.9-6.4C19.4-663.3,22.3-665.6,25.5-665.6
			z"/>
		<path fill="#2C3E50" d="M37.6-657.1c1.2,1.1,2.7,1.8,4.3,1.8c1.8,0,2.8-0.8,2.8-2.1c0-1.3-1-1.8-2.5-2.4l-2.2-1
			c-1.6-0.7-3.3-1.9-3.3-4.3c0-2.6,2.3-4.6,5.4-4.6c1.9,0,3.8,0.8,5,2.1l-1.5,1.8c-1-0.9-2.1-1.4-3.5-1.4c-1.5,0-2.5,0.7-2.5,1.9
			c0,1.3,1.2,1.7,2.6,2.3l2.2,0.9c1.9,0.8,3.3,2,3.3,4.4c0,2.6-2.2,4.8-5.8,4.8c-2.2,0-4.3-0.9-5.8-2.4L37.6-657.1z"/>
		<path fill="#2C3E50" d="M50.2-665.3H53v7.3c0,2,0.6,2.8,1.9,2.8c1.1,0,1.8-0.5,2.7-1.7v-8.4h2.9v12.2h-2.3l-0.2-1.8h-0.1
			c-1.1,1.3-2.3,2.1-3.9,2.1c-2.6,0-3.8-1.8-3.8-4.8V-665.3z"/>
		<path fill="#2C3E50" d="M64.1-665.3h2.4l0.2,2.2h0.1c0.9-1.6,2.2-2.5,3.5-2.5c0.6,0,1,0.1,1.4,0.2l-0.5,2.5
			c-0.4-0.1-0.7-0.2-1.3-0.2c-1,0-2.1,0.7-2.9,2.5v7.5h-2.9V-665.3z"/>
		<path fill="#2C3E50" d="M74.1-653.5L74.1-653.5c-0.6-0.5-1.1-1.1-1.1-2.1c0-0.9,0.6-1.8,1.3-2.3v-0.1c-0.8-0.6-1.6-1.8-1.6-3.2
			c0-2.8,2.3-4.4,4.8-4.4c0.7,0,1.3,0.1,1.8,0.3h4.4v2.1h-2.2c0.4,0.5,0.7,1.2,0.7,2.1c0,2.7-2,4.2-4.6,4.2c-0.5,0-1.1-0.1-1.7-0.3
			c-0.4,0.3-0.6,0.6-0.6,1.2c0,0.7,0.5,1.1,2,1.1h2.2c2.9,0,4.5,0.9,4.5,3c0,2.4-2.5,4.3-6.5,4.3c-2.9,0-5.1-1-5.1-3.2
			C72.3-651.9,73-652.8,74.1-653.5z M77.9-649.6c2,0,3.3-0.9,3.3-2c0-0.9-0.8-1.2-2.2-1.2h-1.7c-0.7,0-1.2,0-1.7-0.2
			c-0.6,0.5-0.9,1-0.9,1.6C74.7-650.2,75.9-649.6,77.9-649.6z M79.7-661.2c0-1.5-0.9-2.4-2.1-2.4c-1.2,0-2.1,0.9-2.1,2.4
			c0,1.6,0.9,2.5,2.1,2.5C78.7-658.8,79.7-659.7,79.7-661.2z"/>
		<path fill="#2C3E50" d="M90.5-665.6c3.3,0,5,2.4,5,5.8c0,0.5,0,1-0.1,1.3h-7.8c0.2,2.2,1.6,3.5,3.6,3.5c1,0,1.9-0.3,2.8-0.9l1,1.8
			c-1.2,0.8-2.6,1.3-4.2,1.3c-3.4,0-6-2.4-6-6.4C84.9-663.2,87.7-665.6,90.5-665.6z M93.1-660.3c0-1.9-0.8-3.1-2.5-3.1
			c-1.4,0-2.7,1.1-2.9,3.1H93.1z"/>
		<path fill="#2C3E50" d="M98.3-665.3h2.4l0.2,2.2h0.1c0.9-1.6,2.2-2.5,3.5-2.5c0.6,0,1,0.1,1.4,0.2l-0.5,2.5
			c-0.4-0.1-0.7-0.2-1.3-0.2c-1,0-2.1,0.7-2.9,2.5v7.5h-2.9V-665.3z"/>
		<path fill="#2C3E50" d="M108.5-650.4c1.3,0,2-0.9,2.4-2.1l0.2-0.8l-4.8-12.1h2.9l2.1,6c0.3,1.1,0.7,2.3,1.1,3.4h0.1
			c0.3-1.1,0.6-2.3,0.9-3.4l1.8-6h2.8l-4.4,12.8c-1,2.8-2.3,4.5-4.9,4.5c-0.7,0-1.1-0.1-1.6-0.2l0.5-2.2
			C107.9-650.5,108.2-650.4,108.5-650.4z"/>
		<path fill="#81878E" d="M-33.9-639.9c1.9,0,3.4,0.9,4.3,2l-0.7,0.7c-0.9-1-2.1-1.7-3.6-1.7c-3.6,0-5.8,2.9-5.8,7.4
			s2.2,7.5,5.7,7.5c1.7,0,3-0.7,4.2-2l0.7,0.7c-1.2,1.4-2.7,2.3-4.9,2.3c-4,0-6.9-3.3-6.9-8.5C-40.9-636.7-38.1-639.9-33.9-639.9z"
			/>
		<path fill="#81878E" d="M-26.1-641.1h1.1v5.2v2.6c1.2-1.2,2.5-2.2,4.1-2.2c2.5,0,3.6,1.5,3.6,4.6v7.7h-1.1v-7.5
			c0-2.5-0.8-3.7-2.7-3.7c-1.4,0-2.4,0.7-3.9,2.2v9h-1.1V-641.1z"/>
		<path fill="#81878E" d="M-13.3-639c0-0.6,0.4-1,1-1s1,0.4,1,1c0,0.6-0.4,1-1,1S-13.3-638.5-13.3-639z M-12.9-635.2h1.1v11.9h-1.1
			V-635.2z"/>
		<path fill="#81878E" d="M-2.8-635.5c1.6,0,2.7,0.7,3.5,1.5l-0.6,0.8c-0.8-0.7-1.7-1.3-2.8-1.3c-2.4,0-4.3,2.2-4.3,5.3
			c0,3.1,1.7,5.3,4.3,5.3c1.3,0,2.4-0.6,3.2-1.4l0.6,0.7c-1,0.9-2.3,1.6-3.8,1.6c-3.1,0-5.4-2.3-5.4-6.2
			C-8.2-633.2-5.7-635.5-2.8-635.5z"/>
		<path fill="#81878E" d="M10.7-630.7c0-1.8-0.5-3.8-2.8-3.8c-1.6,0-3,0.8-3.8,1.4l-0.5-0.8c0.8-0.6,2.5-1.5,4.4-1.5
			c2.8,0,3.8,2,3.8,4.6v7.6h-0.9l-0.1-1.5h0c-1.2,1-2.7,1.8-4.2,1.8c-1.9,0-3.5-1-3.5-3.3C3-628.9,5.4-630.1,10.7-630.7z M6.7-623.9
			c1.4,0,2.6-0.7,4.1-1.9v-4.1c-4.9,0.6-6.6,1.7-6.6,3.6C4.2-624.6,5.3-623.9,6.7-623.9z"/>
		<path fill="#81878E" d="M16.9-623.7L16.9-623.7c-0.6-0.4-1-1.1-1-2c0-1.1,0.8-1.8,1.3-2.2v-0.1c-0.7-0.6-1.5-1.8-1.5-3.3
			c0-2.5,1.9-4.2,4.2-4.2c0.6,0,1.2,0.2,1.6,0.3h4.1v0.9h-2.8c0.8,0.7,1.3,1.7,1.3,3c0,2.4-1.8,4.2-4.2,4.2c-0.7,0-1.4-0.2-2-0.5
			c-0.5,0.4-1,0.9-1,1.7c0,0.9,0.5,1.6,2.3,1.6h2.6c2.7,0,3.9,0.8,3.9,2.7c0,2.1-2.2,4-5.6,4c-3,0-4.9-1.3-4.9-3.3
			C15.1-621.9,15.8-622.9,16.9-623.7z M20.1-618.4c2.7,0,4.4-1.5,4.4-3c0-1.3-1-1.8-2.8-1.8h-2.6c-0.2,0-0.9,0-1.5-0.2
			c-1.1,0.7-1.6,1.7-1.6,2.5C16.2-619.4,17.6-618.4,20.1-618.4z M22.9-631.3c0-2-1.4-3.3-3.1-3.3c-1.7,0-3.1,1.3-3.1,3.3
			c0,2,1.4,3.4,3.1,3.4C21.5-627.9,22.9-629.3,22.9-631.3z"/>
		<path fill="#81878E" d="M32.3-635.5c2.9,0,5.4,2.3,5.4,6.3c0,4-2.5,6.2-5.4,6.2c-2.9,0-5.3-2.3-5.3-6.2
			C27-633.2,29.4-635.5,32.3-635.5z M32.3-623.9c2.4,0,4.2-2.1,4.2-5.3c0-3.2-1.8-5.3-4.2-5.3c-2.4,0-4.2,2.2-4.2,5.3
			C28.1-626.1,29.9-623.9,32.3-623.9z"/>
		<path fill="#81878E" d="M39.9-620.1c1.1-0.6,1.9-1.6,1.9-3c-0.1,0-0.2,0-0.3,0c-0.6,0-1-0.4-1-1c0-0.7,0.5-1,1.1-1
			c0.7,0,1.3,0.7,1.3,1.8c0,1.8-1.1,3.3-2.6,4.1L39.9-620.1z"/>
		<path fill="#81878E" d="M51.5-639.6h1.1v16.4h-1.1V-639.6z"/>
		<path fill="#81878E" d="M57.3-639.6h1.1v15.4h7.5v1h-8.7V-639.6z"/>
		<path fill="#81878E" d="M73.7-641.9h0.9v24.9h-0.9V-641.9z"/>
		<path fill="#81878E" d="M91.2-637c-0.9-0.9-1.7-1.5-3.2-1.5c-1.7,0-2.9,1.2-2.9,2.9c0,4.4,7.2,2.9,7.2,8.6c0,2.4-1.6,3.9-3.8,4.1
			v2.5h-1v-2.5c-1.7-0.1-3.2-1-4.2-1.9l0.6-0.8c0.9,0.8,2.3,1.7,4,1.7c2.1,0,3.2-1.2,3.2-3.1c0-4.9-7.2-3.5-7.2-8.6
			c0-2.1,1.5-3.6,3.5-3.9v-2.5h1v2.5c1.6,0.1,2.6,0.8,3.4,1.7L91.2-637z"/>
		<path fill="#81878E" d="M95.9-624.2h3.7v-13.2h-2.8v-0.7c1.3-0.2,2.3-0.6,3.1-1h0.9v14.9h3.5v1h-8.3V-624.2z"/>
		<path fill="#81878E" d="M106.9-631.3c0-5.3,1.7-8.2,4.7-8.2c3,0,4.7,2.9,4.7,8.2c0,5.3-1.7,8.3-4.7,8.3
			C108.6-622.9,106.9-626,106.9-631.3z M115.3-631.3c0-4.8-1.4-7.2-3.6-7.2c-2.2,0-3.6,2.4-3.6,7.2c0,4.8,1.4,7.4,3.6,7.4
			C113.9-623.9,115.3-626.4,115.3-631.3z"/>
		<path fill="#81878E" d="M118.8-631.3c0-5.3,1.7-8.2,4.7-8.2c3,0,4.7,2.9,4.7,8.2c0,5.3-1.7,8.3-4.7,8.3
			C120.5-622.9,118.8-626,118.8-631.3z M127.2-631.3c0-4.8-1.4-7.2-3.6-7.2c-2.2,0-3.6,2.4-3.6,7.2c0,4.8,1.4,7.4,3.6,7.4
			C125.8-623.9,127.2-626.4,127.2-631.3z"/>
		<path fill="#81878E" d="M131.8-641.1h1.1v13.2h0l5.9-7.2h1.3l-3.9,4.7l4.5,7.2h-1.2l-4-6.4l-2.7,3.1v3.3h-1.1V-641.1z"/>
		<path fill="#81878E" d="M147-629.9h5.5v1H147V-629.9z"/>
		<path fill="#81878E" d="M167.8-637c-0.9-0.9-1.7-1.5-3.2-1.5c-1.7,0-2.9,1.2-2.9,2.9c0,4.4,7.2,2.9,7.2,8.6c0,2.4-1.6,3.9-3.8,4.1
			v2.5h-1v-2.5c-1.7-0.1-3.2-1-4.2-1.9l0.6-0.8c0.9,0.8,2.3,1.7,4,1.7c2.1,0,3.2-1.2,3.2-3.1c0-4.9-7.2-3.5-7.2-8.6
			c0-2.1,1.5-3.6,3.5-3.9v-2.5h1v2.5c1.6,0.1,2.6,0.8,3.4,1.7L167.8-637z"/>
		<path fill="#81878E" d="M172.4-624.2h3.7v-13.2h-2.8v-0.7c1.3-0.2,2.3-0.6,3.1-1h0.9v14.9h3.5v1h-8.3V-624.2z"/>
		<path fill="#81878E" d="M183.5-625.9c0.9,1,2.2,1.9,4.4,1.9c2.1,0,4-1.7,4-4.3s-1.5-4.1-3.9-4.1c-1.2,0-2,0.4-3,1.1l-0.8-0.5
			l0.6-7.4h7.3v1h-6.3l-0.5,5.7c0.8-0.5,1.7-0.8,2.8-0.8c2.7,0,4.8,1.5,4.8,5c0,3.4-2.5,5.3-5.1,5.3c-2.5,0-4-1.1-5-2.1L183.5-625.9
			z"/>
		<path fill="#81878E" d="M195.4-631.3c0-5.3,1.7-8.2,4.7-8.2s4.7,2.9,4.7,8.2c0,5.3-1.7,8.3-4.7,8.3S195.4-626,195.4-631.3z
			 M203.7-631.3c0-4.8-1.4-7.2-3.6-7.2c-2.2,0-3.6,2.4-3.6,7.2c0,4.8,1.4,7.4,3.6,7.4C202.3-623.9,203.7-626.4,203.7-631.3z"/>
		<path fill="#81878E" d="M208.4-641.1h1.1v13.2h0l5.9-7.2h1.3l-3.9,4.7l4.5,7.2h-1.2l-4-6.4l-2.7,3.1v3.3h-1.1V-641.1z"/>
	</g>
	<polygon fill-rule="evenodd" clip-rule="evenodd" fill="#81878E" points="487.5,-632.8 501,-646.4 487.5,-659.9 483.6,-656 
		493.3,-646.4 483.6,-636.7 	"/>
	<g>
		<g>
			<path fill="#D35C5D" d="M382.5-634.6c0-24.3,19.7-44.1,44.1-44.1c8.9,0,17.2,2.6,24.1,7.2c-3.7-16.1-18.1-28.1-35.3-28.1
				c-10.2,0-19.5,4.3-26.1,11.1c-6.6-6.8-15.8-11.1-26.1-11.1c-20,0-36.3,16.2-36.3,36.3c0,8.9,3.2,17.1,8.6,23.4l1,1.2
				c1,1.1,48.9,46.8,52.8,50.5c1.1-1,5.5-5.2,11.3-10.8C389.6-607,382.5-620,382.5-634.6z"/>
		</g>
		<g>
			<g>
				<g>
					<path fill="#81868E" d="M459.8-634.6c0,0,0-0.8-0.1-2.4c0-0.4,0-0.8-0.1-1.3c-0.1-0.5-0.2-1-0.2-1.5c-0.1-0.6-0.2-1.2-0.3-1.8
						c-0.2-0.6-0.3-1.3-0.5-2c-0.8-2.8-2-6.1-4.2-9.4c-2.2-3.3-5.3-6.8-9.4-9.5c-4.1-2.7-9.2-4.7-14.8-5.4c-0.7-0.1-1.4-0.1-2.1-0.1
						c-0.7,0-1.4-0.1-2.2-0.1c-1.4,0.1-2.9,0.1-4.4,0.4c-3,0.3-5.9,1.3-8.7,2.5c-0.7,0.3-1.4,0.7-2.1,1c-0.7,0.3-1.3,0.8-2,1.2
						l-1,0.6l-0.9,0.7c-0.6,0.5-1.3,0.9-1.9,1.4c-2.4,2.1-4.6,4.5-6.4,7.2c-1.8,2.7-3.1,5.7-4.2,8.8c-0.9,3.1-1.4,6.4-1.4,9.7
						c0.1,3.3,0.5,6.6,1.4,9.7c1,3.1,2.4,6.1,4.2,8.8c1.8,2.7,4,5.1,6.4,7.2c0.6,0.5,1.3,1,1.9,1.4l0.9,0.7l1,0.6
						c0.7,0.4,1.3,0.8,2,1.2c0.7,0.3,1.4,0.7,2.1,1c2.8,1.2,5.7,2.1,8.7,2.5c1.5,0.3,2.9,0.3,4.4,0.4c0.7,0.1,1.4,0,2.2-0.1
						c0.7-0.1,1.4,0,2.1-0.1c5.6-0.7,10.7-2.7,14.8-5.4c4.1-2.8,7.2-6.2,9.4-9.5c2.3-3.3,3.5-6.7,4.2-9.4c0.2-0.7,0.4-1.4,0.5-2
						c0.1-0.6,0.2-1.2,0.3-1.8c0.1-0.6,0.2-1.1,0.2-1.5c0.1-0.5,0.1-0.9,0.1-1.3C459.8-633.8,459.8-634.6,459.8-634.6h7.2
						c0,0,0,1-0.1,2.9c0,0.5,0,1-0.1,1.6c-0.1,0.6-0.2,1.2-0.3,1.9c-0.1,0.7-0.2,1.4-0.4,2.2c-0.2,0.8-0.4,1.6-0.6,2.4
						c-0.9,3.3-2.4,7.4-5.2,11.4c-2.7,4.1-6.4,8.2-11.4,11.5c-5,3.3-11.2,5.8-18,6.6c-0.8,0.1-1.7,0.1-2.6,0.2
						c-0.9,0-1.7,0.1-2.6,0.1c-1.8-0.1-3.5-0.1-5.3-0.4c-3.6-0.4-7.1-1.6-10.6-3c-0.8-0.4-1.7-0.8-2.5-1.2c-0.8-0.4-1.6-1-2.4-1.4
						l-1.2-0.7l-1.2-0.8c-0.8-0.6-1.6-1.1-2.3-1.8c-2.9-2.5-5.5-5.4-7.8-8.7c-2.2-3.3-3.8-6.9-5-10.7c-1.1-3.8-1.7-7.8-1.8-11.8
						c0.1-4,0.6-8,1.8-11.8c1.2-3.8,2.9-7.4,5-10.7c2.2-3.2,4.8-6.2,7.8-8.7c0.7-0.6,1.5-1.2,2.3-1.8l1.2-0.8l1.2-0.7
						c0.8-0.5,1.6-1,2.4-1.4c0.9-0.4,1.7-0.8,2.5-1.2c3.4-1.5,7-2.6,10.6-3c1.8-0.3,3.6-0.3,5.3-0.4c0.9-0.1,1.8,0.1,2.6,0.1
						c0.9,0.1,1.7,0,2.6,0.2c6.8,0.8,13,3.3,18,6.6c5,3.3,8.7,7.5,11.4,11.5c2.7,4.1,4.2,8.1,5.2,11.4c0.2,0.8,0.4,1.6,0.6,2.4
						c0.2,0.8,0.2,1.5,0.4,2.2c0.1,0.7,0.2,1.3,0.3,1.9c0.1,0.6,0.1,1.1,0.1,1.6c0.1,1.9,0.1,2.9,0.1,2.9H459.8z"/>
					<path fill="#D25C59" d="M449.2-659c0,0-0.5-0.5-1.5-1.4c-1.1-0.8-2.6-2.1-4.8-3.3c-0.5-0.4-1.1-0.6-1.7-0.9
						c-0.6-0.3-1.3-0.6-2-0.9c-1.4-0.5-2.9-1.2-4.6-1.5c-3.4-0.9-7.3-1.3-11.6-0.9c-4.3,0.4-8.8,1.7-13.1,4.2
						c-4.3,2.4-8.2,6-11.3,10.4c-3,4.5-5,9.8-5.6,15.4c-0.5,5.6,0.3,11.5,2.6,16.7c4.5,10.6,14.8,18.3,25.5,19.8
						c5.3,0.8,10.6,0.4,15.3-1.1c4.7-1.5,8.8-3.9,12-6.8c3.2-2.8,5.7-6,7.3-9.1c0.4-0.8,0.8-1.5,1.1-2.3c0.4-0.7,0.6-1.5,0.9-2.2
						c0.2-0.7,0.5-1.4,0.7-2c0.2-0.7,0.3-1.3,0.5-1.9c0.4-1.2,0.4-2.3,0.6-3.3c0.2-1,0.2-1.8,0.2-2.5c0.1-1.3,0.1-2.1,0.1-2.1h7.2
						c0,0,0,0.9-0.1,2.5c0,0.8-0.1,1.8-0.3,3c-0.2,1.2-0.3,2.5-0.7,4c-0.2,0.7-0.4,1.5-0.6,2.3c-0.2,0.8-0.6,1.6-0.9,2.5
						c-0.3,0.9-0.6,1.8-1.1,2.6c-0.4,0.9-0.9,1.8-1.4,2.8c-2,3.7-5,7.6-8.9,11c-3.9,3.4-8.9,6.4-14.6,8.2
						c-5.7,1.8-12.1,2.3-18.6,1.3c-3.2-0.4-6.4-1.5-9.5-2.7c-0.8-0.4-1.5-0.7-2.3-1.1l-1.1-0.6l-1.1-0.7c-0.7-0.4-1.4-0.9-2.2-1.3
						c-0.7-0.5-1.4-1-2.1-1.5c-5.5-4.1-9.8-9.8-12.7-16.1c-2.8-6.4-3.8-13.5-3.1-20.3c0.7-6.8,3.2-13.3,6.8-18.7
						c3.7-5.4,8.5-9.7,13.7-12.6c5.2-3,10.8-4.6,15.9-5.1c5.2-0.5,10,0.1,14.1,1.1c2.1,0.5,3.9,1.2,5.6,1.8c0.8,0.4,1.6,0.8,2.4,1.1
						c0.8,0.4,1.5,0.7,2.1,1.1c2.7,1.5,4.5,3,5.8,4c1.2,1.1,1.8,1.7,1.8,1.7L449.2-659z"/>
				</g>
			</g>
		</g>
		<text transform="matrix(1 0 0 1 403.0579 -627.1759)" fill="#2C3E50" font-family="'Museo-500'" font-size="24.185">87%</text>
	</g>
	<g>
		<circle fill="#E6E8E9" cx="-225.4" cy="-643.9" r="61.7"/>
		<circle fill="none" stroke="#CF5C5D" stroke-width="2" stroke-miterlimit="10" cx="-225.4" cy="-643.9" r="55.5"/>
		<g>
			<g>
				<path id="path3334_5_" inkscape:connector-curvature="0" fill="#CF5C5D" d="M-256.3-632.2h10.7c0,0.8,0.8,1.6,1.6,1.6h46.1
					c0.8,0,1.6-0.8,1.6-1.6h1.6v3.1h-61.5V-632.2z"/>
				<path id="path3336_5_" inkscape:connector-curvature="0" fill="#CF5C5D" d="M-256.3-640h10.7v6.3h-10.7V-640z M-196.3-640h1.6
					v6.3h-1.6V-640z"/>
				<path id="path3338_5_" inkscape:connector-curvature="0" fill="#CF5C5D" d="M-260.7-655.4L-260.7-655.4c1.6,0,3.1,1.3,3.1,3.1
					v30.8c0,1.6-1.3,3.1-3.1,3.1l0,0c-1.6,0-3.1-1.3-3.1-3.1v-30.8C-263.8-653.8-262.5-655.4-260.7-655.4z"/>
				<path id="path3340_5_" inkscape:connector-curvature="0" fill="#CF5C5D" d="M-190-642.9L-190-642.9c1.6,0,3.1,1.3,3.1,3.1v18.5
					c0,1.6-1.3,3.1-3.1,3.1l0,0c-1.6,0-3.1-1.3-3.1-3.1v-18.5C-193.2-641.3-191.9-642.9-190-642.9z"/>
				<path id="path3342_5_" inkscape:connector-curvature="0" fill="#CF5C5D" d="M-242.4-642.9h43c0.8,0,1.6,0.8,1.6,1.6v7.8
					c0,0.8-0.8,1.6-1.6,1.6h-43c-0.8,0-1.6-0.8-1.6-1.6v-7.8C-244-642.1-243.2-642.9-242.4-642.9z"/>
			</g>
			<g>
				<g>
					<path fill="#CF5C5D" d="M-248.7-655.9h3.4v-8.9c0-0.5,0-1.1,0-1.1h0c0,0-0.2,0.4-0.7,0.9l-1.3,1.2l-1.7-1.8l3.9-3.8h2.5v13.4
						h3.4v2.3h-9.6V-655.9z"/>
					<path fill="#CF5C5D" d="M-237.4-661.5c0-4.5,1.4-8.1,5.7-8.1c4.3,0,5.7,3.6,5.7,8.1c0,4.5-1.4,8.2-5.7,8.2
						C-236-653.3-237.4-657-237.4-661.5z M-228.9-661.5c0-3.1-0.6-5.6-2.8-5.6c-2.2,0-2.8,2.5-2.8,5.6c0,3.2,0.6,5.6,2.8,5.6
						C-229.6-655.9-228.9-658.3-228.9-661.5z"/>
					<path fill="#CF5C5D" d="M-223.6-661.5c0-4.5,1.4-8.1,5.7-8.1c4.3,0,5.7,3.6,5.7,8.1c0,4.5-1.4,8.2-5.7,8.2
						C-222.2-653.3-223.6-657-223.6-661.5z M-215.1-661.5c0-3.1-0.6-5.6-2.8-5.6c-2.2,0-2.8,2.5-2.8,5.6c0,3.2,0.6,5.6,2.8,5.6
						C-215.7-655.9-215.1-658.3-215.1-661.5z"/>
				</g>
				<path fill="#CF5C5D" d="M-209.6-662.6h4.8v-5.3h2.3v5.3h4.8v2.2h-4.8v5.2h-2.3v-5.2h-4.8V-662.6z"/>
			</g>
		</g>
	</g>
	<g>
		<g>
			<g>
				<path fill="#81868E" d="M459.8-410.3c0,0,0-0.8-0.1-2.4c0-0.4,0-0.8-0.1-1.3c-0.1-0.5-0.2-1-0.2-1.5c-0.1-0.6-0.2-1.2-0.3-1.8
					c-0.2-0.6-0.3-1.3-0.5-2c-0.8-2.8-2-6.1-4.2-9.4c-2.2-3.3-5.3-6.8-9.4-9.5c-4.1-2.7-9.2-4.7-14.8-5.4c-0.7-0.1-1.4-0.1-2.1-0.1
					c-0.7,0-1.4-0.1-2.2-0.1c-1.4,0.1-2.9,0.1-4.4,0.4c-3,0.3-5.9,1.3-8.7,2.5c-0.7,0.3-1.4,0.7-2.1,1c-0.7,0.3-1.3,0.8-2,1.2
					l-1,0.6l-0.9,0.7c-0.6,0.5-1.3,0.9-1.9,1.4c-2.4,2.1-4.6,4.5-6.4,7.2c-1.8,2.7-3.1,5.7-4.2,8.8c-0.9,3.1-1.4,6.4-1.4,9.7
					c0.1,3.3,0.5,6.6,1.4,9.7c1,3.1,2.4,6.1,4.2,8.8c1.8,2.7,4,5.1,6.4,7.2c0.6,0.5,1.3,1,1.9,1.4l0.9,0.7l1,0.6
					c0.7,0.4,1.3,0.8,2,1.2c0.7,0.3,1.4,0.7,2.1,1c2.8,1.2,5.7,2.1,8.7,2.5c1.5,0.3,2.9,0.3,4.4,0.4c0.7,0.1,1.4-0.1,2.2-0.1
					c0.7-0.1,1.4,0,2.1-0.1c5.6-0.7,10.7-2.7,14.8-5.4c4.1-2.8,7.2-6.2,9.4-9.5c2.3-3.3,3.5-6.7,4.2-9.4c0.2-0.7,0.4-1.4,0.5-2
					c0.1-0.6,0.2-1.2,0.3-1.8c0.1-0.6,0.2-1.1,0.2-1.5c0.1-0.5,0.1-0.9,0.1-1.3C459.8-409.5,459.8-410.3,459.8-410.3h7.2
					c0,0,0,1-0.1,2.9c0,0.5,0,1-0.1,1.6c-0.1,0.6-0.2,1.2-0.3,1.9c-0.1,0.7-0.2,1.4-0.4,2.2c-0.2,0.8-0.4,1.6-0.6,2.4
					c-0.9,3.3-2.4,7.4-5.2,11.4c-2.7,4.1-6.4,8.2-11.4,11.5c-5,3.3-11.2,5.8-18,6.6c-0.8,0.1-1.7,0.1-2.6,0.2
					c-0.9,0-1.7,0.1-2.6,0.1c-1.8-0.1-3.5-0.1-5.3-0.4c-3.6-0.4-7.1-1.6-10.6-3c-0.8-0.4-1.7-0.8-2.5-1.2c-0.8-0.4-1.6-1-2.4-1.4
					l-1.2-0.7l-1.2-0.8c-0.8-0.6-1.6-1.1-2.3-1.8c-2.9-2.5-5.5-5.4-7.8-8.7c-2.2-3.3-3.8-6.9-5-10.7c-1.1-3.8-1.7-7.8-1.8-11.8
					c0.1-4,0.6-8,1.8-11.8c1.2-3.8,2.9-7.4,5-10.7c2.2-3.2,4.8-6.2,7.8-8.7c0.7-0.6,1.5-1.2,2.3-1.8l1.2-0.8l1.2-0.7
					c0.8-0.5,1.6-1,2.4-1.4c0.9-0.4,1.7-0.8,2.5-1.2c3.4-1.5,7-2.6,10.6-3c1.8-0.3,3.6-0.3,5.3-0.4c0.9-0.1,1.8,0.1,2.6,0.1
					c0.9,0.1,1.7,0,2.6,0.2c6.8,0.8,13,3.3,18,6.6c5,3.3,8.7,7.5,11.4,11.5c2.7,4.1,4.2,8.1,5.2,11.4c0.2,0.8,0.4,1.6,0.6,2.4
					c0.2,0.8,0.2,1.5,0.4,2.2c0.1,0.7,0.2,1.3,0.3,1.9c0.1,0.6,0.1,1.1,0.1,1.6c0.1,1.9,0.1,2.9,0.1,2.9H459.8z"/>
				<path fill="#EA8024" d="M426.3-443.9c0,0-0.6,0-1.8,0.1c-0.6,0.1-1.3,0-2.1,0.2c-0.8,0.1-1.8,0.3-2.8,0.4
					c-1,0.3-2.2,0.5-3.5,0.9c-0.6,0.2-1.2,0.5-1.9,0.7c-0.3,0.1-0.7,0.2-1,0.4c-0.3,0.2-0.7,0.3-1,0.5c-2.8,1.2-5.6,3.1-8.4,5.6
					c-2.7,2.5-5.3,5.6-7.3,9.4c-2,3.8-3.3,8.1-3.6,12.7c-0.4,4.6,0.2,9.5,1.9,14c1.6,4.6,4.3,8.8,7.8,12.4c3.5,3.5,7.8,6.2,12.4,7.8
					c4.6,1.7,9.4,2.2,14,1.9c4.6-0.4,9-1.7,12.7-3.6c3.8-2,6.9-4.5,9.4-7.3c2.5-2.7,4.4-5.6,5.6-8.4c0.2-0.3,0.3-0.7,0.5-1
					c0.1-0.3,0.2-0.7,0.4-1c0.2-0.7,0.5-1.3,0.7-1.9c0.4-1.2,0.6-2.4,0.9-3.5c0.2-1.1,0.3-2,0.4-2.8c0.1-0.8,0.1-1.5,0.2-2.1
					c0.1-1.2,0.1-1.8,0.1-1.8h7.2c0,0,0,0.7-0.1,2.1c-0.1,0.7,0,1.6-0.2,2.6c-0.2,1-0.3,2.2-0.5,3.5c-0.3,1.3-0.7,2.7-1.1,4.2
					c-0.3,0.7-0.6,1.5-0.8,2.3c-0.2,0.4-0.3,0.8-0.5,1.2c-0.2,0.4-0.4,0.8-0.6,1.2c-1.5,3.3-3.8,6.8-6.8,10.2
					c-3,3.3-6.8,6.4-11.4,8.8c-4.6,2.4-9.9,4-15.5,4.4c-5.6,0.4-11.5-0.3-17-2.3c-5.6-2-10.7-5.3-15-9.5c-4.2-4.3-7.5-9.4-9.5-15
					c-2-5.6-2.7-11.4-2.3-17c0.4-5.6,2-10.9,4.4-15.5c2.4-4.6,5.5-8.4,8.8-11.4c3.3-3,6.8-5.3,10.2-6.8c0.4-0.2,0.8-0.4,1.2-0.6
					c0.4-0.2,0.8-0.3,1.2-0.5c0.8-0.3,1.6-0.6,2.3-0.8c1.5-0.5,2.9-0.8,4.2-1.1c1.3-0.2,2.5-0.4,3.5-0.5c1-0.2,1.9-0.1,2.6-0.2
					c1.4-0.1,2.1-0.1,2.1-0.1V-443.9z"/>
			</g>
		</g>
	</g>
	<text transform="matrix(1 0 0 1 403.0579 -403.8549)" fill="#2C3E50" font-family="'Museo-500'" font-size="24.185">75%</text>
	<polygon fill-rule="evenodd" clip-rule="evenodd" fill="#81878E" points="487.5,-407 501,-420.5 487.5,-434.1 483.6,-430.2 
		493.3,-420.5 483.6,-410.9 	"/>
	<g>
		<path fill="#2C3E50" d="M-40.2-446h2.9v16.3h-2.9V-446z"/>
		<path fill="#2C3E50" d="M-33.4-442h2.4l0.2,1.6h0.1c1.1-1.1,2.3-1.9,4-1.9c2.6,0,3.8,1.8,3.8,4.8v7.7h-2.9v-7.3
			c0-2-0.6-2.8-1.9-2.8c-1.1,0-1.8,0.5-2.8,1.5v8.5h-2.9V-442z"/>
		<path fill="#2C3E50" d="M-19.1-439.7h-1.7v-2.1l1.9-0.1l0.3-3.3h2.4v3.3h3.1v2.3h-3.1v5.8c0,1.4,0.5,2.1,1.7,2.1
			c0.4,0,0.9-0.1,1.3-0.3l0.5,2.1c-0.7,0.2-1.5,0.4-2.5,0.4c-2.8,0-3.9-1.8-3.9-4.4V-439.7z"/>
		<path fill="#2C3E50" d="M-6-442.3c3.3,0,5,2.4,5,5.8c0,0.5,0,1-0.1,1.3h-7.8c0.2,2.2,1.6,3.5,3.6,3.5c1,0,1.9-0.3,2.8-0.9l1,1.8
			c-1.2,0.8-2.6,1.3-4.2,1.3c-3.4,0-6-2.4-6-6.4C-11.6-439.8-8.8-442.3-6-442.3z M-3.4-437c0-1.9-0.8-3.1-2.5-3.1
			c-1.4,0-2.7,1.1-2.9,3.1H-3.4z"/>
		<path fill="#2C3E50" d="M1.8-442h2.4l0.2,2.2h0.1c0.9-1.6,2.2-2.5,3.5-2.5c0.6,0,1,0.1,1.4,0.3l-0.5,2.5c-0.4-0.1-0.7-0.2-1.3-0.2
			c-1,0-2.1,0.7-2.9,2.5v7.5H1.8V-442z"/>
		<path fill="#2C3E50" d="M11.1-442h2.4l0.2,1.6h0.1c1.1-1.1,2.3-1.9,4-1.9c2.6,0,3.8,1.8,3.8,4.8v7.7h-2.9v-7.3
			c0-2-0.6-2.8-1.9-2.8c-1.1,0-1.8,0.5-2.8,1.5v8.5h-2.9V-442z"/>
		<path fill="#2C3E50" d="M31.7-437.6c0-1.3-0.6-2.4-2.2-2.4c-1.2,0-2.4,0.5-3.4,1.2l-1-1.9c1.3-0.8,3.1-1.6,5-1.6
			c3.1,0,4.6,1.9,4.6,5.3v7.2h-2.3l-0.2-1.3h-0.1c-1.1,0.9-2.3,1.6-3.8,1.6c-2.1,0-3.6-1.4-3.6-3.6C24.5-435.7,26.7-437,31.7-437.6z
			 M29-431.7c1,0,1.8-0.5,2.7-1.3v-2.7c-3.3,0.4-4.4,1.3-4.4,2.5C27.3-432.2,28-431.7,29-431.7z"/>
		<path fill="#2C3E50" d="M38.1-447.3h2.9v14.6c0,0.7,0.3,0.9,0.6,0.9c0.1,0,0.2,0,0.4,0l0.4,2.1c-0.3,0.1-0.8,0.2-1.5,0.2
			c-2,0-2.8-1.3-2.8-3.4V-447.3z"/>
		<path fill="#2C3E50" d="M50.1-446h3.2l2.9,8l1.1,3.1h0.1l1.1-3.1l2.9-8h3.2v16.3h-2.7v-7.4c0-1.5,0.2-3.7,0.4-5.2h-0.1l-1.3,3.7
			l-2.8,7.4h-1.3l-2.8-7.4l-1.3-3.7h-0.1c0.1,1.5,0.3,3.7,0.3,5.2v7.4h-2.6V-446z"/>
		<path fill="#2C3E50" d="M73.2-442.3c3.3,0,5,2.4,5,5.8c0,0.5,0,1-0.1,1.3h-7.8c0.2,2.2,1.6,3.5,3.6,3.5c1,0,1.9-0.3,2.8-0.9l1,1.8
			c-1.2,0.8-2.6,1.3-4.2,1.3c-3.4,0-6-2.4-6-6.4C67.6-439.8,70.3-442.3,73.2-442.3z M75.7-437c0-1.9-0.8-3.1-2.5-3.1
			c-1.4,0-2.7,1.1-2.9,3.1H75.7z"/>
		<path fill="#2C3E50" d="M85.4-442.3c1.4,0,2.3,0.5,3.2,1.3l-0.1-2v-4.4h2.9v17.6H89l-0.2-1.3h-0.1c-0.9,0.9-2.1,1.6-3.5,1.6
			c-3.1,0-5-2.4-5-6.4C80.2-439.8,82.7-442.3,85.4-442.3z M85.9-431.8c0.9,0,1.7-0.4,2.6-1.4v-5.7c-0.8-0.7-1.7-1-2.5-1
			c-1.6,0-2.8,1.5-2.8,4C83.2-433.3,84.2-431.8,85.9-431.8z"/>
		<path fill="#2C3E50" d="M94.7-445.7c0-1,0.7-1.6,1.8-1.6c1,0,1.8,0.7,1.8,1.6c0,0.9-0.7,1.6-1.8,1.6
			C95.4-444.1,94.7-444.8,94.7-445.7z M95-442h2.9v12.2H95V-442z"/>
		<path fill="#2C3E50" d="M106.8-442.3c1.6,0,2.8,0.6,3.6,1.4L109-439c-0.6-0.6-1.3-0.9-2.1-0.9c-2,0-3.3,1.6-3.3,4.1
			c0,2.4,1.3,4.1,3.3,4.1c1,0,1.8-0.5,2.5-1l1.2,1.8c-1.1,1-2.6,1.6-4,1.6c-3.3,0-5.9-2.3-5.9-6.4
			C100.7-439.9,103.6-442.3,106.8-442.3z"/>
		<path fill="#2C3E50" d="M112.7-445.7c0-1,0.7-1.6,1.8-1.6c1,0,1.8,0.7,1.8,1.6c0,0.9-0.7,1.6-1.8,1.6
			C113.4-444.1,112.7-444.8,112.7-445.7z M113-442h2.9v12.2H113V-442z"/>
		<path fill="#2C3E50" d="M119.5-442h2.4l0.2,1.6h0.1c1.1-1.1,2.3-1.9,4-1.9c2.6,0,3.8,1.8,3.8,4.8v7.7h-2.9v-7.3
			c0-2-0.6-2.8-1.9-2.8c-1.1,0-1.8,0.5-2.8,1.5v8.5h-2.9V-442z"/>
		<path fill="#2C3E50" d="M138.3-442.3c3.3,0,5,2.4,5,5.8c0,0.5,0,1-0.1,1.3h-7.8c0.2,2.2,1.6,3.5,3.6,3.5c1,0,1.9-0.3,2.8-0.9
			l1,1.8c-1.2,0.8-2.6,1.3-4.2,1.3c-3.4,0-6-2.4-6-6.4C132.7-439.8,135.4-442.3,138.3-442.3z M140.8-437c0-1.9-0.8-3.1-2.5-3.1
			c-1.4,0-2.7,1.1-2.9,3.1H140.8z"/>
		<path fill="#81878E" d="M-33.9-416.6c1.9,0,3.4,0.9,4.3,2l-0.7,0.7c-0.9-1-2.1-1.7-3.6-1.7c-3.6,0-5.8,2.9-5.8,7.4
			s2.2,7.5,5.7,7.5c1.7,0,3-0.7,4.2-2l0.7,0.7c-1.2,1.4-2.7,2.3-4.9,2.3c-4,0-6.9-3.3-6.9-8.5C-40.9-413.3-38.1-416.6-33.9-416.6z"
			/>
		<path fill="#81878E" d="M-26.1-417.8h1.1v5.2v2.6c1.2-1.2,2.5-2.2,4.1-2.2c2.5,0,3.6,1.5,3.6,4.6v7.7h-1.1v-7.5
			c0-2.5-0.8-3.7-2.7-3.7c-1.4,0-2.4,0.7-3.9,2.2v9h-1.1V-417.8z"/>
		<path fill="#81878E" d="M-13.3-415.7c0-0.6,0.4-1,1-1s1,0.4,1,1c0,0.6-0.4,1-1,1S-13.3-415.1-13.3-415.7z M-12.9-411.9h1.1v11.9
			h-1.1V-411.9z"/>
		<path fill="#81878E" d="M-2.8-412.2c1.6,0,2.7,0.7,3.5,1.5l-0.6,0.8c-0.8-0.7-1.7-1.3-2.8-1.3c-2.4,0-4.3,2.2-4.3,5.3
			c0,3.1,1.7,5.3,4.3,5.3c1.3,0,2.4-0.6,3.2-1.4l0.6,0.7c-1,0.9-2.3,1.6-3.8,1.6c-3.1,0-5.4-2.3-5.4-6.2
			C-8.2-409.9-5.7-412.2-2.8-412.2z"/>
		<path fill="#81878E" d="M10.7-407.4c0-1.8-0.5-3.8-2.8-3.8c-1.6,0-3,0.8-3.8,1.4l-0.5-0.8c0.8-0.6,2.5-1.5,4.4-1.5
			c2.8,0,3.8,2,3.8,4.6v7.6h-0.9l-0.1-1.5h0c-1.2,1-2.7,1.8-4.2,1.8c-1.9,0-3.5-1-3.5-3.3C3-405.5,5.4-406.8,10.7-407.4z M6.7-400.6
			c1.4,0,2.6-0.7,4.1-1.9v-4.1c-4.9,0.6-6.6,1.7-6.6,3.6C4.2-401.2,5.3-400.6,6.7-400.6z"/>
		<path fill="#81878E" d="M16.9-400.4L16.9-400.4c-0.6-0.4-1-1.1-1-2c0-1.1,0.8-1.8,1.3-2.2v-0.1c-0.7-0.6-1.5-1.8-1.5-3.3
			c0-2.5,1.9-4.2,4.2-4.2c0.6,0,1.2,0.1,1.6,0.3h4.1v0.9h-2.8c0.8,0.7,1.3,1.7,1.3,3c0,2.4-1.8,4.2-4.2,4.2c-0.7,0-1.4-0.2-2-0.5
			c-0.5,0.4-1,0.9-1,1.7c0,0.9,0.5,1.6,2.3,1.6h2.6c2.7,0,3.9,0.8,3.9,2.7c0,2.1-2.2,4-5.6,4c-3,0-4.9-1.3-4.9-3.3
			C15.1-398.5,15.8-399.6,16.9-400.4z M20.1-395.1c2.7,0,4.4-1.5,4.4-3c0-1.3-1-1.8-2.8-1.8h-2.6c-0.2,0-0.9,0-1.5-0.2
			c-1.1,0.7-1.6,1.7-1.6,2.5C16.2-396.1,17.6-395.1,20.1-395.1z M22.9-408c0-2-1.4-3.3-3.1-3.3c-1.7,0-3.1,1.3-3.1,3.3
			c0,2,1.4,3.4,3.1,3.4C21.5-404.6,22.9-405.9,22.9-408z"/>
		<path fill="#81878E" d="M32.3-412.2c2.9,0,5.4,2.3,5.4,6.3c0,4-2.5,6.2-5.4,6.2c-2.9,0-5.3-2.3-5.3-6.2
			C27-409.9,29.4-412.2,32.3-412.2z M32.3-400.6c2.4,0,4.2-2.1,4.2-5.3c0-3.2-1.8-5.3-4.2-5.3c-2.4,0-4.2,2.2-4.2,5.3
			C28.1-402.7,29.9-400.6,32.3-400.6z"/>
		<path fill="#81878E" d="M39.9-396.8c1.1-0.6,1.9-1.6,1.9-3c-0.1,0-0.2,0-0.3,0c-0.6,0-1-0.4-1-1c0-0.7,0.5-1,1.1-1
			c0.7,0,1.3,0.7,1.3,1.8c0,1.8-1.1,3.3-2.6,4.1L39.9-396.8z"/>
		<path fill="#81878E" d="M51.5-416.3h1.1v16.4h-1.1V-416.3z"/>
		<path fill="#81878E" d="M57.3-416.3h1.1v15.4h7.5v1h-8.7V-416.3z"/>
		<path fill="#81878E" d="M73.7-418.6h0.9v24.9h-0.9V-418.6z"/>
		<path fill="#81878E" d="M91.2-413.6c-0.9-0.9-1.7-1.5-3.2-1.5c-1.7,0-2.9,1.2-2.9,2.9c0,4.4,7.2,2.9,7.2,8.6
			c0,2.4-1.6,3.9-3.8,4.1v2.5h-1v-2.5c-1.7-0.1-3.2-1-4.2-1.9l0.6-0.8c0.9,0.8,2.3,1.7,4,1.7c2.1,0,3.2-1.2,3.2-3.1
			c0-4.9-7.2-3.5-7.2-8.6c0-2.1,1.5-3.6,3.5-3.9v-2.5h1v2.5c1.6,0.1,2.6,0.8,3.4,1.7L91.2-413.6z"/>
		<path fill="#81878E" d="M95.9-400.9h3.7v-13.2h-2.8v-0.7c1.3-0.2,2.3-0.6,3.1-1h0.9v14.9h3.5v1h-8.3V-400.9z"/>
		<path fill="#81878E" d="M106.9-407.9c0-5.3,1.7-8.2,4.7-8.2c3,0,4.7,2.9,4.7,8.2c0,5.3-1.7,8.3-4.7,8.3
			C108.6-399.6,106.9-402.6,106.9-407.9z M115.3-407.9c0-4.8-1.4-7.2-3.6-7.2c-2.2,0-3.6,2.4-3.6,7.2c0,4.8,1.4,7.4,3.6,7.4
			C113.9-400.6,115.3-403.1,115.3-407.9z"/>
		<path fill="#81878E" d="M118.8-407.9c0-5.3,1.7-8.2,4.7-8.2c3,0,4.7,2.9,4.7,8.2c0,5.3-1.7,8.3-4.7,8.3
			C120.5-399.6,118.8-402.6,118.8-407.9z M127.2-407.9c0-4.8-1.4-7.2-3.6-7.2c-2.2,0-3.6,2.4-3.6,7.2c0,4.8,1.4,7.4,3.6,7.4
			C125.8-400.6,127.2-403.1,127.2-407.9z"/>
		<path fill="#81878E" d="M131.8-417.8h1.1v13.2h0l5.9-7.2h1.3l-3.9,4.7l4.5,7.2h-1.2l-4-6.4l-2.7,3.1v3.3h-1.1V-417.8z"/>
		<path fill="#81878E" d="M147-406.6h5.5v1H147V-406.6z"/>
		<path fill="#81878E" d="M167.8-413.6c-0.9-0.9-1.7-1.5-3.2-1.5c-1.7,0-2.9,1.2-2.9,2.9c0,4.4,7.2,2.9,7.2,8.6
			c0,2.4-1.6,3.9-3.8,4.1v2.5h-1v-2.5c-1.7-0.1-3.2-1-4.2-1.9l0.6-0.8c0.9,0.8,2.3,1.7,4,1.7c2.1,0,3.2-1.2,3.2-3.1
			c0-4.9-7.2-3.5-7.2-8.6c0-2.1,1.5-3.6,3.5-3.9v-2.5h1v2.5c1.6,0.1,2.6,0.8,3.4,1.7L167.8-413.6z"/>
		<path fill="#81878E" d="M172.4-400.9h3.7v-13.2h-2.8v-0.7c1.3-0.2,2.3-0.6,3.1-1h0.9v14.9h3.5v1h-8.3V-400.9z"/>
		<path fill="#81878E" d="M183.5-402.5c0.9,1,2.2,1.9,4.4,1.9c2.1,0,4-1.7,4-4.3c0-2.6-1.5-4.1-3.9-4.1c-1.2,0-2,0.4-3,1.1l-0.8-0.5
			l0.6-7.4h7.3v1h-6.3l-0.5,5.7c0.8-0.5,1.7-0.8,2.8-0.8c2.7,0,4.8,1.5,4.8,5c0,3.4-2.5,5.3-5.1,5.3c-2.5,0-4-1.1-5-2.1L183.5-402.5
			z"/>
		<path fill="#81878E" d="M195.4-407.9c0-5.3,1.7-8.2,4.7-8.2s4.7,2.9,4.7,8.2c0,5.3-1.7,8.3-4.7,8.3S195.4-402.6,195.4-407.9z
			 M203.7-407.9c0-4.8-1.4-7.2-3.6-7.2c-2.2,0-3.6,2.4-3.6,7.2c0,4.8,1.4,7.4,3.6,7.4C202.3-400.6,203.7-403.1,203.7-407.9z"/>
		<path fill="#81878E" d="M208.4-417.8h1.1v13.2h0l5.9-7.2h1.3l-3.9,4.7l4.5,7.2h-1.2l-4-6.4l-2.7,3.1v3.3h-1.1V-417.8z"/>
	</g>
	<g>
		<path fill="#EB7E25" d="M382.5-411.3c0-24.3,19.7-44.1,44.1-44.1c8.9,0,17.2,2.6,24.1,7.2c-3.7-16.1-18.1-28.1-35.3-28.1
			c-10.2,0-19.5,4.3-26.1,11.1c-6.6-6.8-15.8-11.1-26.1-11.1c-20,0-36.3,16.2-36.3,36.3c0,8.9,3.2,17.1,8.6,23.4l1,1.2
			c1,1.1,48.9,46.8,52.8,50.5c1.1-1,5.5-5.2,11.3-10.8C389.6-383.7,382.5-396.7,382.5-411.3z"/>
	</g>
	<g>
		<circle fill="#E6E8E9" cx="-225.4" cy="-420.5" r="61.7"/>
		<circle fill="none" stroke="#EB7E25" stroke-width="2" stroke-miterlimit="10" cx="-225.4" cy="-420.5" r="55.5"/>
		<g>
			<path id="path3334_4_" inkscape:connector-curvature="0" fill="#EB7E25" d="M-256.3-408.9h10.7c0,0.8,0.8,1.6,1.6,1.6h46.1
				c0.8,0,1.6-0.8,1.6-1.6h1.6v3.1h-61.5V-408.9z"/>
			<path id="path3336_4_" inkscape:connector-curvature="0" fill="#EB7E25" d="M-256.3-416.7h10.7v6.3h-10.7V-416.7z M-196.3-416.7
				h1.6v6.3h-1.6V-416.7z"/>
			<path id="path3338_4_" inkscape:connector-curvature="0" fill="#EB7E25" d="M-260.7-432.1L-260.7-432.1c1.6,0,3.1,1.3,3.1,3.1
				v30.8c0,1.6-1.3,3.1-3.1,3.1l0,0c-1.6,0-3.1-1.3-3.1-3.1v-30.8C-263.8-430.5-262.5-432.1-260.7-432.1z"/>
			<path id="path3340_4_" inkscape:connector-curvature="0" fill="#EB7E25" d="M-190-419.6L-190-419.6c1.6,0,3.1,1.3,3.1,3.1v18.5
				c0,1.6-1.3,3.1-3.1,3.1l0,0c-1.6,0-3.1-1.3-3.1-3.1v-18.5C-193.2-418-191.9-419.6-190-419.6z"/>
			<path id="path3342_4_" inkscape:connector-curvature="0" fill="#EB7E25" d="M-242.4-419.6h43c0.8,0,1.6,0.8,1.6,1.6v7.8
				c0,0.8-0.8,1.6-1.6,1.6h-43c-0.8,0-1.6-0.8-1.6-1.6v-7.8C-244-418.8-243.2-419.6-242.4-419.6z"/>
		</g>
		<g>
			<path fill="#EB7E25" d="M-241.3-433.9c0,0,1.5,1.6,3.7,1.6c1.8,0,3.3-1.2,3.3-2.9c0-1.7-1.2-2.9-3.4-2.9c-1.7,0-2.7,0.7-2.7,0.7
				l-1.7-0.6l0.8-8.5h9v4.4h-2.6v-2h-3.8l-0.3,3.2c0,0.3-0.1,0.7-0.1,0.7h0c0,0,0.7-0.4,2-0.4c3.6,0,5.8,2.3,5.8,5.2
				c0,3.2-2.5,5.6-6.1,5.6c-3.4,0-5.3-2.1-5.3-2.1L-241.3-433.9z"/>
			<path fill="#EB7E25" d="M-229-438.2c0-4.8,1.5-8.5,6-8.5c4.5,0,6,3.8,6,8.5c0,4.8-1.5,8.6-6,8.6
				C-227.5-429.6-229-433.4-229-438.2z M-220.1-438.2c0-3.3-0.7-5.8-2.9-5.8c-2.3,0-2.9,2.6-2.9,5.8c0,3.3,0.6,5.9,2.9,5.9
				C-220.7-432.3-220.1-434.9-220.1-438.2z"/>
			<path fill="#EB7E25" d="M-214.3-439.3h5v-5.5h2.4v5.5h5v2.3h-5v5.5h-2.4v-5.5h-5V-439.3z"/>
		</g>
	</g>
	<g>
		<polygon fill-rule="evenodd" clip-rule="evenodd" fill="#81878E" points="487.5,-183.7 501,-197.2 487.5,-210.8 483.6,-206.9 
			493.3,-197.2 483.6,-187.5 		"/>
		<g>
			<g>
				<path fill="#FCB415" d="M382.5-187.9c0-24.3,19.7-44.1,44.1-44.1c8.9,0,17.2,2.6,24.1,7.2c-3.7-16.1-18.1-28-35.3-28
					c-10.2,0-19.5,4.3-26.1,11.1c-6.6-6.8-15.8-11.1-26.1-11.1c-20,0-36.3,16.2-36.3,36.3c0,8.9,3.2,17.1,8.6,23.4l1,1.2
					c1,1.1,48.9,46.8,52.8,50.5c1.1-1,5.5-5.2,11.3-10.8C389.6-160.4,382.5-173.3,382.5-187.9z"/>
			</g>
			<g>
				<g>
					<g>
						<path fill="#81868E" d="M430.8-153.8c0,0,0.8-0.2,2.3-0.4c0.4-0.1,0.8-0.1,1.3-0.3c0.5-0.1,0.9-0.3,1.5-0.4
							c0.5-0.2,1.1-0.3,1.7-0.5c0.6-0.2,1.2-0.5,1.9-0.8c2.6-1.2,5.8-2.8,8.8-5.5c3-2.6,6-6.2,8.2-10.6c2.1-4.4,3.5-9.8,3.4-15.4
							c0-0.7-0.1-1.4-0.1-2.1c-0.1-0.7-0.1-1.4-0.2-2.2c-0.3-1.4-0.5-2.9-1-4.3c-0.7-2.9-2.1-5.6-3.6-8.3c-0.4-0.6-0.9-1.3-1.3-1.9
							c-0.4-0.6-1-1.2-1.4-1.8l-0.7-0.9l-0.8-0.8c-0.6-0.6-1.1-1.1-1.7-1.7c-2.4-2.1-5.1-3.9-8-5.4c-2.9-1.4-6.1-2.3-9.3-2.9
							c-3.2-0.5-6.6-0.5-9.8-0.1c-3.3,0.5-6.4,1.4-9.4,2.7c-2.9,1.4-5.7,3.2-8.2,5.3c-2.4,2.2-4.5,4.6-6.2,7.3
							c-0.4,0.7-0.8,1.4-1.2,2.1l-0.6,1l-0.5,1.1c-0.3,0.7-0.7,1.4-0.9,2.2c-0.2,0.7-0.5,1.5-0.7,2.2c-0.8,3-1.3,6-1.3,9
							c-0.1,1.5,0.1,2.9,0.2,4.4c0,0.7,0.2,1.4,0.4,2.1c0.2,0.7,0.2,1.4,0.4,2.1c1.4,5.5,4.1,10.2,7.4,14c3.3,3.7,7.1,6.3,10.7,8
							c3.6,1.8,7.1,2.5,9.9,2.9c0.7,0.1,1.4,0.2,2,0.2c0.6,0.1,1.2,0,1.8,0c0.6,0,1.1,0,1.5,0c0.5,0,0.9-0.1,1.3-0.1
							C430-153.7,430.8-153.8,430.8-153.8l1,7.1c0,0-1,0.1-2.9,0.2c-0.5,0-1,0.1-1.6,0.1c-0.6,0-1.2,0-1.9,0c-0.7,0-1.4,0-2.2-0.1
							c-0.8-0.1-1.6-0.2-2.5-0.3c-3.4-0.5-7.7-1.4-12-3.6c-4.4-2.1-9-5.3-13-9.8c-4-4.5-7.2-10.3-9-16.9c-0.2-0.8-0.3-1.7-0.5-2.5
							c-0.1-0.9-0.4-1.7-0.4-2.6c-0.1-1.8-0.4-3.5-0.3-5.3c0-3.6,0.6-7.3,1.6-10.9c0.3-0.9,0.6-1.8,0.9-2.7c0.3-0.9,0.7-1.7,1.1-2.6
							l0.6-1.3l0.7-1.3c0.5-0.8,0.9-1.7,1.4-2.5c2.1-3.3,4.6-6.2,7.5-8.9c3-2.6,6.3-4.7,9.9-6.4c3.6-1.6,7.5-2.7,11.5-3.3
							c4-0.5,8-0.5,11.9,0.1c3.9,0.7,7.7,1.8,11.3,3.6c3.5,1.8,6.8,3.9,9.6,6.5c0.7,0.6,1.4,1.4,2,2l1,1l0.9,1.1
							c0.6,0.7,1.2,1.5,1.8,2.2c0.5,0.8,1,1.6,1.6,2.4c1.9,3.2,3.5,6.6,4.4,10.1c0.6,1.7,0.8,3.5,1.2,5.2c0.2,0.9,0.2,1.7,0.3,2.6
							c0.1,0.9,0.2,1.7,0.2,2.6c0.1,6.9-1.5,13.3-4.1,18.7c-2.6,5.4-6.2,9.7-9.9,12.9c-3.6,3.2-7.5,5.3-10.6,6.7
							c-0.8,0.3-1.6,0.6-2.3,0.9c-0.7,0.3-1.4,0.4-2.1,0.6c-0.7,0.2-1.3,0.4-1.8,0.5c-0.6,0.2-1.1,0.2-1.5,0.3
							c-1.8,0.3-2.8,0.5-2.8,0.5L430.8-153.8z"/>
						<path fill="#FCB415" d="M432.3-220c0,0-0.1,0-0.3-0.1c-0.2,0-0.5-0.1-1-0.1c-0.4,0-0.9-0.1-1.6-0.2c-0.3,0-0.6-0.1-1-0.1
							c-0.4,0-0.7,0-1.1,0c-3.1-0.1-7.8,0.2-12.9,2.1c-0.6,0.3-1.3,0.5-1.9,0.8c-0.7,0.2-1.3,0.6-1.9,1c-1.3,0.6-2.6,1.5-3.9,2.4
							c-2.5,1.9-4.9,4.1-7,6.8c-2,2.7-3.8,5.8-5,9.2c-1.3,3.3-1.8,7-1.9,10.6c-0.1,1.8,0.1,3.6,0.3,5.4c0.2,0.9,0.3,1.8,0.5,2.7
							c0.1,0.4,0.2,0.9,0.3,1.3l0.4,1.3c0.1,0.4,0.2,0.9,0.4,1.3l0.5,1.2c0.4,0.8,0.6,1.7,1.1,2.4c0.4,0.8,0.8,1.5,1.2,2.3
							c0.5,0.7,0.9,1.4,1.4,2.1c2,2.7,4.2,5.2,6.7,7.1c2.5,1.9,5,3.4,7.5,4.4c5,2.2,9.6,2.7,12.7,2.7c1.6,0.1,2.8-0.1,3.7-0.2
							c0.8-0.1,1.3-0.1,1.3-0.1l1,7.1c0,0-0.5,0-1.6,0.1c-1,0.1-2.5,0.3-4.5,0.2c-3.8,0-9.4-0.6-15.5-3.3c-3.1-1.2-6.1-3.1-9.1-5.4
							c-3-2.3-5.7-5.2-8.1-8.6c-0.6-0.9-1.1-1.7-1.7-2.6c-0.5-0.9-1-1.9-1.5-2.8c-0.5-0.9-0.9-1.9-1.3-2.9l-0.6-1.5
							c-0.2-0.5-0.3-1-0.5-1.5l-0.5-1.6c-0.2-0.5-0.3-1-0.4-1.6c-0.2-1.1-0.4-2.1-0.6-3.2c-0.2-2.2-0.5-4.4-0.4-6.6
							c0.1-4.4,0.8-8.8,2.3-12.8c1.5-4.1,3.6-7.8,6.1-11.1c2.5-3.3,5.5-6,8.5-8.2c1.6-1,3.1-2.1,4.7-2.9c0.8-0.4,1.5-0.9,2.3-1.2
							c0.8-0.3,1.6-0.6,2.3-1c6.2-2.4,11.8-2.7,15.6-2.6c0.5,0,0.9,0,1.4,0c0.4,0,0.8,0.1,1.2,0.1c0.7,0.1,1.4,0.2,1.9,0.2
							c0.5,0.1,0.9,0.1,1.2,0.1c0.3,0.1,0.4,0.1,0.4,0.1L432.3-220z"/>
					</g>
				</g>
			</g>
			<text transform="matrix(1 0 0 1 402.888 -180.5322)" fill="#2C3E50" font-family="'Museo-500'" font-size="24.1842">57%</text>
		</g>
	</g>
	<g>
		<path fill="#2C3E50" d="M-40.2-222.7h3l5,9.2l1.7,3.5h0.1c-0.1-1.7-0.4-3.7-0.4-5.5v-7.1h2.7v16.3h-3l-5-9.1l-1.7-3.5h-0.1
			c0.1,1.7,0.4,3.7,0.4,5.5v7.1h-2.7V-222.7z"/>
		<path fill="#2C3E50" d="M-19.3-219c3.3,0,5,2.4,5,5.8c0,0.5,0,1-0.1,1.3h-7.8c0.2,2.2,1.6,3.5,3.6,3.5c1,0,1.9-0.3,2.8-0.9l1,1.8
			c-1.2,0.8-2.6,1.3-4.2,1.3c-3.4,0-6-2.4-6-6.4C-24.9-216.5-22.2-219-19.3-219z M-16.8-213.7c0-1.9-0.8-3.1-2.5-3.1
			c-1.4,0-2.7,1.1-2.9,3.1H-16.8z"/>
		<path fill="#2C3E50" d="M-11.7-218.7h2.9v7.3c0,2,0.6,2.8,1.9,2.8c1.1,0,1.8-0.5,2.7-1.7v-8.4h2.9v12.2h-2.3l-0.2-1.8H-4
			c-1.1,1.3-2.3,2.1-3.9,2.1c-2.6,0-3.8-1.8-3.8-4.8V-218.7z"/>
		<path fill="#2C3E50" d="M2.3-218.7h2.4l0.2,2.2H5c0.9-1.6,2.2-2.5,3.5-2.5c0.6,0,1,0.1,1.4,0.3l-0.5,2.5c-0.4-0.1-0.7-0.2-1.3-0.2
			c-1,0-2.1,0.7-2.9,2.5v7.5H2.3V-218.7z"/>
		<path fill="#2C3E50" d="M16.3-219c3.1,0,5.8,2.3,5.8,6.4c0,4.1-2.8,6.4-5.8,6.4c-3,0-5.8-2.3-5.8-6.4
			C10.5-216.7,13.3-219,16.3-219z M16.3-208.5c1.8,0,2.9-1.6,2.9-4.1c0-2.5-1.1-4.1-2.9-4.1c-1.8,0-2.9,1.6-2.9,4.1
			C13.5-210.1,14.5-208.5,16.3-208.5z"/>
		<path fill="#2C3E50" d="M25-224h2.9v14.6c0,0.7,0.3,0.9,0.6,0.9c0.1,0,0.2,0,0.4-0.1l0.4,2.1c-0.3,0.1-0.8,0.3-1.5,0.3
			c-2,0-2.8-1.3-2.8-3.4V-224z"/>
		<path fill="#2C3E50" d="M36.7-219c3.1,0,5.8,2.3,5.8,6.4c0,4.1-2.8,6.4-5.8,6.4c-3,0-5.8-2.3-5.8-6.4
			C30.9-216.7,33.7-219,36.7-219z M36.7-208.5c1.8,0,2.9-1.6,2.9-4.1c0-2.5-1.1-4.1-2.9-4.1c-1.8,0-2.9,1.6-2.9,4.1
			C33.9-210.1,34.9-208.5,36.7-208.5z"/>
		<path fill="#2C3E50" d="M46.3-206.9L46.3-206.9c-0.6-0.5-1.1-1.1-1.1-2.1c0-0.9,0.6-1.8,1.3-2.3v-0.1c-0.8-0.6-1.6-1.8-1.6-3.2
			c0-2.8,2.3-4.4,4.8-4.4c0.7,0,1.3,0.1,1.8,0.3H56v2.1h-2.2c0.4,0.5,0.7,1.2,0.7,2.1c0,2.7-2,4.2-4.6,4.2c-0.5,0-1.1-0.1-1.7-0.3
			c-0.4,0.3-0.6,0.6-0.6,1.2c0,0.7,0.5,1.1,2,1.1h2.2c2.9,0,4.5,0.9,4.5,3c0,2.4-2.5,4.3-6.5,4.3c-2.9,0-5.1-1-5.1-3.2
			C44.6-205.3,45.2-206.2,46.3-206.9z M50.1-203c2,0,3.3-0.9,3.3-2c0-0.9-0.8-1.2-2.2-1.2h-1.7c-0.7,0-1.2,0-1.7-0.2
			c-0.6,0.5-0.9,1-0.9,1.6C47-203.6,48.2-203,50.1-203z M51.9-214.6c0-1.5-0.9-2.4-2.1-2.4c-1.2,0-2.1,0.9-2.1,2.4
			c0,1.6,0.9,2.5,2.1,2.5C51-212.2,51.9-213,51.9-214.6z"/>
		<path fill="#2C3E50" d="M58.8-203.8c1.3,0,2-0.9,2.4-2.1l0.2-0.8l-4.8-12.1h2.9l2.1,6c0.3,1.1,0.7,2.3,1.1,3.4h0.1
			c0.3-1.1,0.6-2.3,0.9-3.4l1.8-6h2.8l-4.4,12.8c-1,2.8-2.3,4.5-4.9,4.5c-0.7,0-1.1-0.1-1.6-0.2l0.5-2.2
			C58.2-203.9,58.5-203.8,58.8-203.8z"/>
		<path fill="#81878E" d="M-33.9-193.3c1.9,0,3.4,0.9,4.3,2l-0.7,0.7c-0.9-1-2.1-1.7-3.6-1.7c-3.6,0-5.8,2.9-5.8,7.4
			s2.2,7.5,5.7,7.5c1.7,0,3-0.7,4.2-2l0.7,0.7c-1.2,1.4-2.7,2.3-4.9,2.3c-4,0-6.9-3.3-6.9-8.5C-40.9-190.1-38.1-193.3-33.9-193.3z"
			/>
		<path fill="#81878E" d="M-26.1-194.5h1.1v5.2v2.6c1.2-1.2,2.5-2.2,4.1-2.2c2.5,0,3.6,1.5,3.6,4.6v7.7h-1.1v-7.5
			c0-2.5-0.8-3.7-2.7-3.7c-1.4,0-2.4,0.7-3.9,2.2v9h-1.1V-194.5z"/>
		<path fill="#81878E" d="M-13.3-192.4c0-0.6,0.4-1,1-1s1,0.4,1,1c0,0.6-0.4,1-1,1S-13.3-191.8-13.3-192.4z M-12.9-188.6h1.1v11.9
			h-1.1V-188.6z"/>
		<path fill="#81878E" d="M-2.8-188.9c1.6,0,2.7,0.7,3.5,1.5l-0.6,0.8c-0.8-0.7-1.7-1.3-2.8-1.3c-2.4,0-4.3,2.2-4.3,5.3
			c0,3.1,1.7,5.3,4.3,5.3c1.3,0,2.4-0.6,3.2-1.4l0.6,0.7c-1,0.9-2.3,1.6-3.8,1.6c-3.1,0-5.4-2.3-5.4-6.2
			C-8.2-186.6-5.7-188.9-2.8-188.9z"/>
		<path fill="#81878E" d="M10.7-184.1c0-1.8-0.5-3.8-2.8-3.8c-1.6,0-3,0.8-3.8,1.4l-0.5-0.8c0.8-0.6,2.5-1.5,4.4-1.5
			c2.8,0,3.8,2,3.8,4.6v7.6h-0.9l-0.1-1.5h0c-1.2,1-2.7,1.8-4.2,1.8c-1.9,0-3.5-1-3.5-3.3C3-182.2,5.4-183.5,10.7-184.1z M6.7-177.3
			c1.4,0,2.6-0.7,4.1-1.9v-4.1c-4.9,0.6-6.6,1.7-6.6,3.6C4.2-177.9,5.3-177.3,6.7-177.3z"/>
		<path fill="#81878E" d="M16.9-177.1L16.9-177.1c-0.6-0.4-1-1.1-1-2c0-1.1,0.8-1.8,1.3-2.2v-0.1c-0.7-0.6-1.5-1.8-1.5-3.3
			c0-2.5,1.9-4.2,4.2-4.2c0.6,0,1.2,0.1,1.6,0.3h4.1v0.9h-2.8c0.8,0.7,1.3,1.7,1.3,3c0,2.4-1.8,4.2-4.2,4.2c-0.7,0-1.4-0.2-2-0.5
			c-0.5,0.4-1,0.9-1,1.7c0,0.9,0.5,1.6,2.3,1.6h2.6c2.7,0,3.9,0.8,3.9,2.7c0,2.1-2.2,4-5.6,4c-3,0-4.9-1.3-4.9-3.3
			C15.1-175.2,15.8-176.3,16.9-177.1z M20.1-171.8c2.7,0,4.4-1.5,4.4-3c0-1.3-1-1.8-2.8-1.8h-2.6c-0.2,0-0.9,0-1.5-0.2
			c-1.1,0.7-1.6,1.7-1.6,2.5C16.2-172.8,17.6-171.8,20.1-171.8z M22.9-184.7c0-2-1.4-3.3-3.1-3.3c-1.7,0-3.1,1.3-3.1,3.3
			c0,2,1.4,3.4,3.1,3.4C21.5-181.3,22.9-182.6,22.9-184.7z"/>
		<path fill="#81878E" d="M32.3-188.9c2.9,0,5.4,2.3,5.4,6.3c0,4-2.5,6.2-5.4,6.2c-2.9,0-5.3-2.3-5.3-6.2
			C27-186.6,29.4-188.9,32.3-188.9z M32.3-177.3c2.4,0,4.2-2.1,4.2-5.3c0-3.2-1.8-5.3-4.2-5.3c-2.4,0-4.2,2.2-4.2,5.3
			C28.1-179.4,29.9-177.3,32.3-177.3z"/>
		<path fill="#81878E" d="M39.9-173.5c1.1-0.6,1.9-1.6,1.9-3c-0.1,0-0.2,0-0.3,0c-0.6,0-1-0.4-1-1c0-0.7,0.5-1,1.1-1
			c0.7,0,1.3,0.7,1.3,1.8c0,1.8-1.1,3.3-2.6,4.1L39.9-173.5z"/>
		<path fill="#81878E" d="M51.5-193h1.1v16.4h-1.1V-193z"/>
		<path fill="#81878E" d="M57.3-193h1.1v15.4h7.5v1h-8.7V-193z"/>
		<path fill="#81878E" d="M73.7-195.3h0.9v24.9h-0.9V-195.3z"/>
		<path fill="#81878E" d="M91.2-190.4c-0.9-0.9-1.7-1.5-3.2-1.5c-1.7,0-2.9,1.2-2.9,2.9c0,4.4,7.2,2.9,7.2,8.6
			c0,2.4-1.6,3.9-3.8,4.1v2.5h-1v-2.5c-1.7-0.1-3.2-1-4.2-1.9l0.6-0.8c0.9,0.8,2.3,1.7,4,1.7c2.1,0,3.2-1.2,3.2-3.1
			c0-4.9-7.2-3.5-7.2-8.6c0-2.1,1.5-3.6,3.5-3.9v-2.5h1v2.5c1.6,0.1,2.6,0.8,3.4,1.7L91.2-190.4z"/>
		<path fill="#81878E" d="M95.9-177.6h3.7v-13.2h-2.8v-0.7c1.3-0.2,2.3-0.6,3.1-1h0.9v14.9h3.5v1h-8.3V-177.6z"/>
		<path fill="#81878E" d="M106.9-184.6c0-5.3,1.7-8.2,4.7-8.2c3,0,4.7,2.9,4.7,8.2c0,5.3-1.7,8.3-4.7,8.3
			C108.6-176.3,106.9-179.3,106.9-184.6z M115.3-184.6c0-4.8-1.4-7.2-3.6-7.2c-2.2,0-3.6,2.4-3.6,7.2c0,4.8,1.4,7.4,3.6,7.4
			C113.9-177.3,115.3-179.8,115.3-184.6z"/>
		<path fill="#81878E" d="M118.8-184.6c0-5.3,1.7-8.2,4.7-8.2c3,0,4.7,2.9,4.7,8.2c0,5.3-1.7,8.3-4.7,8.3
			C120.5-176.3,118.8-179.3,118.8-184.6z M127.2-184.6c0-4.8-1.4-7.2-3.6-7.2c-2.2,0-3.6,2.4-3.6,7.2c0,4.8,1.4,7.4,3.6,7.4
			C125.8-177.3,127.2-179.8,127.2-184.6z"/>
		<path fill="#81878E" d="M131.8-194.5h1.1v13.2h0l5.9-7.2h1.3l-3.9,4.7l4.5,7.2h-1.2l-4-6.4l-2.7,3.1v3.3h-1.1V-194.5z"/>
		<path fill="#81878E" d="M147-183.3h5.5v1H147V-183.3z"/>
		<path fill="#81878E" d="M167.8-190.4c-0.9-0.9-1.7-1.5-3.2-1.5c-1.7,0-2.9,1.2-2.9,2.9c0,4.4,7.2,2.9,7.2,8.6
			c0,2.4-1.6,3.9-3.8,4.1v2.5h-1v-2.5c-1.7-0.1-3.2-1-4.2-1.9l0.6-0.8c0.9,0.8,2.3,1.7,4,1.7c2.1,0,3.2-1.2,3.2-3.1
			c0-4.9-7.2-3.5-7.2-8.6c0-2.1,1.5-3.6,3.5-3.9v-2.5h1v2.5c1.6,0.1,2.6,0.8,3.4,1.7L167.8-190.4z"/>
		<path fill="#81878E" d="M172.4-177.6h3.7v-13.2h-2.8v-0.7c1.3-0.2,2.3-0.6,3.1-1h0.9v14.9h3.5v1h-8.3V-177.6z"/>
		<path fill="#81878E" d="M183.5-179.2c0.9,1,2.2,1.9,4.4,1.9c2.1,0,4-1.7,4-4.3s-1.5-4.1-3.9-4.1c-1.2,0-2,0.4-3,1.1l-0.8-0.5
			l0.6-7.4h7.3v1h-6.3l-0.5,5.7c0.8-0.5,1.7-0.8,2.8-0.8c2.7,0,4.8,1.5,4.8,5c0,3.4-2.5,5.3-5.1,5.3c-2.5,0-4-1.1-5-2.1L183.5-179.2
			z"/>
		<path fill="#81878E" d="M195.4-184.6c0-5.3,1.7-8.2,4.7-8.2s4.7,2.9,4.7,8.2c0,5.3-1.7,8.3-4.7,8.3S195.4-179.3,195.4-184.6z
			 M203.7-184.6c0-4.8-1.4-7.2-3.6-7.2c-2.2,0-3.6,2.4-3.6,7.2c0,4.8,1.4,7.4,3.6,7.4C202.3-177.3,203.7-179.8,203.7-184.6z"/>
		<path fill="#81878E" d="M208.4-194.5h1.1v13.2h0l5.9-7.2h1.3l-3.9,4.7l4.5,7.2h-1.2l-4-6.4l-2.7,3.1v3.3h-1.1V-194.5z"/>
	</g>
	<g>
		<circle fill="#E6E8E9" cx="-225.4" cy="-197.2" r="61.7"/>
		<g>
			<g>
				<path fill="#FCB415" d="M-234.5-220.2c0.3-0.6,0.6-1,0.6-1v0c0,0-0.5,0.1-1.1,0.1h-5v2.1h-2.7v-4.6h12.2v2.2l-7.6,15.2h-3.3
					L-234.5-220.2z"/>
				<path fill="#FCB415" d="M-227.7-210.5c0,0,1.5,1.7,3.9,1.7c1.9,0,3.4-1.3,3.4-3c0-1.8-1.3-3-3.5-3c-1.7,0-2.8,0.8-2.8,0.8
					l-1.8-0.7l0.8-9h9.5v4.6h-2.8v-2.1h-4l-0.3,3.4c0,0.3-0.1,0.7-0.1,0.7h0c0,0,0.8-0.4,2.1-0.4c3.8,0,6.1,2.4,6.1,5.5
					c0,3.3-2.7,5.9-6.5,5.9c-3.6,0-5.6-2.2-5.6-2.2L-227.7-210.5z"/>
				<path fill="#FCB415" d="M-215-216h5.3v-5.8h2.5v5.8h5.3v2.4h-5.3v5.8h-2.5v-5.8h-5.3V-216z"/>
			</g>
			<circle fill="none" stroke="#FCB415" stroke-width="2" stroke-miterlimit="10" cx="-225.4" cy="-197.2" r="55.5"/>
			<g>
				<path id="path3334_3_" inkscape:connector-curvature="0" fill="#FCB415" d="M-256.3-185.6h10.7c0,0.8,0.8,1.6,1.6,1.6h46.1
					c0.8,0,1.6-0.8,1.6-1.6h1.6v3.1h-61.5V-185.6z"/>
				<path id="path3336_3_" inkscape:connector-curvature="0" fill="#FCB415" d="M-256.3-193.4h10.7v6.3h-10.7V-193.4z M-196.3-193.4
					h1.6v6.3h-1.6V-193.4z"/>
				<path id="path3338_3_" inkscape:connector-curvature="0" fill="#FCB415" d="M-260.7-208.8L-260.7-208.8c1.6,0,3.1,1.3,3.1,3.1
					v30.8c0,1.6-1.3,3.1-3.1,3.1l0,0c-1.6,0-3.1-1.3-3.1-3.1v-30.8C-263.8-207.2-262.5-208.8-260.7-208.8z"/>
				<path id="path3340_3_" inkscape:connector-curvature="0" fill="#FCB415" d="M-190-196.2L-190-196.2c1.6,0,3.1,1.3,3.1,3.1v18.5
					c0,1.6-1.3,3.1-3.1,3.1l0,0c-1.6,0-3.1-1.3-3.1-3.1v-18.5C-193.2-194.7-191.9-196.2-190-196.2z"/>
				<path id="path3342_3_" inkscape:connector-curvature="0" fill="#FCB415" d="M-242.4-196.2h43c0.8,0,1.6,0.8,1.6,1.6v7.8
					c0,0.8-0.8,1.6-1.6,1.6h-43c-0.8,0-1.6-0.8-1.6-1.6v-7.8C-244-195.5-243.2-196.2-242.4-196.2z"/>
			</g>
		</g>
	</g>
</g>
</svg>
