<?xml version="1.0" encoding="utf-8"?>
<!-- Generator: Adobe Illustrator 18.1.0, SVG Export Plug-In . SVG Version: 6.00 Build 0)  -->
<svg version="1.1" id="Layer_1" xmlns="http://www.w3.org/2000/svg" xmlns:xlink="http://www.w3.org/1999/xlink" x="0px" y="0px"
	 viewBox="0 0 972 794.4" enable-background="new 0 0 972 794.4" xml:space="preserve">
<symbol  id="ui_x5F_dialog_x5F_light" viewBox="0 -360 360 360">
	<polygon fill="none" points="360,-360 0,-360 0,0 360,0 	"/>
	<g>
		<g>
			
				<image overflow="visible" opacity="0.22" width="236" height="236" xlink:href="1444CBC2B635C01C.png"  transform="matrix(1 0 0 -1 62 -77)">
			</image>
			<path fill="#FAFAFA" d="M280-278c0-1.1-0.9-2-2-2H82c-1.1,0-2,0.9-2,2v196c0,1.1,0.9,2,2,2h196c1.1,0,2-0.9,2-2V-278z"/>
		</g>
		<g>
			
				<image overflow="visible" opacity="0.3" width="314" height="314" xlink:href="1444CBC2B635C01B.png"  transform="matrix(1 0 0 -1 23 -42)">
			</image>
			<path fill="#FAFAFA" d="M280-278c0-1.1-0.9-2-2-2H82c-1.1,0-2,0.9-2,2v196c0,1.1,0.9,2,2,2h196c1.1,0,2-0.9,2-2V-278z"/>
		</g>
		<g opacity="4.000000e-02">
			<linearGradient id="SVGID_1_" gradientUnits="userSpaceOnUse" x1="180" y1="-280" x2="180" y2="-80">
				<stop  offset="0" style="stop-color:#000000"/>
				<stop  offset="4.000000e-02" style="stop-color:#000000;stop-opacity:0"/>
			</linearGradient>
			<path fill="url(#SVGID_1_)" d="M278-80.5c0.8,0,1.5-0.7,1.5-1.5v-196c0-0.8-0.7-1.5-1.5-1.5H82c-0.8,0-1.5,0.7-1.5,1.5v196
				c0,0.8,0.7,1.5,1.5,1.5H278 M278-80H82c-1.1,0-2-0.9-2-2v-196c0-1.1,0.9-2,2-2h196c1.1,0,2,0.9,2,2v196C280-80.9,279.1-80,278-80
				L278-80z"/>
		</g>
		<g opacity="0.8">
			<linearGradient id="SVGID_2_" gradientUnits="userSpaceOnUse" x1="180" y1="-280" x2="180" y2="-80">
				<stop  offset="0.8" style="stop-color:#FFFFFF;stop-opacity:0"/>
				<stop  offset="0.9725" style="stop-color:#FFFFFF;stop-opacity:0.8625"/>
				<stop  offset="1" style="stop-color:#FFFFFF"/>
			</linearGradient>
			<path fill="url(#SVGID_2_)" d="M278-80.5c0.8,0,1.5-0.7,1.5-1.5v-196c0-0.8-0.7-1.5-1.5-1.5H82c-0.8,0-1.5,0.7-1.5,1.5v196
				c0,0.8,0.7,1.5,1.5,1.5H278 M278-80H82c-1.1,0-2-0.9-2-2v-196c0-1.1,0.9-2,2-2h196c1.1,0,2,0.9,2,2v196C280-80.9,279.1-80,278-80
				L278-80z"/>
		</g>
	</g>
</symbol>
<g>
	
		<use xlink:href="#ui_x5F_dialog_x5F_light"  width="360" height="360" id="XMLID_181_" y="-360" transform="matrix(3.0148 0 0 -2.4667 -56.6811 -46.8141)" overflow="visible"/>
	<g>
		<line fill="none" stroke="#A5A5A5" stroke-width="2" stroke-miterlimit="10" x1="59.1" y1="278.8" x2="912.9" y2="278.8"/>
		<line fill="none" stroke="#A5A5A5" stroke-width="2" stroke-miterlimit="10" x1="59.1" y1="515.6" x2="912.9" y2="515.6"/>
		<g>
			<path fill="#2C3E50" d="M334.7,133.3h5.8c3.8,0,6.5,1.3,6.5,5.3c0,3.8-2.8,5.6-6.5,5.6h-2.7v6.3h-3.1V133.3z M340.2,141.7
				c2.6,0,3.8-1,3.8-3.1c0-2.2-1.3-2.9-3.8-2.9h-2.5v6H340.2z"/>
			<path fill="#2C3E50" d="M349.9,131.9h3v15.5c0,0.7,0.3,1,0.7,1c0.1,0,0.2,0,0.5-0.1l0.4,2.3c-0.4,0.2-0.9,0.3-1.6,0.3
				c-2.2,0-3-1.4-3-3.6V131.9z"/>
			<path fill="#2C3E50" d="M364.2,142.2c0-1.4-0.6-2.5-2.3-2.5c-1.3,0-2.5,0.6-3.6,1.3l-1.1-2c1.4-0.9,3.2-1.7,5.3-1.7
				c3.2,0,4.8,2,4.8,5.6v7.7h-2.5l-0.2-1.4h-0.1c-1.2,1-2.5,1.7-4,1.7c-2.3,0-3.9-1.5-3.9-3.8C356.5,144.3,358.9,142.8,364.2,142.2z
				 M361.3,148.5c1.1,0,1.9-0.5,2.8-1.4v-2.9c-3.5,0.4-4.7,1.4-4.7,2.7C359.5,148,360.3,148.5,361.3,148.5z"/>
			<path fill="#2C3E50" d="M371,147.1c1.2,0.9,2.3,1.5,3.6,1.5c1.4,0,2.1-0.7,2.1-1.6c0-1.1-1.4-1.6-2.8-2.1
				c-1.7-0.6-3.6-1.6-3.6-3.8c0-2.3,1.8-3.9,4.7-3.9c1.8,0,3.2,0.7,4.3,1.6l-1.4,1.8c-0.9-0.7-1.8-1.1-2.8-1.1
				c-1.3,0-1.9,0.6-1.9,1.4c0,1,1.3,1.4,2.7,1.9c1.8,0.7,3.7,1.5,3.7,3.9c0,2.2-1.8,4-5,4c-1.8,0-3.6-0.8-4.9-1.8L371,147.1z"/>
			<path fill="#2C3E50" d="M382.7,140h-1.8v-2.3l2-0.1l0.4-3.5h2.5v3.5h3.3v2.4h-3.3v6.2c0,1.5,0.6,2.3,1.8,2.3c0.4,0,1-0.1,1.3-0.3
				l0.5,2.2c-0.7,0.2-1.6,0.5-2.6,0.5c-3,0-4.1-1.9-4.1-4.7V140z"/>
			<path fill="#2C3E50" d="M391.4,133.6c0-1,0.8-1.7,1.9-1.7c1.1,0,1.9,0.7,1.9,1.7c0,1-0.8,1.7-1.9,1.7
				C392.2,135.3,391.4,134.6,391.4,133.6z M391.8,137.6h3v12.9h-3V137.6z"/>
			<path fill="#2C3E50" d="M404.3,137.3c1.7,0,2.9,0.7,3.8,1.5l-1.5,1.9c-0.7-0.6-1.4-0.9-2.2-0.9c-2.1,0-3.5,1.7-3.5,4.3
				c0,2.6,1.4,4.3,3.5,4.3c1.1,0,2-0.5,2.7-1.1l1.3,1.9c-1.2,1.1-2.8,1.7-4.2,1.7c-3.5,0-6.2-2.5-6.2-6.8
				C397.9,139.7,400.9,137.3,404.3,137.3z"/>
			<path fill="#2C3E50" d="M417.1,146.2c1.2,1.2,2.9,2,4.5,2c1.9,0,3-0.9,3-2.2c0-1.4-1.1-1.9-2.7-2.5l-2.3-1
				c-1.7-0.7-3.5-2.1-3.5-4.6c0-2.7,2.4-4.9,5.8-4.9c2,0,4,0.8,5.3,2.2l-1.6,2c-1.1-0.9-2.3-1.5-3.7-1.5c-1.6,0-2.7,0.8-2.7,2
				c0,1.3,1.3,1.8,2.7,2.4l2.3,1c2.1,0.9,3.5,2.2,3.5,4.7c0,2.8-2.3,5.1-6.2,5.1c-2.3,0-4.6-0.9-6.2-2.5L417.1,146.2z"/>
			<path fill="#2C3E50" d="M430.5,137.6h3v7.7c0,2.1,0.6,2.9,2,2.9c1.1,0,1.9-0.5,2.9-1.8v-8.9h3v12.9h-2.5l-0.2-1.9h-0.1
				c-1.1,1.3-2.4,2.2-4.2,2.2c-2.8,0-4-1.9-4-5.1V137.6z"/>
			<path fill="#2C3E50" d="M445.3,137.6h2.5l0.2,2.3h0.1c0.9-1.7,2.3-2.6,3.7-2.6c0.7,0,1.1,0.1,1.5,0.3l-0.5,2.6
				c-0.4-0.1-0.8-0.2-1.3-0.2c-1,0-2.3,0.7-3.1,2.7v7.9h-3V137.6z"/>
			<path fill="#2C3E50" d="M455.8,150.1V150c-0.7-0.4-1.2-1.1-1.2-2.2c0-1,0.7-1.9,1.4-2.4v-0.1c-0.9-0.7-1.7-1.9-1.7-3.4
				c0-3,2.4-4.6,5.1-4.6c0.7,0,1.4,0.1,1.9,0.3h4.6v2.2h-2.4c0.4,0.5,0.7,1.3,0.7,2.2c0,2.9-2.2,4.4-4.9,4.4c-0.6,0-1.2-0.1-1.8-0.3
				c-0.4,0.3-0.6,0.7-0.6,1.2c0,0.7,0.5,1.2,2.1,1.2h2.3c3.1,0,4.7,0.9,4.7,3.2c0,2.6-2.7,4.6-6.9,4.6c-3.1,0-5.4-1.1-5.4-3.4
				C454,151.8,454.6,150.8,455.8,150.1z M459.8,154.3c2.1,0,3.5-1,3.5-2.1c0-1-0.8-1.3-2.3-1.3h-1.8c-0.7,0-1.3-0.1-1.8-0.2
				c-0.7,0.5-1,1.1-1,1.7C456.5,153.6,457.8,154.3,459.8,154.3z M461.8,141.9c0-1.6-1-2.6-2.2-2.6c-1.3,0-2.3,0.9-2.3,2.6
				c0,1.7,1,2.6,2.3,2.6C460.8,144.5,461.8,143.6,461.8,141.9z"/>
			<path fill="#2C3E50" d="M473.3,137.3c3.5,0,5.4,2.5,5.4,6.1c0,0.6-0.1,1.1-0.1,1.4h-8.2c0.3,2.3,1.7,3.7,3.8,3.7
				c1.1,0,2.1-0.3,3-1l1,1.9c-1.2,0.8-2.8,1.4-4.4,1.4c-3.6,0-6.4-2.5-6.4-6.8C467.3,139.8,470.2,137.3,473.3,137.3z M476,142.9
				c0-2.1-0.9-3.3-2.6-3.3c-1.5,0-2.8,1.1-3.1,3.3H476z"/>
			<path fill="#2C3E50" d="M481.5,137.6h2.5l0.2,2.3h0.1c0.9-1.7,2.3-2.6,3.7-2.6c0.7,0,1.1,0.1,1.5,0.3l-0.5,2.6
				c-0.4-0.1-0.8-0.2-1.3-0.2c-1,0-2.3,0.7-3.1,2.7v7.9h-3V137.6z"/>
			<path fill="#2C3E50" d="M492.3,153.4c1.4,0,2.2-0.9,2.6-2.2l0.2-0.8l-5.1-12.8h3.1l2.2,6.4c0.4,1.1,0.7,2.4,1.1,3.6h0.1
				c0.3-1.2,0.7-2.5,1-3.6l2-6.4h2.9l-4.7,13.5c-1.1,2.9-2.4,4.7-5.2,4.7c-0.7,0-1.2-0.1-1.7-0.3l0.6-2.4
				C491.7,153.3,492,153.4,492.3,153.4z"/>
			<path fill="#80878D" d="M341.3,164.5c2,0,3.6,1,4.5,2.1l-0.7,0.8c-0.9-1.1-2.2-1.8-3.8-1.8c-3.8,0-6.2,3-6.2,7.9
				c0,4.8,2.3,7.9,6.1,7.9c1.8,0,3.1-0.7,4.4-2.1l0.7,0.8c-1.3,1.5-2.9,2.5-5.2,2.5c-4.3,0-7.3-3.5-7.3-9
				C333.8,167.9,336.9,164.5,341.3,164.5z"/>
			<path fill="#80878D" d="M349.6,163.2h1.2v5.5v2.8c1.3-1.3,2.6-2.3,4.4-2.3c2.6,0,3.8,1.6,3.8,4.9v8.1h-1.2v-8c0-2.7-0.8-4-2.9-4
				c-1.5,0-2.6,0.8-4.1,2.4v9.5h-1.2V163.2z"/>
			<path fill="#80878D" d="M363.1,165.4c0-0.7,0.5-1.1,1.1-1.1s1.1,0.4,1.1,1.1c0,0.6-0.5,1-1.1,1S363.1,166.1,363.1,165.4z
				 M363.6,169.5h1.2v12.7h-1.2V169.5z"/>
			<path fill="#80878D" d="M374.3,169.2c1.7,0,2.9,0.8,3.7,1.6l-0.7,0.8c-0.8-0.8-1.8-1.3-3-1.3c-2.6,0-4.6,2.3-4.6,5.6
				c0,3.3,1.8,5.6,4.6,5.6c1.3,0,2.5-0.7,3.4-1.4l0.6,0.8c-1.1,1-2.4,1.7-4,1.7c-3.3,0-5.8-2.4-5.8-6.6
				C368.5,171.6,371.2,169.2,374.3,169.2z"/>
			<path fill="#80878D" d="M388.6,174.3c0.1-1.9-0.5-4-3-4c-1.7,0-3.2,0.8-4,1.5l-0.5-0.9c0.9-0.6,2.6-1.6,4.7-1.6c3,0,4,2.2,4,4.9
				v8.1h-1l-0.1-1.6h-0.1c-1.3,1-2.8,2-4.5,2c-2,0-3.7-1.1-3.7-3.5C380.5,176.2,383,174.9,388.6,174.3z M384.3,181.5
				c1.5,0,2.7-0.7,4.3-2.1v-4.3c-5.2,0.6-7,1.8-7,3.8C381.7,180.8,382.9,181.5,384.3,181.5z"/>
			<path fill="#80878D" d="M395.2,181.7v-0.1c-0.6-0.4-1.1-1.1-1.1-2c0-1.1,0.8-1.9,1.4-2.3v-0.1c-0.8-0.7-1.6-2-1.6-3.5
				c0-2.6,2-4.5,4.5-4.5c0.7,0,1.3,0.2,1.7,0.3h4.3v1h-3c0.8,0.7,1.4,1.8,1.4,3.2c0,2.6-1.9,4.5-4.4,4.5c-0.7,0-1.5-0.2-2.1-0.5
				c-0.6,0.4-1,1-1,1.8c0,0.9,0.5,1.7,2.4,1.7h2.7c2.8,0,4.2,0.9,4.2,2.9c0,2.2-2.3,4.3-6,4.3c-3.2,0-5.2-1.4-5.2-3.5
				C393.3,183.7,394,182.6,395.2,181.7z M398.6,187.3c2.8,0,4.7-1.6,4.7-3.2c0-1.4-1-1.9-2.9-1.9h-2.7c-0.3,0-0.9-0.1-1.6-0.2
				c-1.2,0.8-1.7,1.8-1.7,2.7C394.4,186.3,395.9,187.3,398.6,187.3z M401.6,173.7c0-2.1-1.5-3.5-3.3-3.5c-1.8,0-3.3,1.3-3.3,3.5
				c0,2.1,1.5,3.6,3.3,3.6C400,177.2,401.6,175.8,401.6,173.7z"/>
			<path fill="#80878D" d="M411.5,169.2c3.1,0,5.7,2.4,5.7,6.7c0,4.2-2.6,6.6-5.7,6.6c-3,0-5.7-2.4-5.7-6.6
				C405.9,171.6,408.5,169.2,411.5,169.2z M411.5,181.5c2.6,0,4.5-2.3,4.5-5.6c0-3.3-1.9-5.6-4.5-5.6c-2.6,0-4.5,2.3-4.5,5.6
				C407.1,179.2,409,181.5,411.5,181.5z"/>
			<path fill="#80878D" d="M419.6,185.5c1.2-0.6,2-1.7,2-3.2c-0.1,0-0.2,0-0.3,0c-0.6,0-1.1-0.4-1.1-1.1s0.6-1.1,1.1-1.1
				c0.8,0,1.3,0.7,1.3,1.9c0,1.9-1.1,3.5-2.7,4.3L419.6,185.5z"/>
			<path fill="#80878D" d="M431.8,164.8h1.2v17.4h-1.2V164.8z"/>
			<path fill="#80878D" d="M438,164.8h1.2v16.3h8v1.1H438V164.8z"/>
			<path fill="#80878D" d="M455.4,162.4h0.9v26.4h-0.9V162.4z"/>
			<path fill="#80878D" d="M474,167.6c-1-1-1.8-1.6-3.4-1.6c-1.8,0-3.1,1.3-3.1,3c0,4.6,7.6,3.1,7.6,9.1c0,2.5-1.7,4.1-4.1,4.3v2.6
				h-1v-2.6c-1.8-0.1-3.4-1.1-4.4-2l0.6-0.8c1,0.9,2.4,1.8,4.2,1.8c2.2,0,3.4-1.3,3.4-3.2c0-5.2-7.6-3.7-7.6-9.1
				c0-2.2,1.6-3.8,3.7-4.1v-2.6h1v2.6c1.7,0.1,2.7,0.9,3.6,1.8L474,167.6z"/>
			<path fill="#80878D" d="M479,181.2h4v-14h-3v-0.8c1.4-0.2,2.5-0.6,3.2-1.1h0.9v15.8h3.7v1H479V181.2z"/>
			<path fill="#80878D" d="M490.7,173.7c0-5.6,1.8-8.7,5-8.7c3.2,0,5,3.1,5,8.7c0,5.6-1.8,8.8-5,8.8
				C492.5,182.5,490.7,179.3,490.7,173.7z M499.5,173.7c0-5.1-1.5-7.7-3.8-7.7c-2.3,0-3.8,2.5-3.8,7.7c0,5.1,1.5,7.8,3.8,7.8
				C498,181.5,499.5,178.8,499.5,173.7z"/>
			<path fill="#80878D" d="M503.3,173.7c0-5.6,1.8-8.7,5-8.7s5,3.1,5,8.7c0,5.6-1.8,8.8-5,8.8S503.3,179.3,503.3,173.7z
				 M512.2,173.7c0-5.1-1.5-7.7-3.8-7.7c-2.3,0-3.8,2.5-3.8,7.7c0,5.1,1.5,7.8,3.8,7.8C510.7,181.5,512.2,178.8,512.2,173.7z"/>
			<path fill="#80878D" d="M517.1,163.2h1.2v14h0.1l6.2-7.7h1.3l-4.1,5l4.8,7.6h-1.3l-4.2-6.8l-2.8,3.3v3.5h-1.2V163.2z"/>
			<path fill="#80878D" d="M533.2,175.1h5.8v1h-5.8V175.1z"/>
			<path fill="#80878D" d="M555.2,167.6c-1-1-1.8-1.6-3.4-1.6c-1.8,0-3.1,1.3-3.1,3c0,4.6,7.6,3.1,7.6,9.1c0,2.5-1.7,4.1-4.1,4.3
				v2.6h-1v-2.6c-1.8-0.1-3.4-1.1-4.4-2l0.6-0.8c1,0.9,2.4,1.8,4.2,1.8c2.2,0,3.4-1.3,3.4-3.2c0-5.2-7.6-3.7-7.6-9.1
				c0-2.2,1.6-3.8,3.7-4.1v-2.6h1v2.6c1.7,0.1,2.7,0.9,3.6,1.8L555.2,167.6z"/>
			<path fill="#80878D" d="M560.2,181.2h4v-14h-3v-0.8c1.4-0.2,2.5-0.6,3.2-1.1h0.9v15.8h3.7v1h-8.8V181.2z"/>
			<path fill="#80878D" d="M571.9,179.4c1,1,2.3,2.1,4.6,2.1c2.2,0,4.2-1.8,4.2-4.5s-1.6-4.4-4.1-4.4c-1.3,0-2.1,0.4-3.1,1.1
				l-0.8-0.5l0.6-7.9h7.8v1h-6.7l-0.5,6.1c0.9-0.5,1.8-0.9,3-0.9c2.8,0,5.1,1.6,5.1,5.3c0,3.6-2.7,5.6-5.4,5.6
				c-2.7,0-4.2-1.2-5.3-2.3L571.9,179.4z"/>
			<path fill="#80878D" d="M584.5,173.7c0-5.6,1.8-8.7,5-8.7c3.2,0,5,3.1,5,8.7c0,5.6-1.8,8.8-5,8.8
				C586.3,182.5,584.5,179.3,584.5,173.7z M593.4,173.7c0-5.1-1.5-7.7-3.8-7.7c-2.3,0-3.8,2.5-3.8,7.7c0,5.1,1.5,7.8,3.8,7.8
				C591.9,181.5,593.4,178.8,593.4,173.7z"/>
			<path fill="#80878D" d="M598.3,163.2h1.2v14h0.1l6.2-7.7h1.3l-4.1,5l4.8,7.6h-1.3l-4.2-6.8l-2.8,3.3v3.5h-1.2V163.2z"/>
		</g>
		<polygon fill-rule="evenodd" clip-rule="evenodd" fill="#80878D" points="894.3,172 908.7,157.7 894.3,143.3 890.2,147.4 
			900.5,157.7 890.2,167.9 		"/>
		<g>
			<g>
				<path fill="#D35B5C" d="M783,170.2c0-25.8,20.9-46.7,46.7-46.7c9.4,0,18.2,2.8,25.5,7.6c-4-17-19.2-29.8-37.5-29.8
					c-10.9,0-20.7,4.5-27.7,11.7c-7-7.2-16.8-11.7-27.7-11.7c-21.3,0-38.5,17.2-38.5,38.5c0,9.5,3.4,18.1,9.1,24.8l1.1,1.3
					c1,1.1,51.9,49.7,56,53.6c1.1-1.1,5.8-5.6,12-11.5C790.5,199.4,783,185.7,783,170.2z"/>
			</g>
			<g>
				<g>
					<g>
						<path fill="#80868D" d="M864.7,170.2c0,0,0-0.9-0.1-2.5c0-0.4,0-0.9-0.1-1.4c-0.1-0.5-0.2-1-0.3-1.6c-0.1-0.6-0.2-1.2-0.3-1.9
							c-0.2-0.7-0.4-1.4-0.5-2.1c-0.8-2.9-2.1-6.5-4.5-10.1c-2.4-3.6-5.7-7.2-10-10.2c-4.4-2.9-9.8-5.1-15.8-5.8
							c-0.7-0.1-1.5-0.1-2.3-0.2c-0.8,0-1.5-0.1-2.3-0.1c-1.5,0.1-3.1,0.1-4.7,0.4c-3.2,0.4-6.3,1.4-9.3,2.7
							c-0.7,0.4-1.5,0.7-2.2,1.1c-0.7,0.4-1.4,0.9-2.2,1.3l-1.1,0.6l-1,0.8c-0.7,0.5-1.4,1-2,1.5c-2.6,2.2-4.9,4.8-6.8,7.6
							c-1.9,2.9-3.4,6.1-4.4,9.4c-1,3.4-1.4,6.9-1.5,10.4c0.1,3.5,0.5,7,1.5,10.4c1.1,3.3,2.5,6.5,4.4,9.4c2,2.8,4.2,5.4,6.8,7.6
							c0.6,0.6,1.3,1,2,1.5l1,0.8l1.1,0.6c0.7,0.4,1.4,0.9,2.2,1.3c0.7,0.4,1.5,0.7,2.2,1.1c3,1.3,6.1,2.3,9.3,2.7
							c1.6,0.3,3.1,0.3,4.7,0.4c0.8,0.1,1.5-0.1,2.3-0.1c0.8-0.1,1.5,0,2.3-0.2c6-0.7,11.4-2.9,15.8-5.8c4.4-2.9,7.7-6.6,10-10.2
							c2.4-3.6,3.7-7.1,4.5-10.1c0.2-0.7,0.4-1.4,0.5-2.1c0.1-0.7,0.2-1.3,0.3-1.9c0.1-0.6,0.2-1.1,0.3-1.6c0.1-0.5,0.1-1,0.1-1.4
							C864.6,171,864.7,170.2,864.7,170.2h7.2c0,0-0.1,1.1-0.1,3c0,0.5,0,1-0.1,1.6c-0.1,0.6-0.2,1.3-0.3,2
							c-0.1,0.7-0.2,1.5-0.4,2.3c-0.2,0.8-0.4,1.6-0.6,2.5c-1,3.5-2.6,7.8-5.4,12.1c-2.8,4.3-6.8,8.7-12,12.2
							c-5.3,3.5-11.8,6.1-19,6.9c-0.9,0.1-1.8,0.1-2.7,0.2c-0.9,0-1.8,0.1-2.8,0.1c-1.9-0.1-3.7-0.1-5.6-0.5
							c-3.8-0.5-7.5-1.7-11.2-3.2c-0.9-0.4-1.8-0.9-2.7-1.3c-0.9-0.4-1.7-1-2.6-1.5l-1.3-0.8c-0.4-0.3-0.8-0.6-1.2-0.9
							c-0.8-0.6-1.6-1.2-2.4-1.8c-3.1-2.6-5.8-5.7-8.2-9.2c-2.3-3.5-4-7.3-5.3-11.3c-1.2-4-1.8-8.2-1.8-12.4
							c0.1-4.2,0.6-8.4,1.8-12.4c1.3-4,3-7.8,5.3-11.3c2.3-3.4,5.1-6.5,8.2-9.2c0.8-0.7,1.6-1.2,2.4-1.8c0.4-0.3,0.8-0.6,1.2-0.9
							l1.3-0.8c0.9-0.5,1.7-1.1,2.6-1.5c0.9-0.4,1.8-0.9,2.7-1.3c3.6-1.5,7.4-2.7,11.2-3.2c1.9-0.4,3.8-0.4,5.6-0.5
							c0.9-0.1,1.8,0.1,2.8,0.1c0.9,0.1,1.8,0.1,2.7,0.2c7.2,0.9,13.7,3.5,19,6.9c5.3,3.5,9.2,7.9,12,12.2c2.9,4.3,4.4,8.5,5.4,12.1
							c0.2,0.9,0.4,1.7,0.6,2.5c0.2,0.8,0.3,1.6,0.4,2.3c0.1,0.7,0.2,1.4,0.3,2c0.1,0.6,0.1,1.2,0.1,1.6c0.1,2,0.1,3,0.1,3H864.7z"
							/>
						<path fill="#D25C59" d="M853.4,144.1c0,0-0.6-0.5-1.6-1.5c-1.1-0.9-2.8-2.2-5.1-3.5c-0.6-0.4-1.2-0.7-1.9-1
							c-0.7-0.3-1.4-0.7-2.1-1c-1.5-0.5-3.1-1.2-4.9-1.6c-3.6-0.9-7.8-1.4-12.4-1c-4.6,0.5-9.4,1.8-14,4.5
							c-4.6,2.6-8.8,6.4-12.1,11.1c-3.2,4.8-5.3,10.4-6,16.4c-0.5,6,0.3,12.2,2.8,17.8c4.8,11.3,15.8,19.5,27.2,21.1
							c5.7,0.9,11.3,0.4,16.3-1.1c5-1.6,9.4-4.2,12.8-7.2c3.5-3,6-6.4,7.8-9.7c0.5-0.8,0.8-1.6,1.2-2.4c0.4-0.8,0.7-1.6,1-2.3
							c0.3-0.8,0.6-1.5,0.8-2.2c0.2-0.7,0.4-1.4,0.5-2c0.4-1.3,0.5-2.5,0.7-3.5c0.2-1,0.2-1.9,0.3-2.6c0.1-1.4,0.1-2.2,0.1-2.2h7.2
							c0,0,0,0.9-0.1,2.6c0,0.9-0.1,1.9-0.3,3.1c-0.2,1.2-0.3,2.7-0.8,4.2c-0.2,0.8-0.4,1.6-0.6,2.5c-0.2,0.9-0.6,1.7-0.9,2.6
							c-0.3,0.9-0.7,1.9-1.2,2.8c-0.5,0.9-0.9,1.9-1.4,2.9c-2.2,3.9-5.3,8-9.4,11.6c-4.1,3.6-9.3,6.7-15.4,8.6
							c-6,1.9-12.8,2.4-19.6,1.4c-3.4-0.5-6.8-1.6-10.1-2.8c-0.8-0.4-1.6-0.8-2.4-1.2l-1.2-0.6l-1.1-0.7c-0.8-0.5-1.5-0.9-2.3-1.4
							c-0.7-0.5-1.4-1.1-2.2-1.6c-5.8-4.3-10.4-10.3-13.4-17c-2.9-6.7-4-14.2-3.3-21.4c0.8-7.2,3.3-14,7.2-19.7
							c3.9-5.7,9-10.2,14.5-13.3c5.5-3.1,11.3-4.8,16.8-5.3c5.5-0.5,10.6,0.1,14.9,1.2c2.2,0.5,4.1,1.3,5.9,1.9
							c0.9,0.4,1.7,0.8,2.5,1.2c0.8,0.4,1.6,0.7,2.2,1.2c2.8,1.6,4.8,3.2,6.1,4.2c1.3,1.2,2,1.8,2,1.8L853.4,144.1z"/>
					</g>
				</g>
			</g>
			<text transform="matrix(1 0 0 1 804.7653 178.02)" fill="#2C3E50" font-family="'Museo-500'" font-size="25.6521">87%</text>
		</g>
		<g>
			<circle fill="#E6E8E9" cx="137.7" cy="160.3" r="65.4"/>
			<circle fill="none" stroke="#CE5B5C" stroke-width="2" stroke-miterlimit="10" cx="137.7" cy="160.3" r="58.9"/>
			<g>
				<g>
					<path id="path3334_6_" inkscape:connector-curvature="0" fill="#CE5B5C" d="M105.5,172.7h11.3c0,0.8,0.8,1.7,1.7,1.7h48.9
						c0.8,0,1.7-0.8,1.7-1.7h1.7v3.3h-65.3L105.5,172.7z"/>
					<path id="path3336_6_" inkscape:connector-curvature="0" fill="#CE5B5C" d="M105.5,164.4h11.3v6.6h-11.3V164.4z M169.1,164.4
						h1.7v6.6h-1.7V164.4z"/>
					<path id="path3338_6_" inkscape:connector-curvature="0" fill="#CE5B5C" d="M100.8,148.1L100.8,148.1c1.7,0,3.3,1.4,3.3,3.3
						V184c0,1.7-1.4,3.3-3.3,3.3l0,0c-1.7,0-3.3-1.4-3.3-3.3v-32.6C97.4,149.7,98.8,148.1,100.8,148.1z"/>
					<path id="path3340_6_" inkscape:connector-curvature="0" fill="#CE5B5C" d="M175.7,161.4L175.7,161.4c1.7,0,3.3,1.4,3.3,3.3
						v19.6c0,1.7-1.4,3.3-3.3,3.3l0,0c-1.7,0-3.3-1.4-3.3-3.3v-19.6C172.4,163,173.8,161.4,175.7,161.4z"/>
					<path id="path3342_6_" inkscape:connector-curvature="0" fill="#CE5B5C" d="M120.1,161.4h45.6c0.8,0,1.7,0.8,1.7,1.7v8.3
						c0,0.8-0.8,1.7-1.7,1.7h-45.6c-0.8,0-1.7-0.8-1.7-1.7V163C118.5,162.2,119.3,161.4,120.1,161.4z"/>
				</g>
				<g>
					<g>
						<path fill="#CE5B5C" d="M113.4,147.5h3.6v-9.4c0-0.6,0-1.1,0-1.1h0c0,0-0.2,0.4-0.7,0.9l-1.3,1.3l-1.8-1.9l4.2-4h2.7v14.2h3.6
							v2.5h-10.2V147.5z"/>
						<path fill="#CE5B5C" d="M125.4,141.6c0-4.8,1.5-8.6,6.1-8.6c4.6,0,6,3.8,6,8.6c0,4.8-1.5,8.7-6,8.7
							C126.9,150.3,125.4,146.4,125.4,141.6z M134.4,141.6c0-3.3-0.7-5.9-2.9-5.9c-2.3,0-2.9,2.6-2.9,5.9c0,3.3,0.6,6,2.9,6
							C133.8,147.6,134.4,145,134.4,141.6z"/>
						<path fill="#CE5B5C" d="M140.1,141.6c0-4.8,1.5-8.6,6.1-8.6c4.6,0,6,3.8,6,8.6c0,4.8-1.5,8.7-6,8.7
							C141.6,150.3,140.1,146.4,140.1,141.6z M149.1,141.6c0-3.3-0.7-5.9-2.9-5.9c-2.3,0-2.9,2.6-2.9,5.9c0,3.3,0.6,6,2.9,6
							C148.4,147.6,149.1,145,149.1,141.6z"/>
					</g>
					<path fill="#CE5B5C" d="M155,140.5h5.1v-5.6h2.4v5.6h5.1v2.3h-5.1v5.6h-2.4v-5.6H155V140.5z"/>
				</g>
			</g>
		</g>
		<g>
			<g>
				<g>
					<path fill="#80868D" d="M864.7,408c0,0,0-0.9-0.1-2.5c0-0.4,0-0.9-0.1-1.4c-0.1-0.5-0.2-1-0.3-1.6c-0.1-0.6-0.2-1.2-0.3-1.9
						c-0.2-0.7-0.4-1.4-0.5-2.1c-0.8-2.9-2.1-6.5-4.5-10.1c-2.4-3.6-5.7-7.2-10-10.2c-4.4-2.9-9.8-5.1-15.8-5.8
						c-0.7-0.1-1.5-0.1-2.3-0.2c-0.8,0-1.5-0.1-2.3-0.1c-1.5,0.1-3.1,0.1-4.7,0.4c-3.2,0.4-6.3,1.4-9.3,2.7
						c-0.7,0.4-1.5,0.7-2.2,1.1c-0.7,0.4-1.4,0.9-2.2,1.3l-1.1,0.6l-1,0.8c-0.7,0.5-1.4,1-2,1.5c-2.6,2.2-4.9,4.8-6.8,7.6
						c-1.9,2.9-3.4,6.1-4.4,9.4c-1,3.4-1.4,6.9-1.5,10.4c0.1,3.5,0.5,7,1.5,10.4c1.1,3.3,2.5,6.5,4.4,9.4c2,2.8,4.2,5.4,6.8,7.6
						c0.6,0.6,1.3,1,2,1.5l1,0.8l1.1,0.6c0.7,0.4,1.4,0.9,2.2,1.3c0.7,0.4,1.5,0.7,2.2,1.1c3,1.3,6.1,2.3,9.3,2.7
						c1.6,0.3,3.1,0.3,4.7,0.4c0.8,0.1,1.5-0.1,2.3-0.1c0.8-0.1,1.5,0,2.3-0.2c6-0.7,11.4-2.9,15.8-5.8c4.4-2.9,7.7-6.6,10-10.2
						c2.4-3.6,3.7-7.1,4.5-10.1c0.2-0.7,0.4-1.4,0.5-2.1c0.1-0.7,0.2-1.3,0.3-1.9c0.1-0.6,0.2-1.1,0.3-1.6c0.1-0.5,0.1-1,0.1-1.4
						C864.6,408.9,864.7,408,864.7,408h7.2c0,0-0.1,1.1-0.1,3c0,0.5,0,1-0.1,1.6c-0.1,0.6-0.2,1.3-0.3,2c-0.1,0.7-0.2,1.5-0.4,2.3
						c-0.2,0.8-0.4,1.6-0.6,2.5c-1,3.5-2.6,7.8-5.4,12.1c-2.8,4.3-6.8,8.7-12,12.2c-5.3,3.5-11.8,6.1-19,6.9
						c-0.9,0.1-1.8,0.1-2.7,0.2c-0.9,0-1.8,0.1-2.8,0.1c-1.9-0.1-3.7-0.1-5.6-0.5c-3.8-0.5-7.5-1.7-11.2-3.2
						c-0.9-0.4-1.8-0.9-2.7-1.3c-0.9-0.4-1.7-1-2.6-1.5l-1.3-0.8c-0.4-0.3-0.8-0.6-1.2-0.9c-0.8-0.6-1.6-1.2-2.4-1.8
						c-3.1-2.6-5.8-5.7-8.2-9.2c-2.3-3.5-4-7.3-5.3-11.3c-1.2-4-1.8-8.2-1.8-12.4c0.1-4.2,0.6-8.4,1.8-12.4c1.3-4,3-7.8,5.3-11.3
						c2.3-3.4,5.1-6.5,8.2-9.2c0.8-0.7,1.6-1.2,2.4-1.8c0.4-0.3,0.8-0.6,1.2-0.9l1.3-0.8c0.9-0.5,1.7-1.1,2.6-1.5
						c0.9-0.4,1.8-0.9,2.7-1.3c3.6-1.5,7.4-2.7,11.2-3.2c1.9-0.4,3.8-0.4,5.6-0.5c0.9-0.1,1.8,0.1,2.8,0.1c0.9,0.1,1.8,0.1,2.7,0.2
						c7.2,0.9,13.7,3.5,19,6.9c5.3,3.5,9.2,7.9,12,12.2c2.9,4.3,4.4,8.5,5.4,12.1c0.2,0.9,0.4,1.7,0.6,2.5c0.2,0.8,0.3,1.6,0.4,2.3
						c0.1,0.7,0.2,1.4,0.3,2c0.1,0.6,0.1,1.2,0.1,1.6c0.1,2,0.1,3,0.1,3H864.7z"/>
					<path fill="#EB7F00" d="M828.9,372.2c0,0-0.7,0-1.9,0.1c-0.6,0.1-1.4,0-2.3,0.2c-0.9,0.1-1.9,0.3-3,0.5c-1.1,0.3-2.4,0.6-3.7,1
						c-0.7,0.2-1.3,0.5-2,0.7c-0.4,0.1-0.7,0.3-1.1,0.4c-0.3,0.2-0.7,0.3-1.1,0.5c-2.9,1.3-6,3.3-8.9,5.9c-2.9,2.6-5.7,6-7.8,10
						c-2.1,4-3.5,8.7-3.9,13.6c-0.4,4.9,0.2,10.1,2,15c1.8,4.9,4.6,9.4,8.3,13.2c3.8,3.7,8.3,6.6,13.2,8.3c4.9,1.8,10,2.4,15,2
						c4.9-0.4,9.6-1.8,13.6-3.9c4-2.1,7.4-4.8,10-7.8c2.6-2.9,4.7-6,5.9-8.9c0.2-0.4,0.3-0.7,0.5-1.1c0.1-0.4,0.3-0.7,0.4-1.1
						c0.3-0.7,0.5-1.4,0.7-2c0.4-1.3,0.7-2.6,1-3.7c0.2-1.1,0.3-2.2,0.5-3c0.2-0.9,0.1-1.7,0.2-2.3c0.1-1.2,0.1-1.9,0.1-1.9h7.2
						c0,0,0,0.8-0.1,2.3c-0.1,0.7,0,1.7-0.2,2.7c-0.2,1.1-0.3,2.3-0.6,3.6c-0.3,1.3-0.7,2.8-1.2,4.4c-0.3,0.8-0.6,1.6-0.9,2.4
						c-0.2,0.4-0.3,0.9-0.5,1.3c-0.2,0.4-0.4,0.8-0.6,1.3c-1.6,3.5-4,7.2-7.1,10.7c-3.2,3.5-7.2,6.8-12,9.3
						c-4.8,2.5-10.4,4.2-16.3,4.7c-5.9,0.5-12.1-0.3-18-2.4c-5.9-2.1-11.3-5.6-15.8-10c-4.4-4.5-7.9-10-10-15.8
						c-2.1-5.9-2.9-12.1-2.4-18c0.5-5.9,2.2-11.5,4.7-16.3c2.5-4.8,5.8-8.9,9.3-12c3.5-3.2,7.2-5.6,10.7-7.1
						c0.4-0.2,0.9-0.4,1.3-0.6c0.4-0.2,0.9-0.3,1.3-0.5c0.8-0.3,1.7-0.6,2.4-0.9c1.6-0.5,3.1-0.8,4.4-1.2c1.4-0.2,2.6-0.4,3.7-0.6
						c1.1-0.2,2-0.1,2.7-0.2c1.5-0.1,2.3-0.1,2.3-0.1V372.2z"/>
				</g>
			</g>
		</g>
		<text transform="matrix(1 0 0 1 804.7653 414.8872)" fill="#2C3E50" font-family="'Museo-500'" font-size="25.6521">75%</text>
		<polygon fill-rule="evenodd" clip-rule="evenodd" fill="#80878D" points="894.3,411.6 908.7,397.2 894.3,382.8 890.2,386.9 
			900.5,397.2 890.2,407.4 		"/>
		<g>
			<path fill="#2C3E50" d="M334.7,370.1h3.1v17.2h-3.1V370.1z"/>
			<path fill="#2C3E50" d="M341.8,374.4h2.5l0.2,1.7h0.1c1.2-1.1,2.5-2.1,4.2-2.1c2.8,0,4,1.9,4,5.1v8.1h-3v-7.7
				c0-2.1-0.6-2.9-2-2.9c-1.1,0-1.9,0.6-3,1.6v9h-3V374.4z"/>
			<path fill="#2C3E50" d="M357,376.8h-1.8v-2.3l2-0.1l0.4-3.5h2.5v3.5h3.3v2.4h-3.3v6.2c0,1.5,0.6,2.3,1.8,2.3c0.4,0,1-0.1,1.3-0.3
				l0.5,2.2c-0.7,0.2-1.6,0.5-2.6,0.5c-3,0-4.1-1.9-4.1-4.7V376.8z"/>
			<path fill="#2C3E50" d="M370.9,374.1c3.5,0,5.4,2.5,5.4,6.1c0,0.6-0.1,1.1-0.1,1.4h-8.2c0.3,2.3,1.7,3.7,3.8,3.7
				c1.1,0,2.1-0.3,3-0.9l1,1.9c-1.2,0.8-2.8,1.4-4.4,1.4c-3.6,0-6.4-2.5-6.4-6.8C365,376.7,367.9,374.1,370.9,374.1z M373.7,379.8
				c0-2.1-0.9-3.3-2.6-3.3c-1.5,0-2.8,1.1-3.1,3.3H373.7z"/>
			<path fill="#2C3E50" d="M379.2,374.4h2.5l0.2,2.3h0.1c0.9-1.7,2.3-2.6,3.7-2.6c0.7,0,1.1,0.1,1.5,0.3l-0.5,2.6
				c-0.4-0.1-0.8-0.2-1.3-0.2c-1,0-2.3,0.7-3.1,2.7v7.9h-3V374.4z"/>
			<path fill="#2C3E50" d="M389,374.4h2.5l0.2,1.7h0.1c1.2-1.1,2.5-2.1,4.2-2.1c2.8,0,4,1.9,4,5.1v8.1h-3v-7.7c0-2.1-0.6-2.9-2-2.9
				c-1.1,0-1.9,0.6-3,1.6v9h-3V374.4z"/>
			<path fill="#2C3E50" d="M410.9,379.1c0-1.4-0.6-2.5-2.3-2.5c-1.3,0-2.5,0.6-3.6,1.3l-1.1-2c1.4-0.9,3.2-1.7,5.3-1.7
				c3.2,0,4.8,2,4.8,5.6v7.7h-2.5l-0.2-1.4h-0.1c-1.2,1-2.5,1.7-4,1.7c-2.3,0-3.9-1.5-3.9-3.8C403.3,381.1,405.6,379.7,410.9,379.1z
				 M408.1,385.3c1.1,0,1.9-0.5,2.8-1.4V381c-3.5,0.4-4.7,1.4-4.7,2.7C406.2,384.8,407,385.3,408.1,385.3z"/>
			<path fill="#2C3E50" d="M417.6,368.8h3v15.5c0,0.7,0.3,1,0.7,1c0.1,0,0.2,0,0.5-0.1l0.4,2.3c-0.4,0.2-0.9,0.3-1.6,0.3
				c-2.2,0-3-1.4-3-3.6V368.8z"/>
			<path fill="#2C3E50" d="M430.4,370.1h3.3l3.1,8.5l1.1,3.3h0.1l1.1-3.3l3-8.5h3.4v17.2h-2.9v-7.9c0-1.6,0.2-3.9,0.4-5.5h-0.1
				l-1.4,3.9l-3,7.8h-1.4l-3-7.8l-1.4-3.9h-0.1c0.1,1.6,0.4,3.9,0.4,5.5v7.9h-2.8V370.1z"/>
			<path fill="#2C3E50" d="M454.9,374.1c3.5,0,5.4,2.5,5.4,6.1c0,0.6-0.1,1.1-0.1,1.4h-8.2c0.3,2.3,1.7,3.7,3.8,3.7
				c1.1,0,2.1-0.3,3-0.9l1,1.9c-1.2,0.8-2.8,1.4-4.4,1.4c-3.6,0-6.4-2.5-6.4-6.8C448.9,376.7,451.8,374.1,454.9,374.1z M457.6,379.8
				c0-2.1-0.9-3.3-2.6-3.3c-1.5,0-2.8,1.1-3.1,3.3H457.6z"/>
			<path fill="#2C3E50" d="M467.8,374.1c1.5,0,2.4,0.6,3.4,1.4l-0.1-2.1v-4.7h3v18.6h-2.5l-0.2-1.4h-0.1c-0.9,0.9-2.3,1.7-3.7,1.7
				c-3.2,0-5.3-2.5-5.3-6.8C462.3,376.7,465,374.1,467.8,374.1z M468.4,385.2c1,0,1.8-0.4,2.7-1.5v-6c-0.9-0.8-1.8-1.1-2.6-1.1
				c-1.7,0-3,1.6-3,4.3C465.5,383.7,466.5,385.2,468.4,385.2z"/>
			<path fill="#2C3E50" d="M477.7,370.5c0-1,0.8-1.7,1.9-1.7c1.1,0,1.9,0.7,1.9,1.7c0,1-0.8,1.7-1.9,1.7
				C478.5,372.2,477.7,371.5,477.7,370.5z M478,374.4h3v12.9h-3V374.4z"/>
			<path fill="#2C3E50" d="M490.6,374.1c1.7,0,2.9,0.7,3.8,1.5l-1.5,1.9c-0.7-0.6-1.4-1-2.2-1c-2.1,0-3.5,1.7-3.5,4.3
				c0,2.6,1.4,4.3,3.5,4.3c1.1,0,2-0.5,2.7-1.1l1.3,1.9c-1.2,1.1-2.8,1.7-4.2,1.7c-3.5,0-6.2-2.5-6.2-6.8
				C484.1,376.6,487.1,374.1,490.6,374.1z"/>
			<path fill="#2C3E50" d="M496.8,370.5c0-1,0.8-1.7,1.9-1.7c1.1,0,1.9,0.7,1.9,1.7c0,1-0.8,1.7-1.9,1.7
				C497.6,372.2,496.8,371.5,496.8,370.5z M497.1,374.4h3v12.9h-3V374.4z"/>
			<path fill="#2C3E50" d="M504,374.4h2.5l0.2,1.7h0.1c1.2-1.1,2.5-2.1,4.2-2.1c2.8,0,4,1.9,4,5.1v8.1h-3v-7.7c0-2.1-0.6-2.9-2-2.9
				c-1.1,0-1.9,0.6-3,1.6v9h-3V374.4z"/>
			<path fill="#2C3E50" d="M523.9,374.1c3.5,0,5.4,2.5,5.4,6.1c0,0.6-0.1,1.1-0.1,1.4h-8.2c0.3,2.3,1.7,3.7,3.8,3.7
				c1.1,0,2.1-0.3,3-0.9l1,1.9c-1.2,0.8-2.8,1.4-4.4,1.4c-3.6,0-6.4-2.5-6.4-6.8C518,376.7,520.9,374.1,523.9,374.1z M526.6,379.8
				c0-2.1-0.9-3.3-2.6-3.3c-1.5,0-2.8,1.1-3.1,3.3H526.6z"/>
			<path fill="#80878D" d="M341.3,401.4c2,0,3.6,1,4.5,2.1l-0.7,0.8c-0.9-1.1-2.2-1.8-3.8-1.8c-3.8,0-6.2,3-6.2,7.9
				c0,4.8,2.3,7.9,6.1,7.9c1.8,0,3.1-0.7,4.4-2.1l0.7,0.8c-1.3,1.5-2.9,2.5-5.2,2.5c-4.3,0-7.3-3.5-7.3-9
				C333.8,404.8,336.9,401.4,341.3,401.4z"/>
			<path fill="#80878D" d="M349.6,400.1h1.2v5.5v2.8c1.3-1.3,2.6-2.3,4.4-2.3c2.6,0,3.8,1.6,3.8,4.9v8.1h-1.2v-8c0-2.7-0.8-4-2.9-4
				c-1.5,0-2.6,0.8-4.1,2.4v9.5h-1.2V400.1z"/>
			<path fill="#80878D" d="M363.1,402.3c0-0.7,0.5-1.1,1.1-1.1s1.1,0.4,1.1,1.1c0,0.6-0.5,1-1.1,1S363.1,402.9,363.1,402.3z
				 M363.6,406.4h1.2v12.7h-1.2V406.4z"/>
			<path fill="#80878D" d="M374.3,406.1c1.7,0,2.9,0.8,3.7,1.6l-0.7,0.8c-0.8-0.8-1.8-1.3-3-1.3c-2.6,0-4.6,2.3-4.6,5.6
				c0,3.3,1.8,5.6,4.6,5.6c1.3,0,2.5-0.7,3.4-1.5l0.6,0.8c-1.1,1-2.4,1.7-4,1.7c-3.3,0-5.8-2.4-5.8-6.6
				C368.5,408.5,371.2,406.1,374.3,406.1z"/>
			<path fill="#80878D" d="M388.6,411.1c0.1-1.9-0.5-4-3-4c-1.7,0-3.2,0.8-4,1.5l-0.5-0.9c0.9-0.6,2.6-1.6,4.7-1.6c3,0,4,2.2,4,4.9
				v8.1h-1l-0.1-1.6h-0.1c-1.3,1-2.8,2-4.5,2c-2,0-3.7-1.1-3.7-3.5C380.5,413.1,383,411.8,388.6,411.1z M384.3,418.4
				c1.5,0,2.7-0.7,4.3-2.1V412c-5.2,0.6-7,1.8-7,3.8C381.7,417.7,382.9,418.4,384.3,418.4z"/>
			<path fill="#80878D" d="M395.2,418.6v-0.1c-0.6-0.4-1.1-1.1-1.1-2c0-1.1,0.8-1.9,1.4-2.3V414c-0.8-0.7-1.6-2-1.6-3.5
				c0-2.6,2-4.5,4.5-4.5c0.7,0,1.3,0.2,1.7,0.3h4.3v1h-3c0.8,0.7,1.4,1.8,1.4,3.2c0,2.6-1.9,4.5-4.4,4.5c-0.7,0-1.5-0.2-2.1-0.5
				c-0.6,0.4-1,1-1,1.8c0,0.9,0.5,1.7,2.4,1.7h2.7c2.8,0,4.2,0.9,4.2,2.9c0,2.2-2.3,4.3-6,4.3c-3.2,0-5.2-1.4-5.2-3.5
				C393.3,420.5,394,419.4,395.2,418.6z M398.6,424.2c2.8,0,4.7-1.6,4.7-3.2c0-1.4-1-1.9-2.9-1.9h-2.7c-0.3,0-0.9-0.1-1.6-0.2
				c-1.2,0.8-1.7,1.8-1.7,2.7C394.4,423.1,395.9,424.2,398.6,424.2z M401.6,410.5c0-2.1-1.5-3.5-3.3-3.5c-1.8,0-3.3,1.3-3.3,3.5
				c0,2.1,1.5,3.6,3.3,3.6C400,414.1,401.6,412.7,401.6,410.5z"/>
			<path fill="#80878D" d="M411.5,406.1c3.1,0,5.7,2.4,5.7,6.7c0,4.2-2.6,6.6-5.7,6.6c-3,0-5.7-2.4-5.7-6.6
				C405.9,408.5,408.5,406.1,411.5,406.1z M411.5,418.3c2.6,0,4.5-2.3,4.5-5.6c0-3.3-1.9-5.6-4.5-5.6c-2.6,0-4.5,2.3-4.5,5.6
				C407.1,416.1,409,418.3,411.5,418.3z"/>
			<path fill="#80878D" d="M419.6,422.4c1.2-0.6,2-1.7,2-3.2c-0.1,0-0.2,0-0.3,0c-0.6,0-1.1-0.4-1.1-1.1c0-0.7,0.6-1.1,1.1-1.1
				c0.8,0,1.3,0.7,1.3,1.9c0,1.9-1.1,3.5-2.7,4.3L419.6,422.4z"/>
			<path fill="#80878D" d="M431.8,401.7h1.2v17.4h-1.2V401.7z"/>
			<path fill="#80878D" d="M438,401.7h1.2V418h8v1.1H438V401.7z"/>
			<path fill="#80878D" d="M455.4,399.3h0.9v26.4h-0.9V399.3z"/>
			<path fill="#80878D" d="M474,404.5c-1-1-1.8-1.6-3.4-1.6c-1.8,0-3.1,1.3-3.1,3c0,4.6,7.6,3.1,7.6,9.1c0,2.5-1.7,4.1-4.1,4.3v2.6
				h-1v-2.6c-1.8-0.1-3.4-1.1-4.4-2l0.6-0.8c1,0.9,2.4,1.8,4.2,1.8c2.2,0,3.4-1.3,3.4-3.2c0-5.2-7.6-3.7-7.6-9.1
				c0-2.2,1.6-3.8,3.7-4.1v-2.6h1v2.6c1.7,0.1,2.7,0.9,3.6,1.8L474,404.5z"/>
			<path fill="#80878D" d="M479,418h4v-14h-3v-0.8c1.4-0.2,2.5-0.6,3.2-1.1h0.9V418h3.7v1H479V418z"/>
			<path fill="#80878D" d="M490.7,410.6c0-5.6,1.8-8.7,5-8.7c3.2,0,5,3.1,5,8.7c0,5.6-1.8,8.8-5,8.8
				C492.5,419.4,490.7,416.2,490.7,410.6z M499.5,410.6c0-5.1-1.5-7.7-3.8-7.7c-2.3,0-3.8,2.5-3.8,7.7c0,5.1,1.5,7.8,3.8,7.8
				C498,418.4,499.5,415.7,499.5,410.6z"/>
			<path fill="#80878D" d="M503.3,410.6c0-5.6,1.8-8.7,5-8.7s5,3.1,5,8.7c0,5.6-1.8,8.8-5,8.8S503.3,416.2,503.3,410.6z
				 M512.2,410.6c0-5.1-1.5-7.7-3.8-7.7c-2.3,0-3.8,2.5-3.8,7.7c0,5.1,1.5,7.8,3.8,7.8C510.7,418.4,512.2,415.7,512.2,410.6z"/>
			<path fill="#80878D" d="M517.1,400.1h1.2v14h0.1l6.2-7.7h1.3l-4.1,5l4.8,7.6h-1.3l-4.2-6.8l-2.8,3.3v3.5h-1.2V400.1z"/>
			<path fill="#80878D" d="M533.2,412h5.8v1h-5.8V412z"/>
			<path fill="#80878D" d="M555.2,404.5c-1-1-1.8-1.6-3.4-1.6c-1.8,0-3.1,1.3-3.1,3c0,4.6,7.6,3.1,7.6,9.1c0,2.5-1.7,4.1-4.1,4.3
				v2.6h-1v-2.6c-1.8-0.1-3.4-1.1-4.4-2l0.6-0.8c1,0.9,2.4,1.8,4.2,1.8c2.2,0,3.4-1.3,3.4-3.2c0-5.2-7.6-3.7-7.6-9.1
				c0-2.2,1.6-3.8,3.7-4.1v-2.6h1v2.6c1.7,0.1,2.7,0.9,3.6,1.8L555.2,404.5z"/>
			<path fill="#80878D" d="M560.2,418h4v-14h-3v-0.8c1.4-0.2,2.5-0.6,3.2-1.1h0.9V418h3.7v1h-8.8V418z"/>
			<path fill="#80878D" d="M571.9,416.3c1,1,2.3,2.1,4.6,2.1c2.2,0,4.2-1.8,4.2-4.5c0-2.7-1.6-4.4-4.1-4.4c-1.3,0-2.1,0.4-3.1,1.1
				l-0.8-0.5l0.6-7.9h7.8v1h-6.7l-0.5,6.1c0.9-0.5,1.8-0.9,3-0.9c2.8,0,5.1,1.6,5.1,5.3c0,3.6-2.7,5.6-5.4,5.6
				c-2.7,0-4.2-1.2-5.3-2.3L571.9,416.3z"/>
			<path fill="#80878D" d="M584.5,410.6c0-5.6,1.8-8.7,5-8.7c3.2,0,5,3.1,5,8.7c0,5.6-1.8,8.8-5,8.8
				C586.3,419.4,584.5,416.2,584.5,410.6z M593.4,410.6c0-5.1-1.5-7.7-3.8-7.7c-2.3,0-3.8,2.5-3.8,7.7c0,5.1,1.5,7.8,3.8,7.8
				C591.9,418.4,593.4,415.7,593.4,410.6z"/>
			<path fill="#80878D" d="M598.3,400.1h1.2v14h0.1l6.2-7.7h1.3l-4.1,5l4.8,7.6h-1.3l-4.2-6.8l-2.8,3.3v3.5h-1.2V400.1z"/>
		</g>
		<g>
			<path fill="#EC7E25" d="M783,407c0-25.8,20.9-46.7,46.7-46.7c9.4,0,18.2,2.8,25.5,7.6c-4-17-19.2-29.8-37.5-29.8
				c-10.9,0-20.7,4.5-27.7,11.7c-7-7.2-16.8-11.7-27.7-11.7c-21.3,0-38.5,17.2-38.5,38.5c0,9.5,3.4,18.1,9.1,24.8l1.1,1.3
				c1,1.1,51.9,49.7,56,53.6c1.1-1.1,5.8-5.6,12-11.5C790.5,436.2,783,422.5,783,407z"/>
		</g>
		<g>
			<circle fill="#E6E8E9" cx="137.7" cy="397.2" r="65.4"/>
			<circle fill="none" stroke="#EC7E25" stroke-width="2" stroke-miterlimit="10" cx="137.7" cy="397.2" r="58.9"/>
			<g>
				<path id="path3334_2_" inkscape:connector-curvature="0" fill="#EC7E25" d="M105.5,409.6h11.3c0,0.8,0.8,1.7,1.7,1.7h48.9
					c0.8,0,1.7-0.8,1.7-1.7h1.7v3.3h-65.3L105.5,409.6z"/>
				<path id="path3336_2_" inkscape:connector-curvature="0" fill="#EC7E25" d="M105.5,401.3h11.3v6.6h-11.3V401.3z M169.1,401.3
					h1.7v6.6h-1.7V401.3z"/>
				<path id="path3338_2_" inkscape:connector-curvature="0" fill="#EC7E25" d="M100.8,385L100.8,385c1.7,0,3.3,1.4,3.3,3.3v32.6
					c0,1.7-1.4,3.3-3.3,3.3l0,0c-1.7,0-3.3-1.4-3.3-3.3v-32.6C97.4,386.6,98.8,385,100.8,385z"/>
				<path id="path3340_2_" inkscape:connector-curvature="0" fill="#EC7E25" d="M175.7,398.2L175.7,398.2c1.7,0,3.3,1.4,3.3,3.3
					v19.6c0,1.7-1.4,3.3-3.3,3.3l0,0c-1.7,0-3.3-1.4-3.3-3.3v-19.6C172.4,399.9,173.8,398.2,175.7,398.2z"/>
				<path id="path3342_2_" inkscape:connector-curvature="0" fill="#EC7E25" d="M120.1,398.2h45.6c0.8,0,1.7,0.8,1.7,1.7v8.3
					c0,0.8-0.8,1.7-1.7,1.7h-45.6c-0.8,0-1.7-0.8-1.7-1.7v-8.3C118.5,399.1,119.3,398.2,120.1,398.2z"/>
			</g>
			<g>
				<path fill="#EC7E25" d="M121.3,383c0,0,1.6,1.7,3.9,1.7c1.9,0,3.5-1.3,3.5-3c0-1.8-1.3-3-3.6-3c-1.8,0-2.8,0.8-2.8,0.8l-1.8-0.7
					l0.8-9h9.5v4.7h-2.8v-2.1h-4l-0.3,3.4c0,0.3-0.1,0.7-0.1,0.7h0c0,0,0.8-0.4,2.1-0.4c3.8,0,6.1,2.4,6.1,5.6c0,3.4-2.7,6-6.5,6
					c-3.7,0-5.6-2.2-5.6-2.2L121.3,383z"/>
				<path fill="#EC7E25" d="M134.4,378.5c0-5,1.6-9,6.4-9c4.8,0,6.3,4,6.3,9c0,5-1.6,9.1-6.3,9.1
					C135.9,387.6,134.4,383.5,134.4,378.5z M143.8,378.5c0-3.5-0.7-6.2-3.1-6.2c-2.4,0-3.1,2.7-3.1,6.2c0,3.5,0.7,6.3,3.1,6.3
					C143.1,384.7,143.8,382,143.8,378.5z"/>
				<path fill="#EC7E25" d="M149.9,377.3h5.3v-5.9h2.5v5.9h5.3v2.4h-5.3v5.8h-2.5v-5.8h-5.3V377.3z"/>
			</g>
		</g>
		<g>
			<polygon fill-rule="evenodd" clip-rule="evenodd" fill="#80878D" points="894.3,648.4 908.7,634.1 894.3,619.7 890.2,623.8 
				900.5,634.1 890.2,644.3 			"/>
			<g>
				<g>
					<path fill="#FFB404" d="M783,643.9c0-25.8,20.9-46.7,46.7-46.7c9.4,0,18.2,2.8,25.5,7.6c-4-17-19.2-29.8-37.5-29.8
						c-10.9,0-20.7,4.5-27.7,11.7c-7-7.2-16.8-11.7-27.7-11.7c-21.3,0-38.5,17.2-38.5,38.5c0,9.5,3.4,18.1,9.1,24.8l1.1,1.3
						c1,1.1,51.9,49.7,56,53.6c1.1-1.1,5.8-5.6,12-11.5C790.5,673.1,783,659.4,783,643.9z"/>
				</g>
				<g>
					<g>
						<g>
							<path fill="#80868D" d="M833.7,680.3c0,0,0.9-0.2,2.5-0.5c0.4-0.1,0.9-0.1,1.3-0.3c0.5-0.1,1-0.3,1.6-0.5
								c0.6-0.2,1.2-0.3,1.8-0.6c0.6-0.3,1.3-0.5,2-0.8c2.8-1.2,6.1-3,9.3-5.8c3.2-2.8,6.4-6.6,8.7-11.3c2.3-4.7,3.7-10.4,3.6-16.5
								c0-0.8-0.1-1.5-0.2-2.3c-0.1-0.8-0.1-1.5-0.2-2.3c-0.3-1.5-0.5-3.1-1-4.6c-0.8-3.1-2.2-6-3.9-8.8c-0.5-0.7-0.9-1.4-1.4-2.1
								c-0.5-0.7-1-1.3-1.5-2l-0.8-1l-0.9-0.9c-0.6-0.6-1.2-1.2-1.8-1.8c-2.5-2.3-5.4-4.2-8.5-5.7c-3.1-1.5-6.5-2.5-9.9-3.1
								c-3.5-0.5-7-0.5-10.5-0.1c-3.5,0.6-6.9,1.5-10.1,2.9c-3.1,1.5-6.1,3.4-8.7,5.7c-2.6,2.3-4.8,4.9-6.6,7.8
								c-0.5,0.7-0.8,1.5-1.3,2.2l-0.6,1.1l-0.5,1.2c-0.3,0.8-0.7,1.5-1,2.3c-0.3,0.8-0.5,1.6-0.8,2.4c-0.8,3.2-1.4,6.4-1.4,9.6
								c-0.1,1.6,0.1,3.1,0.2,4.7c0,0.8,0.3,1.5,0.4,2.3c0.2,0.7,0.2,1.5,0.5,2.2c1.5,5.8,4.4,10.9,7.9,14.9
								c3.5,3.9,7.6,6.7,11.4,8.6c3.9,1.9,7.6,2.7,10.6,3.1c0.8,0.1,1.5,0.2,2.2,0.3c0.7,0.1,1.3,0,1.9,0c0.6,0,1.1,0,1.7,0
								c0.5,0,1-0.1,1.4-0.1C832.9,680.4,833.7,680.3,833.7,680.3l1,7.1c0,0-1,0.1-3,0.3c-0.5,0-1,0.1-1.6,0.1c-0.6,0-1.3,0-2,0
								c-0.7,0-1.5,0-2.3-0.1c-0.8-0.1-1.7-0.2-2.6-0.3c-3.6-0.5-8.1-1.5-12.7-3.8c-4.6-2.2-9.5-5.6-13.7-10.3
								c-4.2-4.7-7.6-10.9-9.5-17.9c-0.3-0.9-0.4-1.8-0.6-2.7c-0.1-0.9-0.4-1.8-0.4-2.7c-0.1-1.9-0.4-3.7-0.3-5.6
								c-0.1-3.8,0.6-7.7,1.7-11.5c0.3-0.9,0.6-1.9,0.9-2.8c0.3-0.9,0.8-1.8,1.2-2.8l0.6-1.4c0.2-0.4,0.5-0.9,0.7-1.3
								c0.5-0.9,1-1.8,1.5-2.6c2.2-3.4,4.9-6.6,8-9.4c3.1-2.7,6.7-5,10.5-6.8c3.8-1.7,7.9-2.9,12.1-3.5c4.2-0.5,8.4-0.5,12.6,0.1
								c4.1,0.7,8.2,1.9,11.9,3.7c3.7,1.9,7.2,4.2,10.2,6.9c0.8,0.7,1.4,1.4,2.2,2.1c0.4,0.4,0.7,0.7,1.1,1.1l1,1.2
								c0.6,0.8,1.3,1.5,1.9,2.4c0.5,0.8,1.1,1.7,1.6,2.5c2,3.4,3.7,6.9,4.7,10.6c0.6,1.8,0.9,3.7,1.2,5.5c0.2,0.9,0.2,1.8,0.3,2.7
								c0.1,0.9,0.2,1.8,0.2,2.7c0.1,7.3-1.6,14.1-4.3,19.8c-2.8,5.7-6.6,10.2-10.4,13.6c-3.8,3.4-7.9,5.6-11.2,7
								c-0.9,0.3-1.7,0.7-2.4,1c-0.8,0.3-1.5,0.5-2.2,0.7c-0.7,0.2-1.3,0.4-1.9,0.6c-0.6,0.2-1.1,0.2-1.6,0.3c-1.9,0.4-3,0.6-3,0.6
								L833.7,680.3z"/>
							<path fill="#FFB400" d="M835.3,609.7c0,0-0.1,0-0.3-0.1c-0.2,0-0.6-0.1-1-0.1c-0.4-0.1-1-0.1-1.7-0.2c-0.3,0-0.7-0.1-1-0.1
								c-0.4,0-0.8,0-1.2,0c-3.3-0.1-8.3,0.2-13.7,2.3c-0.7,0.3-1.4,0.6-2.1,0.8c-0.7,0.3-1.4,0.7-2.1,1c-1.4,0.7-2.7,1.6-4.1,2.5
								c-2.7,2-5.3,4.4-7.5,7.2c-2.2,2.9-4,6.2-5.3,9.8c-1.4,3.6-2,7.4-2.1,11.3c-0.1,1.9,0.1,3.9,0.3,5.8c0.2,0.9,0.4,1.9,0.5,2.8
								c0.1,0.5,0.2,0.9,0.3,1.4l0.4,1.4c0.1,0.5,0.3,0.9,0.4,1.4l0.5,1.3c0.4,0.9,0.6,1.8,1.1,2.6c0.4,0.8,0.9,1.6,1.3,2.5
								c0.5,0.8,1,1.5,1.5,2.3c2.1,2.9,4.5,5.5,7.2,7.5c2.6,2,5.3,3.7,8,4.7c5.3,2.3,10.2,2.9,13.6,2.9c1.7,0.1,3-0.1,3.9-0.2
								c0.9-0.1,1.4-0.1,1.4-0.1l1,7.1c0,0-0.6,0.1-1.7,0.1c-1.1,0.1-2.7,0.3-4.7,0.2c-4,0-9.9-0.7-16.3-3.5
								c-3.2-1.3-6.5-3.3-9.6-5.7c-3.2-2.4-6-5.5-8.6-9.1c-0.6-0.9-1.2-1.8-1.8-2.7c-0.5-1-1-2-1.6-2.9c-0.6-1-0.9-2.1-1.4-3.1
								l-0.6-1.6c-0.2-0.5-0.3-1.1-0.5-1.6l-0.5-1.6c-0.2-0.5-0.3-1.1-0.4-1.7c-0.2-1.1-0.4-2.3-0.6-3.4c-0.2-2.3-0.5-4.6-0.4-6.9
								c0.1-4.6,0.9-9.3,2.5-13.6c1.6-4.3,3.8-8.2,6.4-11.7c2.7-3.4,5.8-6.3,9-8.7c1.7-1.1,3.2-2.2,4.9-3c0.8-0.4,1.6-0.9,2.5-1.2
								c0.8-0.3,1.7-0.7,2.5-1c6.5-2.5,12.4-2.9,16.5-2.7c0.5,0,1,0,1.4,0c0.5,0,0.9,0.1,1.3,0.1c0.8,0.1,1.4,0.2,2,0.2
								c0.5,0.1,1,0.1,1.2,0.2c0.3,0.1,0.4,0.1,0.4,0.1L835.3,609.7z"/>
						</g>
					</g>
				</g>
				<text transform="matrix(1 0 0 1 804.5847 651.7554)" fill="#2C3E50" font-family="'Museo-500'" font-size="25.6512">57%</text>
			</g>
		</g>
		<g>
			<path fill="#2C3E50" d="M334.7,607h3.1l5.4,9.7l1.8,3.7h0.1c-0.2-1.8-0.4-4-0.4-5.9V607h2.9v17.2h-3.1l-5.4-9.7l-1.8-3.7h-0.1
				c0.2,1.8,0.4,3.9,0.4,5.8v7.5h-2.9V607z"/>
			<path fill="#2C3E50" d="M356.8,611c3.5,0,5.4,2.5,5.4,6.1c0,0.6-0.1,1.1-0.1,1.4h-8.2c0.3,2.3,1.7,3.7,3.8,3.7
				c1.1,0,2.1-0.3,3-0.9l1,1.9c-1.2,0.8-2.8,1.4-4.4,1.4c-3.6,0-6.4-2.5-6.4-6.8C350.8,613.6,353.7,611,356.8,611z M359.5,616.6
				c0-2.1-0.9-3.3-2.6-3.3c-1.5,0-2.8,1.1-3.1,3.3H359.5z"/>
			<path fill="#2C3E50" d="M364.9,611.3h3v7.7c0,2.1,0.6,2.9,2,2.9c1.1,0,1.9-0.5,2.9-1.8v-8.9h3v12.9h-2.5l-0.2-1.9h-0.1
				c-1.1,1.3-2.4,2.2-4.2,2.2c-2.8,0-4-1.9-4-5.1V611.3z"/>
			<path fill="#2C3E50" d="M379.7,611.3h2.5l0.2,2.3h0.1c0.9-1.7,2.3-2.6,3.7-2.6c0.7,0,1.1,0.1,1.5,0.3l-0.5,2.6
				c-0.4-0.1-0.8-0.2-1.3-0.2c-1,0-2.3,0.7-3.1,2.7v7.9h-3V611.3z"/>
			<path fill="#2C3E50" d="M394.6,611c3.2,0,6.2,2.5,6.2,6.8c0,4.3-2.9,6.8-6.2,6.8c-3.2,0-6.1-2.5-6.1-6.8
				C388.4,613.4,391.4,611,394.6,611z M394.6,622.1c1.9,0,3.1-1.7,3.1-4.3c0-2.6-1.2-4.3-3.1-4.3c-1.9,0-3,1.7-3,4.3
				C391.6,620.4,392.7,622.1,394.6,622.1z"/>
			<path fill="#2C3E50" d="M403.8,605.6h3v15.5c0,0.7,0.3,1,0.7,1c0.1,0,0.2,0,0.5-0.1l0.4,2.3c-0.4,0.2-0.9,0.3-1.6,0.3
				c-2.2,0-3-1.4-3-3.6V605.6z"/>
			<path fill="#2C3E50" d="M416.2,611c3.2,0,6.2,2.5,6.2,6.8c0,4.3-2.9,6.8-6.2,6.8c-3.2,0-6.1-2.5-6.1-6.8
				C410.1,613.4,413,611,416.2,611z M416.2,622.1c1.9,0,3.1-1.7,3.1-4.3c0-2.6-1.2-4.3-3.1-4.3c-1.9,0-3,1.7-3,4.3
				C413.2,620.4,414.3,622.1,416.2,622.1z"/>
			<path fill="#2C3E50" d="M426.4,623.8v-0.1c-0.7-0.4-1.2-1.1-1.2-2.2c0-1,0.7-1.9,1.4-2.4V619c-0.9-0.7-1.7-1.9-1.7-3.4
				c0-3,2.4-4.6,5.1-4.6c0.7,0,1.4,0.1,1.9,0.3h4.6v2.2h-2.4c0.4,0.5,0.7,1.3,0.7,2.2c0,2.9-2.2,4.4-4.9,4.4c-0.6,0-1.2-0.1-1.8-0.3
				c-0.4,0.3-0.6,0.7-0.6,1.2c0,0.7,0.5,1.2,2.1,1.2h2.3c3.1,0,4.7,1,4.7,3.2c0,2.6-2.7,4.6-6.9,4.6c-3.1,0-5.4-1.1-5.4-3.4
				C424.5,625.5,425.2,624.6,426.4,623.8z M430.4,628c2.1,0,3.5-1,3.5-2.1c0-1-0.8-1.3-2.3-1.3h-1.8c-0.7,0-1.3-0.1-1.8-0.2
				c-0.7,0.5-1,1.1-1,1.7C427.1,627.3,428.3,628,430.4,628z M432.3,615.6c0-1.6-1-2.6-2.2-2.6c-1.3,0-2.3,0.9-2.3,2.6
				c0,1.7,1,2.6,2.3,2.6C431.3,618.2,432.3,617.3,432.3,615.6z"/>
			<path fill="#2C3E50" d="M439.6,627.1c1.4,0,2.2-0.9,2.6-2.2l0.2-0.8l-5.1-12.8h3.1l2.2,6.4c0.4,1.1,0.7,2.4,1.1,3.6h0.1
				c0.3-1.2,0.7-2.5,1-3.6l2-6.4h2.9l-4.7,13.5c-1.1,2.9-2.4,4.7-5.2,4.7c-0.7,0-1.2-0.1-1.7-0.3l0.6-2.4
				C438.9,627,439.3,627.1,439.6,627.1z"/>
			<path fill="#80878D" d="M341.3,638.2c2,0,3.6,1,4.5,2.1l-0.7,0.8c-0.9-1.1-2.2-1.8-3.8-1.8c-3.8,0-6.2,3-6.2,7.9s2.3,7.9,6.1,7.9
				c1.8,0,3.1-0.7,4.4-2.1l0.7,0.8c-1.3,1.5-2.9,2.5-5.2,2.5c-4.3,0-7.3-3.5-7.3-9C333.8,641.7,336.9,638.2,341.3,638.2z"/>
			<path fill="#80878D" d="M349.6,636.9h1.2v5.5v2.8c1.3-1.3,2.6-2.3,4.4-2.3c2.6,0,3.8,1.6,3.8,4.9v8.1h-1.2v-8c0-2.7-0.8-4-2.9-4
				c-1.5,0-2.6,0.8-4.1,2.4v9.5h-1.2V636.9z"/>
			<path fill="#80878D" d="M363.1,639.2c0-0.7,0.5-1.1,1.1-1.1s1.1,0.4,1.1,1.1c0,0.6-0.5,1-1.1,1S363.1,639.8,363.1,639.2z
				 M363.6,643.2h1.2v12.7h-1.2V643.2z"/>
			<path fill="#80878D" d="M374.3,642.9c1.7,0,2.9,0.8,3.7,1.6l-0.7,0.8c-0.8-0.8-1.8-1.3-3-1.3c-2.6,0-4.6,2.3-4.6,5.6
				c0,3.3,1.8,5.6,4.6,5.6c1.3,0,2.5-0.7,3.4-1.4l0.6,0.8c-1.1,1-2.4,1.7-4,1.7c-3.3,0-5.8-2.4-5.8-6.6
				C368.5,645.3,371.2,642.9,374.3,642.9z"/>
			<path fill="#80878D" d="M388.6,648c0.1-1.9-0.5-4-3-4c-1.7,0-3.2,0.8-4,1.5l-0.5-0.9c0.9-0.6,2.6-1.6,4.7-1.6c3,0,4,2.2,4,4.9
				v8.1h-1l-0.1-1.6h-0.1c-1.3,1-2.8,2-4.5,2c-2,0-3.7-1.1-3.7-3.5C380.5,649.9,383,648.6,388.6,648z M384.3,655.2
				c1.5,0,2.7-0.7,4.3-2.1v-4.3c-5.2,0.6-7,1.8-7,3.8C381.7,654.5,382.9,655.2,384.3,655.2z"/>
			<path fill="#80878D" d="M395.2,655.4v-0.1c-0.6-0.4-1.1-1.1-1.1-2c0-1.1,0.8-1.9,1.4-2.3v-0.1c-0.8-0.7-1.6-2-1.6-3.5
				c0-2.6,2-4.5,4.5-4.5c0.7,0,1.3,0.2,1.7,0.3h4.3v1h-3c0.8,0.7,1.4,1.8,1.4,3.2c0,2.6-1.9,4.5-4.4,4.5c-0.7,0-1.5-0.2-2.1-0.5
				c-0.6,0.4-1,1-1,1.8c0,0.9,0.5,1.7,2.4,1.7h2.7c2.8,0,4.2,0.9,4.2,2.9c0,2.2-2.3,4.3-6,4.3c-3.2,0-5.2-1.4-5.2-3.5
				C393.3,657.4,394,656.3,395.2,655.4z M398.6,661c2.8,0,4.7-1.6,4.7-3.2c0-1.4-1-1.9-2.9-1.9h-2.7c-0.3,0-0.9-0.1-1.6-0.2
				c-1.2,0.8-1.7,1.8-1.7,2.7C394.4,660,395.9,661,398.6,661z M401.6,647.4c0-2.1-1.5-3.5-3.3-3.5c-1.8,0-3.3,1.3-3.3,3.5
				c0,2.1,1.5,3.6,3.3,3.6C400,650.9,401.6,649.5,401.6,647.4z"/>
			<path fill="#80878D" d="M411.5,642.9c3.1,0,5.7,2.4,5.7,6.7c0,4.2-2.6,6.6-5.7,6.6c-3,0-5.7-2.4-5.7-6.6
				C405.9,645.3,408.5,642.9,411.5,642.9z M411.5,655.2c2.6,0,4.5-2.3,4.5-5.6c0-3.3-1.9-5.6-4.5-5.6c-2.6,0-4.5,2.3-4.5,5.6
				C407.1,652.9,409,655.2,411.5,655.2z"/>
			<path fill="#80878D" d="M419.6,659.2c1.2-0.6,2-1.7,2-3.2c-0.1,0-0.2,0-0.3,0c-0.6,0-1.1-0.4-1.1-1.1s0.6-1.1,1.1-1.1
				c0.8,0,1.3,0.7,1.3,1.9c0,1.9-1.1,3.5-2.7,4.3L419.6,659.2z"/>
			<path fill="#80878D" d="M431.8,638.5h1.2v17.4h-1.2V638.5z"/>
			<path fill="#80878D" d="M438,638.5h1.2v16.3h8v1.1H438V638.5z"/>
			<path fill="#80878D" d="M455.4,636.1h0.9v26.4h-0.9V636.1z"/>
			<path fill="#80878D" d="M474,641.3c-1-1-1.8-1.6-3.4-1.6c-1.8,0-3.1,1.3-3.1,3c0,4.6,7.6,3.1,7.6,9.1c0,2.5-1.7,4.1-4.1,4.3v2.6
				h-1v-2.6c-1.8-0.1-3.4-1.1-4.4-2l0.6-0.8c1,0.9,2.4,1.8,4.2,1.8c2.2,0,3.4-1.3,3.4-3.2c0-5.2-7.6-3.7-7.6-9.1
				c0-2.2,1.6-3.8,3.7-4.1v-2.6h1v2.6c1.7,0.1,2.7,0.9,3.6,1.8L474,641.3z"/>
			<path fill="#80878D" d="M479,654.9h4v-14h-3v-0.8c1.4-0.2,2.5-0.6,3.2-1.1h0.9v15.8h3.7v1H479V654.9z"/>
			<path fill="#80878D" d="M490.7,647.4c0-5.6,1.8-8.7,5-8.7c3.2,0,5,3.1,5,8.7c0,5.6-1.8,8.8-5,8.8
				C492.5,656.2,490.7,653,490.7,647.4z M499.5,647.4c0-5.1-1.5-7.7-3.8-7.7c-2.3,0-3.8,2.5-3.8,7.7c0,5.1,1.5,7.8,3.8,7.8
				C498,655.2,499.5,652.5,499.5,647.4z"/>
			<path fill="#80878D" d="M503.3,647.4c0-5.6,1.8-8.7,5-8.7s5,3.1,5,8.7c0,5.6-1.8,8.8-5,8.8S503.3,653,503.3,647.4z M512.2,647.4
				c0-5.1-1.5-7.7-3.8-7.7c-2.3,0-3.8,2.5-3.8,7.7c0,5.1,1.5,7.8,3.8,7.8C510.7,655.2,512.2,652.5,512.2,647.4z"/>
			<path fill="#80878D" d="M517.1,636.9h1.2v14h0.1l6.2-7.7h1.3l-4.1,5l4.8,7.6h-1.3l-4.2-6.8l-2.8,3.3v3.5h-1.2V636.9z"/>
			<path fill="#80878D" d="M533.2,648.8h5.8v1h-5.8V648.8z"/>
			<path fill="#80878D" d="M555.2,641.3c-1-1-1.8-1.6-3.4-1.6c-1.8,0-3.1,1.3-3.1,3c0,4.6,7.6,3.1,7.6,9.1c0,2.5-1.7,4.1-4.1,4.3
				v2.6h-1v-2.6c-1.8-0.1-3.4-1.1-4.4-2l0.6-0.8c1,0.9,2.4,1.8,4.2,1.8c2.2,0,3.4-1.3,3.4-3.2c0-5.2-7.6-3.7-7.6-9.1
				c0-2.2,1.6-3.8,3.7-4.1v-2.6h1v2.6c1.7,0.1,2.7,0.9,3.6,1.8L555.2,641.3z"/>
			<path fill="#80878D" d="M560.2,654.9h4v-14h-3v-0.8c1.4-0.2,2.5-0.6,3.2-1.1h0.9v15.8h3.7v1h-8.8V654.9z"/>
			<path fill="#80878D" d="M571.9,653.1c1,1,2.3,2.1,4.6,2.1c2.2,0,4.2-1.8,4.2-4.5c0-2.7-1.6-4.4-4.1-4.4c-1.3,0-2.1,0.4-3.1,1.1
				l-0.8-0.5l0.6-7.9h7.8v1h-6.7l-0.5,6.1c0.9-0.5,1.8-0.9,3-0.9c2.8,0,5.1,1.6,5.1,5.3c0,3.6-2.7,5.6-5.4,5.6
				c-2.7,0-4.2-1.2-5.3-2.3L571.9,653.1z"/>
			<path fill="#80878D" d="M584.5,647.4c0-5.6,1.8-8.7,5-8.7c3.2,0,5,3.1,5,8.7c0,5.6-1.8,8.8-5,8.8
				C586.3,656.2,584.5,653,584.5,647.4z M593.4,647.4c0-5.1-1.5-7.7-3.8-7.7c-2.3,0-3.8,2.5-3.8,7.7c0,5.1,1.5,7.8,3.8,7.8
				C591.9,655.2,593.4,652.5,593.4,647.4z"/>
			<path fill="#80878D" d="M598.3,636.9h1.2v14h0.1l6.2-7.7h1.3l-4.1,5l4.8,7.6h-1.3l-4.2-6.8l-2.8,3.3v3.5h-1.2V636.9z"/>
		</g>
		<g>
			<circle fill="#E6E8E9" cx="137.7" cy="634.1" r="65.4"/>
			<g>
				<g>
					<path fill="#FFB404" d="M128.5,609.7c0.3-0.7,0.6-1,0.6-1v-0.1c0,0-0.5,0.1-1.2,0.1h-5.3v2.2h-2.9V606h12.9v2.3l-8.1,16.1h-3.5
						L128.5,609.7z"/>
					<path fill="#FFB404" d="M135.8,620c0,0,1.6,1.8,4.1,1.8c2,0,3.6-1.3,3.6-3.2c0-1.9-1.4-3.2-3.8-3.2c-1.8,0-3,0.8-3,0.8
						l-1.9-0.7l0.9-9.5h10.1v4.9h-2.9v-2.2h-4.2l-0.4,3.6c0,0.4-0.1,0.7-0.1,0.7h0.1c0,0,0.8-0.4,2.2-0.4c4,0,6.5,2.6,6.5,5.9
						c0,3.5-2.8,6.3-6.9,6.3c-3.9,0-5.9-2.4-5.9-2.4L135.8,620z"/>
					<path fill="#FFB404" d="M149.2,614.1h5.6v-6.2h2.7v6.2h5.6v2.6h-5.6v6.1h-2.7v-6.1h-5.6V614.1z"/>
				</g>
				<circle fill="none" stroke="#FFB404" stroke-width="2" stroke-miterlimit="10" cx="137.7" cy="634.1" r="58.9"/>
				<g>
					<path id="path3334_1_" inkscape:connector-curvature="0" fill="#FFB404" d="M105.5,646.4h11.3c0,0.8,0.8,1.7,1.7,1.7h48.9
						c0.8,0,1.7-0.8,1.7-1.7h1.7v3.3h-65.3L105.5,646.4z"/>
					<path id="path3336_1_" inkscape:connector-curvature="0" fill="#FFB404" d="M105.5,638.1h11.3v6.6h-11.3V638.1z M169.1,638.1
						h1.7v6.6h-1.7V638.1z"/>
					<path id="path3338_1_" inkscape:connector-curvature="0" fill="#FFB404" d="M100.8,621.8L100.8,621.8c1.7,0,3.3,1.4,3.3,3.3
						v32.6c0,1.7-1.4,3.3-3.3,3.3l0,0c-1.7,0-3.3-1.4-3.3-3.3v-32.6C97.4,623.5,98.8,621.8,100.8,621.8z"/>
					<path id="path3340_1_" inkscape:connector-curvature="0" fill="#FFB404" d="M175.7,635.1L175.7,635.1c1.7,0,3.3,1.4,3.3,3.3
						V658c0,1.7-1.4,3.3-3.3,3.3l0,0c-1.7,0-3.3-1.4-3.3-3.3v-19.6C172.4,636.8,173.8,635.1,175.7,635.1z"/>
					<path id="path3342_1_" inkscape:connector-curvature="0" fill="#FFB404" d="M120.1,635.1h45.6c0.8,0,1.7,0.8,1.7,1.7v8.3
						c0,0.8-0.8,1.7-1.7,1.7h-45.6c-0.8,0-1.7-0.8-1.7-1.7v-8.3C118.5,635.9,119.3,635.1,120.1,635.1z"/>
				</g>
			</g>
		</g>
	</g>
</g>
</svg>
